%TF.GenerationSoftware,KiCad,Pcbnew,9.0.4*%
%TF.CreationDate,2025-09-21T18:36:08+05:30*%
%TF.ProjectId,l4_dev_board,6c345f64-6576-45f6-926f-6172642e6b69,rev?*%
%TF.SameCoordinates,Original*%
%TF.FileFunction,Soldermask,Top*%
%TF.FilePolarity,Negative*%
%FSLAX46Y46*%
G04 Gerber Fmt 4.6, Leading zero omitted, Abs format (unit mm)*
G04 Created by KiCad (PCBNEW 9.0.4) date 2025-09-21 18:36:08*
%MOMM*%
%LPD*%
G01*
G04 APERTURE LIST*
G04 Aperture macros list*
%AMRoundRect*
0 Rectangle with rounded corners*
0 $1 Rounding radius*
0 $2 $3 $4 $5 $6 $7 $8 $9 X,Y pos of 4 corners*
0 Add a 4 corners polygon primitive as box body*
4,1,4,$2,$3,$4,$5,$6,$7,$8,$9,$2,$3,0*
0 Add four circle primitives for the rounded corners*
1,1,$1+$1,$2,$3*
1,1,$1+$1,$4,$5*
1,1,$1+$1,$6,$7*
1,1,$1+$1,$8,$9*
0 Add four rect primitives between the rounded corners*
20,1,$1+$1,$2,$3,$4,$5,0*
20,1,$1+$1,$4,$5,$6,$7,0*
20,1,$1+$1,$6,$7,$8,$9,0*
20,1,$1+$1,$8,$9,$2,$3,0*%
G04 Aperture macros list end*
%ADD10RoundRect,0.237500X0.237500X-0.300000X0.237500X0.300000X-0.237500X0.300000X-0.237500X-0.300000X0*%
%ADD11RoundRect,0.237500X-0.300000X-0.237500X0.300000X-0.237500X0.300000X0.237500X-0.300000X0.237500X0*%
%ADD12RoundRect,0.150000X-0.512500X-0.150000X0.512500X-0.150000X0.512500X0.150000X-0.512500X0.150000X0*%
%ADD13R,2.600000X3.600000*%
%ADD14RoundRect,0.237500X-0.237500X0.300000X-0.237500X-0.300000X0.237500X-0.300000X0.237500X0.300000X0*%
%ADD15RoundRect,0.237500X0.237500X-0.250000X0.237500X0.250000X-0.237500X0.250000X-0.237500X-0.250000X0*%
%ADD16RoundRect,0.237500X-0.237500X0.250000X-0.237500X-0.250000X0.237500X-0.250000X0.237500X0.250000X0*%
%ADD17RoundRect,0.250000X0.550000X-0.550000X0.550000X0.550000X-0.550000X0.550000X-0.550000X-0.550000X0*%
%ADD18C,1.600000*%
%ADD19RoundRect,0.237500X-0.250000X-0.237500X0.250000X-0.237500X0.250000X0.237500X-0.250000X0.237500X0*%
%ADD20R,1.700000X1.700000*%
%ADD21C,1.700000*%
%ADD22C,1.000000*%
%ADD23RoundRect,0.250000X-1.000000X-2.750000X1.000000X-2.750000X1.000000X2.750000X-1.000000X2.750000X0*%
%ADD24RoundRect,0.237500X0.287500X0.237500X-0.287500X0.237500X-0.287500X-0.237500X0.287500X-0.237500X0*%
%ADD25RoundRect,0.250000X-0.550000X-0.550000X0.550000X-0.550000X0.550000X0.550000X-0.550000X0.550000X0*%
%ADD26C,1.500000*%
%ADD27RoundRect,0.075000X-0.662500X-0.075000X0.662500X-0.075000X0.662500X0.075000X-0.662500X0.075000X0*%
%ADD28RoundRect,0.075000X-0.075000X-0.662500X0.075000X-0.662500X0.075000X0.662500X-0.075000X0.662500X0*%
%ADD29RoundRect,0.200000X-0.200000X-0.800000X0.200000X-0.800000X0.200000X0.800000X-0.200000X0.800000X0*%
%ADD30RoundRect,0.200000X-0.800000X0.200000X-0.800000X-0.200000X0.800000X-0.200000X0.800000X0.200000X0*%
%ADD31RoundRect,0.237500X0.300000X0.237500X-0.300000X0.237500X-0.300000X-0.237500X0.300000X-0.237500X0*%
%ADD32RoundRect,0.250000X0.550000X0.550000X-0.550000X0.550000X-0.550000X-0.550000X0.550000X-0.550000X0*%
G04 APERTURE END LIST*
D10*
%TO.C,C2*%
X166963479Y-43247766D03*
X166963479Y-41522766D03*
%TD*%
D11*
%TO.C,C10*%
X152575353Y-36543220D03*
X154300353Y-36543220D03*
%TD*%
D12*
%TO.C,U3*%
X193386172Y-72866999D03*
X193386172Y-73816999D03*
X193386172Y-74766999D03*
X195661172Y-74766999D03*
X195661172Y-72866999D03*
%TD*%
D13*
%TO.C,BT1*%
X154689228Y-81527847D03*
X183989228Y-81527847D03*
%TD*%
D14*
%TO.C,C16*%
X198384673Y-72955286D03*
X198384673Y-74680286D03*
%TD*%
D15*
%TO.C,R91*%
X188858946Y-53363869D03*
X188858946Y-51538869D03*
%TD*%
D10*
%TO.C,C3*%
X191091438Y-55369383D03*
X191091438Y-53644383D03*
%TD*%
D14*
%TO.C,C12*%
X203280033Y-72721290D03*
X203280033Y-74446290D03*
%TD*%
D16*
%TO.C,R3*%
X156588296Y-41641858D03*
X156588296Y-43466858D03*
%TD*%
D17*
%TO.C,C11*%
X191872415Y-85433311D03*
D18*
X191872415Y-82933311D03*
%TD*%
D14*
%TO.C,C13*%
X212261135Y-72587207D03*
X212261135Y-74312207D03*
%TD*%
D19*
%TO.C,R4*%
X158216368Y-53670357D03*
X160041368Y-53670357D03*
%TD*%
D20*
%TO.C,J1*%
X185420000Y-33020000D03*
D21*
X187960000Y-33020000D03*
X190500000Y-33020000D03*
X193040000Y-33020000D03*
X195580000Y-33020000D03*
X198120000Y-33020000D03*
%TD*%
D19*
%TO.C,R26*%
X170877691Y-36329070D03*
X172702691Y-36329070D03*
%TD*%
%TO.C,R88*%
X169197637Y-43298110D03*
X171022637Y-43298110D03*
%TD*%
D22*
%TO.C,Y4*%
X187010000Y-55460000D03*
X188910000Y-55460000D03*
D23*
X187960000Y-60960000D03*
%TD*%
D24*
%TO.C,D1*%
X202590909Y-46785503D03*
X200840909Y-46785503D03*
%TD*%
D25*
%TO.C,C8*%
X202589374Y-37618139D03*
D18*
X205089374Y-37618139D03*
%TD*%
D26*
%TO.C,Y3*%
X162560000Y-48080000D03*
X162560000Y-43180000D03*
%TD*%
D27*
%TO.C,U1*%
X176177500Y-42970000D03*
X176177500Y-43470000D03*
X176177500Y-43970000D03*
X176177500Y-44470000D03*
X176177500Y-44970000D03*
X176177500Y-45470000D03*
X176177500Y-45970000D03*
X176177500Y-46470000D03*
X176177500Y-46970000D03*
X176177500Y-47470000D03*
X176177500Y-47970000D03*
X176177500Y-48470000D03*
D28*
X177590000Y-49882500D03*
X178090000Y-49882500D03*
X178590000Y-49882500D03*
X179090000Y-49882500D03*
X179590000Y-49882500D03*
X180090000Y-49882500D03*
X180590000Y-49882500D03*
X181090000Y-49882500D03*
X181590000Y-49882500D03*
X182090000Y-49882500D03*
X182590000Y-49882500D03*
X183090000Y-49882500D03*
D27*
X184502500Y-48470000D03*
X184502500Y-47970000D03*
X184502500Y-47470000D03*
X184502500Y-46970000D03*
X184502500Y-46470000D03*
X184502500Y-45970000D03*
X184502500Y-45470000D03*
X184502500Y-44970000D03*
X184502500Y-44470000D03*
X184502500Y-43970000D03*
X184502500Y-43470000D03*
X184502500Y-42970000D03*
D28*
X183090000Y-41557500D03*
X182590000Y-41557500D03*
X182090000Y-41557500D03*
X181590000Y-41557500D03*
X181090000Y-41557500D03*
X180590000Y-41557500D03*
X180090000Y-41557500D03*
X179590000Y-41557500D03*
X179090000Y-41557500D03*
X178590000Y-41557500D03*
X178090000Y-41557500D03*
X177590000Y-41557500D03*
%TD*%
D25*
%TO.C,C17*%
X199880677Y-84323293D03*
D18*
X202380677Y-84323293D03*
%TD*%
D20*
%TO.C,J2*%
X155135693Y-33478957D03*
D21*
X152595693Y-33478957D03*
%TD*%
D14*
%TO.C,C15*%
X190750133Y-73011660D03*
X190750133Y-74736660D03*
%TD*%
D19*
%TO.C,R90*%
X169267500Y-48098191D03*
X171092500Y-48098191D03*
%TD*%
D16*
%TO.C,R27*%
X181755320Y-33015447D03*
X181755320Y-34840447D03*
%TD*%
D20*
%TO.C,J11*%
X172720000Y-33020000D03*
D21*
X175260000Y-33020000D03*
X177800000Y-33020000D03*
%TD*%
D10*
%TO.C,C4*%
X184627717Y-55461942D03*
X184627717Y-53736942D03*
%TD*%
D29*
%TO.C,SW1*%
X158481523Y-57743775D03*
X162681523Y-57743775D03*
%TD*%
D20*
%TO.C,J5*%
X210820000Y-38100000D03*
D21*
X213360000Y-38100000D03*
X210820000Y-40640000D03*
X213360000Y-40640000D03*
X210820000Y-43180000D03*
X213360000Y-43180000D03*
X210820000Y-45720000D03*
X213360000Y-45720000D03*
X210820000Y-48260000D03*
X213360000Y-48260000D03*
X210820000Y-50800000D03*
X213360000Y-50800000D03*
X210820000Y-53340000D03*
X213360000Y-53340000D03*
X210820000Y-55880000D03*
X213360000Y-55880000D03*
X210820000Y-58420000D03*
X213360000Y-58420000D03*
X210820000Y-60960000D03*
X213360000Y-60960000D03*
%TD*%
D30*
%TO.C,SW2*%
X156613587Y-45322651D03*
X156613587Y-49522651D03*
%TD*%
D12*
%TO.C,U2*%
X206481532Y-72610746D03*
X206481532Y-73560746D03*
X206481532Y-74510746D03*
X208756532Y-74510746D03*
X208756532Y-72610746D03*
%TD*%
D14*
%TO.C,C7*%
X155982547Y-53717447D03*
X155982547Y-55442447D03*
%TD*%
D20*
%TO.C,J4*%
X170180000Y-53340000D03*
D21*
X170180000Y-55880000D03*
X170180000Y-58420000D03*
%TD*%
D14*
%TO.C,C1*%
X166977178Y-48166489D03*
X166977178Y-49891489D03*
%TD*%
D31*
%TO.C,C51*%
X173600066Y-38862756D03*
X171875066Y-38862756D03*
%TD*%
D15*
%TO.C,R89*%
X186957602Y-53378495D03*
X186957602Y-51553495D03*
%TD*%
D14*
%TO.C,C5*%
X159646559Y-33590979D03*
X159646559Y-35315979D03*
%TD*%
D19*
%TO.C,R1*%
X196427133Y-46813329D03*
X198252133Y-46813329D03*
%TD*%
D32*
%TO.C,C14*%
X212108582Y-84045297D03*
D18*
X209608582Y-84045297D03*
%TD*%
D24*
%TO.C,D2*%
X202627568Y-44478301D03*
X200877568Y-44478301D03*
%TD*%
D20*
%TO.C,J3*%
X157480000Y-68580000D03*
D21*
X157480000Y-66040000D03*
X160020000Y-68580000D03*
X160020000Y-66040000D03*
X162560000Y-68580000D03*
X162560000Y-66040000D03*
X165100000Y-68580000D03*
X165100000Y-66040000D03*
X167640000Y-68580000D03*
X167640000Y-66040000D03*
X170180000Y-68580000D03*
X170180000Y-66040000D03*
X172720000Y-68580000D03*
X172720000Y-66040000D03*
X175260000Y-68580000D03*
X175260000Y-66040000D03*
X177800000Y-68580000D03*
X177800000Y-66040000D03*
X180340000Y-68580000D03*
X180340000Y-66040000D03*
%TD*%
D12*
%TO.C,U4*%
X162771005Y-33633002D03*
X162771005Y-34583002D03*
X162771005Y-35533002D03*
X165046005Y-35533002D03*
X165046005Y-33633002D03*
%TD*%
D14*
%TO.C,C6*%
X168254733Y-33819580D03*
X168254733Y-35544580D03*
%TD*%
D19*
%TO.C,R2*%
X196427133Y-44506699D03*
X198252133Y-44506699D03*
%TD*%
M02*
