%TF.GenerationSoftware,KiCad,Pcbnew,9.0.4*%
%TF.CreationDate,2025-09-21T18:36:08+05:30*%
%TF.ProjectId,l4_dev_board,6c345f64-6576-45f6-926f-6172642e6b69,rev?*%
%TF.SameCoordinates,Original*%
%TF.FileFunction,Legend,Top*%
%TF.FilePolarity,Positive*%
%FSLAX46Y46*%
G04 Gerber Fmt 4.6, Leading zero omitted, Abs format (unit mm)*
G04 Created by KiCad (PCBNEW 9.0.4) date 2025-09-21 18:36:08*
%MOMM*%
%LPD*%
G01*
G04 APERTURE LIST*
%ADD10C,0.100000*%
%ADD11C,0.150000*%
%ADD12C,0.120000*%
G04 APERTURE END LIST*
D10*
X176006222Y-72027999D02*
X170344000Y-70433333D01*
X206879374Y-41908888D02*
X209440000Y-40961333D01*
X206770666Y-49665333D02*
X208504000Y-48486666D01*
X208092888Y-44751555D02*
X209440000Y-43780888D01*
X157572444Y-62067111D02*
X159883555Y-64660000D01*
X203837217Y-51024608D02*
X203980074Y-51072227D01*
X203980074Y-51072227D02*
X204027693Y-51119846D01*
X204027693Y-51119846D02*
X204075312Y-51215084D01*
X204075312Y-51215084D02*
X204075312Y-51357941D01*
X204075312Y-51357941D02*
X204027693Y-51453179D01*
X204027693Y-51453179D02*
X203980074Y-51500799D01*
X203980074Y-51500799D02*
X203884836Y-51548418D01*
X203884836Y-51548418D02*
X203503884Y-51548418D01*
X203503884Y-51548418D02*
X203503884Y-50548418D01*
X203503884Y-50548418D02*
X203837217Y-50548418D01*
X203837217Y-50548418D02*
X203932455Y-50596037D01*
X203932455Y-50596037D02*
X203980074Y-50643656D01*
X203980074Y-50643656D02*
X204027693Y-50738894D01*
X204027693Y-50738894D02*
X204027693Y-50834132D01*
X204027693Y-50834132D02*
X203980074Y-50929370D01*
X203980074Y-50929370D02*
X203932455Y-50976989D01*
X203932455Y-50976989D02*
X203837217Y-51024608D01*
X203837217Y-51024608D02*
X203503884Y-51024608D01*
X205027693Y-51548418D02*
X204456265Y-51548418D01*
X204741979Y-51548418D02*
X204741979Y-50548418D01*
X204741979Y-50548418D02*
X204646741Y-50691275D01*
X204646741Y-50691275D02*
X204551503Y-50786513D01*
X204551503Y-50786513D02*
X204456265Y-50834132D01*
X205361027Y-50548418D02*
X205980074Y-50548418D01*
X205980074Y-50548418D02*
X205646741Y-50929370D01*
X205646741Y-50929370D02*
X205789598Y-50929370D01*
X205789598Y-50929370D02*
X205884836Y-50976989D01*
X205884836Y-50976989D02*
X205932455Y-51024608D01*
X205932455Y-51024608D02*
X205980074Y-51119846D01*
X205980074Y-51119846D02*
X205980074Y-51357941D01*
X205980074Y-51357941D02*
X205932455Y-51453179D01*
X205932455Y-51453179D02*
X205884836Y-51500799D01*
X205884836Y-51500799D02*
X205789598Y-51548418D01*
X205789598Y-51548418D02*
X205503884Y-51548418D01*
X205503884Y-51548418D02*
X205408646Y-51500799D01*
X205408646Y-51500799D02*
X205361027Y-51453179D01*
X206646741Y-51881751D02*
X206646741Y-50453179D01*
X207313408Y-51262703D02*
X207789598Y-51262703D01*
X207218170Y-51548418D02*
X207551503Y-50548418D01*
X207551503Y-50548418D02*
X207884836Y-51548418D01*
X208361027Y-50976989D02*
X208265789Y-50929370D01*
X208265789Y-50929370D02*
X208218170Y-50881751D01*
X208218170Y-50881751D02*
X208170551Y-50786513D01*
X208170551Y-50786513D02*
X208170551Y-50738894D01*
X208170551Y-50738894D02*
X208218170Y-50643656D01*
X208218170Y-50643656D02*
X208265789Y-50596037D01*
X208265789Y-50596037D02*
X208361027Y-50548418D01*
X208361027Y-50548418D02*
X208551503Y-50548418D01*
X208551503Y-50548418D02*
X208646741Y-50596037D01*
X208646741Y-50596037D02*
X208694360Y-50643656D01*
X208694360Y-50643656D02*
X208741979Y-50738894D01*
X208741979Y-50738894D02*
X208741979Y-50786513D01*
X208741979Y-50786513D02*
X208694360Y-50881751D01*
X208694360Y-50881751D02*
X208646741Y-50929370D01*
X208646741Y-50929370D02*
X208551503Y-50976989D01*
X208551503Y-50976989D02*
X208361027Y-50976989D01*
X208361027Y-50976989D02*
X208265789Y-51024608D01*
X208265789Y-51024608D02*
X208218170Y-51072227D01*
X208218170Y-51072227D02*
X208170551Y-51167465D01*
X208170551Y-51167465D02*
X208170551Y-51357941D01*
X208170551Y-51357941D02*
X208218170Y-51453179D01*
X208218170Y-51453179D02*
X208265789Y-51500799D01*
X208265789Y-51500799D02*
X208361027Y-51548418D01*
X208361027Y-51548418D02*
X208551503Y-51548418D01*
X208551503Y-51548418D02*
X208646741Y-51500799D01*
X208646741Y-51500799D02*
X208694360Y-51453179D01*
X208694360Y-51453179D02*
X208741979Y-51357941D01*
X208741979Y-51357941D02*
X208741979Y-51167465D01*
X208741979Y-51167465D02*
X208694360Y-51072227D01*
X208694360Y-51072227D02*
X208646741Y-51024608D01*
X208646741Y-51024608D02*
X208551503Y-50976989D01*
X172749598Y-55605370D02*
X173225788Y-55605370D01*
X172654360Y-55891085D02*
X172987693Y-54891085D01*
X172987693Y-54891085D02*
X173321026Y-55891085D01*
X174178169Y-55891085D02*
X173606741Y-55891085D01*
X173892455Y-55891085D02*
X173892455Y-54891085D01*
X173892455Y-54891085D02*
X173797217Y-55033942D01*
X173797217Y-55033942D02*
X173701979Y-55129180D01*
X173701979Y-55129180D02*
X173606741Y-55176799D01*
X199491312Y-49161752D02*
X200110359Y-49161752D01*
X200110359Y-49161752D02*
X199777026Y-49542704D01*
X199777026Y-49542704D02*
X199919883Y-49542704D01*
X199919883Y-49542704D02*
X200015121Y-49590323D01*
X200015121Y-49590323D02*
X200062740Y-49637942D01*
X200062740Y-49637942D02*
X200110359Y-49733180D01*
X200110359Y-49733180D02*
X200110359Y-49971275D01*
X200110359Y-49971275D02*
X200062740Y-50066513D01*
X200062740Y-50066513D02*
X200015121Y-50114133D01*
X200015121Y-50114133D02*
X199919883Y-50161752D01*
X199919883Y-50161752D02*
X199634169Y-50161752D01*
X199634169Y-50161752D02*
X199538931Y-50114133D01*
X199538931Y-50114133D02*
X199491312Y-50066513D01*
X200538931Y-50066513D02*
X200586550Y-50114133D01*
X200586550Y-50114133D02*
X200538931Y-50161752D01*
X200538931Y-50161752D02*
X200491312Y-50114133D01*
X200491312Y-50114133D02*
X200538931Y-50066513D01*
X200538931Y-50066513D02*
X200538931Y-50161752D01*
X200919883Y-49161752D02*
X201538930Y-49161752D01*
X201538930Y-49161752D02*
X201205597Y-49542704D01*
X201205597Y-49542704D02*
X201348454Y-49542704D01*
X201348454Y-49542704D02*
X201443692Y-49590323D01*
X201443692Y-49590323D02*
X201491311Y-49637942D01*
X201491311Y-49637942D02*
X201538930Y-49733180D01*
X201538930Y-49733180D02*
X201538930Y-49971275D01*
X201538930Y-49971275D02*
X201491311Y-50066513D01*
X201491311Y-50066513D02*
X201443692Y-50114133D01*
X201443692Y-50114133D02*
X201348454Y-50161752D01*
X201348454Y-50161752D02*
X201062740Y-50161752D01*
X201062740Y-50161752D02*
X200967502Y-50114133D01*
X200967502Y-50114133D02*
X200919883Y-50066513D01*
X201824645Y-49161752D02*
X202157978Y-50161752D01*
X202157978Y-50161752D02*
X202491311Y-49161752D01*
X203062740Y-50495085D02*
X203062740Y-49066513D01*
X203681788Y-49161752D02*
X204300835Y-49161752D01*
X204300835Y-49161752D02*
X203967502Y-49542704D01*
X203967502Y-49542704D02*
X204110359Y-49542704D01*
X204110359Y-49542704D02*
X204205597Y-49590323D01*
X204205597Y-49590323D02*
X204253216Y-49637942D01*
X204253216Y-49637942D02*
X204300835Y-49733180D01*
X204300835Y-49733180D02*
X204300835Y-49971275D01*
X204300835Y-49971275D02*
X204253216Y-50066513D01*
X204253216Y-50066513D02*
X204205597Y-50114133D01*
X204205597Y-50114133D02*
X204110359Y-50161752D01*
X204110359Y-50161752D02*
X203824645Y-50161752D01*
X203824645Y-50161752D02*
X203729407Y-50114133D01*
X203729407Y-50114133D02*
X203681788Y-50066513D01*
X204729407Y-50066513D02*
X204777026Y-50114133D01*
X204777026Y-50114133D02*
X204729407Y-50161752D01*
X204729407Y-50161752D02*
X204681788Y-50114133D01*
X204681788Y-50114133D02*
X204729407Y-50066513D01*
X204729407Y-50066513D02*
X204729407Y-50161752D01*
X205110359Y-49161752D02*
X205729406Y-49161752D01*
X205729406Y-49161752D02*
X205396073Y-49542704D01*
X205396073Y-49542704D02*
X205538930Y-49542704D01*
X205538930Y-49542704D02*
X205634168Y-49590323D01*
X205634168Y-49590323D02*
X205681787Y-49637942D01*
X205681787Y-49637942D02*
X205729406Y-49733180D01*
X205729406Y-49733180D02*
X205729406Y-49971275D01*
X205729406Y-49971275D02*
X205681787Y-50066513D01*
X205681787Y-50066513D02*
X205634168Y-50114133D01*
X205634168Y-50114133D02*
X205538930Y-50161752D01*
X205538930Y-50161752D02*
X205253216Y-50161752D01*
X205253216Y-50161752D02*
X205157978Y-50114133D01*
X205157978Y-50114133D02*
X205110359Y-50066513D01*
X206015121Y-49161752D02*
X206348454Y-50161752D01*
X206348454Y-50161752D02*
X206681787Y-49161752D01*
X172112581Y-29998704D02*
X172017343Y-29951085D01*
X172017343Y-29951085D02*
X171874486Y-29951085D01*
X171874486Y-29951085D02*
X171731629Y-29998704D01*
X171731629Y-29998704D02*
X171636391Y-30093942D01*
X171636391Y-30093942D02*
X171588772Y-30189180D01*
X171588772Y-30189180D02*
X171541153Y-30379656D01*
X171541153Y-30379656D02*
X171541153Y-30522513D01*
X171541153Y-30522513D02*
X171588772Y-30712989D01*
X171588772Y-30712989D02*
X171636391Y-30808227D01*
X171636391Y-30808227D02*
X171731629Y-30903466D01*
X171731629Y-30903466D02*
X171874486Y-30951085D01*
X171874486Y-30951085D02*
X171969724Y-30951085D01*
X171969724Y-30951085D02*
X172112581Y-30903466D01*
X172112581Y-30903466D02*
X172160200Y-30855846D01*
X172160200Y-30855846D02*
X172160200Y-30522513D01*
X172160200Y-30522513D02*
X171969724Y-30522513D01*
X172826867Y-31284418D02*
X172826867Y-29855846D01*
X173874486Y-30427275D02*
X174017343Y-30474894D01*
X174017343Y-30474894D02*
X174064962Y-30522513D01*
X174064962Y-30522513D02*
X174112581Y-30617751D01*
X174112581Y-30617751D02*
X174112581Y-30760608D01*
X174112581Y-30760608D02*
X174064962Y-30855846D01*
X174064962Y-30855846D02*
X174017343Y-30903466D01*
X174017343Y-30903466D02*
X173922105Y-30951085D01*
X173922105Y-30951085D02*
X173541153Y-30951085D01*
X173541153Y-30951085D02*
X173541153Y-29951085D01*
X173541153Y-29951085D02*
X173874486Y-29951085D01*
X173874486Y-29951085D02*
X173969724Y-29998704D01*
X173969724Y-29998704D02*
X174017343Y-30046323D01*
X174017343Y-30046323D02*
X174064962Y-30141561D01*
X174064962Y-30141561D02*
X174064962Y-30236799D01*
X174064962Y-30236799D02*
X174017343Y-30332037D01*
X174017343Y-30332037D02*
X173969724Y-30379656D01*
X173969724Y-30379656D02*
X173874486Y-30427275D01*
X173874486Y-30427275D02*
X173541153Y-30427275D01*
X174731629Y-29951085D02*
X174922105Y-29951085D01*
X174922105Y-29951085D02*
X175017343Y-29998704D01*
X175017343Y-29998704D02*
X175112581Y-30093942D01*
X175112581Y-30093942D02*
X175160200Y-30284418D01*
X175160200Y-30284418D02*
X175160200Y-30617751D01*
X175160200Y-30617751D02*
X175112581Y-30808227D01*
X175112581Y-30808227D02*
X175017343Y-30903466D01*
X175017343Y-30903466D02*
X174922105Y-30951085D01*
X174922105Y-30951085D02*
X174731629Y-30951085D01*
X174731629Y-30951085D02*
X174636391Y-30903466D01*
X174636391Y-30903466D02*
X174541153Y-30808227D01*
X174541153Y-30808227D02*
X174493534Y-30617751D01*
X174493534Y-30617751D02*
X174493534Y-30284418D01*
X174493534Y-30284418D02*
X174541153Y-30093942D01*
X174541153Y-30093942D02*
X174636391Y-29998704D01*
X174636391Y-29998704D02*
X174731629Y-29951085D01*
X175779248Y-29951085D02*
X175969724Y-29951085D01*
X175969724Y-29951085D02*
X176064962Y-29998704D01*
X176064962Y-29998704D02*
X176160200Y-30093942D01*
X176160200Y-30093942D02*
X176207819Y-30284418D01*
X176207819Y-30284418D02*
X176207819Y-30617751D01*
X176207819Y-30617751D02*
X176160200Y-30808227D01*
X176160200Y-30808227D02*
X176064962Y-30903466D01*
X176064962Y-30903466D02*
X175969724Y-30951085D01*
X175969724Y-30951085D02*
X175779248Y-30951085D01*
X175779248Y-30951085D02*
X175684010Y-30903466D01*
X175684010Y-30903466D02*
X175588772Y-30808227D01*
X175588772Y-30808227D02*
X175541153Y-30617751D01*
X175541153Y-30617751D02*
X175541153Y-30284418D01*
X175541153Y-30284418D02*
X175588772Y-30093942D01*
X175588772Y-30093942D02*
X175684010Y-29998704D01*
X175684010Y-29998704D02*
X175779248Y-29951085D01*
X176493534Y-29951085D02*
X177064962Y-29951085D01*
X176779248Y-30951085D02*
X176779248Y-29951085D01*
X177636391Y-31284418D02*
X177636391Y-29855846D01*
X178207820Y-29951085D02*
X178541153Y-30951085D01*
X178541153Y-30951085D02*
X178874486Y-29951085D01*
X172673942Y-63463670D02*
X172721561Y-63320813D01*
X172721561Y-63320813D02*
X172769180Y-63273194D01*
X172769180Y-63273194D02*
X172864418Y-63225575D01*
X172864418Y-63225575D02*
X173007275Y-63225575D01*
X173007275Y-63225575D02*
X173102513Y-63273194D01*
X173102513Y-63273194D02*
X173150133Y-63320813D01*
X173150133Y-63320813D02*
X173197752Y-63416051D01*
X173197752Y-63416051D02*
X173197752Y-63797003D01*
X173197752Y-63797003D02*
X172197752Y-63797003D01*
X172197752Y-63797003D02*
X172197752Y-63463670D01*
X172197752Y-63463670D02*
X172245371Y-63368432D01*
X172245371Y-63368432D02*
X172292990Y-63320813D01*
X172292990Y-63320813D02*
X172388228Y-63273194D01*
X172388228Y-63273194D02*
X172483466Y-63273194D01*
X172483466Y-63273194D02*
X172578704Y-63320813D01*
X172578704Y-63320813D02*
X172626323Y-63368432D01*
X172626323Y-63368432D02*
X172673942Y-63463670D01*
X172673942Y-63463670D02*
X172673942Y-63797003D01*
X172197752Y-62368432D02*
X172197752Y-62558908D01*
X172197752Y-62558908D02*
X172245371Y-62654146D01*
X172245371Y-62654146D02*
X172292990Y-62701765D01*
X172292990Y-62701765D02*
X172435847Y-62797003D01*
X172435847Y-62797003D02*
X172626323Y-62844622D01*
X172626323Y-62844622D02*
X173007275Y-62844622D01*
X173007275Y-62844622D02*
X173102513Y-62797003D01*
X173102513Y-62797003D02*
X173150133Y-62749384D01*
X173150133Y-62749384D02*
X173197752Y-62654146D01*
X173197752Y-62654146D02*
X173197752Y-62463670D01*
X173197752Y-62463670D02*
X173150133Y-62368432D01*
X173150133Y-62368432D02*
X173102513Y-62320813D01*
X173102513Y-62320813D02*
X173007275Y-62273194D01*
X173007275Y-62273194D02*
X172769180Y-62273194D01*
X172769180Y-62273194D02*
X172673942Y-62320813D01*
X172673942Y-62320813D02*
X172626323Y-62368432D01*
X172626323Y-62368432D02*
X172578704Y-62463670D01*
X172578704Y-62463670D02*
X172578704Y-62654146D01*
X172578704Y-62654146D02*
X172626323Y-62749384D01*
X172626323Y-62749384D02*
X172673942Y-62797003D01*
X172673942Y-62797003D02*
X172769180Y-62844622D01*
X173531085Y-61606527D02*
X172102513Y-61606527D01*
X172673942Y-60558908D02*
X172721561Y-60416051D01*
X172721561Y-60416051D02*
X172769180Y-60368432D01*
X172769180Y-60368432D02*
X172864418Y-60320813D01*
X172864418Y-60320813D02*
X173007275Y-60320813D01*
X173007275Y-60320813D02*
X173102513Y-60368432D01*
X173102513Y-60368432D02*
X173150133Y-60416051D01*
X173150133Y-60416051D02*
X173197752Y-60511289D01*
X173197752Y-60511289D02*
X173197752Y-60892241D01*
X173197752Y-60892241D02*
X172197752Y-60892241D01*
X172197752Y-60892241D02*
X172197752Y-60558908D01*
X172197752Y-60558908D02*
X172245371Y-60463670D01*
X172245371Y-60463670D02*
X172292990Y-60416051D01*
X172292990Y-60416051D02*
X172388228Y-60368432D01*
X172388228Y-60368432D02*
X172483466Y-60368432D01*
X172483466Y-60368432D02*
X172578704Y-60416051D01*
X172578704Y-60416051D02*
X172626323Y-60463670D01*
X172626323Y-60463670D02*
X172673942Y-60558908D01*
X172673942Y-60558908D02*
X172673942Y-60892241D01*
X172197752Y-59987479D02*
X172197752Y-59320813D01*
X172197752Y-59320813D02*
X173197752Y-59749384D01*
X163007402Y-72302534D02*
X163055022Y-72350153D01*
X163055022Y-72350153D02*
X163102641Y-72493010D01*
X163102641Y-72493010D02*
X163102641Y-72588248D01*
X163102641Y-72588248D02*
X163055022Y-72731105D01*
X163055022Y-72731105D02*
X162959783Y-72826343D01*
X162959783Y-72826343D02*
X162864545Y-72873962D01*
X162864545Y-72873962D02*
X162674069Y-72921581D01*
X162674069Y-72921581D02*
X162531212Y-72921581D01*
X162531212Y-72921581D02*
X162340736Y-72873962D01*
X162340736Y-72873962D02*
X162245498Y-72826343D01*
X162245498Y-72826343D02*
X162150260Y-72731105D01*
X162150260Y-72731105D02*
X162102641Y-72588248D01*
X162102641Y-72588248D02*
X162102641Y-72493010D01*
X162102641Y-72493010D02*
X162150260Y-72350153D01*
X162150260Y-72350153D02*
X162197879Y-72302534D01*
X163102641Y-71350153D02*
X163102641Y-71921581D01*
X163102641Y-71635867D02*
X162102641Y-71635867D01*
X162102641Y-71635867D02*
X162245498Y-71731105D01*
X162245498Y-71731105D02*
X162340736Y-71826343D01*
X162340736Y-71826343D02*
X162388355Y-71921581D01*
X162102641Y-70445391D02*
X162102641Y-70921581D01*
X162102641Y-70921581D02*
X162578831Y-70969200D01*
X162578831Y-70969200D02*
X162531212Y-70921581D01*
X162531212Y-70921581D02*
X162483593Y-70826343D01*
X162483593Y-70826343D02*
X162483593Y-70588248D01*
X162483593Y-70588248D02*
X162531212Y-70493010D01*
X162531212Y-70493010D02*
X162578831Y-70445391D01*
X162578831Y-70445391D02*
X162674069Y-70397772D01*
X162674069Y-70397772D02*
X162912164Y-70397772D01*
X162912164Y-70397772D02*
X163007402Y-70445391D01*
X163007402Y-70445391D02*
X163055022Y-70493010D01*
X163055022Y-70493010D02*
X163102641Y-70588248D01*
X163102641Y-70588248D02*
X163102641Y-70826343D01*
X163102641Y-70826343D02*
X163055022Y-70921581D01*
X163055022Y-70921581D02*
X163007402Y-70969200D01*
X165001053Y-63348115D02*
X165048672Y-63205258D01*
X165048672Y-63205258D02*
X165096291Y-63157639D01*
X165096291Y-63157639D02*
X165191529Y-63110020D01*
X165191529Y-63110020D02*
X165334386Y-63110020D01*
X165334386Y-63110020D02*
X165429624Y-63157639D01*
X165429624Y-63157639D02*
X165477244Y-63205258D01*
X165477244Y-63205258D02*
X165524863Y-63300496D01*
X165524863Y-63300496D02*
X165524863Y-63681448D01*
X165524863Y-63681448D02*
X164524863Y-63681448D01*
X164524863Y-63681448D02*
X164524863Y-63348115D01*
X164524863Y-63348115D02*
X164572482Y-63252877D01*
X164572482Y-63252877D02*
X164620101Y-63205258D01*
X164620101Y-63205258D02*
X164715339Y-63157639D01*
X164715339Y-63157639D02*
X164810577Y-63157639D01*
X164810577Y-63157639D02*
X164905815Y-63205258D01*
X164905815Y-63205258D02*
X164953434Y-63252877D01*
X164953434Y-63252877D02*
X165001053Y-63348115D01*
X165001053Y-63348115D02*
X165001053Y-63681448D01*
X165524863Y-62157639D02*
X165524863Y-62729067D01*
X165524863Y-62443353D02*
X164524863Y-62443353D01*
X164524863Y-62443353D02*
X164667720Y-62538591D01*
X164667720Y-62538591D02*
X164762958Y-62633829D01*
X164762958Y-62633829D02*
X164810577Y-62729067D01*
X165858196Y-61490972D02*
X164429624Y-61490972D01*
X165001053Y-60443353D02*
X165048672Y-60300496D01*
X165048672Y-60300496D02*
X165096291Y-60252877D01*
X165096291Y-60252877D02*
X165191529Y-60205258D01*
X165191529Y-60205258D02*
X165334386Y-60205258D01*
X165334386Y-60205258D02*
X165429624Y-60252877D01*
X165429624Y-60252877D02*
X165477244Y-60300496D01*
X165477244Y-60300496D02*
X165524863Y-60395734D01*
X165524863Y-60395734D02*
X165524863Y-60776686D01*
X165524863Y-60776686D02*
X164524863Y-60776686D01*
X164524863Y-60776686D02*
X164524863Y-60443353D01*
X164524863Y-60443353D02*
X164572482Y-60348115D01*
X164572482Y-60348115D02*
X164620101Y-60300496D01*
X164620101Y-60300496D02*
X164715339Y-60252877D01*
X164715339Y-60252877D02*
X164810577Y-60252877D01*
X164810577Y-60252877D02*
X164905815Y-60300496D01*
X164905815Y-60300496D02*
X164953434Y-60348115D01*
X164953434Y-60348115D02*
X165001053Y-60443353D01*
X165001053Y-60443353D02*
X165001053Y-60776686D01*
X164620101Y-59824305D02*
X164572482Y-59776686D01*
X164572482Y-59776686D02*
X164524863Y-59681448D01*
X164524863Y-59681448D02*
X164524863Y-59443353D01*
X164524863Y-59443353D02*
X164572482Y-59348115D01*
X164572482Y-59348115D02*
X164620101Y-59300496D01*
X164620101Y-59300496D02*
X164715339Y-59252877D01*
X164715339Y-59252877D02*
X164810577Y-59252877D01*
X164810577Y-59252877D02*
X164953434Y-59300496D01*
X164953434Y-59300496D02*
X165524863Y-59871924D01*
X165524863Y-59871924D02*
X165524863Y-59252877D01*
X172749598Y-57997370D02*
X173225788Y-57997370D01*
X172654360Y-58283085D02*
X172987693Y-57283085D01*
X172987693Y-57283085D02*
X173321026Y-58283085D01*
X173606741Y-57378323D02*
X173654360Y-57330704D01*
X173654360Y-57330704D02*
X173749598Y-57283085D01*
X173749598Y-57283085D02*
X173987693Y-57283085D01*
X173987693Y-57283085D02*
X174082931Y-57330704D01*
X174082931Y-57330704D02*
X174130550Y-57378323D01*
X174130550Y-57378323D02*
X174178169Y-57473561D01*
X174178169Y-57473561D02*
X174178169Y-57568799D01*
X174178169Y-57568799D02*
X174130550Y-57711656D01*
X174130550Y-57711656D02*
X173559122Y-58283085D01*
X173559122Y-58283085D02*
X174178169Y-58283085D01*
X202548581Y-60682260D02*
X202453343Y-60634641D01*
X202453343Y-60634641D02*
X202310486Y-60634641D01*
X202310486Y-60634641D02*
X202167629Y-60682260D01*
X202167629Y-60682260D02*
X202072391Y-60777498D01*
X202072391Y-60777498D02*
X202024772Y-60872736D01*
X202024772Y-60872736D02*
X201977153Y-61063212D01*
X201977153Y-61063212D02*
X201977153Y-61206069D01*
X201977153Y-61206069D02*
X202024772Y-61396545D01*
X202024772Y-61396545D02*
X202072391Y-61491783D01*
X202072391Y-61491783D02*
X202167629Y-61587022D01*
X202167629Y-61587022D02*
X202310486Y-61634641D01*
X202310486Y-61634641D02*
X202405724Y-61634641D01*
X202405724Y-61634641D02*
X202548581Y-61587022D01*
X202548581Y-61587022D02*
X202596200Y-61539402D01*
X202596200Y-61539402D02*
X202596200Y-61206069D01*
X202596200Y-61206069D02*
X202405724Y-61206069D01*
X203024772Y-61634641D02*
X203024772Y-60634641D01*
X203024772Y-60634641D02*
X203596200Y-61634641D01*
X203596200Y-61634641D02*
X203596200Y-60634641D01*
X204072391Y-61634641D02*
X204072391Y-60634641D01*
X204072391Y-60634641D02*
X204310486Y-60634641D01*
X204310486Y-60634641D02*
X204453343Y-60682260D01*
X204453343Y-60682260D02*
X204548581Y-60777498D01*
X204548581Y-60777498D02*
X204596200Y-60872736D01*
X204596200Y-60872736D02*
X204643819Y-61063212D01*
X204643819Y-61063212D02*
X204643819Y-61206069D01*
X204643819Y-61206069D02*
X204596200Y-61396545D01*
X204596200Y-61396545D02*
X204548581Y-61491783D01*
X204548581Y-61491783D02*
X204453343Y-61587022D01*
X204453343Y-61587022D02*
X204310486Y-61634641D01*
X204310486Y-61634641D02*
X204072391Y-61634641D01*
X205310486Y-61967974D02*
X205310486Y-60539402D01*
X206548581Y-60682260D02*
X206453343Y-60634641D01*
X206453343Y-60634641D02*
X206310486Y-60634641D01*
X206310486Y-60634641D02*
X206167629Y-60682260D01*
X206167629Y-60682260D02*
X206072391Y-60777498D01*
X206072391Y-60777498D02*
X206024772Y-60872736D01*
X206024772Y-60872736D02*
X205977153Y-61063212D01*
X205977153Y-61063212D02*
X205977153Y-61206069D01*
X205977153Y-61206069D02*
X206024772Y-61396545D01*
X206024772Y-61396545D02*
X206072391Y-61491783D01*
X206072391Y-61491783D02*
X206167629Y-61587022D01*
X206167629Y-61587022D02*
X206310486Y-61634641D01*
X206310486Y-61634641D02*
X206405724Y-61634641D01*
X206405724Y-61634641D02*
X206548581Y-61587022D01*
X206548581Y-61587022D02*
X206596200Y-61539402D01*
X206596200Y-61539402D02*
X206596200Y-61206069D01*
X206596200Y-61206069D02*
X206405724Y-61206069D01*
X207024772Y-61634641D02*
X207024772Y-60634641D01*
X207024772Y-60634641D02*
X207596200Y-61634641D01*
X207596200Y-61634641D02*
X207596200Y-60634641D01*
X208072391Y-61634641D02*
X208072391Y-60634641D01*
X208072391Y-60634641D02*
X208310486Y-60634641D01*
X208310486Y-60634641D02*
X208453343Y-60682260D01*
X208453343Y-60682260D02*
X208548581Y-60777498D01*
X208548581Y-60777498D02*
X208596200Y-60872736D01*
X208596200Y-60872736D02*
X208643819Y-61063212D01*
X208643819Y-61063212D02*
X208643819Y-61206069D01*
X208643819Y-61206069D02*
X208596200Y-61396545D01*
X208596200Y-61396545D02*
X208548581Y-61491783D01*
X208548581Y-61491783D02*
X208453343Y-61587022D01*
X208453343Y-61587022D02*
X208310486Y-61634641D01*
X208310486Y-61634641D02*
X208072391Y-61634641D01*
X157257180Y-62624687D02*
X157304800Y-62672306D01*
X157304800Y-62672306D02*
X157352419Y-62815163D01*
X157352419Y-62815163D02*
X157352419Y-62910401D01*
X157352419Y-62910401D02*
X157304800Y-63053258D01*
X157304800Y-63053258D02*
X157209561Y-63148496D01*
X157209561Y-63148496D02*
X157114323Y-63196115D01*
X157114323Y-63196115D02*
X156923847Y-63243734D01*
X156923847Y-63243734D02*
X156780990Y-63243734D01*
X156780990Y-63243734D02*
X156590514Y-63196115D01*
X156590514Y-63196115D02*
X156495276Y-63148496D01*
X156495276Y-63148496D02*
X156400038Y-63053258D01*
X156400038Y-63053258D02*
X156352419Y-62910401D01*
X156352419Y-62910401D02*
X156352419Y-62815163D01*
X156352419Y-62815163D02*
X156400038Y-62672306D01*
X156400038Y-62672306D02*
X156447657Y-62624687D01*
X157352419Y-61672306D02*
X157352419Y-62243734D01*
X157352419Y-61958020D02*
X156352419Y-61958020D01*
X156352419Y-61958020D02*
X156495276Y-62053258D01*
X156495276Y-62053258D02*
X156590514Y-62148496D01*
X156590514Y-62148496D02*
X156638133Y-62243734D01*
X156352419Y-61338972D02*
X156352419Y-60719925D01*
X156352419Y-60719925D02*
X156733371Y-61053258D01*
X156733371Y-61053258D02*
X156733371Y-60910401D01*
X156733371Y-60910401D02*
X156780990Y-60815163D01*
X156780990Y-60815163D02*
X156828609Y-60767544D01*
X156828609Y-60767544D02*
X156923847Y-60719925D01*
X156923847Y-60719925D02*
X157161942Y-60719925D01*
X157161942Y-60719925D02*
X157257180Y-60767544D01*
X157257180Y-60767544D02*
X157304800Y-60815163D01*
X157304800Y-60815163D02*
X157352419Y-60910401D01*
X157352419Y-60910401D02*
X157352419Y-61196115D01*
X157352419Y-61196115D02*
X157304800Y-61291353D01*
X157304800Y-61291353D02*
X157257180Y-61338972D01*
X157685752Y-60053258D02*
X156257180Y-60053258D01*
X157257180Y-58767544D02*
X157304800Y-58815163D01*
X157304800Y-58815163D02*
X157352419Y-58958020D01*
X157352419Y-58958020D02*
X157352419Y-59053258D01*
X157352419Y-59053258D02*
X157304800Y-59196115D01*
X157304800Y-59196115D02*
X157209561Y-59291353D01*
X157209561Y-59291353D02*
X157114323Y-59338972D01*
X157114323Y-59338972D02*
X156923847Y-59386591D01*
X156923847Y-59386591D02*
X156780990Y-59386591D01*
X156780990Y-59386591D02*
X156590514Y-59338972D01*
X156590514Y-59338972D02*
X156495276Y-59291353D01*
X156495276Y-59291353D02*
X156400038Y-59196115D01*
X156400038Y-59196115D02*
X156352419Y-59053258D01*
X156352419Y-59053258D02*
X156352419Y-58958020D01*
X156352419Y-58958020D02*
X156400038Y-58815163D01*
X156400038Y-58815163D02*
X156447657Y-58767544D01*
X157352419Y-57815163D02*
X157352419Y-58386591D01*
X157352419Y-58100877D02*
X156352419Y-58100877D01*
X156352419Y-58100877D02*
X156495276Y-58196115D01*
X156495276Y-58196115D02*
X156590514Y-58291353D01*
X156590514Y-58291353D02*
X156638133Y-58386591D01*
X156685752Y-56958020D02*
X157352419Y-56958020D01*
X156304800Y-57196115D02*
X157019085Y-57434210D01*
X157019085Y-57434210D02*
X157019085Y-56815163D01*
X203698931Y-53689370D02*
X204175121Y-53689370D01*
X203603693Y-53975085D02*
X203937026Y-52975085D01*
X203937026Y-52975085D02*
X204270359Y-53975085D01*
X204508455Y-52975085D02*
X205175121Y-52975085D01*
X205175121Y-52975085D02*
X204746550Y-53975085D01*
X205794169Y-54308418D02*
X205794169Y-52879846D01*
X206460836Y-53689370D02*
X206937026Y-53689370D01*
X206365598Y-53975085D02*
X206698931Y-52975085D01*
X206698931Y-52975085D02*
X207032264Y-53975085D01*
X207794169Y-52975085D02*
X207603693Y-52975085D01*
X207603693Y-52975085D02*
X207508455Y-53022704D01*
X207508455Y-53022704D02*
X207460836Y-53070323D01*
X207460836Y-53070323D02*
X207365598Y-53213180D01*
X207365598Y-53213180D02*
X207317979Y-53403656D01*
X207317979Y-53403656D02*
X207317979Y-53784608D01*
X207317979Y-53784608D02*
X207365598Y-53879846D01*
X207365598Y-53879846D02*
X207413217Y-53927466D01*
X207413217Y-53927466D02*
X207508455Y-53975085D01*
X207508455Y-53975085D02*
X207698931Y-53975085D01*
X207698931Y-53975085D02*
X207794169Y-53927466D01*
X207794169Y-53927466D02*
X207841788Y-53879846D01*
X207841788Y-53879846D02*
X207889407Y-53784608D01*
X207889407Y-53784608D02*
X207889407Y-53546513D01*
X207889407Y-53546513D02*
X207841788Y-53451275D01*
X207841788Y-53451275D02*
X207794169Y-53403656D01*
X207794169Y-53403656D02*
X207698931Y-53356037D01*
X207698931Y-53356037D02*
X207508455Y-53356037D01*
X207508455Y-53356037D02*
X207413217Y-53403656D01*
X207413217Y-53403656D02*
X207365598Y-53451275D01*
X207365598Y-53451275D02*
X207317979Y-53546513D01*
X167635720Y-63394337D02*
X167683339Y-63251480D01*
X167683339Y-63251480D02*
X167730958Y-63203861D01*
X167730958Y-63203861D02*
X167826196Y-63156242D01*
X167826196Y-63156242D02*
X167969053Y-63156242D01*
X167969053Y-63156242D02*
X168064291Y-63203861D01*
X168064291Y-63203861D02*
X168111911Y-63251480D01*
X168111911Y-63251480D02*
X168159530Y-63346718D01*
X168159530Y-63346718D02*
X168159530Y-63727670D01*
X168159530Y-63727670D02*
X167159530Y-63727670D01*
X167159530Y-63727670D02*
X167159530Y-63394337D01*
X167159530Y-63394337D02*
X167207149Y-63299099D01*
X167207149Y-63299099D02*
X167254768Y-63251480D01*
X167254768Y-63251480D02*
X167350006Y-63203861D01*
X167350006Y-63203861D02*
X167445244Y-63203861D01*
X167445244Y-63203861D02*
X167540482Y-63251480D01*
X167540482Y-63251480D02*
X167588101Y-63299099D01*
X167588101Y-63299099D02*
X167635720Y-63394337D01*
X167635720Y-63394337D02*
X167635720Y-63727670D01*
X167159530Y-62822908D02*
X167159530Y-62203861D01*
X167159530Y-62203861D02*
X167540482Y-62537194D01*
X167540482Y-62537194D02*
X167540482Y-62394337D01*
X167540482Y-62394337D02*
X167588101Y-62299099D01*
X167588101Y-62299099D02*
X167635720Y-62251480D01*
X167635720Y-62251480D02*
X167730958Y-62203861D01*
X167730958Y-62203861D02*
X167969053Y-62203861D01*
X167969053Y-62203861D02*
X168064291Y-62251480D01*
X168064291Y-62251480D02*
X168111911Y-62299099D01*
X168111911Y-62299099D02*
X168159530Y-62394337D01*
X168159530Y-62394337D02*
X168159530Y-62680051D01*
X168159530Y-62680051D02*
X168111911Y-62775289D01*
X168111911Y-62775289D02*
X168064291Y-62822908D01*
X168492863Y-61537194D02*
X167064291Y-61537194D01*
X167159530Y-60918146D02*
X167159530Y-60299099D01*
X167159530Y-60299099D02*
X167540482Y-60632432D01*
X167540482Y-60632432D02*
X167540482Y-60489575D01*
X167540482Y-60489575D02*
X167588101Y-60394337D01*
X167588101Y-60394337D02*
X167635720Y-60346718D01*
X167635720Y-60346718D02*
X167730958Y-60299099D01*
X167730958Y-60299099D02*
X167969053Y-60299099D01*
X167969053Y-60299099D02*
X168064291Y-60346718D01*
X168064291Y-60346718D02*
X168111911Y-60394337D01*
X168111911Y-60394337D02*
X168159530Y-60489575D01*
X168159530Y-60489575D02*
X168159530Y-60775289D01*
X168159530Y-60775289D02*
X168111911Y-60870527D01*
X168111911Y-60870527D02*
X168064291Y-60918146D01*
X168064291Y-59870527D02*
X168111911Y-59822908D01*
X168111911Y-59822908D02*
X168159530Y-59870527D01*
X168159530Y-59870527D02*
X168111911Y-59918146D01*
X168111911Y-59918146D02*
X168064291Y-59870527D01*
X168064291Y-59870527D02*
X168159530Y-59870527D01*
X167159530Y-59489575D02*
X167159530Y-58870528D01*
X167159530Y-58870528D02*
X167540482Y-59203861D01*
X167540482Y-59203861D02*
X167540482Y-59061004D01*
X167540482Y-59061004D02*
X167588101Y-58965766D01*
X167588101Y-58965766D02*
X167635720Y-58918147D01*
X167635720Y-58918147D02*
X167730958Y-58870528D01*
X167730958Y-58870528D02*
X167969053Y-58870528D01*
X167969053Y-58870528D02*
X168064291Y-58918147D01*
X168064291Y-58918147D02*
X168111911Y-58965766D01*
X168111911Y-58965766D02*
X168159530Y-59061004D01*
X168159530Y-59061004D02*
X168159530Y-59346718D01*
X168159530Y-59346718D02*
X168111911Y-59441956D01*
X168111911Y-59441956D02*
X168064291Y-59489575D01*
X167159530Y-58584813D02*
X168159530Y-58251480D01*
X168159530Y-58251480D02*
X167159530Y-57918147D01*
X187862423Y-35883624D02*
X187814804Y-35931244D01*
X187814804Y-35931244D02*
X187671947Y-35978863D01*
X187671947Y-35978863D02*
X187576709Y-35978863D01*
X187576709Y-35978863D02*
X187433852Y-35931244D01*
X187433852Y-35931244D02*
X187338614Y-35836005D01*
X187338614Y-35836005D02*
X187290995Y-35740767D01*
X187290995Y-35740767D02*
X187243376Y-35550291D01*
X187243376Y-35550291D02*
X187243376Y-35407434D01*
X187243376Y-35407434D02*
X187290995Y-35216958D01*
X187290995Y-35216958D02*
X187338614Y-35121720D01*
X187338614Y-35121720D02*
X187433852Y-35026482D01*
X187433852Y-35026482D02*
X187576709Y-34978863D01*
X187576709Y-34978863D02*
X187671947Y-34978863D01*
X187671947Y-34978863D02*
X187814804Y-35026482D01*
X187814804Y-35026482D02*
X187862423Y-35074101D01*
X188767185Y-35978863D02*
X188290995Y-35978863D01*
X188290995Y-35978863D02*
X188290995Y-34978863D01*
X189100519Y-35597910D02*
X189862424Y-35597910D01*
X190338614Y-35978863D02*
X190338614Y-34978863D01*
X190338614Y-34978863D02*
X190576709Y-34978863D01*
X190576709Y-34978863D02*
X190719566Y-35026482D01*
X190719566Y-35026482D02*
X190814804Y-35121720D01*
X190814804Y-35121720D02*
X190862423Y-35216958D01*
X190862423Y-35216958D02*
X190910042Y-35407434D01*
X190910042Y-35407434D02*
X190910042Y-35550291D01*
X190910042Y-35550291D02*
X190862423Y-35740767D01*
X190862423Y-35740767D02*
X190814804Y-35836005D01*
X190814804Y-35836005D02*
X190719566Y-35931244D01*
X190719566Y-35931244D02*
X190576709Y-35978863D01*
X190576709Y-35978863D02*
X190338614Y-35978863D01*
X191338614Y-35978863D02*
X191338614Y-34978863D01*
X192052899Y-36312196D02*
X192052899Y-34883624D01*
X192767185Y-34978863D02*
X192767185Y-35788386D01*
X192767185Y-35788386D02*
X192814804Y-35883624D01*
X192814804Y-35883624D02*
X192862423Y-35931244D01*
X192862423Y-35931244D02*
X192957661Y-35978863D01*
X192957661Y-35978863D02*
X193148137Y-35978863D01*
X193148137Y-35978863D02*
X193243375Y-35931244D01*
X193243375Y-35931244D02*
X193290994Y-35883624D01*
X193290994Y-35883624D02*
X193338613Y-35788386D01*
X193338613Y-35788386D02*
X193338613Y-34978863D01*
X193767185Y-35693148D02*
X194243375Y-35693148D01*
X193671947Y-35978863D02*
X194005280Y-34978863D01*
X194005280Y-34978863D02*
X194338613Y-35978863D01*
X195243375Y-35978863D02*
X194910042Y-35502672D01*
X194671947Y-35978863D02*
X194671947Y-34978863D01*
X194671947Y-34978863D02*
X195052899Y-34978863D01*
X195052899Y-34978863D02*
X195148137Y-35026482D01*
X195148137Y-35026482D02*
X195195756Y-35074101D01*
X195195756Y-35074101D02*
X195243375Y-35169339D01*
X195243375Y-35169339D02*
X195243375Y-35312196D01*
X195243375Y-35312196D02*
X195195756Y-35407434D01*
X195195756Y-35407434D02*
X195148137Y-35455053D01*
X195148137Y-35455053D02*
X195052899Y-35502672D01*
X195052899Y-35502672D02*
X194671947Y-35502672D01*
X195529090Y-34978863D02*
X196100518Y-34978863D01*
X195814804Y-35978863D02*
X195814804Y-34978863D01*
X196957661Y-35978863D02*
X196386233Y-35978863D01*
X196671947Y-35978863D02*
X196671947Y-34978863D01*
X196671947Y-34978863D02*
X196576709Y-35121720D01*
X196576709Y-35121720D02*
X196481471Y-35216958D01*
X196481471Y-35216958D02*
X196386233Y-35264577D01*
X150985026Y-30251530D02*
X151318359Y-31251530D01*
X151318359Y-31251530D02*
X151651692Y-30251530D01*
X151985026Y-31251530D02*
X151985026Y-30251530D01*
X152461216Y-31251530D02*
X152461216Y-30251530D01*
X152461216Y-30251530D02*
X153032644Y-31251530D01*
X153032644Y-31251530D02*
X153032644Y-30251530D01*
X153746930Y-31584863D02*
X153746930Y-30156291D01*
X154461216Y-30727720D02*
X154794549Y-30727720D01*
X154937406Y-31251530D02*
X154461216Y-31251530D01*
X154461216Y-31251530D02*
X154461216Y-30251530D01*
X154461216Y-30251530D02*
X154937406Y-30251530D01*
X155365978Y-31251530D02*
X155365978Y-30251530D01*
X155365978Y-30251530D02*
X155937406Y-31251530D01*
X155937406Y-31251530D02*
X155937406Y-30251530D01*
X203716452Y-43052419D02*
X203716452Y-42052419D01*
X203716452Y-42052419D02*
X204097404Y-42052419D01*
X204097404Y-42052419D02*
X204192642Y-42100038D01*
X204192642Y-42100038D02*
X204240261Y-42147657D01*
X204240261Y-42147657D02*
X204287880Y-42242895D01*
X204287880Y-42242895D02*
X204287880Y-42385752D01*
X204287880Y-42385752D02*
X204240261Y-42480990D01*
X204240261Y-42480990D02*
X204192642Y-42528609D01*
X204192642Y-42528609D02*
X204097404Y-42576228D01*
X204097404Y-42576228D02*
X203716452Y-42576228D01*
X204668833Y-42147657D02*
X204716452Y-42100038D01*
X204716452Y-42100038D02*
X204811690Y-42052419D01*
X204811690Y-42052419D02*
X205049785Y-42052419D01*
X205049785Y-42052419D02*
X205145023Y-42100038D01*
X205145023Y-42100038D02*
X205192642Y-42147657D01*
X205192642Y-42147657D02*
X205240261Y-42242895D01*
X205240261Y-42242895D02*
X205240261Y-42338133D01*
X205240261Y-42338133D02*
X205192642Y-42480990D01*
X205192642Y-42480990D02*
X204621214Y-43052419D01*
X204621214Y-43052419D02*
X205240261Y-43052419D01*
X205859309Y-42052419D02*
X206049785Y-42052419D01*
X206049785Y-42052419D02*
X206145023Y-42100038D01*
X206145023Y-42100038D02*
X206240261Y-42195276D01*
X206240261Y-42195276D02*
X206287880Y-42385752D01*
X206287880Y-42385752D02*
X206287880Y-42719085D01*
X206287880Y-42719085D02*
X206240261Y-42909561D01*
X206240261Y-42909561D02*
X206145023Y-43004800D01*
X206145023Y-43004800D02*
X206049785Y-43052419D01*
X206049785Y-43052419D02*
X205859309Y-43052419D01*
X205859309Y-43052419D02*
X205764071Y-43004800D01*
X205764071Y-43004800D02*
X205668833Y-42909561D01*
X205668833Y-42909561D02*
X205621214Y-42719085D01*
X205621214Y-42719085D02*
X205621214Y-42385752D01*
X205621214Y-42385752D02*
X205668833Y-42195276D01*
X205668833Y-42195276D02*
X205764071Y-42100038D01*
X205764071Y-42100038D02*
X205859309Y-42052419D01*
X207145023Y-42385752D02*
X207145023Y-43052419D01*
X206716452Y-42385752D02*
X206716452Y-42909561D01*
X206716452Y-42909561D02*
X206764071Y-43004800D01*
X206764071Y-43004800D02*
X206859309Y-43052419D01*
X206859309Y-43052419D02*
X207002166Y-43052419D01*
X207002166Y-43052419D02*
X207097404Y-43004800D01*
X207097404Y-43004800D02*
X207145023Y-42957180D01*
X207478357Y-42385752D02*
X207859309Y-42385752D01*
X207621214Y-42052419D02*
X207621214Y-42909561D01*
X207621214Y-42909561D02*
X207668833Y-43004800D01*
X207668833Y-43004800D02*
X207764071Y-43052419D01*
X207764071Y-43052419D02*
X207859309Y-43052419D01*
X172818931Y-53178704D02*
X173295121Y-53178704D01*
X172723693Y-53464419D02*
X173057026Y-52464419D01*
X173057026Y-52464419D02*
X173390359Y-53464419D01*
X173914169Y-52464419D02*
X174009407Y-52464419D01*
X174009407Y-52464419D02*
X174104645Y-52512038D01*
X174104645Y-52512038D02*
X174152264Y-52559657D01*
X174152264Y-52559657D02*
X174199883Y-52654895D01*
X174199883Y-52654895D02*
X174247502Y-52845371D01*
X174247502Y-52845371D02*
X174247502Y-53083466D01*
X174247502Y-53083466D02*
X174199883Y-53273942D01*
X174199883Y-53273942D02*
X174152264Y-53369180D01*
X174152264Y-53369180D02*
X174104645Y-53416800D01*
X174104645Y-53416800D02*
X174009407Y-53464419D01*
X174009407Y-53464419D02*
X173914169Y-53464419D01*
X173914169Y-53464419D02*
X173818931Y-53416800D01*
X173818931Y-53416800D02*
X173771312Y-53369180D01*
X173771312Y-53369180D02*
X173723693Y-53273942D01*
X173723693Y-53273942D02*
X173676074Y-53083466D01*
X173676074Y-53083466D02*
X173676074Y-52845371D01*
X173676074Y-52845371D02*
X173723693Y-52654895D01*
X173723693Y-52654895D02*
X173771312Y-52559657D01*
X173771312Y-52559657D02*
X173818931Y-52512038D01*
X173818931Y-52512038D02*
X173914169Y-52464419D01*
X170131720Y-63486781D02*
X170179339Y-63343924D01*
X170179339Y-63343924D02*
X170226958Y-63296305D01*
X170226958Y-63296305D02*
X170322196Y-63248686D01*
X170322196Y-63248686D02*
X170465053Y-63248686D01*
X170465053Y-63248686D02*
X170560291Y-63296305D01*
X170560291Y-63296305D02*
X170607911Y-63343924D01*
X170607911Y-63343924D02*
X170655530Y-63439162D01*
X170655530Y-63439162D02*
X170655530Y-63820114D01*
X170655530Y-63820114D02*
X169655530Y-63820114D01*
X169655530Y-63820114D02*
X169655530Y-63486781D01*
X169655530Y-63486781D02*
X169703149Y-63391543D01*
X169703149Y-63391543D02*
X169750768Y-63343924D01*
X169750768Y-63343924D02*
X169846006Y-63296305D01*
X169846006Y-63296305D02*
X169941244Y-63296305D01*
X169941244Y-63296305D02*
X170036482Y-63343924D01*
X170036482Y-63343924D02*
X170084101Y-63391543D01*
X170084101Y-63391543D02*
X170131720Y-63486781D01*
X170131720Y-63486781D02*
X170131720Y-63820114D01*
X169988863Y-62391543D02*
X170655530Y-62391543D01*
X169607911Y-62629638D02*
X170322196Y-62867733D01*
X170322196Y-62867733D02*
X170322196Y-62248686D01*
X182203757Y-30033085D02*
X182822804Y-30033085D01*
X182822804Y-30033085D02*
X182489471Y-30414037D01*
X182489471Y-30414037D02*
X182632328Y-30414037D01*
X182632328Y-30414037D02*
X182727566Y-30461656D01*
X182727566Y-30461656D02*
X182775185Y-30509275D01*
X182775185Y-30509275D02*
X182822804Y-30604513D01*
X182822804Y-30604513D02*
X182822804Y-30842608D01*
X182822804Y-30842608D02*
X182775185Y-30937846D01*
X182775185Y-30937846D02*
X182727566Y-30985466D01*
X182727566Y-30985466D02*
X182632328Y-31033085D01*
X182632328Y-31033085D02*
X182346614Y-31033085D01*
X182346614Y-31033085D02*
X182251376Y-30985466D01*
X182251376Y-30985466D02*
X182203757Y-30937846D01*
X183251376Y-30937846D02*
X183298995Y-30985466D01*
X183298995Y-30985466D02*
X183251376Y-31033085D01*
X183251376Y-31033085D02*
X183203757Y-30985466D01*
X183203757Y-30985466D02*
X183251376Y-30937846D01*
X183251376Y-30937846D02*
X183251376Y-31033085D01*
X183632328Y-30033085D02*
X184251375Y-30033085D01*
X184251375Y-30033085D02*
X183918042Y-30414037D01*
X183918042Y-30414037D02*
X184060899Y-30414037D01*
X184060899Y-30414037D02*
X184156137Y-30461656D01*
X184156137Y-30461656D02*
X184203756Y-30509275D01*
X184203756Y-30509275D02*
X184251375Y-30604513D01*
X184251375Y-30604513D02*
X184251375Y-30842608D01*
X184251375Y-30842608D02*
X184203756Y-30937846D01*
X184203756Y-30937846D02*
X184156137Y-30985466D01*
X184156137Y-30985466D02*
X184060899Y-31033085D01*
X184060899Y-31033085D02*
X183775185Y-31033085D01*
X183775185Y-31033085D02*
X183679947Y-30985466D01*
X183679947Y-30985466D02*
X183632328Y-30937846D01*
X184537090Y-30033085D02*
X184870423Y-31033085D01*
X184870423Y-31033085D02*
X185203756Y-30033085D01*
X185775185Y-31366418D02*
X185775185Y-29937846D01*
X187060899Y-30937846D02*
X187013280Y-30985466D01*
X187013280Y-30985466D02*
X186870423Y-31033085D01*
X186870423Y-31033085D02*
X186775185Y-31033085D01*
X186775185Y-31033085D02*
X186632328Y-30985466D01*
X186632328Y-30985466D02*
X186537090Y-30890227D01*
X186537090Y-30890227D02*
X186489471Y-30794989D01*
X186489471Y-30794989D02*
X186441852Y-30604513D01*
X186441852Y-30604513D02*
X186441852Y-30461656D01*
X186441852Y-30461656D02*
X186489471Y-30271180D01*
X186489471Y-30271180D02*
X186537090Y-30175942D01*
X186537090Y-30175942D02*
X186632328Y-30080704D01*
X186632328Y-30080704D02*
X186775185Y-30033085D01*
X186775185Y-30033085D02*
X186870423Y-30033085D01*
X186870423Y-30033085D02*
X187013280Y-30080704D01*
X187013280Y-30080704D02*
X187060899Y-30128323D01*
X187965661Y-31033085D02*
X187489471Y-31033085D01*
X187489471Y-31033085D02*
X187489471Y-30033085D01*
X188298995Y-31033085D02*
X188298995Y-30033085D01*
X188870423Y-31033085D02*
X188441852Y-30461656D01*
X188870423Y-30033085D02*
X188298995Y-30604513D01*
X189537090Y-31366418D02*
X189537090Y-29937846D01*
X190251376Y-31033085D02*
X190251376Y-30033085D01*
X190251376Y-30033085D02*
X190489471Y-30033085D01*
X190489471Y-30033085D02*
X190632328Y-30080704D01*
X190632328Y-30080704D02*
X190727566Y-30175942D01*
X190727566Y-30175942D02*
X190775185Y-30271180D01*
X190775185Y-30271180D02*
X190822804Y-30461656D01*
X190822804Y-30461656D02*
X190822804Y-30604513D01*
X190822804Y-30604513D02*
X190775185Y-30794989D01*
X190775185Y-30794989D02*
X190727566Y-30890227D01*
X190727566Y-30890227D02*
X190632328Y-30985466D01*
X190632328Y-30985466D02*
X190489471Y-31033085D01*
X190489471Y-31033085D02*
X190251376Y-31033085D01*
X191251376Y-31033085D02*
X191251376Y-30033085D01*
X191918042Y-30033085D02*
X192108518Y-30033085D01*
X192108518Y-30033085D02*
X192203756Y-30080704D01*
X192203756Y-30080704D02*
X192298994Y-30175942D01*
X192298994Y-30175942D02*
X192346613Y-30366418D01*
X192346613Y-30366418D02*
X192346613Y-30699751D01*
X192346613Y-30699751D02*
X192298994Y-30890227D01*
X192298994Y-30890227D02*
X192203756Y-30985466D01*
X192203756Y-30985466D02*
X192108518Y-31033085D01*
X192108518Y-31033085D02*
X191918042Y-31033085D01*
X191918042Y-31033085D02*
X191822804Y-30985466D01*
X191822804Y-30985466D02*
X191727566Y-30890227D01*
X191727566Y-30890227D02*
X191679947Y-30699751D01*
X191679947Y-30699751D02*
X191679947Y-30366418D01*
X191679947Y-30366418D02*
X191727566Y-30175942D01*
X191727566Y-30175942D02*
X191822804Y-30080704D01*
X191822804Y-30080704D02*
X191918042Y-30033085D01*
X193013280Y-31366418D02*
X193013280Y-29937846D01*
X193584709Y-30033085D02*
X194156137Y-30033085D01*
X193870423Y-31033085D02*
X193870423Y-30033085D01*
X194394233Y-31033085D02*
X194918042Y-30366418D01*
X194394233Y-30366418D02*
X194918042Y-31033085D01*
X195537090Y-31366418D02*
X195537090Y-29937846D01*
X196822804Y-31033085D02*
X196489471Y-30556894D01*
X196251376Y-31033085D02*
X196251376Y-30033085D01*
X196251376Y-30033085D02*
X196632328Y-30033085D01*
X196632328Y-30033085D02*
X196727566Y-30080704D01*
X196727566Y-30080704D02*
X196775185Y-30128323D01*
X196775185Y-30128323D02*
X196822804Y-30223561D01*
X196822804Y-30223561D02*
X196822804Y-30366418D01*
X196822804Y-30366418D02*
X196775185Y-30461656D01*
X196775185Y-30461656D02*
X196727566Y-30509275D01*
X196727566Y-30509275D02*
X196632328Y-30556894D01*
X196632328Y-30556894D02*
X196251376Y-30556894D01*
X197156138Y-31033085D02*
X197679947Y-30366418D01*
X197156138Y-30366418D02*
X197679947Y-31033085D01*
X198298995Y-31366418D02*
X198298995Y-29937846D01*
X199537090Y-30080704D02*
X199441852Y-30033085D01*
X199441852Y-30033085D02*
X199298995Y-30033085D01*
X199298995Y-30033085D02*
X199156138Y-30080704D01*
X199156138Y-30080704D02*
X199060900Y-30175942D01*
X199060900Y-30175942D02*
X199013281Y-30271180D01*
X199013281Y-30271180D02*
X198965662Y-30461656D01*
X198965662Y-30461656D02*
X198965662Y-30604513D01*
X198965662Y-30604513D02*
X199013281Y-30794989D01*
X199013281Y-30794989D02*
X199060900Y-30890227D01*
X199060900Y-30890227D02*
X199156138Y-30985466D01*
X199156138Y-30985466D02*
X199298995Y-31033085D01*
X199298995Y-31033085D02*
X199394233Y-31033085D01*
X199394233Y-31033085D02*
X199537090Y-30985466D01*
X199537090Y-30985466D02*
X199584709Y-30937846D01*
X199584709Y-30937846D02*
X199584709Y-30604513D01*
X199584709Y-30604513D02*
X199394233Y-30604513D01*
X200013281Y-31033085D02*
X200013281Y-30033085D01*
X200013281Y-30033085D02*
X200584709Y-31033085D01*
X200584709Y-31033085D02*
X200584709Y-30033085D01*
X201060900Y-31033085D02*
X201060900Y-30033085D01*
X201060900Y-30033085D02*
X201298995Y-30033085D01*
X201298995Y-30033085D02*
X201441852Y-30080704D01*
X201441852Y-30080704D02*
X201537090Y-30175942D01*
X201537090Y-30175942D02*
X201584709Y-30271180D01*
X201584709Y-30271180D02*
X201632328Y-30461656D01*
X201632328Y-30461656D02*
X201632328Y-30604513D01*
X201632328Y-30604513D02*
X201584709Y-30794989D01*
X201584709Y-30794989D02*
X201537090Y-30890227D01*
X201537090Y-30890227D02*
X201441852Y-30985466D01*
X201441852Y-30985466D02*
X201298995Y-31033085D01*
X201298995Y-31033085D02*
X201060900Y-31033085D01*
X203716452Y-45085720D02*
X203716452Y-44085720D01*
X203716452Y-44085720D02*
X204097404Y-44085720D01*
X204097404Y-44085720D02*
X204192642Y-44133339D01*
X204192642Y-44133339D02*
X204240261Y-44180958D01*
X204240261Y-44180958D02*
X204287880Y-44276196D01*
X204287880Y-44276196D02*
X204287880Y-44419053D01*
X204287880Y-44419053D02*
X204240261Y-44514291D01*
X204240261Y-44514291D02*
X204192642Y-44561910D01*
X204192642Y-44561910D02*
X204097404Y-44609529D01*
X204097404Y-44609529D02*
X203716452Y-44609529D01*
X205240261Y-45085720D02*
X204668833Y-45085720D01*
X204954547Y-45085720D02*
X204954547Y-44085720D01*
X204954547Y-44085720D02*
X204859309Y-44228577D01*
X204859309Y-44228577D02*
X204764071Y-44323815D01*
X204764071Y-44323815D02*
X204668833Y-44371434D01*
X205859309Y-44085720D02*
X206049785Y-44085720D01*
X206049785Y-44085720D02*
X206145023Y-44133339D01*
X206145023Y-44133339D02*
X206240261Y-44228577D01*
X206240261Y-44228577D02*
X206287880Y-44419053D01*
X206287880Y-44419053D02*
X206287880Y-44752386D01*
X206287880Y-44752386D02*
X206240261Y-44942862D01*
X206240261Y-44942862D02*
X206145023Y-45038101D01*
X206145023Y-45038101D02*
X206049785Y-45085720D01*
X206049785Y-45085720D02*
X205859309Y-45085720D01*
X205859309Y-45085720D02*
X205764071Y-45038101D01*
X205764071Y-45038101D02*
X205668833Y-44942862D01*
X205668833Y-44942862D02*
X205621214Y-44752386D01*
X205621214Y-44752386D02*
X205621214Y-44419053D01*
X205621214Y-44419053D02*
X205668833Y-44228577D01*
X205668833Y-44228577D02*
X205764071Y-44133339D01*
X205764071Y-44133339D02*
X205859309Y-44085720D01*
X207145023Y-44419053D02*
X207145023Y-45085720D01*
X206716452Y-44419053D02*
X206716452Y-44942862D01*
X206716452Y-44942862D02*
X206764071Y-45038101D01*
X206764071Y-45038101D02*
X206859309Y-45085720D01*
X206859309Y-45085720D02*
X207002166Y-45085720D01*
X207002166Y-45085720D02*
X207097404Y-45038101D01*
X207097404Y-45038101D02*
X207145023Y-44990481D01*
X207478357Y-44419053D02*
X207859309Y-44419053D01*
X207621214Y-44085720D02*
X207621214Y-44942862D01*
X207621214Y-44942862D02*
X207668833Y-45038101D01*
X207668833Y-45038101D02*
X207764071Y-45085720D01*
X207764071Y-45085720D02*
X207859309Y-45085720D01*
X203536936Y-46392922D02*
X203870269Y-47392922D01*
X203870269Y-47392922D02*
X204203602Y-46392922D01*
X204536936Y-47392922D02*
X204536936Y-46726255D01*
X204536936Y-46392922D02*
X204489317Y-46440541D01*
X204489317Y-46440541D02*
X204536936Y-46488160D01*
X204536936Y-46488160D02*
X204584555Y-46440541D01*
X204584555Y-46440541D02*
X204536936Y-46392922D01*
X204536936Y-46392922D02*
X204536936Y-46488160D01*
X205013126Y-46726255D02*
X205013126Y-47392922D01*
X205013126Y-46821493D02*
X205060745Y-46773874D01*
X205060745Y-46773874D02*
X205155983Y-46726255D01*
X205155983Y-46726255D02*
X205298840Y-46726255D01*
X205298840Y-46726255D02*
X205394078Y-46773874D01*
X205394078Y-46773874D02*
X205441697Y-46869112D01*
X205441697Y-46869112D02*
X205441697Y-47392922D01*
X206155983Y-47726255D02*
X206155983Y-46297683D01*
X206727412Y-46392922D02*
X207060745Y-47392922D01*
X207060745Y-47392922D02*
X207394078Y-46392922D01*
X207727412Y-47392922D02*
X207727412Y-46726255D01*
X207727412Y-46392922D02*
X207679793Y-46440541D01*
X207679793Y-46440541D02*
X207727412Y-46488160D01*
X207727412Y-46488160D02*
X207775031Y-46440541D01*
X207775031Y-46440541D02*
X207727412Y-46392922D01*
X207727412Y-46392922D02*
X207727412Y-46488160D01*
X208203602Y-46726255D02*
X208203602Y-47392922D01*
X208203602Y-46821493D02*
X208251221Y-46773874D01*
X208251221Y-46773874D02*
X208346459Y-46726255D01*
X208346459Y-46726255D02*
X208489316Y-46726255D01*
X208489316Y-46726255D02*
X208584554Y-46773874D01*
X208584554Y-46773874D02*
X208632173Y-46869112D01*
X208632173Y-46869112D02*
X208632173Y-47392922D01*
X203698931Y-56220037D02*
X204175121Y-56220037D01*
X203603693Y-56505752D02*
X203937026Y-55505752D01*
X203937026Y-55505752D02*
X204270359Y-56505752D01*
X205079883Y-55505752D02*
X204603693Y-55505752D01*
X204603693Y-55505752D02*
X204556074Y-55981942D01*
X204556074Y-55981942D02*
X204603693Y-55934323D01*
X204603693Y-55934323D02*
X204698931Y-55886704D01*
X204698931Y-55886704D02*
X204937026Y-55886704D01*
X204937026Y-55886704D02*
X205032264Y-55934323D01*
X205032264Y-55934323D02*
X205079883Y-55981942D01*
X205079883Y-55981942D02*
X205127502Y-56077180D01*
X205127502Y-56077180D02*
X205127502Y-56315275D01*
X205127502Y-56315275D02*
X205079883Y-56410513D01*
X205079883Y-56410513D02*
X205032264Y-56458133D01*
X205032264Y-56458133D02*
X204937026Y-56505752D01*
X204937026Y-56505752D02*
X204698931Y-56505752D01*
X204698931Y-56505752D02*
X204603693Y-56458133D01*
X204603693Y-56458133D02*
X204556074Y-56410513D01*
X205794169Y-56839085D02*
X205794169Y-55410513D01*
X206460836Y-56220037D02*
X206937026Y-56220037D01*
X206365598Y-56505752D02*
X206698931Y-55505752D01*
X206698931Y-55505752D02*
X207032264Y-56505752D01*
X207794169Y-55839085D02*
X207794169Y-56505752D01*
X207556074Y-55458133D02*
X207317979Y-56172418D01*
X207317979Y-56172418D02*
X207937026Y-56172418D01*
X183580038Y-69720306D02*
X183532419Y-69815544D01*
X183532419Y-69815544D02*
X183532419Y-69958401D01*
X183532419Y-69958401D02*
X183580038Y-70101258D01*
X183580038Y-70101258D02*
X183675276Y-70196496D01*
X183675276Y-70196496D02*
X183770514Y-70244115D01*
X183770514Y-70244115D02*
X183960990Y-70291734D01*
X183960990Y-70291734D02*
X184103847Y-70291734D01*
X184103847Y-70291734D02*
X184294323Y-70244115D01*
X184294323Y-70244115D02*
X184389561Y-70196496D01*
X184389561Y-70196496D02*
X184484800Y-70101258D01*
X184484800Y-70101258D02*
X184532419Y-69958401D01*
X184532419Y-69958401D02*
X184532419Y-69863163D01*
X184532419Y-69863163D02*
X184484800Y-69720306D01*
X184484800Y-69720306D02*
X184437180Y-69672687D01*
X184437180Y-69672687D02*
X184103847Y-69672687D01*
X184103847Y-69672687D02*
X184103847Y-69863163D01*
X184532419Y-69244115D02*
X183532419Y-69244115D01*
X183532419Y-69244115D02*
X184532419Y-68672687D01*
X184532419Y-68672687D02*
X183532419Y-68672687D01*
X184532419Y-68196496D02*
X183532419Y-68196496D01*
X183532419Y-68196496D02*
X183532419Y-67958401D01*
X183532419Y-67958401D02*
X183580038Y-67815544D01*
X183580038Y-67815544D02*
X183675276Y-67720306D01*
X183675276Y-67720306D02*
X183770514Y-67672687D01*
X183770514Y-67672687D02*
X183960990Y-67625068D01*
X183960990Y-67625068D02*
X184103847Y-67625068D01*
X184103847Y-67625068D02*
X184294323Y-67672687D01*
X184294323Y-67672687D02*
X184389561Y-67720306D01*
X184389561Y-67720306D02*
X184484800Y-67815544D01*
X184484800Y-67815544D02*
X184532419Y-67958401D01*
X184532419Y-67958401D02*
X184532419Y-68196496D01*
X184865752Y-66958401D02*
X183437180Y-66958401D01*
X183580038Y-65720306D02*
X183532419Y-65815544D01*
X183532419Y-65815544D02*
X183532419Y-65958401D01*
X183532419Y-65958401D02*
X183580038Y-66101258D01*
X183580038Y-66101258D02*
X183675276Y-66196496D01*
X183675276Y-66196496D02*
X183770514Y-66244115D01*
X183770514Y-66244115D02*
X183960990Y-66291734D01*
X183960990Y-66291734D02*
X184103847Y-66291734D01*
X184103847Y-66291734D02*
X184294323Y-66244115D01*
X184294323Y-66244115D02*
X184389561Y-66196496D01*
X184389561Y-66196496D02*
X184484800Y-66101258D01*
X184484800Y-66101258D02*
X184532419Y-65958401D01*
X184532419Y-65958401D02*
X184532419Y-65863163D01*
X184532419Y-65863163D02*
X184484800Y-65720306D01*
X184484800Y-65720306D02*
X184437180Y-65672687D01*
X184437180Y-65672687D02*
X184103847Y-65672687D01*
X184103847Y-65672687D02*
X184103847Y-65863163D01*
X184532419Y-65244115D02*
X183532419Y-65244115D01*
X183532419Y-65244115D02*
X184532419Y-64672687D01*
X184532419Y-64672687D02*
X183532419Y-64672687D01*
X184532419Y-64196496D02*
X183532419Y-64196496D01*
X183532419Y-64196496D02*
X183532419Y-63958401D01*
X183532419Y-63958401D02*
X183580038Y-63815544D01*
X183580038Y-63815544D02*
X183675276Y-63720306D01*
X183675276Y-63720306D02*
X183770514Y-63672687D01*
X183770514Y-63672687D02*
X183960990Y-63625068D01*
X183960990Y-63625068D02*
X184103847Y-63625068D01*
X184103847Y-63625068D02*
X184294323Y-63672687D01*
X184294323Y-63672687D02*
X184389561Y-63720306D01*
X184389561Y-63720306D02*
X184484800Y-63815544D01*
X184484800Y-63815544D02*
X184532419Y-63958401D01*
X184532419Y-63958401D02*
X184532419Y-64196496D01*
X176376646Y-71524418D02*
X176995693Y-71524418D01*
X176995693Y-71524418D02*
X176662360Y-71905370D01*
X176662360Y-71905370D02*
X176805217Y-71905370D01*
X176805217Y-71905370D02*
X176900455Y-71952989D01*
X176900455Y-71952989D02*
X176948074Y-72000608D01*
X176948074Y-72000608D02*
X176995693Y-72095846D01*
X176995693Y-72095846D02*
X176995693Y-72333941D01*
X176995693Y-72333941D02*
X176948074Y-72429179D01*
X176948074Y-72429179D02*
X176900455Y-72476799D01*
X176900455Y-72476799D02*
X176805217Y-72524418D01*
X176805217Y-72524418D02*
X176519503Y-72524418D01*
X176519503Y-72524418D02*
X176424265Y-72476799D01*
X176424265Y-72476799D02*
X176376646Y-72429179D01*
X177424265Y-72429179D02*
X177471884Y-72476799D01*
X177471884Y-72476799D02*
X177424265Y-72524418D01*
X177424265Y-72524418D02*
X177376646Y-72476799D01*
X177376646Y-72476799D02*
X177424265Y-72429179D01*
X177424265Y-72429179D02*
X177424265Y-72524418D01*
X177805217Y-71524418D02*
X178424264Y-71524418D01*
X178424264Y-71524418D02*
X178090931Y-71905370D01*
X178090931Y-71905370D02*
X178233788Y-71905370D01*
X178233788Y-71905370D02*
X178329026Y-71952989D01*
X178329026Y-71952989D02*
X178376645Y-72000608D01*
X178376645Y-72000608D02*
X178424264Y-72095846D01*
X178424264Y-72095846D02*
X178424264Y-72333941D01*
X178424264Y-72333941D02*
X178376645Y-72429179D01*
X178376645Y-72429179D02*
X178329026Y-72476799D01*
X178329026Y-72476799D02*
X178233788Y-72524418D01*
X178233788Y-72524418D02*
X177948074Y-72524418D01*
X177948074Y-72524418D02*
X177852836Y-72476799D01*
X177852836Y-72476799D02*
X177805217Y-72429179D01*
X178709979Y-71524418D02*
X179043312Y-72524418D01*
X179043312Y-72524418D02*
X179376645Y-71524418D01*
X209394359Y-34480038D02*
X209299121Y-34432419D01*
X209299121Y-34432419D02*
X209156264Y-34432419D01*
X209156264Y-34432419D02*
X209013407Y-34480038D01*
X209013407Y-34480038D02*
X208918169Y-34575276D01*
X208918169Y-34575276D02*
X208870550Y-34670514D01*
X208870550Y-34670514D02*
X208822931Y-34860990D01*
X208822931Y-34860990D02*
X208822931Y-35003847D01*
X208822931Y-35003847D02*
X208870550Y-35194323D01*
X208870550Y-35194323D02*
X208918169Y-35289561D01*
X208918169Y-35289561D02*
X209013407Y-35384800D01*
X209013407Y-35384800D02*
X209156264Y-35432419D01*
X209156264Y-35432419D02*
X209251502Y-35432419D01*
X209251502Y-35432419D02*
X209394359Y-35384800D01*
X209394359Y-35384800D02*
X209441978Y-35337180D01*
X209441978Y-35337180D02*
X209441978Y-35003847D01*
X209441978Y-35003847D02*
X209251502Y-35003847D01*
X209870550Y-35432419D02*
X209870550Y-34432419D01*
X209870550Y-34432419D02*
X210441978Y-35432419D01*
X210441978Y-35432419D02*
X210441978Y-34432419D01*
X210918169Y-35432419D02*
X210918169Y-34432419D01*
X210918169Y-34432419D02*
X211156264Y-34432419D01*
X211156264Y-34432419D02*
X211299121Y-34480038D01*
X211299121Y-34480038D02*
X211394359Y-34575276D01*
X211394359Y-34575276D02*
X211441978Y-34670514D01*
X211441978Y-34670514D02*
X211489597Y-34860990D01*
X211489597Y-34860990D02*
X211489597Y-35003847D01*
X211489597Y-35003847D02*
X211441978Y-35194323D01*
X211441978Y-35194323D02*
X211394359Y-35289561D01*
X211394359Y-35289561D02*
X211299121Y-35384800D01*
X211299121Y-35384800D02*
X211156264Y-35432419D01*
X211156264Y-35432419D02*
X210918169Y-35432419D01*
X212156264Y-35765752D02*
X212156264Y-34337180D01*
X213394359Y-34480038D02*
X213299121Y-34432419D01*
X213299121Y-34432419D02*
X213156264Y-34432419D01*
X213156264Y-34432419D02*
X213013407Y-34480038D01*
X213013407Y-34480038D02*
X212918169Y-34575276D01*
X212918169Y-34575276D02*
X212870550Y-34670514D01*
X212870550Y-34670514D02*
X212822931Y-34860990D01*
X212822931Y-34860990D02*
X212822931Y-35003847D01*
X212822931Y-35003847D02*
X212870550Y-35194323D01*
X212870550Y-35194323D02*
X212918169Y-35289561D01*
X212918169Y-35289561D02*
X213013407Y-35384800D01*
X213013407Y-35384800D02*
X213156264Y-35432419D01*
X213156264Y-35432419D02*
X213251502Y-35432419D01*
X213251502Y-35432419D02*
X213394359Y-35384800D01*
X213394359Y-35384800D02*
X213441978Y-35337180D01*
X213441978Y-35337180D02*
X213441978Y-35003847D01*
X213441978Y-35003847D02*
X213251502Y-35003847D01*
X213870550Y-35432419D02*
X213870550Y-34432419D01*
X213870550Y-34432419D02*
X214441978Y-35432419D01*
X214441978Y-35432419D02*
X214441978Y-34432419D01*
X214918169Y-35432419D02*
X214918169Y-34432419D01*
X214918169Y-34432419D02*
X215156264Y-34432419D01*
X215156264Y-34432419D02*
X215299121Y-34480038D01*
X215299121Y-34480038D02*
X215394359Y-34575276D01*
X215394359Y-34575276D02*
X215441978Y-34670514D01*
X215441978Y-34670514D02*
X215489597Y-34860990D01*
X215489597Y-34860990D02*
X215489597Y-35003847D01*
X215489597Y-35003847D02*
X215441978Y-35194323D01*
X215441978Y-35194323D02*
X215394359Y-35289561D01*
X215394359Y-35289561D02*
X215299121Y-35384800D01*
X215299121Y-35384800D02*
X215156264Y-35432419D01*
X215156264Y-35432419D02*
X214918169Y-35432419D01*
X203698931Y-58716037D02*
X204175121Y-58716037D01*
X203603693Y-59001752D02*
X203937026Y-58001752D01*
X203937026Y-58001752D02*
X204270359Y-59001752D01*
X204508455Y-58001752D02*
X205127502Y-58001752D01*
X205127502Y-58001752D02*
X204794169Y-58382704D01*
X204794169Y-58382704D02*
X204937026Y-58382704D01*
X204937026Y-58382704D02*
X205032264Y-58430323D01*
X205032264Y-58430323D02*
X205079883Y-58477942D01*
X205079883Y-58477942D02*
X205127502Y-58573180D01*
X205127502Y-58573180D02*
X205127502Y-58811275D01*
X205127502Y-58811275D02*
X205079883Y-58906513D01*
X205079883Y-58906513D02*
X205032264Y-58954133D01*
X205032264Y-58954133D02*
X204937026Y-59001752D01*
X204937026Y-59001752D02*
X204651312Y-59001752D01*
X204651312Y-59001752D02*
X204556074Y-58954133D01*
X204556074Y-58954133D02*
X204508455Y-58906513D01*
X205794169Y-59335085D02*
X205794169Y-57906513D01*
X206460836Y-58716037D02*
X206937026Y-58716037D01*
X206365598Y-59001752D02*
X206698931Y-58001752D01*
X206698931Y-58001752D02*
X207032264Y-59001752D01*
X207889407Y-59001752D02*
X207317979Y-59001752D01*
X207603693Y-59001752D02*
X207603693Y-58001752D01*
X207603693Y-58001752D02*
X207508455Y-58144609D01*
X207508455Y-58144609D02*
X207413217Y-58239847D01*
X207413217Y-58239847D02*
X207317979Y-58287466D01*
X208841788Y-59001752D02*
X208270360Y-59001752D01*
X208556074Y-59001752D02*
X208556074Y-58001752D01*
X208556074Y-58001752D02*
X208460836Y-58144609D01*
X208460836Y-58144609D02*
X208365598Y-58239847D01*
X208365598Y-58239847D02*
X208270360Y-58287466D01*
X153860038Y-70032306D02*
X153812419Y-70127544D01*
X153812419Y-70127544D02*
X153812419Y-70270401D01*
X153812419Y-70270401D02*
X153860038Y-70413258D01*
X153860038Y-70413258D02*
X153955276Y-70508496D01*
X153955276Y-70508496D02*
X154050514Y-70556115D01*
X154050514Y-70556115D02*
X154240990Y-70603734D01*
X154240990Y-70603734D02*
X154383847Y-70603734D01*
X154383847Y-70603734D02*
X154574323Y-70556115D01*
X154574323Y-70556115D02*
X154669561Y-70508496D01*
X154669561Y-70508496D02*
X154764800Y-70413258D01*
X154764800Y-70413258D02*
X154812419Y-70270401D01*
X154812419Y-70270401D02*
X154812419Y-70175163D01*
X154812419Y-70175163D02*
X154764800Y-70032306D01*
X154764800Y-70032306D02*
X154717180Y-69984687D01*
X154717180Y-69984687D02*
X154383847Y-69984687D01*
X154383847Y-69984687D02*
X154383847Y-70175163D01*
X154812419Y-69556115D02*
X153812419Y-69556115D01*
X153812419Y-69556115D02*
X154812419Y-68984687D01*
X154812419Y-68984687D02*
X153812419Y-68984687D01*
X154812419Y-68508496D02*
X153812419Y-68508496D01*
X153812419Y-68508496D02*
X153812419Y-68270401D01*
X153812419Y-68270401D02*
X153860038Y-68127544D01*
X153860038Y-68127544D02*
X153955276Y-68032306D01*
X153955276Y-68032306D02*
X154050514Y-67984687D01*
X154050514Y-67984687D02*
X154240990Y-67937068D01*
X154240990Y-67937068D02*
X154383847Y-67937068D01*
X154383847Y-67937068D02*
X154574323Y-67984687D01*
X154574323Y-67984687D02*
X154669561Y-68032306D01*
X154669561Y-68032306D02*
X154764800Y-68127544D01*
X154764800Y-68127544D02*
X154812419Y-68270401D01*
X154812419Y-68270401D02*
X154812419Y-68508496D01*
X155145752Y-67270401D02*
X153717180Y-67270401D01*
X153860038Y-66032306D02*
X153812419Y-66127544D01*
X153812419Y-66127544D02*
X153812419Y-66270401D01*
X153812419Y-66270401D02*
X153860038Y-66413258D01*
X153860038Y-66413258D02*
X153955276Y-66508496D01*
X153955276Y-66508496D02*
X154050514Y-66556115D01*
X154050514Y-66556115D02*
X154240990Y-66603734D01*
X154240990Y-66603734D02*
X154383847Y-66603734D01*
X154383847Y-66603734D02*
X154574323Y-66556115D01*
X154574323Y-66556115D02*
X154669561Y-66508496D01*
X154669561Y-66508496D02*
X154764800Y-66413258D01*
X154764800Y-66413258D02*
X154812419Y-66270401D01*
X154812419Y-66270401D02*
X154812419Y-66175163D01*
X154812419Y-66175163D02*
X154764800Y-66032306D01*
X154764800Y-66032306D02*
X154717180Y-65984687D01*
X154717180Y-65984687D02*
X154383847Y-65984687D01*
X154383847Y-65984687D02*
X154383847Y-66175163D01*
X154812419Y-65556115D02*
X153812419Y-65556115D01*
X153812419Y-65556115D02*
X154812419Y-64984687D01*
X154812419Y-64984687D02*
X153812419Y-64984687D01*
X154812419Y-64508496D02*
X153812419Y-64508496D01*
X153812419Y-64508496D02*
X153812419Y-64270401D01*
X153812419Y-64270401D02*
X153860038Y-64127544D01*
X153860038Y-64127544D02*
X153955276Y-64032306D01*
X153955276Y-64032306D02*
X154050514Y-63984687D01*
X154050514Y-63984687D02*
X154240990Y-63937068D01*
X154240990Y-63937068D02*
X154383847Y-63937068D01*
X154383847Y-63937068D02*
X154574323Y-63984687D01*
X154574323Y-63984687D02*
X154669561Y-64032306D01*
X154669561Y-64032306D02*
X154764800Y-64127544D01*
X154764800Y-64127544D02*
X154812419Y-64270401D01*
X154812419Y-64270401D02*
X154812419Y-64508496D01*
X177550386Y-63533004D02*
X177598005Y-63390147D01*
X177598005Y-63390147D02*
X177645624Y-63342528D01*
X177645624Y-63342528D02*
X177740862Y-63294909D01*
X177740862Y-63294909D02*
X177883719Y-63294909D01*
X177883719Y-63294909D02*
X177978957Y-63342528D01*
X177978957Y-63342528D02*
X178026577Y-63390147D01*
X178026577Y-63390147D02*
X178074196Y-63485385D01*
X178074196Y-63485385D02*
X178074196Y-63866337D01*
X178074196Y-63866337D02*
X177074196Y-63866337D01*
X177074196Y-63866337D02*
X177074196Y-63533004D01*
X177074196Y-63533004D02*
X177121815Y-63437766D01*
X177121815Y-63437766D02*
X177169434Y-63390147D01*
X177169434Y-63390147D02*
X177264672Y-63342528D01*
X177264672Y-63342528D02*
X177359910Y-63342528D01*
X177359910Y-63342528D02*
X177455148Y-63390147D01*
X177455148Y-63390147D02*
X177502767Y-63437766D01*
X177502767Y-63437766D02*
X177550386Y-63533004D01*
X177550386Y-63533004D02*
X177550386Y-63866337D01*
X178074196Y-62342528D02*
X178074196Y-62913956D01*
X178074196Y-62628242D02*
X177074196Y-62628242D01*
X177074196Y-62628242D02*
X177217053Y-62723480D01*
X177217053Y-62723480D02*
X177312291Y-62818718D01*
X177312291Y-62818718D02*
X177359910Y-62913956D01*
X178074196Y-61390147D02*
X178074196Y-61961575D01*
X178074196Y-61675861D02*
X177074196Y-61675861D01*
X177074196Y-61675861D02*
X177217053Y-61771099D01*
X177217053Y-61771099D02*
X177312291Y-61866337D01*
X177312291Y-61866337D02*
X177359910Y-61961575D01*
X178407529Y-60723480D02*
X176978957Y-60723480D01*
X177550386Y-59675861D02*
X177598005Y-59533004D01*
X177598005Y-59533004D02*
X177645624Y-59485385D01*
X177645624Y-59485385D02*
X177740862Y-59437766D01*
X177740862Y-59437766D02*
X177883719Y-59437766D01*
X177883719Y-59437766D02*
X177978957Y-59485385D01*
X177978957Y-59485385D02*
X178026577Y-59533004D01*
X178026577Y-59533004D02*
X178074196Y-59628242D01*
X178074196Y-59628242D02*
X178074196Y-60009194D01*
X178074196Y-60009194D02*
X177074196Y-60009194D01*
X177074196Y-60009194D02*
X177074196Y-59675861D01*
X177074196Y-59675861D02*
X177121815Y-59580623D01*
X177121815Y-59580623D02*
X177169434Y-59533004D01*
X177169434Y-59533004D02*
X177264672Y-59485385D01*
X177264672Y-59485385D02*
X177359910Y-59485385D01*
X177359910Y-59485385D02*
X177455148Y-59533004D01*
X177455148Y-59533004D02*
X177502767Y-59580623D01*
X177502767Y-59580623D02*
X177550386Y-59675861D01*
X177550386Y-59675861D02*
X177550386Y-60009194D01*
X178074196Y-58485385D02*
X178074196Y-59056813D01*
X178074196Y-58771099D02*
X177074196Y-58771099D01*
X177074196Y-58771099D02*
X177217053Y-58866337D01*
X177217053Y-58866337D02*
X177312291Y-58961575D01*
X177312291Y-58961575D02*
X177359910Y-59056813D01*
X177169434Y-58104432D02*
X177121815Y-58056813D01*
X177121815Y-58056813D02*
X177074196Y-57961575D01*
X177074196Y-57961575D02*
X177074196Y-57723480D01*
X177074196Y-57723480D02*
X177121815Y-57628242D01*
X177121815Y-57628242D02*
X177169434Y-57580623D01*
X177169434Y-57580623D02*
X177264672Y-57533004D01*
X177264672Y-57533004D02*
X177359910Y-57533004D01*
X177359910Y-57533004D02*
X177502767Y-57580623D01*
X177502767Y-57580623D02*
X178074196Y-58152051D01*
X178074196Y-58152051D02*
X178074196Y-57533004D01*
X162597497Y-62585448D02*
X162645116Y-62442591D01*
X162645116Y-62442591D02*
X162692735Y-62394972D01*
X162692735Y-62394972D02*
X162787973Y-62347353D01*
X162787973Y-62347353D02*
X162930830Y-62347353D01*
X162930830Y-62347353D02*
X163026068Y-62394972D01*
X163026068Y-62394972D02*
X163073688Y-62442591D01*
X163073688Y-62442591D02*
X163121307Y-62537829D01*
X163121307Y-62537829D02*
X163121307Y-62918781D01*
X163121307Y-62918781D02*
X162121307Y-62918781D01*
X162121307Y-62918781D02*
X162121307Y-62585448D01*
X162121307Y-62585448D02*
X162168926Y-62490210D01*
X162168926Y-62490210D02*
X162216545Y-62442591D01*
X162216545Y-62442591D02*
X162311783Y-62394972D01*
X162311783Y-62394972D02*
X162407021Y-62394972D01*
X162407021Y-62394972D02*
X162502259Y-62442591D01*
X162502259Y-62442591D02*
X162549878Y-62490210D01*
X162549878Y-62490210D02*
X162597497Y-62585448D01*
X162597497Y-62585448D02*
X162597497Y-62918781D01*
X162121307Y-61728305D02*
X162121307Y-61633067D01*
X162121307Y-61633067D02*
X162168926Y-61537829D01*
X162168926Y-61537829D02*
X162216545Y-61490210D01*
X162216545Y-61490210D02*
X162311783Y-61442591D01*
X162311783Y-61442591D02*
X162502259Y-61394972D01*
X162502259Y-61394972D02*
X162740354Y-61394972D01*
X162740354Y-61394972D02*
X162930830Y-61442591D01*
X162930830Y-61442591D02*
X163026068Y-61490210D01*
X163026068Y-61490210D02*
X163073688Y-61537829D01*
X163073688Y-61537829D02*
X163121307Y-61633067D01*
X163121307Y-61633067D02*
X163121307Y-61728305D01*
X163121307Y-61728305D02*
X163073688Y-61823543D01*
X163073688Y-61823543D02*
X163026068Y-61871162D01*
X163026068Y-61871162D02*
X162930830Y-61918781D01*
X162930830Y-61918781D02*
X162740354Y-61966400D01*
X162740354Y-61966400D02*
X162502259Y-61966400D01*
X162502259Y-61966400D02*
X162311783Y-61918781D01*
X162311783Y-61918781D02*
X162216545Y-61871162D01*
X162216545Y-61871162D02*
X162168926Y-61823543D01*
X162168926Y-61823543D02*
X162121307Y-61728305D01*
X175123720Y-63440559D02*
X175171339Y-63297702D01*
X175171339Y-63297702D02*
X175218958Y-63250083D01*
X175218958Y-63250083D02*
X175314196Y-63202464D01*
X175314196Y-63202464D02*
X175457053Y-63202464D01*
X175457053Y-63202464D02*
X175552291Y-63250083D01*
X175552291Y-63250083D02*
X175599911Y-63297702D01*
X175599911Y-63297702D02*
X175647530Y-63392940D01*
X175647530Y-63392940D02*
X175647530Y-63773892D01*
X175647530Y-63773892D02*
X174647530Y-63773892D01*
X174647530Y-63773892D02*
X174647530Y-63440559D01*
X174647530Y-63440559D02*
X174695149Y-63345321D01*
X174695149Y-63345321D02*
X174742768Y-63297702D01*
X174742768Y-63297702D02*
X174838006Y-63250083D01*
X174838006Y-63250083D02*
X174933244Y-63250083D01*
X174933244Y-63250083D02*
X175028482Y-63297702D01*
X175028482Y-63297702D02*
X175076101Y-63345321D01*
X175076101Y-63345321D02*
X175123720Y-63440559D01*
X175123720Y-63440559D02*
X175123720Y-63773892D01*
X175076101Y-62631035D02*
X175028482Y-62726273D01*
X175028482Y-62726273D02*
X174980863Y-62773892D01*
X174980863Y-62773892D02*
X174885625Y-62821511D01*
X174885625Y-62821511D02*
X174838006Y-62821511D01*
X174838006Y-62821511D02*
X174742768Y-62773892D01*
X174742768Y-62773892D02*
X174695149Y-62726273D01*
X174695149Y-62726273D02*
X174647530Y-62631035D01*
X174647530Y-62631035D02*
X174647530Y-62440559D01*
X174647530Y-62440559D02*
X174695149Y-62345321D01*
X174695149Y-62345321D02*
X174742768Y-62297702D01*
X174742768Y-62297702D02*
X174838006Y-62250083D01*
X174838006Y-62250083D02*
X174885625Y-62250083D01*
X174885625Y-62250083D02*
X174980863Y-62297702D01*
X174980863Y-62297702D02*
X175028482Y-62345321D01*
X175028482Y-62345321D02*
X175076101Y-62440559D01*
X175076101Y-62440559D02*
X175076101Y-62631035D01*
X175076101Y-62631035D02*
X175123720Y-62726273D01*
X175123720Y-62726273D02*
X175171339Y-62773892D01*
X175171339Y-62773892D02*
X175266577Y-62821511D01*
X175266577Y-62821511D02*
X175457053Y-62821511D01*
X175457053Y-62821511D02*
X175552291Y-62773892D01*
X175552291Y-62773892D02*
X175599911Y-62726273D01*
X175599911Y-62726273D02*
X175647530Y-62631035D01*
X175647530Y-62631035D02*
X175647530Y-62440559D01*
X175647530Y-62440559D02*
X175599911Y-62345321D01*
X175599911Y-62345321D02*
X175552291Y-62297702D01*
X175552291Y-62297702D02*
X175457053Y-62250083D01*
X175457053Y-62250083D02*
X175266577Y-62250083D01*
X175266577Y-62250083D02*
X175171339Y-62297702D01*
X175171339Y-62297702D02*
X175123720Y-62345321D01*
X175123720Y-62345321D02*
X175076101Y-62440559D01*
X175980863Y-61583416D02*
X174552291Y-61583416D01*
X175123720Y-60535797D02*
X175171339Y-60392940D01*
X175171339Y-60392940D02*
X175218958Y-60345321D01*
X175218958Y-60345321D02*
X175314196Y-60297702D01*
X175314196Y-60297702D02*
X175457053Y-60297702D01*
X175457053Y-60297702D02*
X175552291Y-60345321D01*
X175552291Y-60345321D02*
X175599911Y-60392940D01*
X175599911Y-60392940D02*
X175647530Y-60488178D01*
X175647530Y-60488178D02*
X175647530Y-60869130D01*
X175647530Y-60869130D02*
X174647530Y-60869130D01*
X174647530Y-60869130D02*
X174647530Y-60535797D01*
X174647530Y-60535797D02*
X174695149Y-60440559D01*
X174695149Y-60440559D02*
X174742768Y-60392940D01*
X174742768Y-60392940D02*
X174838006Y-60345321D01*
X174838006Y-60345321D02*
X174933244Y-60345321D01*
X174933244Y-60345321D02*
X175028482Y-60392940D01*
X175028482Y-60392940D02*
X175076101Y-60440559D01*
X175076101Y-60440559D02*
X175123720Y-60535797D01*
X175123720Y-60535797D02*
X175123720Y-60869130D01*
X175647530Y-59345321D02*
X175647530Y-59916749D01*
X175647530Y-59631035D02*
X174647530Y-59631035D01*
X174647530Y-59631035D02*
X174790387Y-59726273D01*
X174790387Y-59726273D02*
X174885625Y-59821511D01*
X174885625Y-59821511D02*
X174933244Y-59916749D01*
X174647530Y-58726273D02*
X174647530Y-58631035D01*
X174647530Y-58631035D02*
X174695149Y-58535797D01*
X174695149Y-58535797D02*
X174742768Y-58488178D01*
X174742768Y-58488178D02*
X174838006Y-58440559D01*
X174838006Y-58440559D02*
X175028482Y-58392940D01*
X175028482Y-58392940D02*
X175266577Y-58392940D01*
X175266577Y-58392940D02*
X175457053Y-58440559D01*
X175457053Y-58440559D02*
X175552291Y-58488178D01*
X175552291Y-58488178D02*
X175599911Y-58535797D01*
X175599911Y-58535797D02*
X175647530Y-58631035D01*
X175647530Y-58631035D02*
X175647530Y-58726273D01*
X175647530Y-58726273D02*
X175599911Y-58821511D01*
X175599911Y-58821511D02*
X175552291Y-58869130D01*
X175552291Y-58869130D02*
X175457053Y-58916749D01*
X175457053Y-58916749D02*
X175266577Y-58964368D01*
X175266577Y-58964368D02*
X175028482Y-58964368D01*
X175028482Y-58964368D02*
X174838006Y-58916749D01*
X174838006Y-58916749D02*
X174742768Y-58869130D01*
X174742768Y-58869130D02*
X174695149Y-58821511D01*
X174695149Y-58821511D02*
X174647530Y-58726273D01*
D11*
X167279100Y-45288396D02*
X167326720Y-45336015D01*
X167326720Y-45336015D02*
X167374339Y-45478872D01*
X167374339Y-45478872D02*
X167374339Y-45574110D01*
X167374339Y-45574110D02*
X167326720Y-45716967D01*
X167326720Y-45716967D02*
X167231481Y-45812205D01*
X167231481Y-45812205D02*
X167136243Y-45859824D01*
X167136243Y-45859824D02*
X166945767Y-45907443D01*
X166945767Y-45907443D02*
X166802910Y-45907443D01*
X166802910Y-45907443D02*
X166612434Y-45859824D01*
X166612434Y-45859824D02*
X166517196Y-45812205D01*
X166517196Y-45812205D02*
X166421958Y-45716967D01*
X166421958Y-45716967D02*
X166374339Y-45574110D01*
X166374339Y-45574110D02*
X166374339Y-45478872D01*
X166374339Y-45478872D02*
X166421958Y-45336015D01*
X166421958Y-45336015D02*
X166469577Y-45288396D01*
X166469577Y-44907443D02*
X166421958Y-44859824D01*
X166421958Y-44859824D02*
X166374339Y-44764586D01*
X166374339Y-44764586D02*
X166374339Y-44526491D01*
X166374339Y-44526491D02*
X166421958Y-44431253D01*
X166421958Y-44431253D02*
X166469577Y-44383634D01*
X166469577Y-44383634D02*
X166564815Y-44336015D01*
X166564815Y-44336015D02*
X166660053Y-44336015D01*
X166660053Y-44336015D02*
X166802910Y-44383634D01*
X166802910Y-44383634D02*
X167374339Y-44955062D01*
X167374339Y-44955062D02*
X167374339Y-44336015D01*
X152702203Y-38720135D02*
X152654584Y-38767755D01*
X152654584Y-38767755D02*
X152511727Y-38815374D01*
X152511727Y-38815374D02*
X152416489Y-38815374D01*
X152416489Y-38815374D02*
X152273632Y-38767755D01*
X152273632Y-38767755D02*
X152178394Y-38672516D01*
X152178394Y-38672516D02*
X152130775Y-38577278D01*
X152130775Y-38577278D02*
X152083156Y-38386802D01*
X152083156Y-38386802D02*
X152083156Y-38243945D01*
X152083156Y-38243945D02*
X152130775Y-38053469D01*
X152130775Y-38053469D02*
X152178394Y-37958231D01*
X152178394Y-37958231D02*
X152273632Y-37862993D01*
X152273632Y-37862993D02*
X152416489Y-37815374D01*
X152416489Y-37815374D02*
X152511727Y-37815374D01*
X152511727Y-37815374D02*
X152654584Y-37862993D01*
X152654584Y-37862993D02*
X152702203Y-37910612D01*
X153654584Y-38815374D02*
X153083156Y-38815374D01*
X153368870Y-38815374D02*
X153368870Y-37815374D01*
X153368870Y-37815374D02*
X153273632Y-37958231D01*
X153273632Y-37958231D02*
X153178394Y-38053469D01*
X153178394Y-38053469D02*
X153083156Y-38101088D01*
X154273632Y-37815374D02*
X154368870Y-37815374D01*
X154368870Y-37815374D02*
X154464108Y-37862993D01*
X154464108Y-37862993D02*
X154511727Y-37910612D01*
X154511727Y-37910612D02*
X154559346Y-38005850D01*
X154559346Y-38005850D02*
X154606965Y-38196326D01*
X154606965Y-38196326D02*
X154606965Y-38434421D01*
X154606965Y-38434421D02*
X154559346Y-38624897D01*
X154559346Y-38624897D02*
X154511727Y-38720135D01*
X154511727Y-38720135D02*
X154464108Y-38767755D01*
X154464108Y-38767755D02*
X154368870Y-38815374D01*
X154368870Y-38815374D02*
X154273632Y-38815374D01*
X154273632Y-38815374D02*
X154178394Y-38767755D01*
X154178394Y-38767755D02*
X154130775Y-38720135D01*
X154130775Y-38720135D02*
X154083156Y-38624897D01*
X154083156Y-38624897D02*
X154035537Y-38434421D01*
X154035537Y-38434421D02*
X154035537Y-38196326D01*
X154035537Y-38196326D02*
X154083156Y-38005850D01*
X154083156Y-38005850D02*
X154130775Y-37910612D01*
X154130775Y-37910612D02*
X154178394Y-37862993D01*
X154178394Y-37862993D02*
X154273632Y-37815374D01*
X193761767Y-70871818D02*
X193761767Y-71681341D01*
X193761767Y-71681341D02*
X193809386Y-71776579D01*
X193809386Y-71776579D02*
X193857005Y-71824199D01*
X193857005Y-71824199D02*
X193952243Y-71871818D01*
X193952243Y-71871818D02*
X194142719Y-71871818D01*
X194142719Y-71871818D02*
X194237957Y-71824199D01*
X194237957Y-71824199D02*
X194285576Y-71776579D01*
X194285576Y-71776579D02*
X194333195Y-71681341D01*
X194333195Y-71681341D02*
X194333195Y-70871818D01*
X194714148Y-70871818D02*
X195333195Y-70871818D01*
X195333195Y-70871818D02*
X194999862Y-71252770D01*
X194999862Y-71252770D02*
X195142719Y-71252770D01*
X195142719Y-71252770D02*
X195237957Y-71300389D01*
X195237957Y-71300389D02*
X195285576Y-71348008D01*
X195285576Y-71348008D02*
X195333195Y-71443246D01*
X195333195Y-71443246D02*
X195333195Y-71681341D01*
X195333195Y-71681341D02*
X195285576Y-71776579D01*
X195285576Y-71776579D02*
X195237957Y-71824199D01*
X195237957Y-71824199D02*
X195142719Y-71871818D01*
X195142719Y-71871818D02*
X194857005Y-71871818D01*
X194857005Y-71871818D02*
X194761767Y-71824199D01*
X194761767Y-71824199D02*
X194714148Y-71776579D01*
X154428513Y-76158856D02*
X154571370Y-76206475D01*
X154571370Y-76206475D02*
X154618989Y-76254094D01*
X154618989Y-76254094D02*
X154666608Y-76349332D01*
X154666608Y-76349332D02*
X154666608Y-76492189D01*
X154666608Y-76492189D02*
X154618989Y-76587427D01*
X154618989Y-76587427D02*
X154571370Y-76635047D01*
X154571370Y-76635047D02*
X154476132Y-76682666D01*
X154476132Y-76682666D02*
X154095180Y-76682666D01*
X154095180Y-76682666D02*
X154095180Y-75682666D01*
X154095180Y-75682666D02*
X154428513Y-75682666D01*
X154428513Y-75682666D02*
X154523751Y-75730285D01*
X154523751Y-75730285D02*
X154571370Y-75777904D01*
X154571370Y-75777904D02*
X154618989Y-75873142D01*
X154618989Y-75873142D02*
X154618989Y-75968380D01*
X154618989Y-75968380D02*
X154571370Y-76063618D01*
X154571370Y-76063618D02*
X154523751Y-76111237D01*
X154523751Y-76111237D02*
X154428513Y-76158856D01*
X154428513Y-76158856D02*
X154095180Y-76158856D01*
X154952323Y-75682666D02*
X155523751Y-75682666D01*
X155238037Y-76682666D02*
X155238037Y-75682666D01*
X156380894Y-76682666D02*
X155809466Y-76682666D01*
X156095180Y-76682666D02*
X156095180Y-75682666D01*
X156095180Y-75682666D02*
X155999942Y-75825523D01*
X155999942Y-75825523D02*
X155904704Y-75920761D01*
X155904704Y-75920761D02*
X155809466Y-75968380D01*
X200174253Y-74460643D02*
X200221873Y-74508262D01*
X200221873Y-74508262D02*
X200269492Y-74651119D01*
X200269492Y-74651119D02*
X200269492Y-74746357D01*
X200269492Y-74746357D02*
X200221873Y-74889214D01*
X200221873Y-74889214D02*
X200126634Y-74984452D01*
X200126634Y-74984452D02*
X200031396Y-75032071D01*
X200031396Y-75032071D02*
X199840920Y-75079690D01*
X199840920Y-75079690D02*
X199698063Y-75079690D01*
X199698063Y-75079690D02*
X199507587Y-75032071D01*
X199507587Y-75032071D02*
X199412349Y-74984452D01*
X199412349Y-74984452D02*
X199317111Y-74889214D01*
X199317111Y-74889214D02*
X199269492Y-74746357D01*
X199269492Y-74746357D02*
X199269492Y-74651119D01*
X199269492Y-74651119D02*
X199317111Y-74508262D01*
X199317111Y-74508262D02*
X199364730Y-74460643D01*
X200269492Y-73508262D02*
X200269492Y-74079690D01*
X200269492Y-73793976D02*
X199269492Y-73793976D01*
X199269492Y-73793976D02*
X199412349Y-73889214D01*
X199412349Y-73889214D02*
X199507587Y-73984452D01*
X199507587Y-73984452D02*
X199555206Y-74079690D01*
X199269492Y-72651119D02*
X199269492Y-72841595D01*
X199269492Y-72841595D02*
X199317111Y-72936833D01*
X199317111Y-72936833D02*
X199364730Y-72984452D01*
X199364730Y-72984452D02*
X199507587Y-73079690D01*
X199507587Y-73079690D02*
X199698063Y-73127309D01*
X199698063Y-73127309D02*
X200079015Y-73127309D01*
X200079015Y-73127309D02*
X200174253Y-73079690D01*
X200174253Y-73079690D02*
X200221873Y-73032071D01*
X200221873Y-73032071D02*
X200269492Y-72936833D01*
X200269492Y-72936833D02*
X200269492Y-72746357D01*
X200269492Y-72746357D02*
X200221873Y-72651119D01*
X200221873Y-72651119D02*
X200174253Y-72603500D01*
X200174253Y-72603500D02*
X200079015Y-72555881D01*
X200079015Y-72555881D02*
X199840920Y-72555881D01*
X199840920Y-72555881D02*
X199745682Y-72603500D01*
X199745682Y-72603500D02*
X199698063Y-72651119D01*
X199698063Y-72651119D02*
X199650444Y-72746357D01*
X199650444Y-72746357D02*
X199650444Y-72936833D01*
X199650444Y-72936833D02*
X199698063Y-73032071D01*
X199698063Y-73032071D02*
X199745682Y-73079690D01*
X199745682Y-73079690D02*
X199840920Y-73127309D01*
X189472171Y-49925076D02*
X188995980Y-50258409D01*
X189472171Y-50496504D02*
X188472171Y-50496504D01*
X188472171Y-50496504D02*
X188472171Y-50115552D01*
X188472171Y-50115552D02*
X188519790Y-50020314D01*
X188519790Y-50020314D02*
X188567409Y-49972695D01*
X188567409Y-49972695D02*
X188662647Y-49925076D01*
X188662647Y-49925076D02*
X188805504Y-49925076D01*
X188805504Y-49925076D02*
X188900742Y-49972695D01*
X188900742Y-49972695D02*
X188948361Y-50020314D01*
X188948361Y-50020314D02*
X188995980Y-50115552D01*
X188995980Y-50115552D02*
X188995980Y-50496504D01*
X189472171Y-49448885D02*
X189472171Y-49258409D01*
X189472171Y-49258409D02*
X189424552Y-49163171D01*
X189424552Y-49163171D02*
X189376932Y-49115552D01*
X189376932Y-49115552D02*
X189234075Y-49020314D01*
X189234075Y-49020314D02*
X189043599Y-48972695D01*
X189043599Y-48972695D02*
X188662647Y-48972695D01*
X188662647Y-48972695D02*
X188567409Y-49020314D01*
X188567409Y-49020314D02*
X188519790Y-49067933D01*
X188519790Y-49067933D02*
X188472171Y-49163171D01*
X188472171Y-49163171D02*
X188472171Y-49353647D01*
X188472171Y-49353647D02*
X188519790Y-49448885D01*
X188519790Y-49448885D02*
X188567409Y-49496504D01*
X188567409Y-49496504D02*
X188662647Y-49544123D01*
X188662647Y-49544123D02*
X188900742Y-49544123D01*
X188900742Y-49544123D02*
X188995980Y-49496504D01*
X188995980Y-49496504D02*
X189043599Y-49448885D01*
X189043599Y-49448885D02*
X189091218Y-49353647D01*
X189091218Y-49353647D02*
X189091218Y-49163171D01*
X189091218Y-49163171D02*
X189043599Y-49067933D01*
X189043599Y-49067933D02*
X188995980Y-49020314D01*
X188995980Y-49020314D02*
X188900742Y-48972695D01*
X189472171Y-48020314D02*
X189472171Y-48591742D01*
X189472171Y-48306028D02*
X188472171Y-48306028D01*
X188472171Y-48306028D02*
X188615028Y-48401266D01*
X188615028Y-48401266D02*
X188710266Y-48496504D01*
X188710266Y-48496504D02*
X188757885Y-48591742D01*
X193083550Y-54909969D02*
X193131170Y-54957588D01*
X193131170Y-54957588D02*
X193178789Y-55100445D01*
X193178789Y-55100445D02*
X193178789Y-55195683D01*
X193178789Y-55195683D02*
X193131170Y-55338540D01*
X193131170Y-55338540D02*
X193035931Y-55433778D01*
X193035931Y-55433778D02*
X192940693Y-55481397D01*
X192940693Y-55481397D02*
X192750217Y-55529016D01*
X192750217Y-55529016D02*
X192607360Y-55529016D01*
X192607360Y-55529016D02*
X192416884Y-55481397D01*
X192416884Y-55481397D02*
X192321646Y-55433778D01*
X192321646Y-55433778D02*
X192226408Y-55338540D01*
X192226408Y-55338540D02*
X192178789Y-55195683D01*
X192178789Y-55195683D02*
X192178789Y-55100445D01*
X192178789Y-55100445D02*
X192226408Y-54957588D01*
X192226408Y-54957588D02*
X192274027Y-54909969D01*
X192178789Y-54576635D02*
X192178789Y-53957588D01*
X192178789Y-53957588D02*
X192559741Y-54290921D01*
X192559741Y-54290921D02*
X192559741Y-54148064D01*
X192559741Y-54148064D02*
X192607360Y-54052826D01*
X192607360Y-54052826D02*
X192654979Y-54005207D01*
X192654979Y-54005207D02*
X192750217Y-53957588D01*
X192750217Y-53957588D02*
X192988312Y-53957588D01*
X192988312Y-53957588D02*
X193083550Y-54005207D01*
X193083550Y-54005207D02*
X193131170Y-54052826D01*
X193131170Y-54052826D02*
X193178789Y-54148064D01*
X193178789Y-54148064D02*
X193178789Y-54433778D01*
X193178789Y-54433778D02*
X193131170Y-54529016D01*
X193131170Y-54529016D02*
X193083550Y-54576635D01*
X205069613Y-74226647D02*
X205117233Y-74274266D01*
X205117233Y-74274266D02*
X205164852Y-74417123D01*
X205164852Y-74417123D02*
X205164852Y-74512361D01*
X205164852Y-74512361D02*
X205117233Y-74655218D01*
X205117233Y-74655218D02*
X205021994Y-74750456D01*
X205021994Y-74750456D02*
X204926756Y-74798075D01*
X204926756Y-74798075D02*
X204736280Y-74845694D01*
X204736280Y-74845694D02*
X204593423Y-74845694D01*
X204593423Y-74845694D02*
X204402947Y-74798075D01*
X204402947Y-74798075D02*
X204307709Y-74750456D01*
X204307709Y-74750456D02*
X204212471Y-74655218D01*
X204212471Y-74655218D02*
X204164852Y-74512361D01*
X204164852Y-74512361D02*
X204164852Y-74417123D01*
X204164852Y-74417123D02*
X204212471Y-74274266D01*
X204212471Y-74274266D02*
X204260090Y-74226647D01*
X205164852Y-73274266D02*
X205164852Y-73845694D01*
X205164852Y-73559980D02*
X204164852Y-73559980D01*
X204164852Y-73559980D02*
X204307709Y-73655218D01*
X204307709Y-73655218D02*
X204402947Y-73750456D01*
X204402947Y-73750456D02*
X204450566Y-73845694D01*
X204260090Y-72893313D02*
X204212471Y-72845694D01*
X204212471Y-72845694D02*
X204164852Y-72750456D01*
X204164852Y-72750456D02*
X204164852Y-72512361D01*
X204164852Y-72512361D02*
X204212471Y-72417123D01*
X204212471Y-72417123D02*
X204260090Y-72369504D01*
X204260090Y-72369504D02*
X204355328Y-72321885D01*
X204355328Y-72321885D02*
X204450566Y-72321885D01*
X204450566Y-72321885D02*
X204593423Y-72369504D01*
X204593423Y-72369504D02*
X205164852Y-72940932D01*
X205164852Y-72940932D02*
X205164852Y-72321885D01*
X158473115Y-42721024D02*
X157996924Y-43054357D01*
X158473115Y-43292452D02*
X157473115Y-43292452D01*
X157473115Y-43292452D02*
X157473115Y-42911500D01*
X157473115Y-42911500D02*
X157520734Y-42816262D01*
X157520734Y-42816262D02*
X157568353Y-42768643D01*
X157568353Y-42768643D02*
X157663591Y-42721024D01*
X157663591Y-42721024D02*
X157806448Y-42721024D01*
X157806448Y-42721024D02*
X157901686Y-42768643D01*
X157901686Y-42768643D02*
X157949305Y-42816262D01*
X157949305Y-42816262D02*
X157996924Y-42911500D01*
X157996924Y-42911500D02*
X157996924Y-43292452D01*
X157473115Y-42387690D02*
X157473115Y-41768643D01*
X157473115Y-41768643D02*
X157854067Y-42101976D01*
X157854067Y-42101976D02*
X157854067Y-41959119D01*
X157854067Y-41959119D02*
X157901686Y-41863881D01*
X157901686Y-41863881D02*
X157949305Y-41816262D01*
X157949305Y-41816262D02*
X158044543Y-41768643D01*
X158044543Y-41768643D02*
X158282638Y-41768643D01*
X158282638Y-41768643D02*
X158377876Y-41816262D01*
X158377876Y-41816262D02*
X158425496Y-41863881D01*
X158425496Y-41863881D02*
X158473115Y-41959119D01*
X158473115Y-41959119D02*
X158473115Y-42244833D01*
X158473115Y-42244833D02*
X158425496Y-42340071D01*
X158425496Y-42340071D02*
X158377876Y-42387690D01*
X186981995Y-84826168D02*
X187029615Y-84873787D01*
X187029615Y-84873787D02*
X187077234Y-85016644D01*
X187077234Y-85016644D02*
X187077234Y-85111882D01*
X187077234Y-85111882D02*
X187029615Y-85254739D01*
X187029615Y-85254739D02*
X186934376Y-85349977D01*
X186934376Y-85349977D02*
X186839138Y-85397596D01*
X186839138Y-85397596D02*
X186648662Y-85445215D01*
X186648662Y-85445215D02*
X186505805Y-85445215D01*
X186505805Y-85445215D02*
X186315329Y-85397596D01*
X186315329Y-85397596D02*
X186220091Y-85349977D01*
X186220091Y-85349977D02*
X186124853Y-85254739D01*
X186124853Y-85254739D02*
X186077234Y-85111882D01*
X186077234Y-85111882D02*
X186077234Y-85016644D01*
X186077234Y-85016644D02*
X186124853Y-84873787D01*
X186124853Y-84873787D02*
X186172472Y-84826168D01*
X187077234Y-83873787D02*
X187077234Y-84445215D01*
X187077234Y-84159501D02*
X186077234Y-84159501D01*
X186077234Y-84159501D02*
X186220091Y-84254739D01*
X186220091Y-84254739D02*
X186315329Y-84349977D01*
X186315329Y-84349977D02*
X186362948Y-84445215D01*
X187077234Y-82921406D02*
X187077234Y-83492834D01*
X187077234Y-83207120D02*
X186077234Y-83207120D01*
X186077234Y-83207120D02*
X186220091Y-83302358D01*
X186220091Y-83302358D02*
X186315329Y-83397596D01*
X186315329Y-83397596D02*
X186362948Y-83492834D01*
X214050715Y-74092564D02*
X214098335Y-74140183D01*
X214098335Y-74140183D02*
X214145954Y-74283040D01*
X214145954Y-74283040D02*
X214145954Y-74378278D01*
X214145954Y-74378278D02*
X214098335Y-74521135D01*
X214098335Y-74521135D02*
X214003096Y-74616373D01*
X214003096Y-74616373D02*
X213907858Y-74663992D01*
X213907858Y-74663992D02*
X213717382Y-74711611D01*
X213717382Y-74711611D02*
X213574525Y-74711611D01*
X213574525Y-74711611D02*
X213384049Y-74663992D01*
X213384049Y-74663992D02*
X213288811Y-74616373D01*
X213288811Y-74616373D02*
X213193573Y-74521135D01*
X213193573Y-74521135D02*
X213145954Y-74378278D01*
X213145954Y-74378278D02*
X213145954Y-74283040D01*
X213145954Y-74283040D02*
X213193573Y-74140183D01*
X213193573Y-74140183D02*
X213241192Y-74092564D01*
X214145954Y-73140183D02*
X214145954Y-73711611D01*
X214145954Y-73425897D02*
X213145954Y-73425897D01*
X213145954Y-73425897D02*
X213288811Y-73521135D01*
X213288811Y-73521135D02*
X213384049Y-73616373D01*
X213384049Y-73616373D02*
X213431668Y-73711611D01*
X213145954Y-72806849D02*
X213145954Y-72187802D01*
X213145954Y-72187802D02*
X213526906Y-72521135D01*
X213526906Y-72521135D02*
X213526906Y-72378278D01*
X213526906Y-72378278D02*
X213574525Y-72283040D01*
X213574525Y-72283040D02*
X213622144Y-72235421D01*
X213622144Y-72235421D02*
X213717382Y-72187802D01*
X213717382Y-72187802D02*
X213955477Y-72187802D01*
X213955477Y-72187802D02*
X214050715Y-72235421D01*
X214050715Y-72235421D02*
X214098335Y-72283040D01*
X214098335Y-72283040D02*
X214145954Y-72378278D01*
X214145954Y-72378278D02*
X214145954Y-72663992D01*
X214145954Y-72663992D02*
X214098335Y-72759230D01*
X214098335Y-72759230D02*
X214050715Y-72806849D01*
X158962201Y-52695176D02*
X158628868Y-52218985D01*
X158390773Y-52695176D02*
X158390773Y-51695176D01*
X158390773Y-51695176D02*
X158771725Y-51695176D01*
X158771725Y-51695176D02*
X158866963Y-51742795D01*
X158866963Y-51742795D02*
X158914582Y-51790414D01*
X158914582Y-51790414D02*
X158962201Y-51885652D01*
X158962201Y-51885652D02*
X158962201Y-52028509D01*
X158962201Y-52028509D02*
X158914582Y-52123747D01*
X158914582Y-52123747D02*
X158866963Y-52171366D01*
X158866963Y-52171366D02*
X158771725Y-52218985D01*
X158771725Y-52218985D02*
X158390773Y-52218985D01*
X159819344Y-52028509D02*
X159819344Y-52695176D01*
X159581249Y-51647557D02*
X159343154Y-52361842D01*
X159343154Y-52361842D02*
X159962201Y-52361842D01*
X191733544Y-37050792D02*
X191733544Y-37765077D01*
X191733544Y-37765077D02*
X191685925Y-37907934D01*
X191685925Y-37907934D02*
X191590687Y-38003173D01*
X191590687Y-38003173D02*
X191447830Y-38050792D01*
X191447830Y-38050792D02*
X191352592Y-38050792D01*
X192733544Y-38050792D02*
X192162116Y-38050792D01*
X192447830Y-38050792D02*
X192447830Y-37050792D01*
X192447830Y-37050792D02*
X192352592Y-37193649D01*
X192352592Y-37193649D02*
X192257354Y-37288887D01*
X192257354Y-37288887D02*
X192162116Y-37336506D01*
X169111847Y-38288211D02*
X168778514Y-37812020D01*
X168540419Y-38288211D02*
X168540419Y-37288211D01*
X168540419Y-37288211D02*
X168921371Y-37288211D01*
X168921371Y-37288211D02*
X169016609Y-37335830D01*
X169016609Y-37335830D02*
X169064228Y-37383449D01*
X169064228Y-37383449D02*
X169111847Y-37478687D01*
X169111847Y-37478687D02*
X169111847Y-37621544D01*
X169111847Y-37621544D02*
X169064228Y-37716782D01*
X169064228Y-37716782D02*
X169016609Y-37764401D01*
X169016609Y-37764401D02*
X168921371Y-37812020D01*
X168921371Y-37812020D02*
X168540419Y-37812020D01*
X169492800Y-37383449D02*
X169540419Y-37335830D01*
X169540419Y-37335830D02*
X169635657Y-37288211D01*
X169635657Y-37288211D02*
X169873752Y-37288211D01*
X169873752Y-37288211D02*
X169968990Y-37335830D01*
X169968990Y-37335830D02*
X170016609Y-37383449D01*
X170016609Y-37383449D02*
X170064228Y-37478687D01*
X170064228Y-37478687D02*
X170064228Y-37573925D01*
X170064228Y-37573925D02*
X170016609Y-37716782D01*
X170016609Y-37716782D02*
X169445181Y-38288211D01*
X169445181Y-38288211D02*
X170064228Y-38288211D01*
X170921371Y-37288211D02*
X170730895Y-37288211D01*
X170730895Y-37288211D02*
X170635657Y-37335830D01*
X170635657Y-37335830D02*
X170588038Y-37383449D01*
X170588038Y-37383449D02*
X170492800Y-37526306D01*
X170492800Y-37526306D02*
X170445181Y-37716782D01*
X170445181Y-37716782D02*
X170445181Y-38097734D01*
X170445181Y-38097734D02*
X170492800Y-38192972D01*
X170492800Y-38192972D02*
X170540419Y-38240592D01*
X170540419Y-38240592D02*
X170635657Y-38288211D01*
X170635657Y-38288211D02*
X170826133Y-38288211D01*
X170826133Y-38288211D02*
X170921371Y-38240592D01*
X170921371Y-38240592D02*
X170968990Y-38192972D01*
X170968990Y-38192972D02*
X171016609Y-38097734D01*
X171016609Y-38097734D02*
X171016609Y-37859639D01*
X171016609Y-37859639D02*
X170968990Y-37764401D01*
X170968990Y-37764401D02*
X170921371Y-37716782D01*
X170921371Y-37716782D02*
X170826133Y-37669163D01*
X170826133Y-37669163D02*
X170635657Y-37669163D01*
X170635657Y-37669163D02*
X170540419Y-37716782D01*
X170540419Y-37716782D02*
X170492800Y-37764401D01*
X170492800Y-37764401D02*
X170445181Y-37859639D01*
X169467279Y-42322929D02*
X169133946Y-41846738D01*
X168895851Y-42322929D02*
X168895851Y-41322929D01*
X168895851Y-41322929D02*
X169276803Y-41322929D01*
X169276803Y-41322929D02*
X169372041Y-41370548D01*
X169372041Y-41370548D02*
X169419660Y-41418167D01*
X169419660Y-41418167D02*
X169467279Y-41513405D01*
X169467279Y-41513405D02*
X169467279Y-41656262D01*
X169467279Y-41656262D02*
X169419660Y-41751500D01*
X169419660Y-41751500D02*
X169372041Y-41799119D01*
X169372041Y-41799119D02*
X169276803Y-41846738D01*
X169276803Y-41846738D02*
X168895851Y-41846738D01*
X170038708Y-41751500D02*
X169943470Y-41703881D01*
X169943470Y-41703881D02*
X169895851Y-41656262D01*
X169895851Y-41656262D02*
X169848232Y-41561024D01*
X169848232Y-41561024D02*
X169848232Y-41513405D01*
X169848232Y-41513405D02*
X169895851Y-41418167D01*
X169895851Y-41418167D02*
X169943470Y-41370548D01*
X169943470Y-41370548D02*
X170038708Y-41322929D01*
X170038708Y-41322929D02*
X170229184Y-41322929D01*
X170229184Y-41322929D02*
X170324422Y-41370548D01*
X170324422Y-41370548D02*
X170372041Y-41418167D01*
X170372041Y-41418167D02*
X170419660Y-41513405D01*
X170419660Y-41513405D02*
X170419660Y-41561024D01*
X170419660Y-41561024D02*
X170372041Y-41656262D01*
X170372041Y-41656262D02*
X170324422Y-41703881D01*
X170324422Y-41703881D02*
X170229184Y-41751500D01*
X170229184Y-41751500D02*
X170038708Y-41751500D01*
X170038708Y-41751500D02*
X169943470Y-41799119D01*
X169943470Y-41799119D02*
X169895851Y-41846738D01*
X169895851Y-41846738D02*
X169848232Y-41941976D01*
X169848232Y-41941976D02*
X169848232Y-42132452D01*
X169848232Y-42132452D02*
X169895851Y-42227690D01*
X169895851Y-42227690D02*
X169943470Y-42275310D01*
X169943470Y-42275310D02*
X170038708Y-42322929D01*
X170038708Y-42322929D02*
X170229184Y-42322929D01*
X170229184Y-42322929D02*
X170324422Y-42275310D01*
X170324422Y-42275310D02*
X170372041Y-42227690D01*
X170372041Y-42227690D02*
X170419660Y-42132452D01*
X170419660Y-42132452D02*
X170419660Y-41941976D01*
X170419660Y-41941976D02*
X170372041Y-41846738D01*
X170372041Y-41846738D02*
X170324422Y-41799119D01*
X170324422Y-41799119D02*
X170229184Y-41751500D01*
X170991089Y-41751500D02*
X170895851Y-41703881D01*
X170895851Y-41703881D02*
X170848232Y-41656262D01*
X170848232Y-41656262D02*
X170800613Y-41561024D01*
X170800613Y-41561024D02*
X170800613Y-41513405D01*
X170800613Y-41513405D02*
X170848232Y-41418167D01*
X170848232Y-41418167D02*
X170895851Y-41370548D01*
X170895851Y-41370548D02*
X170991089Y-41322929D01*
X170991089Y-41322929D02*
X171181565Y-41322929D01*
X171181565Y-41322929D02*
X171276803Y-41370548D01*
X171276803Y-41370548D02*
X171324422Y-41418167D01*
X171324422Y-41418167D02*
X171372041Y-41513405D01*
X171372041Y-41513405D02*
X171372041Y-41561024D01*
X171372041Y-41561024D02*
X171324422Y-41656262D01*
X171324422Y-41656262D02*
X171276803Y-41703881D01*
X171276803Y-41703881D02*
X171181565Y-41751500D01*
X171181565Y-41751500D02*
X170991089Y-41751500D01*
X170991089Y-41751500D02*
X170895851Y-41799119D01*
X170895851Y-41799119D02*
X170848232Y-41846738D01*
X170848232Y-41846738D02*
X170800613Y-41941976D01*
X170800613Y-41941976D02*
X170800613Y-42132452D01*
X170800613Y-42132452D02*
X170848232Y-42227690D01*
X170848232Y-42227690D02*
X170895851Y-42275310D01*
X170895851Y-42275310D02*
X170991089Y-42322929D01*
X170991089Y-42322929D02*
X171181565Y-42322929D01*
X171181565Y-42322929D02*
X171276803Y-42275310D01*
X171276803Y-42275310D02*
X171324422Y-42227690D01*
X171324422Y-42227690D02*
X171372041Y-42132452D01*
X171372041Y-42132452D02*
X171372041Y-41941976D01*
X171372041Y-41941976D02*
X171324422Y-41846738D01*
X171324422Y-41846738D02*
X171276803Y-41799119D01*
X171276803Y-41799119D02*
X171181565Y-41751500D01*
X185585892Y-61224215D02*
X186062083Y-61224215D01*
X185062083Y-61557548D02*
X185585892Y-61224215D01*
X185585892Y-61224215D02*
X185062083Y-60890882D01*
X185395416Y-60128977D02*
X186062083Y-60128977D01*
X185014464Y-60367072D02*
X185728749Y-60605167D01*
X185728749Y-60605167D02*
X185728749Y-59986120D01*
X200977814Y-48670322D02*
X200977814Y-47670322D01*
X200977814Y-47670322D02*
X201215909Y-47670322D01*
X201215909Y-47670322D02*
X201358766Y-47717941D01*
X201358766Y-47717941D02*
X201454004Y-47813179D01*
X201454004Y-47813179D02*
X201501623Y-47908417D01*
X201501623Y-47908417D02*
X201549242Y-48098893D01*
X201549242Y-48098893D02*
X201549242Y-48241750D01*
X201549242Y-48241750D02*
X201501623Y-48432226D01*
X201501623Y-48432226D02*
X201454004Y-48527464D01*
X201454004Y-48527464D02*
X201358766Y-48622703D01*
X201358766Y-48622703D02*
X201215909Y-48670322D01*
X201215909Y-48670322D02*
X200977814Y-48670322D01*
X202501623Y-48670322D02*
X201930195Y-48670322D01*
X202215909Y-48670322D02*
X202215909Y-47670322D01*
X202215909Y-47670322D02*
X202120671Y-47813179D01*
X202120671Y-47813179D02*
X202025433Y-47908417D01*
X202025433Y-47908417D02*
X201930195Y-47956036D01*
X203672707Y-32727719D02*
X203625088Y-32775339D01*
X203625088Y-32775339D02*
X203482231Y-32822958D01*
X203482231Y-32822958D02*
X203386993Y-32822958D01*
X203386993Y-32822958D02*
X203244136Y-32775339D01*
X203244136Y-32775339D02*
X203148898Y-32680100D01*
X203148898Y-32680100D02*
X203101279Y-32584862D01*
X203101279Y-32584862D02*
X203053660Y-32394386D01*
X203053660Y-32394386D02*
X203053660Y-32251529D01*
X203053660Y-32251529D02*
X203101279Y-32061053D01*
X203101279Y-32061053D02*
X203148898Y-31965815D01*
X203148898Y-31965815D02*
X203244136Y-31870577D01*
X203244136Y-31870577D02*
X203386993Y-31822958D01*
X203386993Y-31822958D02*
X203482231Y-31822958D01*
X203482231Y-31822958D02*
X203625088Y-31870577D01*
X203625088Y-31870577D02*
X203672707Y-31918196D01*
X204244136Y-32251529D02*
X204148898Y-32203910D01*
X204148898Y-32203910D02*
X204101279Y-32156291D01*
X204101279Y-32156291D02*
X204053660Y-32061053D01*
X204053660Y-32061053D02*
X204053660Y-32013434D01*
X204053660Y-32013434D02*
X204101279Y-31918196D01*
X204101279Y-31918196D02*
X204148898Y-31870577D01*
X204148898Y-31870577D02*
X204244136Y-31822958D01*
X204244136Y-31822958D02*
X204434612Y-31822958D01*
X204434612Y-31822958D02*
X204529850Y-31870577D01*
X204529850Y-31870577D02*
X204577469Y-31918196D01*
X204577469Y-31918196D02*
X204625088Y-32013434D01*
X204625088Y-32013434D02*
X204625088Y-32061053D01*
X204625088Y-32061053D02*
X204577469Y-32156291D01*
X204577469Y-32156291D02*
X204529850Y-32203910D01*
X204529850Y-32203910D02*
X204434612Y-32251529D01*
X204434612Y-32251529D02*
X204244136Y-32251529D01*
X204244136Y-32251529D02*
X204148898Y-32299148D01*
X204148898Y-32299148D02*
X204101279Y-32346767D01*
X204101279Y-32346767D02*
X204053660Y-32442005D01*
X204053660Y-32442005D02*
X204053660Y-32632481D01*
X204053660Y-32632481D02*
X204101279Y-32727719D01*
X204101279Y-32727719D02*
X204148898Y-32775339D01*
X204148898Y-32775339D02*
X204244136Y-32822958D01*
X204244136Y-32822958D02*
X204434612Y-32822958D01*
X204434612Y-32822958D02*
X204529850Y-32775339D01*
X204529850Y-32775339D02*
X204577469Y-32727719D01*
X204577469Y-32727719D02*
X204625088Y-32632481D01*
X204625088Y-32632481D02*
X204625088Y-32442005D01*
X204625088Y-32442005D02*
X204577469Y-32346767D01*
X204577469Y-32346767D02*
X204529850Y-32299148D01*
X204529850Y-32299148D02*
X204434612Y-32251529D01*
X162538628Y-46196190D02*
X163014819Y-46196190D01*
X162014819Y-46529523D02*
X162538628Y-46196190D01*
X162538628Y-46196190D02*
X162014819Y-45862857D01*
X162014819Y-45624761D02*
X162014819Y-45005714D01*
X162014819Y-45005714D02*
X162395771Y-45339047D01*
X162395771Y-45339047D02*
X162395771Y-45196190D01*
X162395771Y-45196190D02*
X162443390Y-45100952D01*
X162443390Y-45100952D02*
X162491009Y-45053333D01*
X162491009Y-45053333D02*
X162586247Y-45005714D01*
X162586247Y-45005714D02*
X162824342Y-45005714D01*
X162824342Y-45005714D02*
X162919580Y-45053333D01*
X162919580Y-45053333D02*
X162967200Y-45100952D01*
X162967200Y-45100952D02*
X163014819Y-45196190D01*
X163014819Y-45196190D02*
X163014819Y-45481904D01*
X163014819Y-45481904D02*
X162967200Y-45577142D01*
X162967200Y-45577142D02*
X162919580Y-45624761D01*
X179578095Y-39324819D02*
X179578095Y-40134342D01*
X179578095Y-40134342D02*
X179625714Y-40229580D01*
X179625714Y-40229580D02*
X179673333Y-40277200D01*
X179673333Y-40277200D02*
X179768571Y-40324819D01*
X179768571Y-40324819D02*
X179959047Y-40324819D01*
X179959047Y-40324819D02*
X180054285Y-40277200D01*
X180054285Y-40277200D02*
X180101904Y-40229580D01*
X180101904Y-40229580D02*
X180149523Y-40134342D01*
X180149523Y-40134342D02*
X180149523Y-39324819D01*
X181149523Y-40324819D02*
X180578095Y-40324819D01*
X180863809Y-40324819D02*
X180863809Y-39324819D01*
X180863809Y-39324819D02*
X180768571Y-39467676D01*
X180768571Y-39467676D02*
X180673333Y-39562914D01*
X180673333Y-39562914D02*
X180578095Y-39610533D01*
X200487819Y-79432873D02*
X200440200Y-79480493D01*
X200440200Y-79480493D02*
X200297343Y-79528112D01*
X200297343Y-79528112D02*
X200202105Y-79528112D01*
X200202105Y-79528112D02*
X200059248Y-79480493D01*
X200059248Y-79480493D02*
X199964010Y-79385254D01*
X199964010Y-79385254D02*
X199916391Y-79290016D01*
X199916391Y-79290016D02*
X199868772Y-79099540D01*
X199868772Y-79099540D02*
X199868772Y-78956683D01*
X199868772Y-78956683D02*
X199916391Y-78766207D01*
X199916391Y-78766207D02*
X199964010Y-78670969D01*
X199964010Y-78670969D02*
X200059248Y-78575731D01*
X200059248Y-78575731D02*
X200202105Y-78528112D01*
X200202105Y-78528112D02*
X200297343Y-78528112D01*
X200297343Y-78528112D02*
X200440200Y-78575731D01*
X200440200Y-78575731D02*
X200487819Y-78623350D01*
X201440200Y-79528112D02*
X200868772Y-79528112D01*
X201154486Y-79528112D02*
X201154486Y-78528112D01*
X201154486Y-78528112D02*
X201059248Y-78670969D01*
X201059248Y-78670969D02*
X200964010Y-78766207D01*
X200964010Y-78766207D02*
X200868772Y-78813826D01*
X201773534Y-78528112D02*
X202440200Y-78528112D01*
X202440200Y-78528112D02*
X202011629Y-79528112D01*
X156970512Y-33812290D02*
X157684797Y-33812290D01*
X157684797Y-33812290D02*
X157827654Y-33859909D01*
X157827654Y-33859909D02*
X157922893Y-33955147D01*
X157922893Y-33955147D02*
X157970512Y-34098004D01*
X157970512Y-34098004D02*
X157970512Y-34193242D01*
X157065750Y-33383718D02*
X157018131Y-33336099D01*
X157018131Y-33336099D02*
X156970512Y-33240861D01*
X156970512Y-33240861D02*
X156970512Y-33002766D01*
X156970512Y-33002766D02*
X157018131Y-32907528D01*
X157018131Y-32907528D02*
X157065750Y-32859909D01*
X157065750Y-32859909D02*
X157160988Y-32812290D01*
X157160988Y-32812290D02*
X157256226Y-32812290D01*
X157256226Y-32812290D02*
X157399083Y-32859909D01*
X157399083Y-32859909D02*
X157970512Y-33431337D01*
X157970512Y-33431337D02*
X157970512Y-32812290D01*
X192539713Y-74517017D02*
X192587333Y-74564636D01*
X192587333Y-74564636D02*
X192634952Y-74707493D01*
X192634952Y-74707493D02*
X192634952Y-74802731D01*
X192634952Y-74802731D02*
X192587333Y-74945588D01*
X192587333Y-74945588D02*
X192492094Y-75040826D01*
X192492094Y-75040826D02*
X192396856Y-75088445D01*
X192396856Y-75088445D02*
X192206380Y-75136064D01*
X192206380Y-75136064D02*
X192063523Y-75136064D01*
X192063523Y-75136064D02*
X191873047Y-75088445D01*
X191873047Y-75088445D02*
X191777809Y-75040826D01*
X191777809Y-75040826D02*
X191682571Y-74945588D01*
X191682571Y-74945588D02*
X191634952Y-74802731D01*
X191634952Y-74802731D02*
X191634952Y-74707493D01*
X191634952Y-74707493D02*
X191682571Y-74564636D01*
X191682571Y-74564636D02*
X191730190Y-74517017D01*
X192634952Y-73564636D02*
X192634952Y-74136064D01*
X192634952Y-73850350D02*
X191634952Y-73850350D01*
X191634952Y-73850350D02*
X191777809Y-73945588D01*
X191777809Y-73945588D02*
X191873047Y-74040826D01*
X191873047Y-74040826D02*
X191920666Y-74136064D01*
X191634952Y-72659874D02*
X191634952Y-73136064D01*
X191634952Y-73136064D02*
X192111142Y-73183683D01*
X192111142Y-73183683D02*
X192063523Y-73136064D01*
X192063523Y-73136064D02*
X192015904Y-73040826D01*
X192015904Y-73040826D02*
X192015904Y-72802731D01*
X192015904Y-72802731D02*
X192063523Y-72707493D01*
X192063523Y-72707493D02*
X192111142Y-72659874D01*
X192111142Y-72659874D02*
X192206380Y-72612255D01*
X192206380Y-72612255D02*
X192444475Y-72612255D01*
X192444475Y-72612255D02*
X192539713Y-72659874D01*
X192539713Y-72659874D02*
X192587333Y-72707493D01*
X192587333Y-72707493D02*
X192634952Y-72802731D01*
X192634952Y-72802731D02*
X192634952Y-73040826D01*
X192634952Y-73040826D02*
X192587333Y-73136064D01*
X192587333Y-73136064D02*
X192539713Y-73183683D01*
X169537142Y-47123010D02*
X169203809Y-46646819D01*
X168965714Y-47123010D02*
X168965714Y-46123010D01*
X168965714Y-46123010D02*
X169346666Y-46123010D01*
X169346666Y-46123010D02*
X169441904Y-46170629D01*
X169441904Y-46170629D02*
X169489523Y-46218248D01*
X169489523Y-46218248D02*
X169537142Y-46313486D01*
X169537142Y-46313486D02*
X169537142Y-46456343D01*
X169537142Y-46456343D02*
X169489523Y-46551581D01*
X169489523Y-46551581D02*
X169441904Y-46599200D01*
X169441904Y-46599200D02*
X169346666Y-46646819D01*
X169346666Y-46646819D02*
X168965714Y-46646819D01*
X170013333Y-47123010D02*
X170203809Y-47123010D01*
X170203809Y-47123010D02*
X170299047Y-47075391D01*
X170299047Y-47075391D02*
X170346666Y-47027771D01*
X170346666Y-47027771D02*
X170441904Y-46884914D01*
X170441904Y-46884914D02*
X170489523Y-46694438D01*
X170489523Y-46694438D02*
X170489523Y-46313486D01*
X170489523Y-46313486D02*
X170441904Y-46218248D01*
X170441904Y-46218248D02*
X170394285Y-46170629D01*
X170394285Y-46170629D02*
X170299047Y-46123010D01*
X170299047Y-46123010D02*
X170108571Y-46123010D01*
X170108571Y-46123010D02*
X170013333Y-46170629D01*
X170013333Y-46170629D02*
X169965714Y-46218248D01*
X169965714Y-46218248D02*
X169918095Y-46313486D01*
X169918095Y-46313486D02*
X169918095Y-46551581D01*
X169918095Y-46551581D02*
X169965714Y-46646819D01*
X169965714Y-46646819D02*
X170013333Y-46694438D01*
X170013333Y-46694438D02*
X170108571Y-46742057D01*
X170108571Y-46742057D02*
X170299047Y-46742057D01*
X170299047Y-46742057D02*
X170394285Y-46694438D01*
X170394285Y-46694438D02*
X170441904Y-46646819D01*
X170441904Y-46646819D02*
X170489523Y-46551581D01*
X171108571Y-46123010D02*
X171203809Y-46123010D01*
X171203809Y-46123010D02*
X171299047Y-46170629D01*
X171299047Y-46170629D02*
X171346666Y-46218248D01*
X171346666Y-46218248D02*
X171394285Y-46313486D01*
X171394285Y-46313486D02*
X171441904Y-46503962D01*
X171441904Y-46503962D02*
X171441904Y-46742057D01*
X171441904Y-46742057D02*
X171394285Y-46932533D01*
X171394285Y-46932533D02*
X171346666Y-47027771D01*
X171346666Y-47027771D02*
X171299047Y-47075391D01*
X171299047Y-47075391D02*
X171203809Y-47123010D01*
X171203809Y-47123010D02*
X171108571Y-47123010D01*
X171108571Y-47123010D02*
X171013333Y-47075391D01*
X171013333Y-47075391D02*
X170965714Y-47027771D01*
X170965714Y-47027771D02*
X170918095Y-46932533D01*
X170918095Y-46932533D02*
X170870476Y-46742057D01*
X170870476Y-46742057D02*
X170870476Y-46503962D01*
X170870476Y-46503962D02*
X170918095Y-46313486D01*
X170918095Y-46313486D02*
X170965714Y-46218248D01*
X170965714Y-46218248D02*
X171013333Y-46170629D01*
X171013333Y-46170629D02*
X171108571Y-46123010D01*
X180789607Y-34316080D02*
X180313416Y-34649413D01*
X180789607Y-34887508D02*
X179789607Y-34887508D01*
X179789607Y-34887508D02*
X179789607Y-34506556D01*
X179789607Y-34506556D02*
X179837226Y-34411318D01*
X179837226Y-34411318D02*
X179884845Y-34363699D01*
X179884845Y-34363699D02*
X179980083Y-34316080D01*
X179980083Y-34316080D02*
X180122940Y-34316080D01*
X180122940Y-34316080D02*
X180218178Y-34363699D01*
X180218178Y-34363699D02*
X180265797Y-34411318D01*
X180265797Y-34411318D02*
X180313416Y-34506556D01*
X180313416Y-34506556D02*
X180313416Y-34887508D01*
X179884845Y-33935127D02*
X179837226Y-33887508D01*
X179837226Y-33887508D02*
X179789607Y-33792270D01*
X179789607Y-33792270D02*
X179789607Y-33554175D01*
X179789607Y-33554175D02*
X179837226Y-33458937D01*
X179837226Y-33458937D02*
X179884845Y-33411318D01*
X179884845Y-33411318D02*
X179980083Y-33363699D01*
X179980083Y-33363699D02*
X180075321Y-33363699D01*
X180075321Y-33363699D02*
X180218178Y-33411318D01*
X180218178Y-33411318D02*
X180789607Y-33982746D01*
X180789607Y-33982746D02*
X180789607Y-33363699D01*
X179789607Y-33030365D02*
X179789607Y-32363699D01*
X179789607Y-32363699D02*
X180789607Y-32792270D01*
X169654318Y-33799601D02*
X170368603Y-33799601D01*
X170368603Y-33799601D02*
X170511460Y-33847220D01*
X170511460Y-33847220D02*
X170606699Y-33942458D01*
X170606699Y-33942458D02*
X170654318Y-34085315D01*
X170654318Y-34085315D02*
X170654318Y-34180553D01*
X170654318Y-32799601D02*
X170654318Y-33371029D01*
X170654318Y-33085315D02*
X169654318Y-33085315D01*
X169654318Y-33085315D02*
X169797175Y-33180553D01*
X169797175Y-33180553D02*
X169892413Y-33275791D01*
X169892413Y-33275791D02*
X169940032Y-33371029D01*
X170654318Y-31847220D02*
X170654318Y-32418648D01*
X170654318Y-32132934D02*
X169654318Y-32132934D01*
X169654318Y-32132934D02*
X169797175Y-32228172D01*
X169797175Y-32228172D02*
X169892413Y-32323410D01*
X169892413Y-32323410D02*
X169940032Y-32418648D01*
X183557297Y-54766108D02*
X183604917Y-54813727D01*
X183604917Y-54813727D02*
X183652536Y-54956584D01*
X183652536Y-54956584D02*
X183652536Y-55051822D01*
X183652536Y-55051822D02*
X183604917Y-55194679D01*
X183604917Y-55194679D02*
X183509678Y-55289917D01*
X183509678Y-55289917D02*
X183414440Y-55337536D01*
X183414440Y-55337536D02*
X183223964Y-55385155D01*
X183223964Y-55385155D02*
X183081107Y-55385155D01*
X183081107Y-55385155D02*
X182890631Y-55337536D01*
X182890631Y-55337536D02*
X182795393Y-55289917D01*
X182795393Y-55289917D02*
X182700155Y-55194679D01*
X182700155Y-55194679D02*
X182652536Y-55051822D01*
X182652536Y-55051822D02*
X182652536Y-54956584D01*
X182652536Y-54956584D02*
X182700155Y-54813727D01*
X182700155Y-54813727D02*
X182747774Y-54766108D01*
X182985869Y-53908965D02*
X183652536Y-53908965D01*
X182604917Y-54147060D02*
X183319202Y-54385155D01*
X183319202Y-54385155D02*
X183319202Y-53766108D01*
X159248190Y-55900975D02*
X159391047Y-55948594D01*
X159391047Y-55948594D02*
X159629142Y-55948594D01*
X159629142Y-55948594D02*
X159724380Y-55900975D01*
X159724380Y-55900975D02*
X159771999Y-55853355D01*
X159771999Y-55853355D02*
X159819618Y-55758117D01*
X159819618Y-55758117D02*
X159819618Y-55662879D01*
X159819618Y-55662879D02*
X159771999Y-55567641D01*
X159771999Y-55567641D02*
X159724380Y-55520022D01*
X159724380Y-55520022D02*
X159629142Y-55472403D01*
X159629142Y-55472403D02*
X159438666Y-55424784D01*
X159438666Y-55424784D02*
X159343428Y-55377165D01*
X159343428Y-55377165D02*
X159295809Y-55329546D01*
X159295809Y-55329546D02*
X159248190Y-55234308D01*
X159248190Y-55234308D02*
X159248190Y-55139070D01*
X159248190Y-55139070D02*
X159295809Y-55043832D01*
X159295809Y-55043832D02*
X159343428Y-54996213D01*
X159343428Y-54996213D02*
X159438666Y-54948594D01*
X159438666Y-54948594D02*
X159676761Y-54948594D01*
X159676761Y-54948594D02*
X159819618Y-54996213D01*
X160152952Y-54948594D02*
X160391047Y-55948594D01*
X160391047Y-55948594D02*
X160581523Y-55234308D01*
X160581523Y-55234308D02*
X160771999Y-55948594D01*
X160771999Y-55948594D02*
X161010095Y-54948594D01*
X161914856Y-55948594D02*
X161343428Y-55948594D01*
X161629142Y-55948594D02*
X161629142Y-54948594D01*
X161629142Y-54948594D02*
X161533904Y-55091451D01*
X161533904Y-55091451D02*
X161438666Y-55186689D01*
X161438666Y-55186689D02*
X161343428Y-55234308D01*
X211756666Y-32474819D02*
X211756666Y-33189104D01*
X211756666Y-33189104D02*
X211709047Y-33331961D01*
X211709047Y-33331961D02*
X211613809Y-33427200D01*
X211613809Y-33427200D02*
X211470952Y-33474819D01*
X211470952Y-33474819D02*
X211375714Y-33474819D01*
X212709047Y-32474819D02*
X212232857Y-32474819D01*
X212232857Y-32474819D02*
X212185238Y-32951009D01*
X212185238Y-32951009D02*
X212232857Y-32903390D01*
X212232857Y-32903390D02*
X212328095Y-32855771D01*
X212328095Y-32855771D02*
X212566190Y-32855771D01*
X212566190Y-32855771D02*
X212661428Y-32903390D01*
X212661428Y-32903390D02*
X212709047Y-32951009D01*
X212709047Y-32951009D02*
X212756666Y-33046247D01*
X212756666Y-33046247D02*
X212756666Y-33284342D01*
X212756666Y-33284342D02*
X212709047Y-33379580D01*
X212709047Y-33379580D02*
X212661428Y-33427200D01*
X212661428Y-33427200D02*
X212566190Y-33474819D01*
X212566190Y-33474819D02*
X212328095Y-33474819D01*
X212328095Y-33474819D02*
X212232857Y-33427200D01*
X212232857Y-33427200D02*
X212185238Y-33379580D01*
X154452400Y-48755983D02*
X154500019Y-48613126D01*
X154500019Y-48613126D02*
X154500019Y-48375031D01*
X154500019Y-48375031D02*
X154452400Y-48279793D01*
X154452400Y-48279793D02*
X154404780Y-48232174D01*
X154404780Y-48232174D02*
X154309542Y-48184555D01*
X154309542Y-48184555D02*
X154214304Y-48184555D01*
X154214304Y-48184555D02*
X154119066Y-48232174D01*
X154119066Y-48232174D02*
X154071447Y-48279793D01*
X154071447Y-48279793D02*
X154023828Y-48375031D01*
X154023828Y-48375031D02*
X153976209Y-48565507D01*
X153976209Y-48565507D02*
X153928590Y-48660745D01*
X153928590Y-48660745D02*
X153880971Y-48708364D01*
X153880971Y-48708364D02*
X153785733Y-48755983D01*
X153785733Y-48755983D02*
X153690495Y-48755983D01*
X153690495Y-48755983D02*
X153595257Y-48708364D01*
X153595257Y-48708364D02*
X153547638Y-48660745D01*
X153547638Y-48660745D02*
X153500019Y-48565507D01*
X153500019Y-48565507D02*
X153500019Y-48327412D01*
X153500019Y-48327412D02*
X153547638Y-48184555D01*
X153500019Y-47851221D02*
X154500019Y-47613126D01*
X154500019Y-47613126D02*
X153785733Y-47422650D01*
X153785733Y-47422650D02*
X154500019Y-47232174D01*
X154500019Y-47232174D02*
X153500019Y-46994079D01*
X153595257Y-46660745D02*
X153547638Y-46613126D01*
X153547638Y-46613126D02*
X153500019Y-46517888D01*
X153500019Y-46517888D02*
X153500019Y-46279793D01*
X153500019Y-46279793D02*
X153547638Y-46184555D01*
X153547638Y-46184555D02*
X153595257Y-46136936D01*
X153595257Y-46136936D02*
X153690495Y-46089317D01*
X153690495Y-46089317D02*
X153785733Y-46089317D01*
X153785733Y-46089317D02*
X153928590Y-46136936D01*
X153928590Y-46136936D02*
X154500019Y-46708364D01*
X154500019Y-46708364D02*
X154500019Y-46089317D01*
X206857127Y-70615565D02*
X206857127Y-71425088D01*
X206857127Y-71425088D02*
X206904746Y-71520326D01*
X206904746Y-71520326D02*
X206952365Y-71567946D01*
X206952365Y-71567946D02*
X207047603Y-71615565D01*
X207047603Y-71615565D02*
X207238079Y-71615565D01*
X207238079Y-71615565D02*
X207333317Y-71567946D01*
X207333317Y-71567946D02*
X207380936Y-71520326D01*
X207380936Y-71520326D02*
X207428555Y-71425088D01*
X207428555Y-71425088D02*
X207428555Y-70615565D01*
X207857127Y-70710803D02*
X207904746Y-70663184D01*
X207904746Y-70663184D02*
X207999984Y-70615565D01*
X207999984Y-70615565D02*
X208238079Y-70615565D01*
X208238079Y-70615565D02*
X208333317Y-70663184D01*
X208333317Y-70663184D02*
X208380936Y-70710803D01*
X208380936Y-70710803D02*
X208428555Y-70806041D01*
X208428555Y-70806041D02*
X208428555Y-70901279D01*
X208428555Y-70901279D02*
X208380936Y-71044136D01*
X208380936Y-71044136D02*
X207809508Y-71615565D01*
X207809508Y-71615565D02*
X208428555Y-71615565D01*
X154921241Y-54816617D02*
X154968861Y-54864236D01*
X154968861Y-54864236D02*
X155016480Y-55007093D01*
X155016480Y-55007093D02*
X155016480Y-55102331D01*
X155016480Y-55102331D02*
X154968861Y-55245188D01*
X154968861Y-55245188D02*
X154873622Y-55340426D01*
X154873622Y-55340426D02*
X154778384Y-55388045D01*
X154778384Y-55388045D02*
X154587908Y-55435664D01*
X154587908Y-55435664D02*
X154445051Y-55435664D01*
X154445051Y-55435664D02*
X154254575Y-55388045D01*
X154254575Y-55388045D02*
X154159337Y-55340426D01*
X154159337Y-55340426D02*
X154064099Y-55245188D01*
X154064099Y-55245188D02*
X154016480Y-55102331D01*
X154016480Y-55102331D02*
X154016480Y-55007093D01*
X154016480Y-55007093D02*
X154064099Y-54864236D01*
X154064099Y-54864236D02*
X154111718Y-54816617D01*
X154016480Y-54483283D02*
X154016480Y-53816617D01*
X154016480Y-53816617D02*
X155016480Y-54245188D01*
X169846666Y-50414819D02*
X169846666Y-51129104D01*
X169846666Y-51129104D02*
X169799047Y-51271961D01*
X169799047Y-51271961D02*
X169703809Y-51367200D01*
X169703809Y-51367200D02*
X169560952Y-51414819D01*
X169560952Y-51414819D02*
X169465714Y-51414819D01*
X170751428Y-50748152D02*
X170751428Y-51414819D01*
X170513333Y-50367200D02*
X170275238Y-51081485D01*
X170275238Y-51081485D02*
X170894285Y-51081485D01*
X166599302Y-52072725D02*
X166646922Y-52120344D01*
X166646922Y-52120344D02*
X166694541Y-52263201D01*
X166694541Y-52263201D02*
X166694541Y-52358439D01*
X166694541Y-52358439D02*
X166646922Y-52501296D01*
X166646922Y-52501296D02*
X166551683Y-52596534D01*
X166551683Y-52596534D02*
X166456445Y-52644153D01*
X166456445Y-52644153D02*
X166265969Y-52691772D01*
X166265969Y-52691772D02*
X166123112Y-52691772D01*
X166123112Y-52691772D02*
X165932636Y-52644153D01*
X165932636Y-52644153D02*
X165837398Y-52596534D01*
X165837398Y-52596534D02*
X165742160Y-52501296D01*
X165742160Y-52501296D02*
X165694541Y-52358439D01*
X165694541Y-52358439D02*
X165694541Y-52263201D01*
X165694541Y-52263201D02*
X165742160Y-52120344D01*
X165742160Y-52120344D02*
X165789779Y-52072725D01*
X166694541Y-51120344D02*
X166694541Y-51691772D01*
X166694541Y-51406058D02*
X165694541Y-51406058D01*
X165694541Y-51406058D02*
X165837398Y-51501296D01*
X165837398Y-51501296D02*
X165932636Y-51596534D01*
X165932636Y-51596534D02*
X165980255Y-51691772D01*
X172094708Y-40652336D02*
X172047089Y-40699956D01*
X172047089Y-40699956D02*
X171904232Y-40747575D01*
X171904232Y-40747575D02*
X171808994Y-40747575D01*
X171808994Y-40747575D02*
X171666137Y-40699956D01*
X171666137Y-40699956D02*
X171570899Y-40604717D01*
X171570899Y-40604717D02*
X171523280Y-40509479D01*
X171523280Y-40509479D02*
X171475661Y-40319003D01*
X171475661Y-40319003D02*
X171475661Y-40176146D01*
X171475661Y-40176146D02*
X171523280Y-39985670D01*
X171523280Y-39985670D02*
X171570899Y-39890432D01*
X171570899Y-39890432D02*
X171666137Y-39795194D01*
X171666137Y-39795194D02*
X171808994Y-39747575D01*
X171808994Y-39747575D02*
X171904232Y-39747575D01*
X171904232Y-39747575D02*
X172047089Y-39795194D01*
X172047089Y-39795194D02*
X172094708Y-39842813D01*
X172999470Y-39747575D02*
X172523280Y-39747575D01*
X172523280Y-39747575D02*
X172475661Y-40223765D01*
X172475661Y-40223765D02*
X172523280Y-40176146D01*
X172523280Y-40176146D02*
X172618518Y-40128527D01*
X172618518Y-40128527D02*
X172856613Y-40128527D01*
X172856613Y-40128527D02*
X172951851Y-40176146D01*
X172951851Y-40176146D02*
X172999470Y-40223765D01*
X172999470Y-40223765D02*
X173047089Y-40319003D01*
X173047089Y-40319003D02*
X173047089Y-40557098D01*
X173047089Y-40557098D02*
X172999470Y-40652336D01*
X172999470Y-40652336D02*
X172951851Y-40699956D01*
X172951851Y-40699956D02*
X172856613Y-40747575D01*
X172856613Y-40747575D02*
X172618518Y-40747575D01*
X172618518Y-40747575D02*
X172523280Y-40699956D01*
X172523280Y-40699956D02*
X172475661Y-40652336D01*
X173999470Y-40747575D02*
X173428042Y-40747575D01*
X173713756Y-40747575D02*
X173713756Y-39747575D01*
X173713756Y-39747575D02*
X173618518Y-39890432D01*
X173618518Y-39890432D02*
X173523280Y-39985670D01*
X173523280Y-39985670D02*
X173428042Y-40033289D01*
X187396465Y-49999209D02*
X186920274Y-50332542D01*
X187396465Y-50570637D02*
X186396465Y-50570637D01*
X186396465Y-50570637D02*
X186396465Y-50189685D01*
X186396465Y-50189685D02*
X186444084Y-50094447D01*
X186444084Y-50094447D02*
X186491703Y-50046828D01*
X186491703Y-50046828D02*
X186586941Y-49999209D01*
X186586941Y-49999209D02*
X186729798Y-49999209D01*
X186729798Y-49999209D02*
X186825036Y-50046828D01*
X186825036Y-50046828D02*
X186872655Y-50094447D01*
X186872655Y-50094447D02*
X186920274Y-50189685D01*
X186920274Y-50189685D02*
X186920274Y-50570637D01*
X186825036Y-49427780D02*
X186777417Y-49523018D01*
X186777417Y-49523018D02*
X186729798Y-49570637D01*
X186729798Y-49570637D02*
X186634560Y-49618256D01*
X186634560Y-49618256D02*
X186586941Y-49618256D01*
X186586941Y-49618256D02*
X186491703Y-49570637D01*
X186491703Y-49570637D02*
X186444084Y-49523018D01*
X186444084Y-49523018D02*
X186396465Y-49427780D01*
X186396465Y-49427780D02*
X186396465Y-49237304D01*
X186396465Y-49237304D02*
X186444084Y-49142066D01*
X186444084Y-49142066D02*
X186491703Y-49094447D01*
X186491703Y-49094447D02*
X186586941Y-49046828D01*
X186586941Y-49046828D02*
X186634560Y-49046828D01*
X186634560Y-49046828D02*
X186729798Y-49094447D01*
X186729798Y-49094447D02*
X186777417Y-49142066D01*
X186777417Y-49142066D02*
X186825036Y-49237304D01*
X186825036Y-49237304D02*
X186825036Y-49427780D01*
X186825036Y-49427780D02*
X186872655Y-49523018D01*
X186872655Y-49523018D02*
X186920274Y-49570637D01*
X186920274Y-49570637D02*
X187015512Y-49618256D01*
X187015512Y-49618256D02*
X187205988Y-49618256D01*
X187205988Y-49618256D02*
X187301226Y-49570637D01*
X187301226Y-49570637D02*
X187348846Y-49523018D01*
X187348846Y-49523018D02*
X187396465Y-49427780D01*
X187396465Y-49427780D02*
X187396465Y-49237304D01*
X187396465Y-49237304D02*
X187348846Y-49142066D01*
X187348846Y-49142066D02*
X187301226Y-49094447D01*
X187301226Y-49094447D02*
X187205988Y-49046828D01*
X187205988Y-49046828D02*
X187015512Y-49046828D01*
X187015512Y-49046828D02*
X186920274Y-49094447D01*
X186920274Y-49094447D02*
X186872655Y-49142066D01*
X186872655Y-49142066D02*
X186825036Y-49237304D01*
X187396465Y-48570637D02*
X187396465Y-48380161D01*
X187396465Y-48380161D02*
X187348846Y-48284923D01*
X187348846Y-48284923D02*
X187301226Y-48237304D01*
X187301226Y-48237304D02*
X187158369Y-48142066D01*
X187158369Y-48142066D02*
X186967893Y-48094447D01*
X186967893Y-48094447D02*
X186586941Y-48094447D01*
X186586941Y-48094447D02*
X186491703Y-48142066D01*
X186491703Y-48142066D02*
X186444084Y-48189685D01*
X186444084Y-48189685D02*
X186396465Y-48284923D01*
X186396465Y-48284923D02*
X186396465Y-48475399D01*
X186396465Y-48475399D02*
X186444084Y-48570637D01*
X186444084Y-48570637D02*
X186491703Y-48618256D01*
X186491703Y-48618256D02*
X186586941Y-48665875D01*
X186586941Y-48665875D02*
X186825036Y-48665875D01*
X186825036Y-48665875D02*
X186920274Y-48618256D01*
X186920274Y-48618256D02*
X186967893Y-48570637D01*
X186967893Y-48570637D02*
X187015512Y-48475399D01*
X187015512Y-48475399D02*
X187015512Y-48284923D01*
X187015512Y-48284923D02*
X186967893Y-48189685D01*
X186967893Y-48189685D02*
X186920274Y-48142066D01*
X186920274Y-48142066D02*
X186825036Y-48094447D01*
X161436139Y-34620145D02*
X161483759Y-34667764D01*
X161483759Y-34667764D02*
X161531378Y-34810621D01*
X161531378Y-34810621D02*
X161531378Y-34905859D01*
X161531378Y-34905859D02*
X161483759Y-35048716D01*
X161483759Y-35048716D02*
X161388520Y-35143954D01*
X161388520Y-35143954D02*
X161293282Y-35191573D01*
X161293282Y-35191573D02*
X161102806Y-35239192D01*
X161102806Y-35239192D02*
X160959949Y-35239192D01*
X160959949Y-35239192D02*
X160769473Y-35191573D01*
X160769473Y-35191573D02*
X160674235Y-35143954D01*
X160674235Y-35143954D02*
X160578997Y-35048716D01*
X160578997Y-35048716D02*
X160531378Y-34905859D01*
X160531378Y-34905859D02*
X160531378Y-34810621D01*
X160531378Y-34810621D02*
X160578997Y-34667764D01*
X160578997Y-34667764D02*
X160626616Y-34620145D01*
X160531378Y-33715383D02*
X160531378Y-34191573D01*
X160531378Y-34191573D02*
X161007568Y-34239192D01*
X161007568Y-34239192D02*
X160959949Y-34191573D01*
X160959949Y-34191573D02*
X160912330Y-34096335D01*
X160912330Y-34096335D02*
X160912330Y-33858240D01*
X160912330Y-33858240D02*
X160959949Y-33763002D01*
X160959949Y-33763002D02*
X161007568Y-33715383D01*
X161007568Y-33715383D02*
X161102806Y-33667764D01*
X161102806Y-33667764D02*
X161340901Y-33667764D01*
X161340901Y-33667764D02*
X161436139Y-33715383D01*
X161436139Y-33715383D02*
X161483759Y-33763002D01*
X161483759Y-33763002D02*
X161531378Y-33858240D01*
X161531378Y-33858240D02*
X161531378Y-34096335D01*
X161531378Y-34096335D02*
X161483759Y-34191573D01*
X161483759Y-34191573D02*
X161436139Y-34239192D01*
X197427690Y-48714819D02*
X197094357Y-48238628D01*
X196856262Y-48714819D02*
X196856262Y-47714819D01*
X196856262Y-47714819D02*
X197237214Y-47714819D01*
X197237214Y-47714819D02*
X197332452Y-47762438D01*
X197332452Y-47762438D02*
X197380071Y-47810057D01*
X197380071Y-47810057D02*
X197427690Y-47905295D01*
X197427690Y-47905295D02*
X197427690Y-48048152D01*
X197427690Y-48048152D02*
X197380071Y-48143390D01*
X197380071Y-48143390D02*
X197332452Y-48191009D01*
X197332452Y-48191009D02*
X197237214Y-48238628D01*
X197237214Y-48238628D02*
X196856262Y-48238628D01*
X198380071Y-48714819D02*
X197808643Y-48714819D01*
X198094357Y-48714819D02*
X198094357Y-47714819D01*
X198094357Y-47714819D02*
X197999119Y-47857676D01*
X197999119Y-47857676D02*
X197903881Y-47952914D01*
X197903881Y-47952914D02*
X197808643Y-48000533D01*
X210215724Y-89654877D02*
X210168105Y-89702497D01*
X210168105Y-89702497D02*
X210025248Y-89750116D01*
X210025248Y-89750116D02*
X209930010Y-89750116D01*
X209930010Y-89750116D02*
X209787153Y-89702497D01*
X209787153Y-89702497D02*
X209691915Y-89607258D01*
X209691915Y-89607258D02*
X209644296Y-89512020D01*
X209644296Y-89512020D02*
X209596677Y-89321544D01*
X209596677Y-89321544D02*
X209596677Y-89178687D01*
X209596677Y-89178687D02*
X209644296Y-88988211D01*
X209644296Y-88988211D02*
X209691915Y-88892973D01*
X209691915Y-88892973D02*
X209787153Y-88797735D01*
X209787153Y-88797735D02*
X209930010Y-88750116D01*
X209930010Y-88750116D02*
X210025248Y-88750116D01*
X210025248Y-88750116D02*
X210168105Y-88797735D01*
X210168105Y-88797735D02*
X210215724Y-88845354D01*
X211168105Y-89750116D02*
X210596677Y-89750116D01*
X210882391Y-89750116D02*
X210882391Y-88750116D01*
X210882391Y-88750116D02*
X210787153Y-88892973D01*
X210787153Y-88892973D02*
X210691915Y-88988211D01*
X210691915Y-88988211D02*
X210596677Y-89035830D01*
X212025248Y-89083449D02*
X212025248Y-89750116D01*
X211787153Y-88702497D02*
X211549058Y-89416782D01*
X211549058Y-89416782D02*
X212168105Y-89416782D01*
X200818817Y-43459658D02*
X200818817Y-42459658D01*
X200818817Y-42459658D02*
X201056912Y-42459658D01*
X201056912Y-42459658D02*
X201199769Y-42507277D01*
X201199769Y-42507277D02*
X201295007Y-42602515D01*
X201295007Y-42602515D02*
X201342626Y-42697753D01*
X201342626Y-42697753D02*
X201390245Y-42888229D01*
X201390245Y-42888229D02*
X201390245Y-43031086D01*
X201390245Y-43031086D02*
X201342626Y-43221562D01*
X201342626Y-43221562D02*
X201295007Y-43316800D01*
X201295007Y-43316800D02*
X201199769Y-43412039D01*
X201199769Y-43412039D02*
X201056912Y-43459658D01*
X201056912Y-43459658D02*
X200818817Y-43459658D01*
X201771198Y-42554896D02*
X201818817Y-42507277D01*
X201818817Y-42507277D02*
X201914055Y-42459658D01*
X201914055Y-42459658D02*
X202152150Y-42459658D01*
X202152150Y-42459658D02*
X202247388Y-42507277D01*
X202247388Y-42507277D02*
X202295007Y-42554896D01*
X202295007Y-42554896D02*
X202342626Y-42650134D01*
X202342626Y-42650134D02*
X202342626Y-42745372D01*
X202342626Y-42745372D02*
X202295007Y-42888229D01*
X202295007Y-42888229D02*
X201723579Y-43459658D01*
X201723579Y-43459658D02*
X202342626Y-43459658D01*
X151854819Y-67643333D02*
X152569104Y-67643333D01*
X152569104Y-67643333D02*
X152711961Y-67690952D01*
X152711961Y-67690952D02*
X152807200Y-67786190D01*
X152807200Y-67786190D02*
X152854819Y-67929047D01*
X152854819Y-67929047D02*
X152854819Y-68024285D01*
X151854819Y-67262380D02*
X151854819Y-66643333D01*
X151854819Y-66643333D02*
X152235771Y-66976666D01*
X152235771Y-66976666D02*
X152235771Y-66833809D01*
X152235771Y-66833809D02*
X152283390Y-66738571D01*
X152283390Y-66738571D02*
X152331009Y-66690952D01*
X152331009Y-66690952D02*
X152426247Y-66643333D01*
X152426247Y-66643333D02*
X152664342Y-66643333D01*
X152664342Y-66643333D02*
X152759580Y-66690952D01*
X152759580Y-66690952D02*
X152807200Y-66738571D01*
X152807200Y-66738571D02*
X152854819Y-66833809D01*
X152854819Y-66833809D02*
X152854819Y-67119523D01*
X152854819Y-67119523D02*
X152807200Y-67214761D01*
X152807200Y-67214761D02*
X152759580Y-67262380D01*
X163146600Y-31637821D02*
X163146600Y-32447344D01*
X163146600Y-32447344D02*
X163194219Y-32542582D01*
X163194219Y-32542582D02*
X163241838Y-32590202D01*
X163241838Y-32590202D02*
X163337076Y-32637821D01*
X163337076Y-32637821D02*
X163527552Y-32637821D01*
X163527552Y-32637821D02*
X163622790Y-32590202D01*
X163622790Y-32590202D02*
X163670409Y-32542582D01*
X163670409Y-32542582D02*
X163718028Y-32447344D01*
X163718028Y-32447344D02*
X163718028Y-31637821D01*
X164622790Y-31971154D02*
X164622790Y-32637821D01*
X164384695Y-31590202D02*
X164146600Y-32304487D01*
X164146600Y-32304487D02*
X164765647Y-32304487D01*
X168606927Y-31945915D02*
X168654547Y-31993534D01*
X168654547Y-31993534D02*
X168702166Y-32136391D01*
X168702166Y-32136391D02*
X168702166Y-32231629D01*
X168702166Y-32231629D02*
X168654547Y-32374486D01*
X168654547Y-32374486D02*
X168559308Y-32469724D01*
X168559308Y-32469724D02*
X168464070Y-32517343D01*
X168464070Y-32517343D02*
X168273594Y-32564962D01*
X168273594Y-32564962D02*
X168130737Y-32564962D01*
X168130737Y-32564962D02*
X167940261Y-32517343D01*
X167940261Y-32517343D02*
X167845023Y-32469724D01*
X167845023Y-32469724D02*
X167749785Y-32374486D01*
X167749785Y-32374486D02*
X167702166Y-32231629D01*
X167702166Y-32231629D02*
X167702166Y-32136391D01*
X167702166Y-32136391D02*
X167749785Y-31993534D01*
X167749785Y-31993534D02*
X167797404Y-31945915D01*
X167702166Y-31088772D02*
X167702166Y-31279248D01*
X167702166Y-31279248D02*
X167749785Y-31374486D01*
X167749785Y-31374486D02*
X167797404Y-31422105D01*
X167797404Y-31422105D02*
X167940261Y-31517343D01*
X167940261Y-31517343D02*
X168130737Y-31564962D01*
X168130737Y-31564962D02*
X168511689Y-31564962D01*
X168511689Y-31564962D02*
X168606927Y-31517343D01*
X168606927Y-31517343D02*
X168654547Y-31469724D01*
X168654547Y-31469724D02*
X168702166Y-31374486D01*
X168702166Y-31374486D02*
X168702166Y-31184010D01*
X168702166Y-31184010D02*
X168654547Y-31088772D01*
X168654547Y-31088772D02*
X168606927Y-31041153D01*
X168606927Y-31041153D02*
X168511689Y-30993534D01*
X168511689Y-30993534D02*
X168273594Y-30993534D01*
X168273594Y-30993534D02*
X168178356Y-31041153D01*
X168178356Y-31041153D02*
X168130737Y-31088772D01*
X168130737Y-31088772D02*
X168083118Y-31184010D01*
X168083118Y-31184010D02*
X168083118Y-31374486D01*
X168083118Y-31374486D02*
X168130737Y-31469724D01*
X168130737Y-31469724D02*
X168178356Y-31517343D01*
X168178356Y-31517343D02*
X168273594Y-31564962D01*
X197172966Y-43531518D02*
X196839633Y-43055327D01*
X196601538Y-43531518D02*
X196601538Y-42531518D01*
X196601538Y-42531518D02*
X196982490Y-42531518D01*
X196982490Y-42531518D02*
X197077728Y-42579137D01*
X197077728Y-42579137D02*
X197125347Y-42626756D01*
X197125347Y-42626756D02*
X197172966Y-42721994D01*
X197172966Y-42721994D02*
X197172966Y-42864851D01*
X197172966Y-42864851D02*
X197125347Y-42960089D01*
X197125347Y-42960089D02*
X197077728Y-43007708D01*
X197077728Y-43007708D02*
X196982490Y-43055327D01*
X196982490Y-43055327D02*
X196601538Y-43055327D01*
X197553919Y-42626756D02*
X197601538Y-42579137D01*
X197601538Y-42579137D02*
X197696776Y-42531518D01*
X197696776Y-42531518D02*
X197934871Y-42531518D01*
X197934871Y-42531518D02*
X198030109Y-42579137D01*
X198030109Y-42579137D02*
X198077728Y-42626756D01*
X198077728Y-42626756D02*
X198125347Y-42721994D01*
X198125347Y-42721994D02*
X198125347Y-42817232D01*
X198125347Y-42817232D02*
X198077728Y-42960089D01*
X198077728Y-42960089D02*
X197506300Y-43531518D01*
X197506300Y-43531518D02*
X198125347Y-43531518D01*
D12*
%TO.C,C2*%
X166453479Y-42531533D02*
X166453479Y-42238999D01*
X167473479Y-42531533D02*
X167473479Y-42238999D01*
%TO.C,C10*%
X153291586Y-36033220D02*
X153584120Y-36033220D01*
X153291586Y-37053220D02*
X153584120Y-37053220D01*
%TO.C,U3*%
X194523672Y-72256999D02*
X193723672Y-72256999D01*
X194523672Y-72256999D02*
X195323672Y-72256999D01*
X194523672Y-75376999D02*
X193723672Y-75376999D01*
X194523672Y-75376999D02*
X195323672Y-75376999D01*
X193223672Y-72306999D02*
X192983672Y-71976999D01*
X193463672Y-71976999D01*
X193223672Y-72306999D01*
G36*
X193223672Y-72306999D02*
G01*
X192983672Y-71976999D01*
X193463672Y-71976999D01*
X193223672Y-72306999D01*
G37*
%TO.C,BT1*%
X154789228Y-77677847D02*
X154789228Y-79227847D01*
X154789228Y-85377847D02*
X154789228Y-83827847D01*
X156339228Y-86527847D02*
X156339228Y-88527847D01*
X157339228Y-87527847D02*
X155339228Y-87527847D01*
X157989228Y-73177847D02*
X157989228Y-77677847D01*
X157989228Y-73177847D02*
X180689228Y-73177847D01*
X157989228Y-77677847D02*
X154789228Y-77677847D01*
X157989228Y-85377847D02*
X154789228Y-85377847D01*
X157989228Y-88077847D02*
X157989228Y-85377847D01*
X159789228Y-89877847D02*
X157989228Y-88077847D01*
X180689228Y-73177847D02*
X180689228Y-77677847D01*
X180689228Y-77677847D02*
X183889228Y-77677847D01*
X180689228Y-85377847D02*
X183889228Y-85377847D01*
X180689228Y-89877847D02*
X159789228Y-89877847D01*
X180689228Y-89877847D02*
X180689228Y-85377847D01*
X183889228Y-77677847D02*
X183889228Y-79227847D01*
X183889228Y-85377847D02*
X183889228Y-83827847D01*
%TO.C,C16*%
X197874673Y-73671519D02*
X197874673Y-73964053D01*
X198894673Y-73671519D02*
X198894673Y-73964053D01*
%TO.C,R91*%
X188336446Y-52706093D02*
X188336446Y-52196645D01*
X189381446Y-52706093D02*
X189381446Y-52196645D01*
%TO.C,C3*%
X190581438Y-54653150D02*
X190581438Y-54360616D01*
X191601438Y-54653150D02*
X191601438Y-54360616D01*
%TO.C,C12*%
X202770033Y-73437523D02*
X202770033Y-73730057D01*
X203790033Y-73437523D02*
X203790033Y-73730057D01*
%TO.C,R3*%
X156065796Y-42299634D02*
X156065796Y-42809082D01*
X157110796Y-42299634D02*
X157110796Y-42809082D01*
%TO.C,C11*%
X187792415Y-84143311D02*
X195952415Y-84143311D01*
X187792415Y-84183311D02*
X195952415Y-84183311D01*
X187793415Y-84103311D02*
X195951415Y-84103311D01*
X187794415Y-84063311D02*
X195950415Y-84063311D01*
X187795415Y-84023311D02*
X195949415Y-84023311D01*
X187797415Y-83983311D02*
X195947415Y-83983311D01*
X187799415Y-83943311D02*
X190832415Y-83943311D01*
X187802415Y-83903311D02*
X190832415Y-83903311D01*
X187804415Y-83863311D02*
X190832415Y-83863311D01*
X187808415Y-83823311D02*
X190832415Y-83823311D01*
X187811415Y-83783311D02*
X190832415Y-83783311D01*
X187816415Y-83743311D02*
X190832415Y-83743311D01*
X187820415Y-83703311D02*
X190832415Y-83703311D01*
X187825415Y-83663311D02*
X190832415Y-83663311D01*
X187830415Y-83623311D02*
X190832415Y-83623311D01*
X187836415Y-83583311D02*
X190832415Y-83583311D01*
X187842415Y-83543311D02*
X190832415Y-83543311D01*
X187849415Y-83503311D02*
X190832415Y-83503311D01*
X187855415Y-83463311D02*
X190832415Y-83463311D01*
X187863415Y-83423311D02*
X190832415Y-83423311D01*
X187870415Y-83383311D02*
X190832415Y-83383311D01*
X187879415Y-83343311D02*
X190832415Y-83343311D01*
X187887415Y-83303311D02*
X190832415Y-83303311D01*
X187896415Y-83263311D02*
X190832415Y-83263311D01*
X187905415Y-83223311D02*
X190832415Y-83223311D01*
X187915415Y-83183311D02*
X190832415Y-83183311D01*
X187925415Y-83143311D02*
X190832415Y-83143311D01*
X187936415Y-83103311D02*
X190832415Y-83103311D01*
X187947415Y-83063311D02*
X190832415Y-83063311D01*
X187959415Y-83023311D02*
X190832415Y-83023311D01*
X187971415Y-82983311D02*
X190832415Y-82983311D01*
X187983415Y-82943311D02*
X190832415Y-82943311D01*
X187996415Y-82903311D02*
X190832415Y-82903311D01*
X188009415Y-82863311D02*
X190832415Y-82863311D01*
X188023415Y-82823311D02*
X190832415Y-82823311D01*
X188037415Y-82783311D02*
X190832415Y-82783311D01*
X188052415Y-82743311D02*
X190832415Y-82743311D01*
X188067415Y-82703311D02*
X190832415Y-82703311D01*
X188083415Y-82663311D02*
X190832415Y-82663311D01*
X188099415Y-82623311D02*
X190832415Y-82623311D01*
X188115415Y-82583311D02*
X190832415Y-82583311D01*
X188132415Y-82543311D02*
X190832415Y-82543311D01*
X188150415Y-82503311D02*
X190832415Y-82503311D01*
X188168415Y-82463311D02*
X190832415Y-82463311D01*
X188187415Y-82423311D02*
X190832415Y-82423311D01*
X188206415Y-82383311D02*
X190832415Y-82383311D01*
X188226415Y-82343311D02*
X190832415Y-82343311D01*
X188246415Y-82303311D02*
X190832415Y-82303311D01*
X188267415Y-82263311D02*
X190832415Y-82263311D01*
X188288415Y-82223311D02*
X190832415Y-82223311D01*
X188310415Y-82183311D02*
X190832415Y-82183311D01*
X188333415Y-82143311D02*
X190832415Y-82143311D01*
X188356415Y-82103311D02*
X190832415Y-82103311D01*
X188379415Y-82063311D02*
X190832415Y-82063311D01*
X188404415Y-82023311D02*
X190832415Y-82023311D01*
X188429415Y-81983311D02*
X190832415Y-81983311D01*
X188454415Y-81943311D02*
X190832415Y-81943311D01*
X188480415Y-81903311D02*
X190832415Y-81903311D01*
X188507415Y-81863311D02*
X195237415Y-81863311D01*
X188535415Y-81823311D02*
X195209415Y-81823311D01*
X188563415Y-81783311D02*
X195181415Y-81783311D01*
X188592415Y-81743311D02*
X195152415Y-81743311D01*
X188622415Y-81703311D02*
X195122415Y-81703311D01*
X188653415Y-81663311D02*
X195091415Y-81663311D01*
X188684415Y-81623311D02*
X195060415Y-81623311D01*
X188716415Y-81583311D02*
X195028415Y-81583311D01*
X188749415Y-81543311D02*
X194995415Y-81543311D01*
X188783415Y-81503311D02*
X194961415Y-81503311D01*
X188817415Y-81463311D02*
X194927415Y-81463311D01*
X188853415Y-81423311D02*
X194891415Y-81423311D01*
X188890415Y-81383311D02*
X194854415Y-81383311D01*
X188927415Y-81343311D02*
X194817415Y-81343311D01*
X188966415Y-81303311D02*
X194778415Y-81303311D01*
X189005415Y-81263311D02*
X194739415Y-81263311D01*
X189046415Y-81223311D02*
X194698415Y-81223311D01*
X189088415Y-81183311D02*
X194656415Y-81183311D01*
X189131415Y-81143311D02*
X194613415Y-81143311D01*
X189157415Y-88193009D02*
X189957415Y-88193009D01*
X189176415Y-81103311D02*
X194568415Y-81103311D01*
X189221415Y-81063311D02*
X194523415Y-81063311D01*
X189268415Y-81023311D02*
X194476415Y-81023311D01*
X189317415Y-80983311D02*
X194427415Y-80983311D01*
X189367415Y-80943311D02*
X194377415Y-80943311D01*
X189419415Y-80903311D02*
X194325415Y-80903311D01*
X189472415Y-80863311D02*
X194272415Y-80863311D01*
X189528415Y-80823311D02*
X194216415Y-80823311D01*
X189557415Y-88593009D02*
X189557415Y-87793009D01*
X189585415Y-80783311D02*
X194159415Y-80783311D01*
X189645415Y-80743311D02*
X194099415Y-80743311D01*
X189707415Y-80703311D02*
X194037415Y-80703311D01*
X189771415Y-80663311D02*
X193973415Y-80663311D01*
X189838415Y-80623311D02*
X193906415Y-80623311D01*
X189908415Y-80583311D02*
X193836415Y-80583311D01*
X189982415Y-80543311D02*
X193762415Y-80543311D01*
X190059415Y-80503311D02*
X193685415Y-80503311D01*
X190141415Y-80463311D02*
X193603415Y-80463311D01*
X190228415Y-80423311D02*
X193516415Y-80423311D01*
X190320415Y-80383311D02*
X193424415Y-80383311D01*
X190419415Y-80343311D02*
X193325415Y-80343311D01*
X190526415Y-80303311D02*
X193218415Y-80303311D01*
X190644415Y-80263311D02*
X193100415Y-80263311D01*
X190775415Y-80223311D02*
X192969415Y-80223311D01*
X190925415Y-80183311D02*
X192819415Y-80183311D01*
X191104415Y-80143311D02*
X192640415Y-80143311D01*
X191339415Y-80103311D02*
X192405415Y-80103311D01*
X192912415Y-81903311D02*
X195264415Y-81903311D01*
X192912415Y-81943311D02*
X195290415Y-81943311D01*
X192912415Y-81983311D02*
X195315415Y-81983311D01*
X192912415Y-82023311D02*
X195340415Y-82023311D01*
X192912415Y-82063311D02*
X195365415Y-82063311D01*
X192912415Y-82103311D02*
X195388415Y-82103311D01*
X192912415Y-82143311D02*
X195411415Y-82143311D01*
X192912415Y-82183311D02*
X195434415Y-82183311D01*
X192912415Y-82223311D02*
X195456415Y-82223311D01*
X192912415Y-82263311D02*
X195477415Y-82263311D01*
X192912415Y-82303311D02*
X195498415Y-82303311D01*
X192912415Y-82343311D02*
X195518415Y-82343311D01*
X192912415Y-82383311D02*
X195538415Y-82383311D01*
X192912415Y-82423311D02*
X195557415Y-82423311D01*
X192912415Y-82463311D02*
X195576415Y-82463311D01*
X192912415Y-82503311D02*
X195594415Y-82503311D01*
X192912415Y-82543311D02*
X195612415Y-82543311D01*
X192912415Y-82583311D02*
X195629415Y-82583311D01*
X192912415Y-82623311D02*
X195645415Y-82623311D01*
X192912415Y-82663311D02*
X195661415Y-82663311D01*
X192912415Y-82703311D02*
X195677415Y-82703311D01*
X192912415Y-82743311D02*
X195692415Y-82743311D01*
X192912415Y-82783311D02*
X195707415Y-82783311D01*
X192912415Y-82823311D02*
X195721415Y-82823311D01*
X192912415Y-82863311D02*
X195735415Y-82863311D01*
X192912415Y-82903311D02*
X195748415Y-82903311D01*
X192912415Y-82943311D02*
X195761415Y-82943311D01*
X192912415Y-82983311D02*
X195773415Y-82983311D01*
X192912415Y-83023311D02*
X195785415Y-83023311D01*
X192912415Y-83063311D02*
X195797415Y-83063311D01*
X192912415Y-83103311D02*
X195808415Y-83103311D01*
X192912415Y-83143311D02*
X195819415Y-83143311D01*
X192912415Y-83183311D02*
X195829415Y-83183311D01*
X192912415Y-83223311D02*
X195839415Y-83223311D01*
X192912415Y-83263311D02*
X195848415Y-83263311D01*
X192912415Y-83303311D02*
X195857415Y-83303311D01*
X192912415Y-83343311D02*
X195865415Y-83343311D01*
X192912415Y-83383311D02*
X195874415Y-83383311D01*
X192912415Y-83423311D02*
X195881415Y-83423311D01*
X192912415Y-83463311D02*
X195889415Y-83463311D01*
X192912415Y-83503311D02*
X195895415Y-83503311D01*
X192912415Y-83543311D02*
X195902415Y-83543311D01*
X192912415Y-83583311D02*
X195908415Y-83583311D01*
X192912415Y-83623311D02*
X195914415Y-83623311D01*
X192912415Y-83663311D02*
X195919415Y-83663311D01*
X192912415Y-83703311D02*
X195924415Y-83703311D01*
X192912415Y-83743311D02*
X195928415Y-83743311D01*
X192912415Y-83783311D02*
X195933415Y-83783311D01*
X192912415Y-83823311D02*
X195936415Y-83823311D01*
X192912415Y-83863311D02*
X195940415Y-83863311D01*
X192912415Y-83903311D02*
X195942415Y-83903311D01*
X192912415Y-83943311D02*
X195945415Y-83943311D01*
X195992415Y-84183311D02*
G75*
G02*
X187752415Y-84183311I-4120000J0D01*
G01*
X187752415Y-84183311D02*
G75*
G02*
X195992415Y-84183311I4120000J0D01*
G01*
%TO.C,C13*%
X211751135Y-73303440D02*
X211751135Y-73595974D01*
X212771135Y-73303440D02*
X212771135Y-73595974D01*
%TO.C,R4*%
X158874144Y-53147857D02*
X159383592Y-53147857D01*
X158874144Y-54192857D02*
X159383592Y-54192857D01*
%TO.C,J1*%
X184090000Y-31690000D02*
X185420000Y-31690000D01*
X184090000Y-33020000D02*
X184090000Y-31690000D01*
X186690000Y-31690000D02*
X199450000Y-31690000D01*
X186690000Y-34350000D02*
X186690000Y-31690000D01*
X186690000Y-34350000D02*
X199450000Y-34350000D01*
X199450000Y-34350000D02*
X199450000Y-31690000D01*
%TO.C,R26*%
X171535467Y-35806570D02*
X172044915Y-35806570D01*
X171535467Y-36851570D02*
X172044915Y-36851570D01*
%TO.C,R88*%
X169855413Y-42775610D02*
X170364861Y-42775610D01*
X169855413Y-43820610D02*
X170364861Y-43820610D01*
%TO.C,Y4*%
X186450000Y-57200000D02*
X189470000Y-57200000D01*
X186450000Y-58300000D02*
X186450000Y-57200000D01*
X187010000Y-56330000D02*
X187010000Y-56020000D01*
X187610000Y-57200000D02*
X187010000Y-56330000D01*
X188310000Y-57200000D02*
X188910000Y-56330000D01*
X188910000Y-56330000D02*
X188910000Y-56020000D01*
X189470000Y-57200000D02*
X189470000Y-58300000D01*
%TO.C,D1*%
X200915909Y-47520503D02*
X203375909Y-47520503D01*
X203375909Y-46050503D02*
X200915909Y-46050503D01*
X203375909Y-47520503D02*
X203375909Y-46050503D01*
%TO.C,C8*%
X199429676Y-35303139D02*
X200229676Y-35303139D01*
X199829676Y-34903139D02*
X199829676Y-35703139D01*
X203839374Y-33538139D02*
X203839374Y-41698139D01*
X203879374Y-33538139D02*
X203879374Y-41698139D01*
X203919374Y-33539139D02*
X203919374Y-41697139D01*
X203959374Y-33540139D02*
X203959374Y-41696139D01*
X203999374Y-33541139D02*
X203999374Y-41695139D01*
X204039374Y-33543139D02*
X204039374Y-41693139D01*
X204079374Y-33545139D02*
X204079374Y-36578139D01*
X204079374Y-38658139D02*
X204079374Y-41691139D01*
X204119374Y-33548139D02*
X204119374Y-36578139D01*
X204119374Y-38658139D02*
X204119374Y-41688139D01*
X204159374Y-33550139D02*
X204159374Y-36578139D01*
X204159374Y-38658139D02*
X204159374Y-41686139D01*
X204199374Y-33554139D02*
X204199374Y-36578139D01*
X204199374Y-38658139D02*
X204199374Y-41682139D01*
X204239374Y-33557139D02*
X204239374Y-36578139D01*
X204239374Y-38658139D02*
X204239374Y-41679139D01*
X204279374Y-33562139D02*
X204279374Y-36578139D01*
X204279374Y-38658139D02*
X204279374Y-41674139D01*
X204319374Y-33566139D02*
X204319374Y-36578139D01*
X204319374Y-38658139D02*
X204319374Y-41670139D01*
X204359374Y-33571139D02*
X204359374Y-36578139D01*
X204359374Y-38658139D02*
X204359374Y-41665139D01*
X204399374Y-33576139D02*
X204399374Y-36578139D01*
X204399374Y-38658139D02*
X204399374Y-41660139D01*
X204439374Y-33582139D02*
X204439374Y-36578139D01*
X204439374Y-38658139D02*
X204439374Y-41654139D01*
X204479374Y-33588139D02*
X204479374Y-36578139D01*
X204479374Y-38658139D02*
X204479374Y-41648139D01*
X204519374Y-33595139D02*
X204519374Y-36578139D01*
X204519374Y-38658139D02*
X204519374Y-41641139D01*
X204559374Y-33601139D02*
X204559374Y-36578139D01*
X204559374Y-38658139D02*
X204559374Y-41635139D01*
X204599374Y-33609139D02*
X204599374Y-36578139D01*
X204599374Y-38658139D02*
X204599374Y-41627139D01*
X204639374Y-33616139D02*
X204639374Y-36578139D01*
X204639374Y-38658139D02*
X204639374Y-41620139D01*
X204679374Y-33625139D02*
X204679374Y-36578139D01*
X204679374Y-38658139D02*
X204679374Y-41611139D01*
X204719374Y-33633139D02*
X204719374Y-36578139D01*
X204719374Y-38658139D02*
X204719374Y-41603139D01*
X204759374Y-33642139D02*
X204759374Y-36578139D01*
X204759374Y-38658139D02*
X204759374Y-41594139D01*
X204799374Y-33651139D02*
X204799374Y-36578139D01*
X204799374Y-38658139D02*
X204799374Y-41585139D01*
X204839374Y-33661139D02*
X204839374Y-36578139D01*
X204839374Y-38658139D02*
X204839374Y-41575139D01*
X204879374Y-33671139D02*
X204879374Y-36578139D01*
X204879374Y-38658139D02*
X204879374Y-41565139D01*
X204919374Y-33682139D02*
X204919374Y-36578139D01*
X204919374Y-38658139D02*
X204919374Y-41554139D01*
X204959374Y-33693139D02*
X204959374Y-36578139D01*
X204959374Y-38658139D02*
X204959374Y-41543139D01*
X204999374Y-33705139D02*
X204999374Y-36578139D01*
X204999374Y-38658139D02*
X204999374Y-41531139D01*
X205039374Y-33717139D02*
X205039374Y-36578139D01*
X205039374Y-38658139D02*
X205039374Y-41519139D01*
X205079374Y-33729139D02*
X205079374Y-36578139D01*
X205079374Y-38658139D02*
X205079374Y-41507139D01*
X205119374Y-33742139D02*
X205119374Y-36578139D01*
X205119374Y-38658139D02*
X205119374Y-41494139D01*
X205159374Y-33755139D02*
X205159374Y-36578139D01*
X205159374Y-38658139D02*
X205159374Y-41481139D01*
X205199374Y-33769139D02*
X205199374Y-36578139D01*
X205199374Y-38658139D02*
X205199374Y-41467139D01*
X205239374Y-33783139D02*
X205239374Y-36578139D01*
X205239374Y-38658139D02*
X205239374Y-41453139D01*
X205279374Y-33798139D02*
X205279374Y-36578139D01*
X205279374Y-38658139D02*
X205279374Y-41438139D01*
X205319374Y-33813139D02*
X205319374Y-36578139D01*
X205319374Y-38658139D02*
X205319374Y-41423139D01*
X205359374Y-33829139D02*
X205359374Y-36578139D01*
X205359374Y-38658139D02*
X205359374Y-41407139D01*
X205399374Y-33845139D02*
X205399374Y-36578139D01*
X205399374Y-38658139D02*
X205399374Y-41391139D01*
X205439374Y-33861139D02*
X205439374Y-36578139D01*
X205439374Y-38658139D02*
X205439374Y-41375139D01*
X205479374Y-33878139D02*
X205479374Y-36578139D01*
X205479374Y-38658139D02*
X205479374Y-41358139D01*
X205519374Y-33896139D02*
X205519374Y-36578139D01*
X205519374Y-38658139D02*
X205519374Y-41340139D01*
X205559374Y-33914139D02*
X205559374Y-36578139D01*
X205559374Y-38658139D02*
X205559374Y-41322139D01*
X205599374Y-33933139D02*
X205599374Y-36578139D01*
X205599374Y-38658139D02*
X205599374Y-41303139D01*
X205639374Y-33952139D02*
X205639374Y-36578139D01*
X205639374Y-38658139D02*
X205639374Y-41284139D01*
X205679374Y-33972139D02*
X205679374Y-36578139D01*
X205679374Y-38658139D02*
X205679374Y-41264139D01*
X205719374Y-33992139D02*
X205719374Y-36578139D01*
X205719374Y-38658139D02*
X205719374Y-41244139D01*
X205759374Y-34013139D02*
X205759374Y-36578139D01*
X205759374Y-38658139D02*
X205759374Y-41223139D01*
X205799374Y-34034139D02*
X205799374Y-36578139D01*
X205799374Y-38658139D02*
X205799374Y-41202139D01*
X205839374Y-34056139D02*
X205839374Y-36578139D01*
X205839374Y-38658139D02*
X205839374Y-41180139D01*
X205879374Y-34079139D02*
X205879374Y-36578139D01*
X205879374Y-38658139D02*
X205879374Y-41157139D01*
X205919374Y-34102139D02*
X205919374Y-36578139D01*
X205919374Y-38658139D02*
X205919374Y-41134139D01*
X205959374Y-34125139D02*
X205959374Y-36578139D01*
X205959374Y-38658139D02*
X205959374Y-41111139D01*
X205999374Y-34150139D02*
X205999374Y-36578139D01*
X205999374Y-38658139D02*
X205999374Y-41086139D01*
X206039374Y-34175139D02*
X206039374Y-36578139D01*
X206039374Y-38658139D02*
X206039374Y-41061139D01*
X206079374Y-34200139D02*
X206079374Y-36578139D01*
X206079374Y-38658139D02*
X206079374Y-41036139D01*
X206119374Y-34226139D02*
X206119374Y-36578139D01*
X206119374Y-38658139D02*
X206119374Y-41010139D01*
X206159374Y-34253139D02*
X206159374Y-40983139D01*
X206199374Y-34281139D02*
X206199374Y-40955139D01*
X206239374Y-34309139D02*
X206239374Y-40927139D01*
X206279374Y-34338139D02*
X206279374Y-40898139D01*
X206319374Y-34368139D02*
X206319374Y-40868139D01*
X206359374Y-34399139D02*
X206359374Y-40837139D01*
X206399374Y-34430139D02*
X206399374Y-40806139D01*
X206439374Y-34462139D02*
X206439374Y-40774139D01*
X206479374Y-34495139D02*
X206479374Y-40741139D01*
X206519374Y-34529139D02*
X206519374Y-40707139D01*
X206559374Y-34563139D02*
X206559374Y-40673139D01*
X206599374Y-34599139D02*
X206599374Y-40637139D01*
X206639374Y-34636139D02*
X206639374Y-40600139D01*
X206679374Y-34673139D02*
X206679374Y-40563139D01*
X206719374Y-34712139D02*
X206719374Y-40524139D01*
X206759374Y-34751139D02*
X206759374Y-40485139D01*
X206799374Y-34792139D02*
X206799374Y-40444139D01*
X206839374Y-34834139D02*
X206839374Y-40402139D01*
X206879374Y-34877139D02*
X206879374Y-40359139D01*
X206919374Y-34922139D02*
X206919374Y-40314139D01*
X206959374Y-34967139D02*
X206959374Y-40269139D01*
X206999374Y-35014139D02*
X206999374Y-40222139D01*
X207039374Y-35063139D02*
X207039374Y-40173139D01*
X207079374Y-35113139D02*
X207079374Y-40123139D01*
X207119374Y-35165139D02*
X207119374Y-40071139D01*
X207159374Y-35218139D02*
X207159374Y-40018139D01*
X207199374Y-35274139D02*
X207199374Y-39962139D01*
X207239374Y-35331139D02*
X207239374Y-39905139D01*
X207279374Y-35391139D02*
X207279374Y-39845139D01*
X207319374Y-35453139D02*
X207319374Y-39783139D01*
X207359374Y-35517139D02*
X207359374Y-39719139D01*
X207399374Y-35584139D02*
X207399374Y-39652139D01*
X207439374Y-35654139D02*
X207439374Y-39582139D01*
X207479374Y-35728139D02*
X207479374Y-39508139D01*
X207519374Y-35805139D02*
X207519374Y-39431139D01*
X207559374Y-35887139D02*
X207559374Y-39349139D01*
X207599374Y-35974139D02*
X207599374Y-39262139D01*
X207639374Y-36066139D02*
X207639374Y-39170139D01*
X207679374Y-36165139D02*
X207679374Y-39071139D01*
X207719374Y-36272139D02*
X207719374Y-38964139D01*
X207759374Y-36390139D02*
X207759374Y-38846139D01*
X207799374Y-36521139D02*
X207799374Y-38715139D01*
X207839374Y-36671139D02*
X207839374Y-38565139D01*
X207879374Y-36850139D02*
X207879374Y-38386139D01*
X207919374Y-37085139D02*
X207919374Y-38151139D01*
X207959374Y-37618139D02*
G75*
G02*
X199719374Y-37618139I-4120000J0D01*
G01*
X199719374Y-37618139D02*
G75*
G02*
X207959374Y-37618139I4120000J0D01*
G01*
%TO.C,Y3*%
X160125000Y-48755000D02*
X160125000Y-42505000D01*
X164995000Y-42505000D02*
X164995000Y-48755000D01*
X160125000Y-42505000D02*
G75*
G02*
X164995000Y-42505000I2435000J0D01*
G01*
X164995000Y-48755000D02*
G75*
G02*
X160125000Y-48755000I-2435000J0D01*
G01*
%TO.C,U1*%
X176730000Y-42110000D02*
X176730000Y-42560000D01*
X176730000Y-49330000D02*
X176730000Y-48880000D01*
X177180000Y-42110000D02*
X176730000Y-42110000D01*
X177180000Y-49330000D02*
X176730000Y-49330000D01*
X183500000Y-42110000D02*
X183950000Y-42110000D01*
X183500000Y-49330000D02*
X183950000Y-49330000D01*
X183950000Y-42110000D02*
X183950000Y-42560000D01*
X183950000Y-49330000D02*
X183950000Y-48880000D01*
X176140000Y-42560000D02*
X175800000Y-42090000D01*
X176480000Y-42090000D01*
X176140000Y-42560000D01*
G36*
X176140000Y-42560000D02*
G01*
X175800000Y-42090000D01*
X176480000Y-42090000D01*
X176140000Y-42560000D01*
G37*
%TO.C,C17*%
X196720979Y-82008293D02*
X197520979Y-82008293D01*
X197120979Y-81608293D02*
X197120979Y-82408293D01*
X201130677Y-80243293D02*
X201130677Y-88403293D01*
X201170677Y-80243293D02*
X201170677Y-88403293D01*
X201210677Y-80244293D02*
X201210677Y-88402293D01*
X201250677Y-80245293D02*
X201250677Y-88401293D01*
X201290677Y-80246293D02*
X201290677Y-88400293D01*
X201330677Y-80248293D02*
X201330677Y-88398293D01*
X201370677Y-80250293D02*
X201370677Y-83283293D01*
X201370677Y-85363293D02*
X201370677Y-88396293D01*
X201410677Y-80253293D02*
X201410677Y-83283293D01*
X201410677Y-85363293D02*
X201410677Y-88393293D01*
X201450677Y-80255293D02*
X201450677Y-83283293D01*
X201450677Y-85363293D02*
X201450677Y-88391293D01*
X201490677Y-80259293D02*
X201490677Y-83283293D01*
X201490677Y-85363293D02*
X201490677Y-88387293D01*
X201530677Y-80262293D02*
X201530677Y-83283293D01*
X201530677Y-85363293D02*
X201530677Y-88384293D01*
X201570677Y-80267293D02*
X201570677Y-83283293D01*
X201570677Y-85363293D02*
X201570677Y-88379293D01*
X201610677Y-80271293D02*
X201610677Y-83283293D01*
X201610677Y-85363293D02*
X201610677Y-88375293D01*
X201650677Y-80276293D02*
X201650677Y-83283293D01*
X201650677Y-85363293D02*
X201650677Y-88370293D01*
X201690677Y-80281293D02*
X201690677Y-83283293D01*
X201690677Y-85363293D02*
X201690677Y-88365293D01*
X201730677Y-80287293D02*
X201730677Y-83283293D01*
X201730677Y-85363293D02*
X201730677Y-88359293D01*
X201770677Y-80293293D02*
X201770677Y-83283293D01*
X201770677Y-85363293D02*
X201770677Y-88353293D01*
X201810677Y-80300293D02*
X201810677Y-83283293D01*
X201810677Y-85363293D02*
X201810677Y-88346293D01*
X201850677Y-80306293D02*
X201850677Y-83283293D01*
X201850677Y-85363293D02*
X201850677Y-88340293D01*
X201890677Y-80314293D02*
X201890677Y-83283293D01*
X201890677Y-85363293D02*
X201890677Y-88332293D01*
X201930677Y-80321293D02*
X201930677Y-83283293D01*
X201930677Y-85363293D02*
X201930677Y-88325293D01*
X201970677Y-80330293D02*
X201970677Y-83283293D01*
X201970677Y-85363293D02*
X201970677Y-88316293D01*
X202010677Y-80338293D02*
X202010677Y-83283293D01*
X202010677Y-85363293D02*
X202010677Y-88308293D01*
X202050677Y-80347293D02*
X202050677Y-83283293D01*
X202050677Y-85363293D02*
X202050677Y-88299293D01*
X202090677Y-80356293D02*
X202090677Y-83283293D01*
X202090677Y-85363293D02*
X202090677Y-88290293D01*
X202130677Y-80366293D02*
X202130677Y-83283293D01*
X202130677Y-85363293D02*
X202130677Y-88280293D01*
X202170677Y-80376293D02*
X202170677Y-83283293D01*
X202170677Y-85363293D02*
X202170677Y-88270293D01*
X202210677Y-80387293D02*
X202210677Y-83283293D01*
X202210677Y-85363293D02*
X202210677Y-88259293D01*
X202250677Y-80398293D02*
X202250677Y-83283293D01*
X202250677Y-85363293D02*
X202250677Y-88248293D01*
X202290677Y-80410293D02*
X202290677Y-83283293D01*
X202290677Y-85363293D02*
X202290677Y-88236293D01*
X202330677Y-80422293D02*
X202330677Y-83283293D01*
X202330677Y-85363293D02*
X202330677Y-88224293D01*
X202370677Y-80434293D02*
X202370677Y-83283293D01*
X202370677Y-85363293D02*
X202370677Y-88212293D01*
X202410677Y-80447293D02*
X202410677Y-83283293D01*
X202410677Y-85363293D02*
X202410677Y-88199293D01*
X202450677Y-80460293D02*
X202450677Y-83283293D01*
X202450677Y-85363293D02*
X202450677Y-88186293D01*
X202490677Y-80474293D02*
X202490677Y-83283293D01*
X202490677Y-85363293D02*
X202490677Y-88172293D01*
X202530677Y-80488293D02*
X202530677Y-83283293D01*
X202530677Y-85363293D02*
X202530677Y-88158293D01*
X202570677Y-80503293D02*
X202570677Y-83283293D01*
X202570677Y-85363293D02*
X202570677Y-88143293D01*
X202610677Y-80518293D02*
X202610677Y-83283293D01*
X202610677Y-85363293D02*
X202610677Y-88128293D01*
X202650677Y-80534293D02*
X202650677Y-83283293D01*
X202650677Y-85363293D02*
X202650677Y-88112293D01*
X202690677Y-80550293D02*
X202690677Y-83283293D01*
X202690677Y-85363293D02*
X202690677Y-88096293D01*
X202730677Y-80566293D02*
X202730677Y-83283293D01*
X202730677Y-85363293D02*
X202730677Y-88080293D01*
X202770677Y-80583293D02*
X202770677Y-83283293D01*
X202770677Y-85363293D02*
X202770677Y-88063293D01*
X202810677Y-80601293D02*
X202810677Y-83283293D01*
X202810677Y-85363293D02*
X202810677Y-88045293D01*
X202850677Y-80619293D02*
X202850677Y-83283293D01*
X202850677Y-85363293D02*
X202850677Y-88027293D01*
X202890677Y-80638293D02*
X202890677Y-83283293D01*
X202890677Y-85363293D02*
X202890677Y-88008293D01*
X202930677Y-80657293D02*
X202930677Y-83283293D01*
X202930677Y-85363293D02*
X202930677Y-87989293D01*
X202970677Y-80677293D02*
X202970677Y-83283293D01*
X202970677Y-85363293D02*
X202970677Y-87969293D01*
X203010677Y-80697293D02*
X203010677Y-83283293D01*
X203010677Y-85363293D02*
X203010677Y-87949293D01*
X203050677Y-80718293D02*
X203050677Y-83283293D01*
X203050677Y-85363293D02*
X203050677Y-87928293D01*
X203090677Y-80739293D02*
X203090677Y-83283293D01*
X203090677Y-85363293D02*
X203090677Y-87907293D01*
X203130677Y-80761293D02*
X203130677Y-83283293D01*
X203130677Y-85363293D02*
X203130677Y-87885293D01*
X203170677Y-80784293D02*
X203170677Y-83283293D01*
X203170677Y-85363293D02*
X203170677Y-87862293D01*
X203210677Y-80807293D02*
X203210677Y-83283293D01*
X203210677Y-85363293D02*
X203210677Y-87839293D01*
X203250677Y-80830293D02*
X203250677Y-83283293D01*
X203250677Y-85363293D02*
X203250677Y-87816293D01*
X203290677Y-80855293D02*
X203290677Y-83283293D01*
X203290677Y-85363293D02*
X203290677Y-87791293D01*
X203330677Y-80880293D02*
X203330677Y-83283293D01*
X203330677Y-85363293D02*
X203330677Y-87766293D01*
X203370677Y-80905293D02*
X203370677Y-83283293D01*
X203370677Y-85363293D02*
X203370677Y-87741293D01*
X203410677Y-80931293D02*
X203410677Y-83283293D01*
X203410677Y-85363293D02*
X203410677Y-87715293D01*
X203450677Y-80958293D02*
X203450677Y-87688293D01*
X203490677Y-80986293D02*
X203490677Y-87660293D01*
X203530677Y-81014293D02*
X203530677Y-87632293D01*
X203570677Y-81043293D02*
X203570677Y-87603293D01*
X203610677Y-81073293D02*
X203610677Y-87573293D01*
X203650677Y-81104293D02*
X203650677Y-87542293D01*
X203690677Y-81135293D02*
X203690677Y-87511293D01*
X203730677Y-81167293D02*
X203730677Y-87479293D01*
X203770677Y-81200293D02*
X203770677Y-87446293D01*
X203810677Y-81234293D02*
X203810677Y-87412293D01*
X203850677Y-81268293D02*
X203850677Y-87378293D01*
X203890677Y-81304293D02*
X203890677Y-87342293D01*
X203930677Y-81341293D02*
X203930677Y-87305293D01*
X203970677Y-81378293D02*
X203970677Y-87268293D01*
X204010677Y-81417293D02*
X204010677Y-87229293D01*
X204050677Y-81456293D02*
X204050677Y-87190293D01*
X204090677Y-81497293D02*
X204090677Y-87149293D01*
X204130677Y-81539293D02*
X204130677Y-87107293D01*
X204170677Y-81582293D02*
X204170677Y-87064293D01*
X204210677Y-81627293D02*
X204210677Y-87019293D01*
X204250677Y-81672293D02*
X204250677Y-86974293D01*
X204290677Y-81719293D02*
X204290677Y-86927293D01*
X204330677Y-81768293D02*
X204330677Y-86878293D01*
X204370677Y-81818293D02*
X204370677Y-86828293D01*
X204410677Y-81870293D02*
X204410677Y-86776293D01*
X204450677Y-81923293D02*
X204450677Y-86723293D01*
X204490677Y-81979293D02*
X204490677Y-86667293D01*
X204530677Y-82036293D02*
X204530677Y-86610293D01*
X204570677Y-82096293D02*
X204570677Y-86550293D01*
X204610677Y-82158293D02*
X204610677Y-86488293D01*
X204650677Y-82222293D02*
X204650677Y-86424293D01*
X204690677Y-82289293D02*
X204690677Y-86357293D01*
X204730677Y-82359293D02*
X204730677Y-86287293D01*
X204770677Y-82433293D02*
X204770677Y-86213293D01*
X204810677Y-82510293D02*
X204810677Y-86136293D01*
X204850677Y-82592293D02*
X204850677Y-86054293D01*
X204890677Y-82679293D02*
X204890677Y-85967293D01*
X204930677Y-82771293D02*
X204930677Y-85875293D01*
X204970677Y-82870293D02*
X204970677Y-85776293D01*
X205010677Y-82977293D02*
X205010677Y-85669293D01*
X205050677Y-83095293D02*
X205050677Y-85551293D01*
X205090677Y-83226293D02*
X205090677Y-85420293D01*
X205130677Y-83376293D02*
X205130677Y-85270293D01*
X205170677Y-83555293D02*
X205170677Y-85091293D01*
X205210677Y-83790293D02*
X205210677Y-84856293D01*
X205250677Y-84323293D02*
G75*
G02*
X197010677Y-84323293I-4120000J0D01*
G01*
X197010677Y-84323293D02*
G75*
G02*
X205250677Y-84323293I4120000J0D01*
G01*
%TO.C,J2*%
X151215693Y-32098957D02*
X151215693Y-34858957D01*
X153865693Y-32098957D02*
X151215693Y-32098957D01*
X153865693Y-32098957D02*
X153865693Y-34858957D01*
X153865693Y-34858957D02*
X151215693Y-34858957D01*
X155135693Y-32098957D02*
X156515693Y-32098957D01*
X156515693Y-32098957D02*
X156515693Y-33478957D01*
%TO.C,C15*%
X190240133Y-73727893D02*
X190240133Y-74020427D01*
X191260133Y-73727893D02*
X191260133Y-74020427D01*
%TO.C,R90*%
X169925276Y-47575691D02*
X170434724Y-47575691D01*
X169925276Y-48620691D02*
X170434724Y-48620691D01*
%TO.C,R27*%
X181232820Y-33673223D02*
X181232820Y-34182671D01*
X182277820Y-33673223D02*
X182277820Y-34182671D01*
%TO.C,J11*%
X171340000Y-34400000D02*
X171340000Y-33020000D01*
X172720000Y-34400000D02*
X171340000Y-34400000D01*
X173990000Y-31640000D02*
X179180000Y-31640000D01*
X173990000Y-34400000D02*
X173990000Y-31640000D01*
X173990000Y-34400000D02*
X179180000Y-34400000D01*
X179180000Y-34400000D02*
X179180000Y-31640000D01*
%TO.C,C4*%
X184117717Y-54745709D02*
X184117717Y-54453175D01*
X185137717Y-54745709D02*
X185137717Y-54453175D01*
%TO.C,SW1*%
X158511523Y-56173775D02*
X162651523Y-56173775D01*
X158511523Y-56473775D02*
X158511523Y-56173775D01*
X158511523Y-59313775D02*
X158511523Y-59013775D01*
X162651523Y-56173775D02*
X162651523Y-56473775D01*
X162651523Y-59013775D02*
X162651523Y-59313775D01*
X162651523Y-59313775D02*
X158511523Y-59313775D01*
%TO.C,J5*%
X209440000Y-36720000D02*
X210820000Y-36720000D01*
X209440000Y-38100000D02*
X209440000Y-36720000D01*
X209440000Y-39370000D02*
X209440000Y-62340000D01*
X209440000Y-39370000D02*
X212090000Y-39370000D01*
X209440000Y-62340000D02*
X214740000Y-62340000D01*
X212090000Y-36720000D02*
X214740000Y-36720000D01*
X212090000Y-39370000D02*
X212090000Y-36720000D01*
X214740000Y-36720000D02*
X214740000Y-62340000D01*
%TO.C,SW2*%
X155043587Y-45352651D02*
X155343587Y-45352651D01*
X155043587Y-49492651D02*
X155043587Y-45352651D01*
X155343587Y-49492651D02*
X155043587Y-49492651D01*
X157883587Y-45352651D02*
X158183587Y-45352651D01*
X158183587Y-45352651D02*
X158183587Y-49492651D01*
X158183587Y-49492651D02*
X157883587Y-49492651D01*
%TO.C,U2*%
X207619032Y-72000746D02*
X206819032Y-72000746D01*
X207619032Y-72000746D02*
X208419032Y-72000746D01*
X207619032Y-75120746D02*
X206819032Y-75120746D01*
X207619032Y-75120746D02*
X208419032Y-75120746D01*
X206319032Y-72050746D02*
X206079032Y-71720746D01*
X206559032Y-71720746D01*
X206319032Y-72050746D01*
G36*
X206319032Y-72050746D02*
G01*
X206079032Y-71720746D01*
X206559032Y-71720746D01*
X206319032Y-72050746D01*
G37*
%TO.C,C7*%
X155472547Y-54433680D02*
X155472547Y-54726214D01*
X156492547Y-54433680D02*
X156492547Y-54726214D01*
%TO.C,J4*%
X168800000Y-51960000D02*
X170180000Y-51960000D01*
X168800000Y-53340000D02*
X168800000Y-51960000D01*
X168800000Y-54610000D02*
X168800000Y-59800000D01*
X168800000Y-54610000D02*
X171560000Y-54610000D01*
X168800000Y-59800000D02*
X171560000Y-59800000D01*
X171560000Y-54610000D02*
X171560000Y-59800000D01*
%TO.C,C1*%
X166467178Y-48882722D02*
X166467178Y-49175256D01*
X167487178Y-48882722D02*
X167487178Y-49175256D01*
%TO.C,C51*%
X172883833Y-38352756D02*
X172591299Y-38352756D01*
X172883833Y-39372756D02*
X172591299Y-39372756D01*
%TO.C,R89*%
X186435102Y-52720719D02*
X186435102Y-52211271D01*
X187480102Y-52720719D02*
X187480102Y-52211271D01*
%TO.C,C5*%
X159136559Y-34307212D02*
X159136559Y-34599746D01*
X160156559Y-34307212D02*
X160156559Y-34599746D01*
%TO.C,R1*%
X197084909Y-46290829D02*
X197594357Y-46290829D01*
X197084909Y-47335829D02*
X197594357Y-47335829D01*
%TO.C,C14*%
X206778582Y-84578297D02*
X206778582Y-83512297D01*
X206818582Y-84813297D02*
X206818582Y-83277297D01*
X206858582Y-84992297D02*
X206858582Y-83098297D01*
X206898582Y-85142297D02*
X206898582Y-82948297D01*
X206938582Y-85273297D02*
X206938582Y-82817297D01*
X206978582Y-85391297D02*
X206978582Y-82699297D01*
X207018582Y-85498297D02*
X207018582Y-82592297D01*
X207058582Y-85597297D02*
X207058582Y-82493297D01*
X207098582Y-85689297D02*
X207098582Y-82401297D01*
X207138582Y-85776297D02*
X207138582Y-82314297D01*
X207178582Y-85858297D02*
X207178582Y-82232297D01*
X207218582Y-85935297D02*
X207218582Y-82155297D01*
X207258582Y-86009297D02*
X207258582Y-82081297D01*
X207298582Y-86079297D02*
X207298582Y-82011297D01*
X207338582Y-86146297D02*
X207338582Y-81944297D01*
X207378582Y-86210297D02*
X207378582Y-81880297D01*
X207418582Y-86272297D02*
X207418582Y-81818297D01*
X207458582Y-86332297D02*
X207458582Y-81758297D01*
X207498582Y-86389297D02*
X207498582Y-81701297D01*
X207538582Y-86445297D02*
X207538582Y-81645297D01*
X207578582Y-86498297D02*
X207578582Y-81592297D01*
X207618582Y-86550297D02*
X207618582Y-81540297D01*
X207658582Y-86600297D02*
X207658582Y-81490297D01*
X207698582Y-86649297D02*
X207698582Y-81441297D01*
X207738582Y-86696297D02*
X207738582Y-81394297D01*
X207778582Y-86741297D02*
X207778582Y-81349297D01*
X207818582Y-86786297D02*
X207818582Y-81304297D01*
X207858582Y-86829297D02*
X207858582Y-81261297D01*
X207898582Y-86871297D02*
X207898582Y-81219297D01*
X207938582Y-86912297D02*
X207938582Y-81178297D01*
X207978582Y-86951297D02*
X207978582Y-81139297D01*
X208018582Y-86990297D02*
X208018582Y-81100297D01*
X208058582Y-87027297D02*
X208058582Y-81063297D01*
X208098582Y-87064297D02*
X208098582Y-81026297D01*
X208138582Y-87100297D02*
X208138582Y-80990297D01*
X208178582Y-87134297D02*
X208178582Y-80956297D01*
X208218582Y-87168297D02*
X208218582Y-80922297D01*
X208258582Y-87201297D02*
X208258582Y-80889297D01*
X208298582Y-87233297D02*
X208298582Y-80857297D01*
X208338582Y-87264297D02*
X208338582Y-80826297D01*
X208378582Y-87295297D02*
X208378582Y-80795297D01*
X208418582Y-87325297D02*
X208418582Y-80765297D01*
X208458582Y-87354297D02*
X208458582Y-80736297D01*
X208498582Y-87382297D02*
X208498582Y-80708297D01*
X208538582Y-87410297D02*
X208538582Y-80680297D01*
X208578582Y-83005297D02*
X208578582Y-80653297D01*
X208578582Y-87437297D02*
X208578582Y-85085297D01*
X208618582Y-83005297D02*
X208618582Y-80627297D01*
X208618582Y-87463297D02*
X208618582Y-85085297D01*
X208658582Y-83005297D02*
X208658582Y-80602297D01*
X208658582Y-87488297D02*
X208658582Y-85085297D01*
X208698582Y-83005297D02*
X208698582Y-80577297D01*
X208698582Y-87513297D02*
X208698582Y-85085297D01*
X208738582Y-83005297D02*
X208738582Y-80552297D01*
X208738582Y-87538297D02*
X208738582Y-85085297D01*
X208778582Y-83005297D02*
X208778582Y-80529297D01*
X208778582Y-87561297D02*
X208778582Y-85085297D01*
X208818582Y-83005297D02*
X208818582Y-80506297D01*
X208818582Y-87584297D02*
X208818582Y-85085297D01*
X208858582Y-83005297D02*
X208858582Y-80483297D01*
X208858582Y-87607297D02*
X208858582Y-85085297D01*
X208898582Y-83005297D02*
X208898582Y-80461297D01*
X208898582Y-87629297D02*
X208898582Y-85085297D01*
X208938582Y-83005297D02*
X208938582Y-80440297D01*
X208938582Y-87650297D02*
X208938582Y-85085297D01*
X208978582Y-83005297D02*
X208978582Y-80419297D01*
X208978582Y-87671297D02*
X208978582Y-85085297D01*
X209018582Y-83005297D02*
X209018582Y-80399297D01*
X209018582Y-87691297D02*
X209018582Y-85085297D01*
X209058582Y-83005297D02*
X209058582Y-80379297D01*
X209058582Y-87711297D02*
X209058582Y-85085297D01*
X209098582Y-83005297D02*
X209098582Y-80360297D01*
X209098582Y-87730297D02*
X209098582Y-85085297D01*
X209138582Y-83005297D02*
X209138582Y-80341297D01*
X209138582Y-87749297D02*
X209138582Y-85085297D01*
X209178582Y-83005297D02*
X209178582Y-80323297D01*
X209178582Y-87767297D02*
X209178582Y-85085297D01*
X209218582Y-83005297D02*
X209218582Y-80305297D01*
X209218582Y-87785297D02*
X209218582Y-85085297D01*
X209258582Y-83005297D02*
X209258582Y-80288297D01*
X209258582Y-87802297D02*
X209258582Y-85085297D01*
X209298582Y-83005297D02*
X209298582Y-80272297D01*
X209298582Y-87818297D02*
X209298582Y-85085297D01*
X209338582Y-83005297D02*
X209338582Y-80256297D01*
X209338582Y-87834297D02*
X209338582Y-85085297D01*
X209378582Y-83005297D02*
X209378582Y-80240297D01*
X209378582Y-87850297D02*
X209378582Y-85085297D01*
X209418582Y-83005297D02*
X209418582Y-80225297D01*
X209418582Y-87865297D02*
X209418582Y-85085297D01*
X209458582Y-83005297D02*
X209458582Y-80210297D01*
X209458582Y-87880297D02*
X209458582Y-85085297D01*
X209498582Y-83005297D02*
X209498582Y-80196297D01*
X209498582Y-87894297D02*
X209498582Y-85085297D01*
X209538582Y-83005297D02*
X209538582Y-80182297D01*
X209538582Y-87908297D02*
X209538582Y-85085297D01*
X209578582Y-83005297D02*
X209578582Y-80169297D01*
X209578582Y-87921297D02*
X209578582Y-85085297D01*
X209618582Y-83005297D02*
X209618582Y-80156297D01*
X209618582Y-87934297D02*
X209618582Y-85085297D01*
X209658582Y-83005297D02*
X209658582Y-80144297D01*
X209658582Y-87946297D02*
X209658582Y-85085297D01*
X209698582Y-83005297D02*
X209698582Y-80132297D01*
X209698582Y-87958297D02*
X209698582Y-85085297D01*
X209738582Y-83005297D02*
X209738582Y-80120297D01*
X209738582Y-87970297D02*
X209738582Y-85085297D01*
X209778582Y-83005297D02*
X209778582Y-80109297D01*
X209778582Y-87981297D02*
X209778582Y-85085297D01*
X209818582Y-83005297D02*
X209818582Y-80098297D01*
X209818582Y-87992297D02*
X209818582Y-85085297D01*
X209858582Y-83005297D02*
X209858582Y-80088297D01*
X209858582Y-88002297D02*
X209858582Y-85085297D01*
X209898582Y-83005297D02*
X209898582Y-80078297D01*
X209898582Y-88012297D02*
X209898582Y-85085297D01*
X209938582Y-83005297D02*
X209938582Y-80069297D01*
X209938582Y-88021297D02*
X209938582Y-85085297D01*
X209978582Y-83005297D02*
X209978582Y-80060297D01*
X209978582Y-88030297D02*
X209978582Y-85085297D01*
X210018582Y-83005297D02*
X210018582Y-80052297D01*
X210018582Y-88038297D02*
X210018582Y-85085297D01*
X210058582Y-83005297D02*
X210058582Y-80043297D01*
X210058582Y-88047297D02*
X210058582Y-85085297D01*
X210098582Y-83005297D02*
X210098582Y-80036297D01*
X210098582Y-88054297D02*
X210098582Y-85085297D01*
X210138582Y-83005297D02*
X210138582Y-80028297D01*
X210138582Y-88062297D02*
X210138582Y-85085297D01*
X210178582Y-83005297D02*
X210178582Y-80022297D01*
X210178582Y-88068297D02*
X210178582Y-85085297D01*
X210218582Y-83005297D02*
X210218582Y-80015297D01*
X210218582Y-88075297D02*
X210218582Y-85085297D01*
X210258582Y-83005297D02*
X210258582Y-80009297D01*
X210258582Y-88081297D02*
X210258582Y-85085297D01*
X210298582Y-83005297D02*
X210298582Y-80003297D01*
X210298582Y-88087297D02*
X210298582Y-85085297D01*
X210338582Y-83005297D02*
X210338582Y-79998297D01*
X210338582Y-88092297D02*
X210338582Y-85085297D01*
X210378582Y-83005297D02*
X210378582Y-79993297D01*
X210378582Y-88097297D02*
X210378582Y-85085297D01*
X210418582Y-83005297D02*
X210418582Y-79989297D01*
X210418582Y-88101297D02*
X210418582Y-85085297D01*
X210458582Y-83005297D02*
X210458582Y-79984297D01*
X210458582Y-88106297D02*
X210458582Y-85085297D01*
X210498582Y-83005297D02*
X210498582Y-79981297D01*
X210498582Y-88109297D02*
X210498582Y-85085297D01*
X210538582Y-83005297D02*
X210538582Y-79977297D01*
X210538582Y-88113297D02*
X210538582Y-85085297D01*
X210578582Y-83005297D02*
X210578582Y-79975297D01*
X210578582Y-88115297D02*
X210578582Y-85085297D01*
X210618582Y-83005297D02*
X210618582Y-79972297D01*
X210618582Y-88118297D02*
X210618582Y-85085297D01*
X210658582Y-88120297D02*
X210658582Y-79970297D01*
X210698582Y-88122297D02*
X210698582Y-79968297D01*
X210738582Y-88123297D02*
X210738582Y-79967297D01*
X210778582Y-88124297D02*
X210778582Y-79966297D01*
X210818582Y-88125297D02*
X210818582Y-79965297D01*
X210858582Y-88125297D02*
X210858582Y-79965297D01*
X214868280Y-86760297D02*
X214868280Y-85960297D01*
X215268280Y-86360297D02*
X214468280Y-86360297D01*
X214978582Y-84045297D02*
G75*
G02*
X206738582Y-84045297I-4120000J0D01*
G01*
X206738582Y-84045297D02*
G75*
G02*
X214978582Y-84045297I4120000J0D01*
G01*
%TO.C,D2*%
X200952568Y-45213301D02*
X203412568Y-45213301D01*
X203412568Y-43743301D02*
X200952568Y-43743301D01*
X203412568Y-45213301D02*
X203412568Y-43743301D01*
%TO.C,J3*%
X156100000Y-64660000D02*
X181720000Y-64660000D01*
X156100000Y-67310000D02*
X156100000Y-64660000D01*
X156100000Y-69960000D02*
X156100000Y-68580000D01*
X157480000Y-69960000D02*
X156100000Y-69960000D01*
X158750000Y-67310000D02*
X156100000Y-67310000D01*
X158750000Y-69960000D02*
X158750000Y-67310000D01*
X158750000Y-69960000D02*
X181720000Y-69960000D01*
X181720000Y-69960000D02*
X181720000Y-64660000D01*
%TO.C,U4*%
X163908505Y-33023002D02*
X163108505Y-33023002D01*
X163908505Y-33023002D02*
X164708505Y-33023002D01*
X163908505Y-36143002D02*
X163108505Y-36143002D01*
X163908505Y-36143002D02*
X164708505Y-36143002D01*
X162608505Y-33073002D02*
X162368505Y-32743002D01*
X162848505Y-32743002D01*
X162608505Y-33073002D01*
G36*
X162608505Y-33073002D02*
G01*
X162368505Y-32743002D01*
X162848505Y-32743002D01*
X162608505Y-33073002D01*
G37*
%TO.C,C6*%
X167744733Y-34535813D02*
X167744733Y-34828347D01*
X168764733Y-34535813D02*
X168764733Y-34828347D01*
%TO.C,R2*%
X197084909Y-43984199D02*
X197594357Y-43984199D01*
X197084909Y-45029199D02*
X197594357Y-45029199D01*
%TD*%
M02*
