%TF.GenerationSoftware,KiCad,Pcbnew,9.0.4*%
%TF.CreationDate,2025-09-21T18:36:08+05:30*%
%TF.ProjectId,l4_dev_board,6c345f64-6576-45f6-926f-6172642e6b69,rev?*%
%TF.SameCoordinates,Original*%
%TF.FileFunction,Soldermask,Bot*%
%TF.FilePolarity,Negative*%
%FSLAX46Y46*%
G04 Gerber Fmt 4.6, Leading zero omitted, Abs format (unit mm)*
G04 Created by KiCad (PCBNEW 9.0.4) date 2025-09-21 18:36:08*
%MOMM*%
%LPD*%
G01*
G04 APERTURE LIST*
G04 Aperture macros list*
%AMRoundRect*
0 Rectangle with rounded corners*
0 $1 Rounding radius*
0 $2 $3 $4 $5 $6 $7 $8 $9 X,Y pos of 4 corners*
0 Add a 4 corners polygon primitive as box body*
4,1,4,$2,$3,$4,$5,$6,$7,$8,$9,$2,$3,0*
0 Add four circle primitives for the rounded corners*
1,1,$1+$1,$2,$3*
1,1,$1+$1,$4,$5*
1,1,$1+$1,$6,$7*
1,1,$1+$1,$8,$9*
0 Add four rect primitives between the rounded corners*
20,1,$1+$1,$2,$3,$4,$5,0*
20,1,$1+$1,$4,$5,$6,$7,0*
20,1,$1+$1,$6,$7,$8,$9,0*
20,1,$1+$1,$8,$9,$2,$3,0*%
G04 Aperture macros list end*
%ADD10RoundRect,0.250000X0.550000X-0.550000X0.550000X0.550000X-0.550000X0.550000X-0.550000X-0.550000X0*%
%ADD11C,1.600000*%
%ADD12R,1.700000X1.700000*%
%ADD13C,1.700000*%
%ADD14C,1.000000*%
%ADD15RoundRect,0.250000X-0.550000X-0.550000X0.550000X-0.550000X0.550000X0.550000X-0.550000X0.550000X0*%
%ADD16C,1.500000*%
%ADD17RoundRect,0.250000X0.550000X0.550000X-0.550000X0.550000X-0.550000X-0.550000X0.550000X-0.550000X0*%
%ADD18RoundRect,0.237500X0.300000X0.237500X-0.300000X0.237500X-0.300000X-0.237500X0.300000X-0.237500X0*%
%ADD19RoundRect,0.237500X-0.300000X-0.237500X0.300000X-0.237500X0.300000X0.237500X-0.300000X0.237500X0*%
G04 APERTURE END LIST*
D10*
%TO.C,C11*%
X191872415Y-85433311D03*
D11*
X191872415Y-82933311D03*
%TD*%
D12*
%TO.C,J1*%
X185420000Y-33020000D03*
D13*
X187960000Y-33020000D03*
X190500000Y-33020000D03*
X193040000Y-33020000D03*
X195580000Y-33020000D03*
X198120000Y-33020000D03*
%TD*%
D14*
%TO.C,Y4*%
X187010000Y-55460000D03*
X188910000Y-55460000D03*
%TD*%
D15*
%TO.C,C8*%
X202589374Y-37618139D03*
D11*
X205089374Y-37618139D03*
%TD*%
D16*
%TO.C,Y3*%
X162560000Y-48080000D03*
X162560000Y-43180000D03*
%TD*%
D15*
%TO.C,C17*%
X199880677Y-84323293D03*
D11*
X202380677Y-84323293D03*
%TD*%
D12*
%TO.C,J2*%
X155135693Y-33478957D03*
D13*
X152595693Y-33478957D03*
%TD*%
D12*
%TO.C,J11*%
X172720000Y-33020000D03*
D13*
X175260000Y-33020000D03*
X177800000Y-33020000D03*
%TD*%
D12*
%TO.C,J5*%
X210820000Y-38100000D03*
D13*
X213360000Y-38100000D03*
X210820000Y-40640000D03*
X213360000Y-40640000D03*
X210820000Y-43180000D03*
X213360000Y-43180000D03*
X210820000Y-45720000D03*
X213360000Y-45720000D03*
X210820000Y-48260000D03*
X213360000Y-48260000D03*
X210820000Y-50800000D03*
X213360000Y-50800000D03*
X210820000Y-53340000D03*
X213360000Y-53340000D03*
X210820000Y-55880000D03*
X213360000Y-55880000D03*
X210820000Y-58420000D03*
X213360000Y-58420000D03*
X210820000Y-60960000D03*
X213360000Y-60960000D03*
%TD*%
D12*
%TO.C,J4*%
X170180000Y-53340000D03*
D13*
X170180000Y-55880000D03*
X170180000Y-58420000D03*
%TD*%
D17*
%TO.C,C14*%
X212108582Y-84045297D03*
D11*
X209608582Y-84045297D03*
%TD*%
D12*
%TO.C,J3*%
X157480000Y-68580000D03*
D13*
X157480000Y-66040000D03*
X160020000Y-68580000D03*
X160020000Y-66040000D03*
X162560000Y-68580000D03*
X162560000Y-66040000D03*
X165100000Y-68580000D03*
X165100000Y-66040000D03*
X167640000Y-68580000D03*
X167640000Y-66040000D03*
X170180000Y-68580000D03*
X170180000Y-66040000D03*
X172720000Y-68580000D03*
X172720000Y-66040000D03*
X175260000Y-68580000D03*
X175260000Y-66040000D03*
X177800000Y-68580000D03*
X177800000Y-66040000D03*
X180340000Y-68580000D03*
X180340000Y-66040000D03*
%TD*%
D18*
%TO.C,C40*%
X184675576Y-44317422D03*
X182950576Y-44317422D03*
%TD*%
%TO.C,C42*%
X184675576Y-46865346D03*
X182950576Y-46865346D03*
%TD*%
D19*
%TO.C,C9*%
X184915362Y-39522803D03*
X186640362Y-39522803D03*
%TD*%
%TO.C,C48*%
X178615000Y-43210000D03*
X180340000Y-43210000D03*
%TD*%
%TO.C,C45*%
X178615000Y-50740000D03*
X180340000Y-50740000D03*
%TD*%
D18*
%TO.C,C44*%
X184694740Y-49242588D03*
X182969740Y-49242588D03*
%TD*%
D19*
%TO.C,C46*%
X178615000Y-48230000D03*
X180340000Y-48230000D03*
%TD*%
%TO.C,C47*%
X178615000Y-45720000D03*
X180340000Y-45720000D03*
%TD*%
M02*
