%TF.GenerationSoftware,KiCad,Pcbnew,9.0.4*%
%TF.CreationDate,2025-09-21T18:36:08+05:30*%
%TF.ProjectId,l4_dev_board,6c345f64-6576-45f6-926f-6172642e6b69,rev?*%
%TF.SameCoordinates,Original*%
%TF.FileFunction,Copper,L2,Bot*%
%TF.FilePolarity,Positive*%
%FSLAX46Y46*%
G04 Gerber Fmt 4.6, Leading zero omitted, Abs format (unit mm)*
G04 Created by KiCad (PCBNEW 9.0.4) date 2025-09-21 18:36:08*
%MOMM*%
%LPD*%
G01*
G04 APERTURE LIST*
G04 Aperture macros list*
%AMRoundRect*
0 Rectangle with rounded corners*
0 $1 Rounding radius*
0 $2 $3 $4 $5 $6 $7 $8 $9 X,Y pos of 4 corners*
0 Add a 4 corners polygon primitive as box body*
4,1,4,$2,$3,$4,$5,$6,$7,$8,$9,$2,$3,0*
0 Add four circle primitives for the rounded corners*
1,1,$1+$1,$2,$3*
1,1,$1+$1,$4,$5*
1,1,$1+$1,$6,$7*
1,1,$1+$1,$8,$9*
0 Add four rect primitives between the rounded corners*
20,1,$1+$1,$2,$3,$4,$5,0*
20,1,$1+$1,$4,$5,$6,$7,0*
20,1,$1+$1,$6,$7,$8,$9,0*
20,1,$1+$1,$8,$9,$2,$3,0*%
G04 Aperture macros list end*
%TA.AperFunction,ComponentPad*%
%ADD10RoundRect,0.250000X0.550000X-0.550000X0.550000X0.550000X-0.550000X0.550000X-0.550000X-0.550000X0*%
%TD*%
%TA.AperFunction,ComponentPad*%
%ADD11C,1.600000*%
%TD*%
%TA.AperFunction,ComponentPad*%
%ADD12R,1.700000X1.700000*%
%TD*%
%TA.AperFunction,ComponentPad*%
%ADD13C,1.700000*%
%TD*%
%TA.AperFunction,ComponentPad*%
%ADD14C,1.000000*%
%TD*%
%TA.AperFunction,ComponentPad*%
%ADD15RoundRect,0.250000X-0.550000X-0.550000X0.550000X-0.550000X0.550000X0.550000X-0.550000X0.550000X0*%
%TD*%
%TA.AperFunction,ComponentPad*%
%ADD16C,1.500000*%
%TD*%
%TA.AperFunction,ComponentPad*%
%ADD17RoundRect,0.250000X0.550000X0.550000X-0.550000X0.550000X-0.550000X-0.550000X0.550000X-0.550000X0*%
%TD*%
%TA.AperFunction,SMDPad,CuDef*%
%ADD18RoundRect,0.237500X0.300000X0.237500X-0.300000X0.237500X-0.300000X-0.237500X0.300000X-0.237500X0*%
%TD*%
%TA.AperFunction,SMDPad,CuDef*%
%ADD19RoundRect,0.237500X-0.300000X-0.237500X0.300000X-0.237500X0.300000X0.237500X-0.300000X0.237500X0*%
%TD*%
%TA.AperFunction,ViaPad*%
%ADD20C,0.600000*%
%TD*%
%TA.AperFunction,Conductor*%
%ADD21C,0.200000*%
%TD*%
%TA.AperFunction,Conductor*%
%ADD22C,0.400000*%
%TD*%
G04 APERTURE END LIST*
D10*
%TO.P,C11,1*%
%TO.N,VIN*%
X191872415Y-85433311D03*
D11*
%TO.P,C11,2*%
%TO.N,AGND*%
X191872415Y-82933311D03*
%TD*%
D12*
%TO.P,J1,1,Pin_1*%
%TO.N,+3.3V*%
X185420000Y-33020000D03*
D13*
%TO.P,J1,2,Pin_2*%
%TO.N,SW-*%
X187960000Y-33020000D03*
%TO.P,J1,3,Pin_3*%
%TO.N,SW+*%
X190500000Y-33020000D03*
%TO.P,J1,4,Pin_4*%
%TO.N,UART1_TX*%
X193040000Y-33020000D03*
%TO.P,J1,5,Pin_5*%
%TO.N,UART1_RX*%
X195580000Y-33020000D03*
%TO.P,J1,6,Pin_6*%
%TO.N,AGND*%
X198120000Y-33020000D03*
%TD*%
D14*
%TO.P,Y4,1,1*%
%TO.N,Net-(C4-Pad1)*%
X187010000Y-55460000D03*
%TO.P,Y4,2,2*%
%TO.N,Net-(C3-Pad1)*%
X188910000Y-55460000D03*
%TD*%
D15*
%TO.P,C8,1*%
%TO.N,+3.3V*%
X202589374Y-37618139D03*
D11*
%TO.P,C8,2*%
%TO.N,AGND*%
X205089374Y-37618139D03*
%TD*%
D16*
%TO.P,Y3,1,1*%
%TO.N,Net-(C1-Pad1)*%
X162560000Y-48080000D03*
%TO.P,Y3,2,2*%
%TO.N,Net-(C2-Pad1)*%
X162560000Y-43180000D03*
%TD*%
D15*
%TO.P,C17,1*%
%TO.N,P2_POUT*%
X199880677Y-84323293D03*
D11*
%TO.P,C17,2*%
%TO.N,AGND*%
X202380677Y-84323293D03*
%TD*%
D12*
%TO.P,J2,1,Pin_1*%
%TO.N,BPWR*%
X155135693Y-33478957D03*
D13*
%TO.P,J2,2,Pin_2*%
%TO.N,VIN*%
X152595693Y-33478957D03*
%TD*%
D12*
%TO.P,J11,1,Pin_1*%
%TO.N,Net-(J11-Pin_1)*%
X172720000Y-33020000D03*
D13*
%TO.P,J11,2,Pin_2*%
%TO.N,BOOT0*%
X175260000Y-33020000D03*
%TO.P,J11,3,Pin_3*%
%TO.N,Net-(J11-Pin_3)*%
X177800000Y-33020000D03*
%TD*%
D12*
%TO.P,J5,1,Pin_1*%
%TO.N,AGND*%
X210820000Y-38100000D03*
D13*
%TO.P,J5,2,Pin_2*%
X213360000Y-38100000D03*
%TO.P,J5,3,Pin_3*%
%TO.N,P2_POUT*%
X210820000Y-40640000D03*
%TO.P,J5,4,Pin_4*%
X213360000Y-40640000D03*
%TO.P,J5,5,Pin_5*%
%TO.N,P1_POUT*%
X210820000Y-43180000D03*
%TO.P,J5,6,Pin_6*%
X213360000Y-43180000D03*
%TO.P,J5,7,Pin_7*%
%TO.N,VIN*%
X210820000Y-45720000D03*
%TO.P,J5,8,Pin_8*%
X213360000Y-45720000D03*
%TO.P,J5,9,Pin_9*%
%TO.N,+3.3V*%
X210820000Y-48260000D03*
%TO.P,J5,10,Pin_10*%
X213360000Y-48260000D03*
%TO.P,J5,11,Pin_11*%
%TO.N,PB13*%
X210820000Y-50800000D03*
%TO.P,J5,12,Pin_12*%
%TO.N,Net-(J5-Pin_12)*%
X213360000Y-50800000D03*
%TO.P,J5,13,Pin_13*%
%TO.N,Net-(J5-Pin_13)*%
X210820000Y-53340000D03*
%TO.P,J5,14,Pin_14*%
%TO.N,Net-(J5-Pin_14)*%
X213360000Y-53340000D03*
%TO.P,J5,15,Pin_15*%
%TO.N,Net-(J5-Pin_15)*%
X210820000Y-55880000D03*
%TO.P,J5,16,Pin_16*%
%TO.N,Net-(J5-Pin_16)*%
X213360000Y-55880000D03*
%TO.P,J5,17,Pin_17*%
%TO.N,Net-(J5-Pin_17)*%
X210820000Y-58420000D03*
%TO.P,J5,18,Pin_18*%
%TO.N,LEDG*%
X213360000Y-58420000D03*
%TO.P,J5,19,Pin_19*%
%TO.N,AGND*%
X210820000Y-60960000D03*
%TO.P,J5,20,Pin_20*%
X213360000Y-60960000D03*
%TD*%
D12*
%TO.P,J4,1,Pin_1*%
%TO.N,Net-(J4-Pin_1)*%
X170180000Y-53340000D03*
D13*
%TO.P,J4,2,Pin_2*%
%TO.N,Net-(J4-Pin_2)*%
X170180000Y-55880000D03*
%TO.P,J4,3,Pin_3*%
%TO.N,Net-(J4-Pin_3)*%
X170180000Y-58420000D03*
%TD*%
D17*
%TO.P,C14,1*%
%TO.N,P1_POUT*%
X212108582Y-84045297D03*
D11*
%TO.P,C14,2*%
%TO.N,AGND*%
X209608582Y-84045297D03*
%TD*%
D12*
%TO.P,J3,1,Pin_1*%
%TO.N,AGND*%
X157480000Y-68580000D03*
D13*
%TO.P,J3,2,Pin_2*%
X157480000Y-66040000D03*
%TO.P,J3,3,Pin_3*%
%TO.N,Net-(J3-Pin_3)*%
X160020000Y-68580000D03*
%TO.P,J3,4,Pin_4*%
%TO.N,Net-(J3-Pin_4)*%
X160020000Y-66040000D03*
%TO.P,J3,5,Pin_5*%
%TO.N,Net-(J3-Pin_5)*%
X162560000Y-68580000D03*
%TO.P,J3,6,Pin_6*%
%TO.N,Net-(J3-Pin_6)*%
X162560000Y-66040000D03*
%TO.P,J3,7,Pin_7*%
%TO.N,Net-(J3-Pin_7)*%
X165100000Y-68580000D03*
%TO.P,J3,8,Pin_8*%
%TO.N,Net-(J3-Pin_8)*%
X165100000Y-66040000D03*
%TO.P,J3,9,Pin_9*%
%TO.N,Net-(J3-Pin_9)*%
X167640000Y-68580000D03*
%TO.P,J3,10,Pin_10*%
%TO.N,+3.3V*%
X167640000Y-66040000D03*
%TO.P,J3,11,Pin_11*%
X170180000Y-68580000D03*
%TO.P,J3,12,Pin_12*%
%TO.N,Net-(J3-Pin_12)*%
X170180000Y-66040000D03*
%TO.P,J3,13,Pin_13*%
%TO.N,Net-(J3-Pin_13)*%
X172720000Y-68580000D03*
%TO.P,J3,14,Pin_14*%
%TO.N,Net-(J3-Pin_14)*%
X172720000Y-66040000D03*
%TO.P,J3,15,Pin_15*%
%TO.N,Net-(J3-Pin_15)*%
X175260000Y-68580000D03*
%TO.P,J3,16,Pin_16*%
%TO.N,Net-(J3-Pin_16)*%
X175260000Y-66040000D03*
%TO.P,J3,17,Pin_17*%
%TO.N,Net-(J3-Pin_17)*%
X177800000Y-68580000D03*
%TO.P,J3,18,Pin_18*%
%TO.N,Net-(J3-Pin_18)*%
X177800000Y-66040000D03*
%TO.P,J3,19,Pin_19*%
%TO.N,AGND*%
X180340000Y-68580000D03*
%TO.P,J3,20,Pin_20*%
X180340000Y-66040000D03*
%TD*%
D18*
%TO.P,C40,1*%
%TO.N,AGND*%
X184675576Y-44317422D03*
%TO.P,C40,2*%
%TO.N,+3.3V*%
X182950576Y-44317422D03*
%TD*%
%TO.P,C42,1*%
%TO.N,AGND*%
X184675576Y-46865346D03*
%TO.P,C42,2*%
%TO.N,+3.3V*%
X182950576Y-46865346D03*
%TD*%
D19*
%TO.P,C9,1*%
%TO.N,+3.3V*%
X184915362Y-39522803D03*
%TO.P,C9,2*%
%TO.N,AGND*%
X186640362Y-39522803D03*
%TD*%
%TO.P,C48,1*%
%TO.N,AGND*%
X178615000Y-43210000D03*
%TO.P,C48,2*%
%TO.N,+3.3V*%
X180340000Y-43210000D03*
%TD*%
%TO.P,C45,1*%
%TO.N,AGND*%
X178615000Y-50740000D03*
%TO.P,C45,2*%
%TO.N,+3.3V*%
X180340000Y-50740000D03*
%TD*%
D18*
%TO.P,C44,1*%
%TO.N,AGND*%
X184694740Y-49242588D03*
%TO.P,C44,2*%
%TO.N,+3.3V*%
X182969740Y-49242588D03*
%TD*%
D19*
%TO.P,C46,1*%
%TO.N,AGND*%
X178615000Y-48230000D03*
%TO.P,C46,2*%
%TO.N,+3.3V*%
X180340000Y-48230000D03*
%TD*%
%TO.P,C47,1*%
%TO.N,AGND*%
X178615000Y-45720000D03*
%TO.P,C47,2*%
%TO.N,+3.3V*%
X180340000Y-45720000D03*
%TD*%
D20*
%TO.N,*%
X167640000Y-93980000D03*
X215900000Y-93980000D03*
X241300000Y-63500000D03*
X187960000Y-55880000D03*
X217345581Y-42609340D03*
X165100000Y-93980000D03*
%TO.N,AGND*%
X220980000Y-81280000D03*
X203200000Y-86360000D03*
X180340000Y-83820000D03*
X147320000Y-60960000D03*
X171528671Y-62428358D03*
X147320000Y-81280000D03*
X177800000Y-83820000D03*
X198120000Y-66040000D03*
X177800000Y-81280000D03*
X203723759Y-79786152D03*
X157480000Y-30480000D03*
X205740000Y-40640000D03*
X200660000Y-53340000D03*
X182880000Y-73660000D03*
X220980000Y-83820000D03*
X193040000Y-43180000D03*
X200660000Y-58420000D03*
X187960000Y-40640000D03*
X198120000Y-35560000D03*
X166898676Y-45805395D03*
X208280000Y-91440000D03*
X149860000Y-30480000D03*
X218440000Y-83820000D03*
X167640000Y-88900000D03*
X185420000Y-88900000D03*
X147320000Y-53340000D03*
X180340000Y-78740000D03*
X152400000Y-38100000D03*
X191091438Y-53644383D03*
X190500000Y-88900000D03*
X208280000Y-53340000D03*
X155457343Y-29525216D03*
X203200000Y-53340000D03*
X195580000Y-68580000D03*
X168448436Y-49482588D03*
X165100000Y-73660000D03*
X177800000Y-78740000D03*
X205740000Y-55880000D03*
X157480000Y-88900000D03*
X215900000Y-76200000D03*
X210820000Y-93980000D03*
X167640000Y-81280000D03*
X177800000Y-93980000D03*
X175260000Y-81280000D03*
X165100000Y-81280000D03*
X198120000Y-86360000D03*
X175260000Y-76200000D03*
X153386120Y-54750448D03*
X187960000Y-30480000D03*
X193040000Y-93980000D03*
X147320000Y-43180000D03*
X190500000Y-43180000D03*
X187960000Y-68580000D03*
X149860000Y-33020000D03*
X198120000Y-38100000D03*
X208280000Y-81280000D03*
X188156130Y-36844583D03*
X220980000Y-58420000D03*
X165100000Y-76200000D03*
X155982547Y-55442447D03*
X149860000Y-88900000D03*
X177550533Y-30479999D03*
X164990257Y-48958621D03*
X166963479Y-41522766D03*
X166594413Y-36878749D03*
X205740000Y-53340000D03*
X213360000Y-88900000D03*
X183010698Y-52454278D03*
X218440000Y-38100000D03*
X162560000Y-93980000D03*
X162560000Y-86360000D03*
X198120000Y-88900000D03*
X193040000Y-38100000D03*
X156290015Y-36656352D03*
X210820000Y-68580000D03*
X147320000Y-40640000D03*
X170061657Y-45772447D03*
X147320000Y-38100000D03*
X210820000Y-35560000D03*
X180340000Y-88900000D03*
X170180000Y-86360000D03*
X205740000Y-66040000D03*
X147320000Y-58420000D03*
X157480000Y-78740000D03*
X168019739Y-62428358D03*
X203200000Y-91440000D03*
X147320000Y-76200000D03*
X182880000Y-58420000D03*
X157480000Y-83820000D03*
X170180000Y-93980000D03*
X190500000Y-68580000D03*
X180340000Y-71120000D03*
X154300353Y-36543220D03*
X213360000Y-33020000D03*
X144780000Y-35560000D03*
X152400000Y-83820000D03*
X147320000Y-50800000D03*
X203200000Y-40640000D03*
X195580000Y-30480000D03*
X220980000Y-43180000D03*
X220980000Y-73660000D03*
X213360000Y-30480000D03*
X187960000Y-43180000D03*
X203200000Y-58420000D03*
X203200000Y-93980000D03*
X218440000Y-76200000D03*
X190500000Y-60960000D03*
X172720000Y-83820000D03*
X156613587Y-49522651D03*
X160020000Y-81280000D03*
X195580000Y-81280000D03*
X208280000Y-86360000D03*
X190500000Y-66040000D03*
X165100000Y-53340000D03*
X144780000Y-50800000D03*
X172720000Y-76200000D03*
X162560000Y-71120000D03*
X152400000Y-91440000D03*
X163977256Y-49028484D03*
X170180000Y-83820000D03*
X178615000Y-48260000D03*
X147320000Y-45720000D03*
X152400000Y-76200000D03*
X177800000Y-86360000D03*
X203200000Y-55880000D03*
X203200000Y-81280000D03*
X215900000Y-83820000D03*
X182880000Y-88900000D03*
X160020000Y-88900000D03*
X162560000Y-30480000D03*
X165100000Y-71120000D03*
X153330521Y-49357318D03*
X215900000Y-35560000D03*
X208280000Y-30480000D03*
X205740000Y-35560000D03*
X147320000Y-35560000D03*
X198120000Y-83820000D03*
X147320000Y-68580000D03*
X203200000Y-48260000D03*
X153441719Y-44631380D03*
X147320000Y-48260000D03*
X147320000Y-83820000D03*
X165100000Y-88900000D03*
X162615599Y-49968910D03*
X202590909Y-46785503D03*
X175260000Y-86360000D03*
X214722312Y-68290581D03*
X160020000Y-78740000D03*
X178615000Y-45720000D03*
X160020000Y-73660000D03*
X200660000Y-30480000D03*
X187960000Y-88900000D03*
X185420000Y-58420000D03*
X195629316Y-94073149D03*
X218440000Y-40640000D03*
X220980000Y-35560000D03*
X154940000Y-38100000D03*
X149860000Y-38100000D03*
X210820000Y-30480000D03*
X152639568Y-29641653D03*
X193040000Y-78740000D03*
X180340000Y-81280000D03*
X170180000Y-73660000D03*
X185420000Y-30480000D03*
X205740000Y-33020000D03*
X190500000Y-38100000D03*
X182880000Y-30480000D03*
X144780000Y-66040000D03*
X220980000Y-60960000D03*
X193040000Y-50800000D03*
X154940000Y-68580000D03*
X162560000Y-78740000D03*
X185420000Y-73660000D03*
X193040000Y-55880000D03*
X208280000Y-35560000D03*
X147320000Y-71120000D03*
X163845827Y-46767932D03*
X200660000Y-86360000D03*
X152400000Y-81280000D03*
X149860000Y-91440000D03*
X215900000Y-30480000D03*
X182880000Y-93980000D03*
X215900000Y-78740000D03*
X172720000Y-30480000D03*
X200660000Y-50800000D03*
X190500000Y-40640000D03*
X162560000Y-63500000D03*
X220980000Y-63500000D03*
X177800000Y-88900000D03*
X147320000Y-66040000D03*
X190500000Y-78740000D03*
X200660000Y-88900000D03*
X220980000Y-68580000D03*
X220980000Y-76200000D03*
X193040000Y-58420000D03*
X220980000Y-55880000D03*
X193040000Y-53340000D03*
X195580000Y-78740000D03*
X165060120Y-47246998D03*
X215955599Y-73856130D03*
X198120000Y-50800000D03*
X175260000Y-78740000D03*
X175260000Y-93980000D03*
X177800000Y-73660000D03*
X154940000Y-93980000D03*
X177800000Y-71120000D03*
X172720000Y-93980000D03*
X162560000Y-81280000D03*
X170180000Y-30480000D03*
X203200000Y-66040000D03*
X213360000Y-35560000D03*
X172720000Y-86360000D03*
X198120000Y-53340000D03*
X200660000Y-55880000D03*
X180340000Y-30480000D03*
X198120000Y-40640000D03*
X152400000Y-66040000D03*
X185420000Y-93980000D03*
X215900000Y-40640000D03*
X167640000Y-53340000D03*
X195580000Y-66040000D03*
X167640000Y-86360000D03*
X160020000Y-71120000D03*
X147320000Y-55880000D03*
X208280000Y-38100000D03*
X208280000Y-43180000D03*
X193040000Y-68580000D03*
X208280000Y-33020000D03*
X154940000Y-60960000D03*
X205740000Y-48260000D03*
X160020000Y-60960000D03*
X152400000Y-93980000D03*
X144780000Y-81280000D03*
X178615000Y-43210000D03*
X185420000Y-71120000D03*
X160020000Y-76200000D03*
X193040000Y-66040000D03*
X186640362Y-39522803D03*
X218440000Y-81280000D03*
X193040000Y-88900000D03*
X212261135Y-74312207D03*
X215900000Y-88900000D03*
X167640000Y-83820000D03*
X193040000Y-60960000D03*
X154940000Y-71120000D03*
X165100000Y-83820000D03*
X210820000Y-91440000D03*
X154940000Y-76200000D03*
X147320000Y-63500000D03*
X167640000Y-76200000D03*
X160020000Y-83820000D03*
X215900000Y-38100000D03*
X210820000Y-81280000D03*
X185420000Y-66040000D03*
X215900000Y-33020000D03*
X153274921Y-46688553D03*
X165100000Y-55880000D03*
X208280000Y-66040000D03*
X172415590Y-43647421D03*
X182880000Y-76200000D03*
X205740000Y-91440000D03*
X218440000Y-35560000D03*
X185420000Y-76200000D03*
X157480000Y-60960000D03*
X170180000Y-88900000D03*
X200660000Y-81280000D03*
X208280000Y-93980000D03*
X175260000Y-83820000D03*
X190500000Y-50800000D03*
X175260000Y-30480000D03*
X160020000Y-93980000D03*
X165100000Y-86360000D03*
X190500000Y-58420000D03*
X205740000Y-30480000D03*
X220980000Y-45720000D03*
X215900000Y-81280000D03*
X190750133Y-74736660D03*
X194624516Y-48194104D03*
X153330521Y-51914885D03*
X215900000Y-86360000D03*
X182880000Y-86360000D03*
X172099002Y-45223202D03*
X182880000Y-60960000D03*
X170180000Y-78740000D03*
X163799253Y-44485767D03*
X203200000Y-30480000D03*
X162560000Y-88900000D03*
X170180000Y-76200000D03*
X198120000Y-93980000D03*
X195580000Y-55880000D03*
X152400000Y-68580000D03*
X198120000Y-55880000D03*
X220980000Y-71120000D03*
X172487126Y-46822270D03*
X185420000Y-60960000D03*
X195580000Y-88900000D03*
X213360000Y-91440000D03*
X200660000Y-93980000D03*
X218440000Y-88900000D03*
X179229947Y-53529197D03*
X213360000Y-86360000D03*
X208280000Y-88900000D03*
X198384673Y-74680286D03*
X172720000Y-81280000D03*
X172720000Y-88900000D03*
X153386120Y-57808408D03*
X167640000Y-58420000D03*
X218440000Y-73660000D03*
X193040000Y-30480000D03*
X162560000Y-83820000D03*
X205740000Y-88900000D03*
X193040000Y-40640000D03*
X190500000Y-30480000D03*
X218440000Y-78740000D03*
X198120000Y-58420000D03*
X152400000Y-40640000D03*
X200660000Y-60960000D03*
X187960000Y-71120000D03*
X203200000Y-68580000D03*
X208280000Y-40640000D03*
X210820000Y-86360000D03*
X157480000Y-81280000D03*
X190500000Y-93980000D03*
X149860000Y-35560000D03*
X165100000Y-78740000D03*
X208280000Y-48260000D03*
X162560000Y-76200000D03*
X168727885Y-41413505D03*
X198120000Y-68580000D03*
X208280000Y-45720000D03*
X200660000Y-35560000D03*
X220980000Y-66040000D03*
X182880000Y-35560000D03*
X160892021Y-45576568D03*
X147320000Y-73660000D03*
X198120000Y-60960000D03*
X165060120Y-44033337D03*
X218440000Y-86360000D03*
X175260000Y-71120000D03*
X193040000Y-35560000D03*
X160020000Y-63500000D03*
X220980000Y-48260000D03*
X205087475Y-61624291D03*
X200660000Y-66040000D03*
X187960000Y-66040000D03*
X185420000Y-35560000D03*
X157480000Y-71120000D03*
X152400000Y-73660000D03*
X185420000Y-68580000D03*
X157200551Y-94024901D03*
X165129982Y-42251851D03*
X205740000Y-45720000D03*
X185299191Y-51986117D03*
X195580000Y-60960000D03*
X172720000Y-78740000D03*
X187960000Y-93980000D03*
X210820000Y-33020000D03*
X180340000Y-86360000D03*
X213360000Y-66040000D03*
X165100000Y-30480000D03*
X159646559Y-35315979D03*
X161961141Y-36841683D03*
X167640000Y-55880000D03*
X147320000Y-78740000D03*
X182880000Y-55880000D03*
X220980000Y-38100000D03*
X162560000Y-73660000D03*
X180340000Y-58420000D03*
X149860000Y-93980000D03*
X213360000Y-93980000D03*
X152400000Y-63500000D03*
X147320000Y-86360000D03*
X154940000Y-73660000D03*
X172720000Y-71120000D03*
X220980000Y-40640000D03*
X158556852Y-40294637D03*
X167640000Y-30480000D03*
X205740000Y-93980000D03*
X195580000Y-50800000D03*
X165100000Y-58420000D03*
X154940000Y-86360000D03*
X215900000Y-91440000D03*
X180340000Y-76200000D03*
X203280033Y-74446290D03*
X205740000Y-68580000D03*
X183989228Y-81527847D03*
X175507107Y-51975695D03*
X154940000Y-66040000D03*
X195580000Y-53340000D03*
X184627717Y-53736942D03*
X195580000Y-58420000D03*
X167640000Y-78740000D03*
X162504400Y-40961829D03*
X198120000Y-30480000D03*
X154940000Y-58420000D03*
X200660000Y-68580000D03*
X152400000Y-71120000D03*
X177800000Y-76200000D03*
X166977178Y-49891489D03*
X198120000Y-78740000D03*
X180340000Y-93980000D03*
X162560000Y-60960000D03*
X220980000Y-86360000D03*
X220980000Y-50800000D03*
X220980000Y-53340000D03*
X199072457Y-48622424D03*
X190500000Y-48260000D03*
X160020000Y-30480000D03*
X171875066Y-38862756D03*
X175260000Y-88900000D03*
%TO.N,VIN*%
X204990786Y-71120000D03*
X188720823Y-92142324D03*
%TO.N,+3.3V*%
X180340000Y-45720000D03*
%TO.N,P1_POUT*%
X212237596Y-72610746D03*
%TO.N,P2_POUT*%
X198384673Y-72955286D03*
%TO.N,UART1_TX*%
X191230457Y-46606430D03*
%TO.N,UART1_RX*%
X193040000Y-45720000D03*
%TO.N,Net-(J3-Pin_14)*%
X179071415Y-37881113D03*
%TO.N,Net-(J3-Pin_15)*%
X176400525Y-38882113D03*
%TO.N,Net-(J3-Pin_13)*%
X180297881Y-38142119D03*
%TO.N,Net-(J3-Pin_12)*%
X182118124Y-37374404D03*
%TO.N,Net-(J3-Pin_9)*%
X182880000Y-38100000D03*
%TO.N,Net-(J5-Pin_13)*%
X178089184Y-53350320D03*
%TO.N,Net-(J5-Pin_16)*%
X175860000Y-56161351D03*
%TO.N,Net-(J5-Pin_15)*%
X176464385Y-55491063D03*
%TO.N,PB13*%
X186775343Y-48895592D03*
%TO.N,Net-(J5-Pin_14)*%
X177064385Y-54363825D03*
%TO.N,Net-(J5-Pin_17)*%
X175602415Y-57500655D03*
%TO.N,LEDG*%
X196427133Y-46813329D03*
%TO.N,SW1*%
X182952559Y-39236766D03*
X156588296Y-41641858D03*
%TO.N,P1PWR*%
X177800000Y-35545580D03*
X175274420Y-35545580D03*
%TO.N,P2PWR*%
X176215099Y-40111699D03*
X193400367Y-74781119D03*
%TD*%
D21*
%TO.N,AGND*%
X184694740Y-49242588D02*
X184694740Y-44336586D01*
X178615000Y-48260000D02*
X178615000Y-50740000D01*
X184694740Y-44336586D02*
X184675576Y-44317422D01*
X178615000Y-43210000D02*
X178615000Y-45720000D01*
X178615000Y-45720000D02*
X178615000Y-48260000D01*
%TO.N,VIN*%
X215900000Y-48260000D02*
X213360000Y-45720000D01*
D22*
X191872415Y-88990732D02*
X191872415Y-85433311D01*
D21*
X204990786Y-71120000D02*
X209692234Y-71120000D01*
X209692234Y-71120000D02*
X215900000Y-64912234D01*
X215900000Y-64912234D02*
X215900000Y-48260000D01*
X210820000Y-45720000D02*
X213360000Y-45720000D01*
D22*
X188720823Y-92142324D02*
X191872415Y-88990732D01*
D21*
%TO.N,+3.3V*%
X182950576Y-44317422D02*
X182950576Y-49223424D01*
X182950576Y-44317422D02*
X182950576Y-43109424D01*
X182950576Y-49223424D02*
X182969740Y-49242588D01*
X184150000Y-34290000D02*
X185420000Y-33020000D01*
X180340000Y-45720000D02*
X180340000Y-50740000D01*
X180340000Y-45720000D02*
X181805230Y-45720000D01*
X182950576Y-43109424D02*
X184150000Y-41910000D01*
X184150000Y-41910000D02*
X184150000Y-40640000D01*
X184150000Y-40640000D02*
X184150000Y-34290000D01*
X181805230Y-45720000D02*
X182950576Y-46865346D01*
X180340000Y-43210000D02*
X180340000Y-45720000D01*
X184150000Y-40640000D02*
X184150000Y-39522803D01*
X184150000Y-39522803D02*
X184915362Y-39522803D01*
D22*
%TO.N,P1_POUT*%
X212237596Y-72610746D02*
X216893061Y-67955281D01*
X216893061Y-67955281D02*
X216893061Y-46713061D01*
X216893061Y-46713061D02*
X213360000Y-43180000D01*
%TO.N,P2_POUT*%
X203200000Y-77726857D02*
X210125493Y-77726857D01*
X210125493Y-77726857D02*
X217654050Y-70198300D01*
X210820000Y-40640000D02*
X213360000Y-40640000D01*
X203200000Y-77726857D02*
X198428429Y-72955286D01*
X203200000Y-77726857D02*
X199880677Y-81046180D01*
D21*
X198428429Y-72955286D02*
X198384673Y-72955286D01*
D22*
X217654050Y-70198300D02*
X217654050Y-44934050D01*
X199880677Y-81046180D02*
X199880677Y-84323293D01*
X217654050Y-44934050D02*
X213360000Y-40640000D01*
D21*
%TO.N,UART1_TX*%
X191230457Y-46606430D02*
X195179000Y-42657887D01*
X195179000Y-42657887D02*
X195179000Y-35159000D01*
X195179000Y-35159000D02*
X193040000Y-33020000D01*
%TO.N,UART1_RX*%
X195580000Y-43180000D02*
X195580000Y-33020000D01*
X193040000Y-45720000D02*
X195580000Y-43180000D01*
%TO.N,Net-(J3-Pin_14)*%
X174850466Y-37881113D02*
X173522000Y-39209579D01*
X179071415Y-37881113D02*
X174850466Y-37881113D01*
X173522000Y-65238000D02*
X172720000Y-66040000D01*
X173522000Y-39209579D02*
X173522000Y-65238000D01*
%TO.N,Net-(J3-Pin_15)*%
X176649000Y-62835147D02*
X176649000Y-67191000D01*
X176649000Y-67191000D02*
X175260000Y-68580000D01*
X176400525Y-38882113D02*
X174983666Y-38882113D01*
X174324000Y-39541779D02*
X174324000Y-60510147D01*
X174983666Y-38882113D02*
X174324000Y-39541779D01*
X174324000Y-60510147D02*
X176649000Y-62835147D01*
%TO.N,Net-(J3-Pin_13)*%
X173923000Y-39375679D02*
X173923000Y-67377000D01*
X178622472Y-38282113D02*
X175016566Y-38282113D01*
X173923000Y-67377000D02*
X172720000Y-68580000D01*
X179660352Y-38142119D02*
X179320358Y-38482113D01*
X175016566Y-38282113D02*
X173923000Y-39375679D01*
X178822472Y-38482113D02*
X178622472Y-38282113D01*
X179320358Y-38482113D02*
X178822472Y-38482113D01*
X180297881Y-38142119D02*
X179660352Y-38142119D01*
%TO.N,Net-(J3-Pin_12)*%
X182023833Y-37280113D02*
X174884366Y-37280113D01*
X173121000Y-63099000D02*
X170180000Y-66040000D01*
X174884366Y-37280113D02*
X173121000Y-39043479D01*
X182118124Y-37374404D02*
X182023833Y-37280113D01*
X173121000Y-39043479D02*
X173121000Y-63099000D01*
%TO.N,Net-(J3-Pin_9)*%
X180995508Y-36145580D02*
X180970296Y-36120368D01*
X181739243Y-36145580D02*
X180995508Y-36145580D01*
X180447198Y-36145580D02*
X168005790Y-36145580D01*
X165422323Y-36120368D02*
X160020000Y-41522691D01*
X180970296Y-36120368D02*
X180472410Y-36120368D01*
X166489000Y-67429000D02*
X167640000Y-68580000D01*
X168005790Y-36145580D02*
X167980578Y-36120368D01*
X182880000Y-37286337D02*
X181739243Y-36145580D01*
X160020000Y-41522691D02*
X160020000Y-56554242D01*
X160020000Y-56554242D02*
X166489000Y-63023242D01*
X180472410Y-36120368D02*
X180447198Y-36145580D01*
X182880000Y-38100000D02*
X182880000Y-37286337D01*
X167980578Y-36120368D02*
X165422323Y-36120368D01*
X166489000Y-63023242D02*
X166489000Y-67429000D01*
%TO.N,Net-(J5-Pin_13)*%
X202264000Y-61896000D02*
X210820000Y-53340000D01*
X178089184Y-57436181D02*
X182549003Y-61896000D01*
X178089184Y-53350320D02*
X178089184Y-57436181D01*
X182549003Y-61896000D02*
X202264000Y-61896000D01*
%TO.N,Net-(J5-Pin_16)*%
X175860000Y-56908297D02*
X182050703Y-63099000D01*
X210581240Y-57031000D02*
X212209000Y-57031000D01*
X206726450Y-61946450D02*
X206726450Y-60885790D01*
X182050703Y-63099000D02*
X205573900Y-63099000D01*
X206726450Y-60885790D02*
X210581240Y-57031000D01*
X205573900Y-63099000D02*
X206726450Y-61946450D01*
X175860000Y-56161351D02*
X175860000Y-56908297D01*
X212209000Y-57031000D02*
X213360000Y-55880000D01*
%TO.N,Net-(J5-Pin_15)*%
X182216803Y-62698000D02*
X205407800Y-62698000D01*
X205407800Y-62698000D02*
X206325450Y-61780350D01*
X206325450Y-60374550D02*
X210820000Y-55880000D01*
X176464385Y-56945582D02*
X182216803Y-62698000D01*
X176464385Y-55491063D02*
X176464385Y-56945582D01*
X206325450Y-61780350D02*
X206325450Y-60374550D01*
%TO.N,PB13*%
X186775343Y-48895592D02*
X192037147Y-48895592D01*
X195212739Y-45720000D02*
X198120000Y-45720000D01*
X203200000Y-50800000D02*
X210820000Y-50800000D01*
X192037147Y-48895592D02*
X195212739Y-45720000D01*
X198120000Y-45720000D02*
X203200000Y-50800000D01*
%TO.N,Net-(J5-Pin_14)*%
X182382903Y-62297000D02*
X202799000Y-62297000D01*
X177065385Y-56979482D02*
X182382903Y-62297000D01*
X177064385Y-55241120D02*
X177065385Y-55242120D01*
X202799000Y-62297000D02*
X202799000Y-62273240D01*
X202799000Y-62273240D02*
X210343240Y-54729000D01*
X211971000Y-54729000D02*
X213360000Y-53340000D01*
X210343240Y-54729000D02*
X211971000Y-54729000D01*
X177064385Y-54363825D02*
X177064385Y-55241120D01*
X177065385Y-55242120D02*
X177065385Y-56979482D01*
%TO.N,Net-(J5-Pin_17)*%
X181601760Y-63500000D02*
X205740000Y-63500000D01*
X175602415Y-57500655D02*
X181601760Y-63500000D01*
X205740000Y-63500000D02*
X210820000Y-58420000D01*
%TO.N,LEDG*%
X215299000Y-56481000D02*
X213360000Y-58420000D01*
X213598760Y-51951000D02*
X215299000Y-53651240D01*
X215299000Y-53651240D02*
X215299000Y-56481000D01*
X204351000Y-51951000D02*
X213598760Y-51951000D01*
X203033900Y-51201000D02*
X203601000Y-51201000D01*
X196427133Y-46813329D02*
X198646229Y-46813329D01*
X203601000Y-51201000D02*
X204351000Y-51951000D01*
X198646229Y-46813329D02*
X203033900Y-51201000D01*
%TO.N,SW1*%
X166032011Y-34943580D02*
X181104343Y-34943580D01*
X156670912Y-41559242D02*
X159416349Y-41559242D01*
X156588296Y-41641858D02*
X156670912Y-41559242D01*
X183749000Y-37588237D02*
X183749000Y-38440325D01*
X159416349Y-41559242D02*
X166032011Y-34943580D01*
X181104343Y-34943580D02*
X183749000Y-37588237D01*
X183749000Y-38440325D02*
X182952559Y-39236766D01*
%TO.N,P1PWR*%
X177800000Y-35545580D02*
X175274420Y-35545580D01*
%TO.N,P2PWR*%
X191165658Y-72546410D02*
X193400367Y-74781119D01*
X191165658Y-64653606D02*
X191165658Y-72546410D01*
X190500000Y-63987948D02*
X191165658Y-64653606D01*
X174725000Y-41601798D02*
X174725000Y-57473183D01*
X174725000Y-57473183D02*
X181239765Y-63987948D01*
X181239765Y-63987948D02*
X190500000Y-63987948D01*
X176215099Y-40111699D02*
X174725000Y-41601798D01*
%TD*%
%TA.AperFunction,Conductor*%
%TO.N,AGND*%
G36*
X179874075Y-66232993D02*
G01*
X179939901Y-66347007D01*
X180032993Y-66440099D01*
X180147007Y-66505925D01*
X180210591Y-66522962D01*
X179609971Y-67123581D01*
X179688711Y-67240895D01*
X179689920Y-67244729D01*
X179692844Y-67247491D01*
X179700343Y-67277778D01*
X179709727Y-67307529D01*
X179708671Y-67311408D01*
X179709638Y-67315312D01*
X179699573Y-67344844D01*
X179691383Y-67374947D01*
X179688397Y-67377640D01*
X179687100Y-67381447D01*
X179642051Y-67420483D01*
X179632440Y-67425380D01*
X179578282Y-67464727D01*
X179578282Y-67464728D01*
X180210591Y-68097037D01*
X180147007Y-68114075D01*
X180032993Y-68179901D01*
X179939901Y-68272993D01*
X179874075Y-68387007D01*
X179857037Y-68450591D01*
X179224728Y-67818282D01*
X179224727Y-67818282D01*
X179185380Y-67872440D01*
X179185376Y-67872446D01*
X179180760Y-67881505D01*
X179132781Y-67932297D01*
X179064959Y-67949087D01*
X178998826Y-67926543D01*
X178959794Y-67881493D01*
X178955051Y-67872184D01*
X178955049Y-67872181D01*
X178955048Y-67872179D01*
X178830109Y-67700213D01*
X178679786Y-67549890D01*
X178507820Y-67424951D01*
X178507115Y-67424591D01*
X178499054Y-67420485D01*
X178448259Y-67372512D01*
X178431463Y-67304692D01*
X178453999Y-67238556D01*
X178499054Y-67199515D01*
X178507816Y-67195051D01*
X178606187Y-67123581D01*
X178679786Y-67070109D01*
X178679788Y-67070106D01*
X178679792Y-67070104D01*
X178830104Y-66919792D01*
X178830106Y-66919788D01*
X178830109Y-66919786D01*
X178915890Y-66801717D01*
X178955051Y-66747816D01*
X178959793Y-66738508D01*
X179007763Y-66687711D01*
X179075583Y-66670911D01*
X179141719Y-66693445D01*
X179180763Y-66738500D01*
X179185373Y-66747547D01*
X179224728Y-66801716D01*
X179857037Y-66169408D01*
X179874075Y-66232993D01*
G37*
%TD.AperFunction*%
%TA.AperFunction,Conductor*%
G36*
X158595270Y-66801717D02*
G01*
X158595270Y-66801716D01*
X158634622Y-66747555D01*
X158639232Y-66738507D01*
X158687205Y-66687709D01*
X158755025Y-66670912D01*
X158821161Y-66693447D01*
X158860204Y-66738504D01*
X158864949Y-66747817D01*
X158989890Y-66919786D01*
X159140213Y-67070109D01*
X159312182Y-67195050D01*
X159320946Y-67199516D01*
X159371742Y-67247491D01*
X159388536Y-67315312D01*
X159365998Y-67381447D01*
X159320946Y-67420484D01*
X159312182Y-67424949D01*
X159140215Y-67549889D01*
X159026285Y-67663819D01*
X158964962Y-67697303D01*
X158895270Y-67692319D01*
X158839337Y-67650447D01*
X158822422Y-67619470D01*
X158773354Y-67487913D01*
X158773350Y-67487906D01*
X158687190Y-67372812D01*
X158687187Y-67372809D01*
X158572093Y-67286649D01*
X158572086Y-67286645D01*
X158437380Y-67236403D01*
X158437373Y-67236401D01*
X158354555Y-67227497D01*
X158354884Y-67224431D01*
X158337875Y-67225330D01*
X158278803Y-67192356D01*
X157609408Y-66522962D01*
X157672993Y-66505925D01*
X157787007Y-66440099D01*
X157880099Y-66347007D01*
X157945925Y-66232993D01*
X157962962Y-66169409D01*
X158595270Y-66801717D01*
G37*
%TD.AperFunction*%
%TA.AperFunction,Conductor*%
G36*
X167848408Y-36725093D02*
G01*
X167926733Y-36746080D01*
X168084847Y-36746080D01*
X174269801Y-36746080D01*
X174336840Y-36765765D01*
X174382595Y-36818569D01*
X174392539Y-36887727D01*
X174363514Y-36951283D01*
X174357482Y-36957761D01*
X172640481Y-38674761D01*
X172640479Y-38674763D01*
X172623218Y-38704662D01*
X172607729Y-38731490D01*
X172561423Y-38811694D01*
X172520499Y-38964422D01*
X172520499Y-38964424D01*
X172520499Y-39132525D01*
X172520500Y-39132538D01*
X172520500Y-62798902D01*
X172500815Y-62865941D01*
X172484181Y-62886583D01*
X170664522Y-64706241D01*
X170603199Y-64739726D01*
X170538523Y-64736491D01*
X170496245Y-64722754D01*
X170334991Y-64697214D01*
X170286287Y-64689500D01*
X170073713Y-64689500D01*
X170025042Y-64697208D01*
X169863760Y-64722753D01*
X169661585Y-64788444D01*
X169472179Y-64884951D01*
X169300213Y-65009890D01*
X169149890Y-65160213D01*
X169024949Y-65332182D01*
X169020484Y-65340946D01*
X168972509Y-65391742D01*
X168904688Y-65408536D01*
X168838553Y-65385998D01*
X168799516Y-65340946D01*
X168795050Y-65332182D01*
X168670109Y-65160213D01*
X168519786Y-65009890D01*
X168347820Y-64884951D01*
X168158414Y-64788444D01*
X168158413Y-64788443D01*
X168158412Y-64788443D01*
X167956243Y-64722754D01*
X167956241Y-64722753D01*
X167956240Y-64722753D01*
X167794957Y-64697208D01*
X167746287Y-64689500D01*
X167533713Y-64689500D01*
X167494202Y-64695757D01*
X167323759Y-64722753D01*
X167323755Y-64722754D01*
X167251817Y-64746128D01*
X167181976Y-64748123D01*
X167122143Y-64712042D01*
X167091316Y-64649341D01*
X167089500Y-64628197D01*
X167089500Y-63112302D01*
X167089501Y-63112289D01*
X167089501Y-62944186D01*
X167089501Y-62944185D01*
X167048577Y-62791458D01*
X167028158Y-62756091D01*
X166969524Y-62654532D01*
X166969518Y-62654524D01*
X160656819Y-56341825D01*
X160623334Y-56280502D01*
X160620500Y-56254144D01*
X160620500Y-52442135D01*
X168829500Y-52442135D01*
X168829500Y-54237870D01*
X168829501Y-54237876D01*
X168835908Y-54297483D01*
X168886202Y-54432328D01*
X168886206Y-54432335D01*
X168972452Y-54547544D01*
X168972455Y-54547547D01*
X169087664Y-54633793D01*
X169087671Y-54633797D01*
X169219082Y-54682810D01*
X169275016Y-54724681D01*
X169299433Y-54790145D01*
X169284582Y-54858418D01*
X169263431Y-54886673D01*
X169149889Y-55000215D01*
X169024951Y-55172179D01*
X168928444Y-55361585D01*
X168862753Y-55563760D01*
X168829500Y-55773713D01*
X168829500Y-55986287D01*
X168862754Y-56196243D01*
X168911617Y-56346628D01*
X168928444Y-56398414D01*
X169024951Y-56587820D01*
X169149890Y-56759786D01*
X169300213Y-56910109D01*
X169472182Y-57035050D01*
X169480946Y-57039516D01*
X169531742Y-57087491D01*
X169548536Y-57155312D01*
X169525998Y-57221447D01*
X169480946Y-57260484D01*
X169472182Y-57264949D01*
X169300213Y-57389890D01*
X169149890Y-57540213D01*
X169024951Y-57712179D01*
X168928444Y-57901585D01*
X168862753Y-58103760D01*
X168829500Y-58313713D01*
X168829500Y-58526286D01*
X168858357Y-58708486D01*
X168862754Y-58736243D01*
X168890384Y-58821280D01*
X168928444Y-58938414D01*
X169024951Y-59127820D01*
X169149890Y-59299786D01*
X169300213Y-59450109D01*
X169472179Y-59575048D01*
X169472181Y-59575049D01*
X169472184Y-59575051D01*
X169661588Y-59671557D01*
X169863757Y-59737246D01*
X170073713Y-59770500D01*
X170073714Y-59770500D01*
X170286286Y-59770500D01*
X170286287Y-59770500D01*
X170496243Y-59737246D01*
X170698412Y-59671557D01*
X170887816Y-59575051D01*
X170909789Y-59559086D01*
X171059786Y-59450109D01*
X171059788Y-59450106D01*
X171059792Y-59450104D01*
X171210104Y-59299792D01*
X171210106Y-59299788D01*
X171210109Y-59299786D01*
X171335048Y-59127820D01*
X171335047Y-59127820D01*
X171335051Y-59127816D01*
X171431557Y-58938412D01*
X171497246Y-58736243D01*
X171530500Y-58526287D01*
X171530500Y-58313713D01*
X171497246Y-58103757D01*
X171431557Y-57901588D01*
X171335051Y-57712184D01*
X171335049Y-57712181D01*
X171335048Y-57712179D01*
X171210109Y-57540213D01*
X171059786Y-57389890D01*
X170887820Y-57264951D01*
X170887115Y-57264591D01*
X170879054Y-57260485D01*
X170828259Y-57212512D01*
X170811463Y-57144692D01*
X170833999Y-57078556D01*
X170879054Y-57039515D01*
X170887816Y-57035051D01*
X170909789Y-57019086D01*
X171059786Y-56910109D01*
X171059788Y-56910106D01*
X171059792Y-56910104D01*
X171210104Y-56759792D01*
X171210106Y-56759788D01*
X171210109Y-56759786D01*
X171333902Y-56589397D01*
X171335051Y-56587816D01*
X171431557Y-56398412D01*
X171497246Y-56196243D01*
X171530500Y-55986287D01*
X171530500Y-55773713D01*
X171497246Y-55563757D01*
X171431557Y-55361588D01*
X171335051Y-55172184D01*
X171335049Y-55172181D01*
X171335048Y-55172179D01*
X171210109Y-55000213D01*
X171096569Y-54886673D01*
X171063084Y-54825350D01*
X171068068Y-54755658D01*
X171109940Y-54699725D01*
X171140915Y-54682810D01*
X171272331Y-54633796D01*
X171387546Y-54547546D01*
X171473796Y-54432331D01*
X171524091Y-54297483D01*
X171530500Y-54237873D01*
X171530499Y-52442128D01*
X171524091Y-52382517D01*
X171499052Y-52315385D01*
X171473797Y-52247671D01*
X171473793Y-52247664D01*
X171387547Y-52132455D01*
X171387544Y-52132452D01*
X171272335Y-52046206D01*
X171272328Y-52046202D01*
X171137482Y-51995908D01*
X171137483Y-51995908D01*
X171077883Y-51989501D01*
X171077881Y-51989500D01*
X171077873Y-51989500D01*
X171077864Y-51989500D01*
X169282129Y-51989500D01*
X169282123Y-51989501D01*
X169222516Y-51995908D01*
X169087671Y-52046202D01*
X169087664Y-52046206D01*
X168972455Y-52132452D01*
X168972452Y-52132455D01*
X168886206Y-52247664D01*
X168886202Y-52247671D01*
X168835908Y-52382517D01*
X168830640Y-52431520D01*
X168829501Y-52442123D01*
X168829500Y-52442135D01*
X160620500Y-52442135D01*
X160620500Y-47981577D01*
X161309500Y-47981577D01*
X161309500Y-48178422D01*
X161340290Y-48372826D01*
X161401117Y-48560029D01*
X161490476Y-48735405D01*
X161606172Y-48894646D01*
X161745354Y-49033828D01*
X161904595Y-49149524D01*
X161945302Y-49170265D01*
X162079970Y-49238882D01*
X162079972Y-49238882D01*
X162079975Y-49238884D01*
X162158222Y-49264308D01*
X162267173Y-49299709D01*
X162461578Y-49330500D01*
X162461583Y-49330500D01*
X162658422Y-49330500D01*
X162852826Y-49299709D01*
X163040025Y-49238884D01*
X163215405Y-49149524D01*
X163374646Y-49033828D01*
X163513828Y-48894646D01*
X163629524Y-48735405D01*
X163718884Y-48560025D01*
X163779709Y-48372826D01*
X163780745Y-48366286D01*
X163810500Y-48178422D01*
X163810500Y-47981577D01*
X163779709Y-47787173D01*
X163744463Y-47678699D01*
X163718884Y-47599975D01*
X163718882Y-47599972D01*
X163718882Y-47599970D01*
X163653170Y-47471003D01*
X163629524Y-47424595D01*
X163513828Y-47265354D01*
X163374646Y-47126172D01*
X163215405Y-47010476D01*
X163185644Y-46995312D01*
X163040029Y-46921117D01*
X162852826Y-46860290D01*
X162658422Y-46829500D01*
X162658417Y-46829500D01*
X162461583Y-46829500D01*
X162461578Y-46829500D01*
X162267173Y-46860290D01*
X162079970Y-46921117D01*
X161904594Y-47010476D01*
X161843891Y-47054580D01*
X161745354Y-47126172D01*
X161745352Y-47126174D01*
X161745351Y-47126174D01*
X161606174Y-47265351D01*
X161606174Y-47265352D01*
X161606172Y-47265354D01*
X161563838Y-47323621D01*
X161490476Y-47424594D01*
X161401117Y-47599970D01*
X161340290Y-47787173D01*
X161309500Y-47981577D01*
X160620500Y-47981577D01*
X160620500Y-43081577D01*
X161309500Y-43081577D01*
X161309500Y-43278422D01*
X161340290Y-43472826D01*
X161401117Y-43660029D01*
X161455174Y-43766121D01*
X161490476Y-43835405D01*
X161606172Y-43994646D01*
X161745354Y-44133828D01*
X161904595Y-44249524D01*
X161987455Y-44291743D01*
X162079970Y-44338882D01*
X162079972Y-44338882D01*
X162079975Y-44338884D01*
X162180317Y-44371487D01*
X162267173Y-44399709D01*
X162461578Y-44430500D01*
X162461583Y-44430500D01*
X162658422Y-44430500D01*
X162852826Y-44399709D01*
X163040025Y-44338884D01*
X163215405Y-44249524D01*
X163374646Y-44133828D01*
X163513828Y-43994646D01*
X163629524Y-43835405D01*
X163718884Y-43660025D01*
X163779709Y-43472826D01*
X163785778Y-43434508D01*
X163810500Y-43278422D01*
X163810500Y-43081577D01*
X163779709Y-42887173D01*
X163718882Y-42699970D01*
X163634857Y-42535062D01*
X163629524Y-42524595D01*
X163513828Y-42365354D01*
X163374646Y-42226172D01*
X163215405Y-42110476D01*
X163192974Y-42099047D01*
X163040029Y-42021117D01*
X162852826Y-41960290D01*
X162658422Y-41929500D01*
X162658417Y-41929500D01*
X162461583Y-41929500D01*
X162461578Y-41929500D01*
X162267173Y-41960290D01*
X162079970Y-42021117D01*
X161904594Y-42110476D01*
X161836785Y-42159743D01*
X161745354Y-42226172D01*
X161745352Y-42226174D01*
X161745351Y-42226174D01*
X161606174Y-42365351D01*
X161606174Y-42365352D01*
X161606172Y-42365354D01*
X161588513Y-42389660D01*
X161490476Y-42524594D01*
X161401117Y-42699970D01*
X161340290Y-42887173D01*
X161309500Y-43081577D01*
X160620500Y-43081577D01*
X160620500Y-41822788D01*
X160640185Y-41755749D01*
X160656819Y-41735107D01*
X165634739Y-36757187D01*
X165696062Y-36723702D01*
X165722420Y-36720868D01*
X167816315Y-36720868D01*
X167848408Y-36725093D01*
G37*
%TD.AperFunction*%
%TA.AperFunction,Conductor*%
G36*
X205644284Y-60379705D02*
G01*
X205700217Y-60421577D01*
X205724634Y-60487041D01*
X205724950Y-60495887D01*
X205724950Y-61480253D01*
X205705265Y-61547292D01*
X205688631Y-61567934D01*
X205195384Y-62061181D01*
X205134061Y-62094666D01*
X205107703Y-62097500D01*
X204123337Y-62097500D01*
X204056298Y-62077815D01*
X204010543Y-62025011D01*
X204000599Y-61955853D01*
X204029624Y-61892297D01*
X204035656Y-61885819D01*
X205513269Y-60408206D01*
X205574592Y-60374721D01*
X205644284Y-60379705D01*
G37*
%TD.AperFunction*%
%TA.AperFunction,Conductor*%
G36*
X191787226Y-33655524D02*
G01*
X191799810Y-33654985D01*
X191819674Y-33666581D01*
X191841444Y-33673999D01*
X191850719Y-33684703D01*
X191860151Y-33690209D01*
X191880484Y-33719053D01*
X191881675Y-33721390D01*
X191884951Y-33727820D01*
X192009890Y-33899786D01*
X192160213Y-34050109D01*
X192332179Y-34175048D01*
X192332181Y-34175049D01*
X192332184Y-34175051D01*
X192521588Y-34271557D01*
X192723757Y-34337246D01*
X192933713Y-34370500D01*
X192933714Y-34370500D01*
X193146286Y-34370500D01*
X193146287Y-34370500D01*
X193356243Y-34337246D01*
X193398523Y-34323507D01*
X193468362Y-34321511D01*
X193524522Y-34353757D01*
X194542181Y-35371416D01*
X194575666Y-35432739D01*
X194578500Y-35459097D01*
X194578500Y-42357790D01*
X194558815Y-42424829D01*
X194542181Y-42445471D01*
X191215796Y-45771855D01*
X191154473Y-45805340D01*
X191152307Y-45805791D01*
X190996965Y-45836691D01*
X190996955Y-45836694D01*
X190851284Y-45897032D01*
X190851271Y-45897039D01*
X190720168Y-45984640D01*
X190720164Y-45984643D01*
X190608670Y-46096137D01*
X190608667Y-46096141D01*
X190521066Y-46227244D01*
X190521059Y-46227257D01*
X190460721Y-46372928D01*
X190460718Y-46372940D01*
X190429957Y-46527583D01*
X190429957Y-46685276D01*
X190460718Y-46839919D01*
X190460721Y-46839931D01*
X190521059Y-46985602D01*
X190521066Y-46985615D01*
X190608667Y-47116718D01*
X190608670Y-47116722D01*
X190720164Y-47228216D01*
X190720168Y-47228219D01*
X190851271Y-47315820D01*
X190851284Y-47315827D01*
X190996955Y-47376165D01*
X190996960Y-47376167D01*
X191136704Y-47403964D01*
X191151610Y-47406929D01*
X191151613Y-47406930D01*
X191151615Y-47406930D01*
X191309301Y-47406930D01*
X191309302Y-47406929D01*
X191463954Y-47376167D01*
X191590812Y-47323621D01*
X191609629Y-47315827D01*
X191609629Y-47315826D01*
X191609636Y-47315824D01*
X191740746Y-47228219D01*
X191852246Y-47116719D01*
X191939851Y-46985609D01*
X191945672Y-46971557D01*
X191983796Y-46879516D01*
X192000194Y-46839927D01*
X192019570Y-46742515D01*
X192031095Y-46684580D01*
X192063480Y-46622669D01*
X192064975Y-46621146D01*
X192349342Y-46336779D01*
X192410663Y-46303296D01*
X192480355Y-46308280D01*
X192524702Y-46336781D01*
X192529707Y-46341786D01*
X192529711Y-46341789D01*
X192660814Y-46429390D01*
X192660827Y-46429397D01*
X192777426Y-46477693D01*
X192806503Y-46489737D01*
X192961153Y-46520499D01*
X192961156Y-46520500D01*
X192961158Y-46520500D01*
X193118844Y-46520500D01*
X193272371Y-46489961D01*
X193341963Y-46496188D01*
X193397140Y-46539051D01*
X193420385Y-46604940D01*
X193404317Y-46672938D01*
X193384244Y-46699259D01*
X191824731Y-48258773D01*
X191763408Y-48292258D01*
X191737050Y-48295092D01*
X187355109Y-48295092D01*
X187288070Y-48275407D01*
X187286218Y-48274194D01*
X187154528Y-48186201D01*
X187154515Y-48186194D01*
X187008844Y-48125856D01*
X187008832Y-48125853D01*
X186854188Y-48095092D01*
X186854185Y-48095092D01*
X186696501Y-48095092D01*
X186696498Y-48095092D01*
X186541853Y-48125853D01*
X186541841Y-48125856D01*
X186396170Y-48186194D01*
X186396157Y-48186201D01*
X186265054Y-48273802D01*
X186265050Y-48273805D01*
X186153556Y-48385299D01*
X186153553Y-48385303D01*
X186065952Y-48516406D01*
X186065945Y-48516419D01*
X186005607Y-48662090D01*
X186005604Y-48662102D01*
X185974843Y-48816745D01*
X185974843Y-48816750D01*
X185974843Y-48974434D01*
X185979675Y-48998728D01*
X185979676Y-48998738D01*
X186005604Y-49129081D01*
X186005607Y-49129093D01*
X186065945Y-49274764D01*
X186065952Y-49274777D01*
X186153553Y-49405880D01*
X186153556Y-49405884D01*
X186265050Y-49517378D01*
X186265054Y-49517381D01*
X186396157Y-49604982D01*
X186396170Y-49604989D01*
X186541841Y-49665327D01*
X186541846Y-49665329D01*
X186696496Y-49696091D01*
X186696499Y-49696092D01*
X186696501Y-49696092D01*
X186854187Y-49696092D01*
X186854188Y-49696091D01*
X187008840Y-49665329D01*
X187154522Y-49604986D01*
X187154528Y-49604982D01*
X187286218Y-49516990D01*
X187352896Y-49496112D01*
X187355109Y-49496092D01*
X191950478Y-49496092D01*
X191950494Y-49496093D01*
X191958090Y-49496093D01*
X192116201Y-49496093D01*
X192116204Y-49496093D01*
X192268932Y-49455169D01*
X192338418Y-49415051D01*
X192405863Y-49376112D01*
X192517667Y-49264308D01*
X192517667Y-49264306D01*
X192527871Y-49254103D01*
X192527874Y-49254098D01*
X195425155Y-46356819D01*
X195452082Y-46342115D01*
X195477901Y-46325523D01*
X195484101Y-46324631D01*
X195486478Y-46323334D01*
X195512836Y-46320500D01*
X195579235Y-46320500D01*
X195646274Y-46340185D01*
X195692029Y-46392989D01*
X195701973Y-46462147D01*
X195693796Y-46491952D01*
X195657397Y-46579827D01*
X195657394Y-46579839D01*
X195626633Y-46734482D01*
X195626633Y-46892175D01*
X195657394Y-47046818D01*
X195657397Y-47046830D01*
X195717735Y-47192501D01*
X195717742Y-47192514D01*
X195805343Y-47323617D01*
X195805346Y-47323621D01*
X195916840Y-47435115D01*
X195916844Y-47435118D01*
X196047947Y-47522719D01*
X196047960Y-47522726D01*
X196193631Y-47583064D01*
X196193636Y-47583066D01*
X196337799Y-47611742D01*
X196348286Y-47613828D01*
X196348289Y-47613829D01*
X196348291Y-47613829D01*
X196505977Y-47613829D01*
X196505978Y-47613828D01*
X196660630Y-47583066D01*
X196806312Y-47522723D01*
X196843796Y-47497677D01*
X196938008Y-47434727D01*
X197004686Y-47413849D01*
X197006899Y-47413829D01*
X198346132Y-47413829D01*
X198413171Y-47433514D01*
X198433813Y-47450148D01*
X202549039Y-51565374D01*
X202549049Y-51565385D01*
X202553379Y-51569715D01*
X202553380Y-51569716D01*
X202665184Y-51681520D01*
X202730476Y-51719216D01*
X202802115Y-51760577D01*
X202954843Y-51801501D01*
X202954846Y-51801501D01*
X203120553Y-51801501D01*
X203120569Y-51801500D01*
X203300903Y-51801500D01*
X203367942Y-51821185D01*
X203388584Y-51837819D01*
X203866139Y-52315374D01*
X203866149Y-52315385D01*
X203870479Y-52319715D01*
X203870480Y-52319716D01*
X203982284Y-52431520D01*
X203982286Y-52431521D01*
X204031974Y-52460208D01*
X204031973Y-52460208D01*
X204031976Y-52460209D01*
X204119209Y-52510574D01*
X204119210Y-52510574D01*
X204119215Y-52510577D01*
X204271943Y-52551500D01*
X204430057Y-52551500D01*
X209503710Y-52551500D01*
X209570749Y-52571185D01*
X209616504Y-52623989D01*
X209626448Y-52693147D01*
X209614195Y-52731795D01*
X209568444Y-52821585D01*
X209502753Y-53023760D01*
X209469500Y-53233713D01*
X209469500Y-53446286D01*
X209502754Y-53656244D01*
X209502754Y-53656247D01*
X209516491Y-53698523D01*
X209518486Y-53768364D01*
X209486241Y-53824522D01*
X202051584Y-61259181D01*
X201990261Y-61292666D01*
X201963903Y-61295500D01*
X182849101Y-61295500D01*
X182782062Y-61275815D01*
X182761420Y-61259181D01*
X178726003Y-57223764D01*
X178692518Y-57162441D01*
X178689684Y-57136083D01*
X178689684Y-55558543D01*
X186009499Y-55558543D01*
X186047947Y-55751829D01*
X186047950Y-55751839D01*
X186123364Y-55933907D01*
X186123371Y-55933920D01*
X186232860Y-56097781D01*
X186232863Y-56097785D01*
X186372214Y-56237136D01*
X186372218Y-56237139D01*
X186536079Y-56346628D01*
X186536092Y-56346635D01*
X186718160Y-56422049D01*
X186718165Y-56422051D01*
X186718169Y-56422051D01*
X186718170Y-56422052D01*
X186911456Y-56460500D01*
X186911459Y-56460500D01*
X187108543Y-56460500D01*
X187293661Y-56423677D01*
X187363253Y-56429904D01*
X187405534Y-56457613D01*
X187449707Y-56501786D01*
X187449711Y-56501789D01*
X187580814Y-56589390D01*
X187580827Y-56589397D01*
X187726498Y-56649735D01*
X187726503Y-56649737D01*
X187881153Y-56680499D01*
X187881156Y-56680500D01*
X187881158Y-56680500D01*
X188038844Y-56680500D01*
X188038845Y-56680499D01*
X188193497Y-56649737D01*
X188339179Y-56589394D01*
X188470289Y-56501789D01*
X188514464Y-56457613D01*
X188575786Y-56424128D01*
X188626336Y-56423677D01*
X188811454Y-56460499D01*
X188811457Y-56460500D01*
X188811459Y-56460500D01*
X189008543Y-56460500D01*
X189138582Y-56434632D01*
X189201835Y-56422051D01*
X189383914Y-56346632D01*
X189547782Y-56237139D01*
X189687139Y-56097782D01*
X189796632Y-55933914D01*
X189872051Y-55751835D01*
X189884632Y-55688582D01*
X189910500Y-55558543D01*
X189910500Y-55361456D01*
X189872052Y-55168170D01*
X189872051Y-55168169D01*
X189872051Y-55168165D01*
X189850415Y-55115931D01*
X189796635Y-54986092D01*
X189796628Y-54986079D01*
X189687139Y-54822218D01*
X189687136Y-54822214D01*
X189547785Y-54682863D01*
X189547781Y-54682860D01*
X189383920Y-54573371D01*
X189383907Y-54573364D01*
X189201839Y-54497950D01*
X189201829Y-54497947D01*
X189008543Y-54459500D01*
X189008541Y-54459500D01*
X188811459Y-54459500D01*
X188811457Y-54459500D01*
X188618170Y-54497947D01*
X188618160Y-54497950D01*
X188436092Y-54573364D01*
X188436079Y-54573371D01*
X188272218Y-54682860D01*
X188272214Y-54682863D01*
X188132863Y-54822214D01*
X188132860Y-54822218D01*
X188063102Y-54926618D01*
X188009489Y-54971423D01*
X187940164Y-54980130D01*
X187877137Y-54949975D01*
X187856898Y-54926618D01*
X187787139Y-54822218D01*
X187787136Y-54822214D01*
X187647785Y-54682863D01*
X187647781Y-54682860D01*
X187483920Y-54573371D01*
X187483907Y-54573364D01*
X187301839Y-54497950D01*
X187301829Y-54497947D01*
X187108543Y-54459500D01*
X187108541Y-54459500D01*
X186911459Y-54459500D01*
X186911457Y-54459500D01*
X186718170Y-54497947D01*
X186718160Y-54497950D01*
X186536092Y-54573364D01*
X186536079Y-54573371D01*
X186372218Y-54682860D01*
X186372214Y-54682863D01*
X186232863Y-54822214D01*
X186232860Y-54822218D01*
X186123371Y-54986079D01*
X186123364Y-54986092D01*
X186047950Y-55168160D01*
X186047947Y-55168170D01*
X186009500Y-55361456D01*
X186009500Y-55361459D01*
X186009500Y-55558541D01*
X186009500Y-55558543D01*
X186009499Y-55558543D01*
X178689684Y-55558543D01*
X178689684Y-53930085D01*
X178709369Y-53863046D01*
X178710582Y-53861194D01*
X178798574Y-53729505D01*
X178798574Y-53729504D01*
X178798578Y-53729499D01*
X178858921Y-53583817D01*
X178889684Y-53429162D01*
X178889684Y-53271478D01*
X178889684Y-53271475D01*
X178889683Y-53271473D01*
X178858922Y-53116830D01*
X178858921Y-53116823D01*
X178858919Y-53116818D01*
X178798581Y-52971147D01*
X178798574Y-52971134D01*
X178710973Y-52840031D01*
X178710970Y-52840027D01*
X178599476Y-52728533D01*
X178599472Y-52728530D01*
X178468369Y-52640929D01*
X178468356Y-52640922D01*
X178322685Y-52580584D01*
X178322673Y-52580581D01*
X178168029Y-52549820D01*
X178168026Y-52549820D01*
X178010342Y-52549820D01*
X178010339Y-52549820D01*
X177855694Y-52580581D01*
X177855682Y-52580584D01*
X177710011Y-52640922D01*
X177709998Y-52640929D01*
X177578895Y-52728530D01*
X177578891Y-52728533D01*
X177467397Y-52840027D01*
X177467394Y-52840031D01*
X177379793Y-52971134D01*
X177379786Y-52971147D01*
X177319448Y-53116818D01*
X177319445Y-53116830D01*
X177288684Y-53271473D01*
X177288684Y-53435254D01*
X177287521Y-53435254D01*
X177275656Y-53497784D01*
X177227585Y-53548489D01*
X177159733Y-53565157D01*
X177149294Y-53563893D01*
X177149292Y-53563922D01*
X177143230Y-53563325D01*
X177143227Y-53563325D01*
X176985543Y-53563325D01*
X176985540Y-53563325D01*
X176830895Y-53594086D01*
X176830883Y-53594089D01*
X176685212Y-53654427D01*
X176685199Y-53654434D01*
X176554096Y-53742035D01*
X176554092Y-53742038D01*
X176442598Y-53853532D01*
X176442595Y-53853536D01*
X176354994Y-53984639D01*
X176354987Y-53984652D01*
X176294649Y-54130323D01*
X176294646Y-54130335D01*
X176263885Y-54284978D01*
X176263885Y-54442671D01*
X176292729Y-54587678D01*
X176286502Y-54657269D01*
X176243639Y-54712447D01*
X176218565Y-54726430D01*
X176085208Y-54781667D01*
X176085199Y-54781672D01*
X175954096Y-54869273D01*
X175954092Y-54869276D01*
X175842598Y-54980770D01*
X175842595Y-54980774D01*
X175754994Y-55111877D01*
X175754987Y-55111890D01*
X175694648Y-55257563D01*
X175694646Y-55257569D01*
X175684638Y-55307885D01*
X175680958Y-55314919D01*
X175680675Y-55322852D01*
X175664995Y-55345434D01*
X175652252Y-55369795D01*
X175644338Y-55375185D01*
X175640826Y-55380244D01*
X175610473Y-55398253D01*
X175496952Y-55445274D01*
X175427483Y-55452743D01*
X175365004Y-55421467D01*
X175329352Y-55361378D01*
X175325500Y-55330713D01*
X175325500Y-51026654D01*
X177577501Y-51026654D01*
X177587819Y-51127652D01*
X177642046Y-51291300D01*
X177642051Y-51291311D01*
X177732552Y-51438034D01*
X177732555Y-51438038D01*
X177854461Y-51559944D01*
X177854465Y-51559947D01*
X178001188Y-51650448D01*
X178001199Y-51650453D01*
X178164847Y-51704680D01*
X178265851Y-51714999D01*
X178365000Y-51714998D01*
X178365000Y-50990000D01*
X177577501Y-50990000D01*
X177577501Y-51026654D01*
X175325500Y-51026654D01*
X175325500Y-50453345D01*
X177577500Y-50453345D01*
X177577500Y-50490000D01*
X178365000Y-50490000D01*
X178365000Y-49764999D01*
X178265860Y-49765000D01*
X178265844Y-49765001D01*
X178164847Y-49775319D01*
X178001199Y-49829546D01*
X178001188Y-49829551D01*
X177854465Y-49920052D01*
X177854461Y-49920055D01*
X177732555Y-50041961D01*
X177732552Y-50041965D01*
X177642051Y-50188688D01*
X177642046Y-50188699D01*
X177587819Y-50352347D01*
X177577500Y-50453345D01*
X175325500Y-50453345D01*
X175325500Y-48516654D01*
X177577501Y-48516654D01*
X177587819Y-48617652D01*
X177642046Y-48781300D01*
X177642051Y-48781311D01*
X177732552Y-48928034D01*
X177732555Y-48928038D01*
X177854461Y-49049944D01*
X177854465Y-49049947D01*
X178001188Y-49140448D01*
X178001199Y-49140453D01*
X178164847Y-49194680D01*
X178265851Y-49204999D01*
X178365000Y-49204998D01*
X178365000Y-48480000D01*
X177577501Y-48480000D01*
X177577501Y-48516654D01*
X175325500Y-48516654D01*
X175325500Y-47943345D01*
X177577500Y-47943345D01*
X177577500Y-47980000D01*
X178365000Y-47980000D01*
X178365000Y-47254999D01*
X178265860Y-47255000D01*
X178265844Y-47255001D01*
X178164847Y-47265319D01*
X178001199Y-47319546D01*
X178001188Y-47319551D01*
X177854465Y-47410052D01*
X177854461Y-47410055D01*
X177732555Y-47531961D01*
X177732552Y-47531965D01*
X177642051Y-47678688D01*
X177642046Y-47678699D01*
X177587819Y-47842347D01*
X177577500Y-47943345D01*
X175325500Y-47943345D01*
X175325500Y-46006654D01*
X177577501Y-46006654D01*
X177587819Y-46107652D01*
X177642046Y-46271300D01*
X177642051Y-46271311D01*
X177732552Y-46418034D01*
X177732555Y-46418038D01*
X177854461Y-46539944D01*
X177854465Y-46539947D01*
X178001188Y-46630448D01*
X178001199Y-46630453D01*
X178164847Y-46684680D01*
X178265851Y-46694999D01*
X178365000Y-46694998D01*
X178365000Y-45970000D01*
X177577501Y-45970000D01*
X177577501Y-46006654D01*
X175325500Y-46006654D01*
X175325500Y-45433345D01*
X177577500Y-45433345D01*
X177577500Y-45470000D01*
X178365000Y-45470000D01*
X178365000Y-44744999D01*
X178265860Y-44745000D01*
X178265844Y-44745001D01*
X178164847Y-44755319D01*
X178001199Y-44809546D01*
X178001188Y-44809551D01*
X177854465Y-44900052D01*
X177854461Y-44900055D01*
X177732555Y-45021961D01*
X177732552Y-45021965D01*
X177642051Y-45168688D01*
X177642046Y-45168699D01*
X177587819Y-45332347D01*
X177577500Y-45433345D01*
X175325500Y-45433345D01*
X175325500Y-43496654D01*
X177577501Y-43496654D01*
X177587819Y-43597652D01*
X177642046Y-43761300D01*
X177642051Y-43761311D01*
X177732552Y-43908034D01*
X177732555Y-43908038D01*
X177854461Y-44029944D01*
X177854465Y-44029947D01*
X178001188Y-44120448D01*
X178001199Y-44120453D01*
X178164847Y-44174680D01*
X178265851Y-44184999D01*
X178365000Y-44184998D01*
X178365000Y-43460000D01*
X177577501Y-43460000D01*
X177577501Y-43496654D01*
X175325500Y-43496654D01*
X175325500Y-42923345D01*
X177577500Y-42923345D01*
X177577500Y-42960000D01*
X178365000Y-42960000D01*
X178365000Y-42234999D01*
X178265860Y-42235000D01*
X178265844Y-42235001D01*
X178164847Y-42245319D01*
X178001199Y-42299546D01*
X178001188Y-42299551D01*
X177854465Y-42390052D01*
X177854461Y-42390055D01*
X177732555Y-42511961D01*
X177732552Y-42511965D01*
X177642051Y-42658688D01*
X177642046Y-42658699D01*
X177587819Y-42822347D01*
X177577500Y-42923345D01*
X175325500Y-42923345D01*
X175325500Y-41901895D01*
X175345185Y-41834856D01*
X175361819Y-41814214D01*
X175784417Y-41391616D01*
X176229761Y-40946271D01*
X176291082Y-40912788D01*
X176293249Y-40912337D01*
X176351184Y-40900812D01*
X176448596Y-40881436D01*
X176594278Y-40821093D01*
X176725388Y-40733488D01*
X176836888Y-40621988D01*
X176924493Y-40490878D01*
X176984836Y-40345196D01*
X177015599Y-40190541D01*
X177015599Y-40032857D01*
X177015599Y-40032854D01*
X177015598Y-40032852D01*
X176998354Y-39946160D01*
X176984836Y-39878202D01*
X176976697Y-39858552D01*
X176924496Y-39732526D01*
X176924489Y-39732513D01*
X176883430Y-39671064D01*
X176862552Y-39604386D01*
X176881037Y-39537006D01*
X176907876Y-39506313D01*
X176910809Y-39503905D01*
X176910814Y-39503902D01*
X177022314Y-39392402D01*
X177109919Y-39261292D01*
X177110772Y-39259234D01*
X177162168Y-39135150D01*
X177170262Y-39115610D01*
X177181846Y-39057375D01*
X177196756Y-38982421D01*
X177229141Y-38920510D01*
X177289857Y-38885936D01*
X177318373Y-38882613D01*
X178322374Y-38882613D01*
X178389413Y-38902298D01*
X178410055Y-38918932D01*
X178453756Y-38962633D01*
X178453758Y-38962634D01*
X178453762Y-38962637D01*
X178590681Y-39041686D01*
X178590688Y-39041690D01*
X178743415Y-39082614D01*
X178743417Y-39082614D01*
X178909126Y-39082614D01*
X178909142Y-39082613D01*
X179233689Y-39082613D01*
X179233705Y-39082614D01*
X179241301Y-39082614D01*
X179399412Y-39082614D01*
X179399415Y-39082614D01*
X179552143Y-39041690D01*
X179615724Y-39004981D01*
X179689074Y-38962633D01*
X179781263Y-38870443D01*
X179786567Y-38866192D01*
X179812835Y-38855390D01*
X179837766Y-38841777D01*
X179844729Y-38842274D01*
X179851186Y-38839620D01*
X179879124Y-38844734D01*
X179907458Y-38846761D01*
X179913033Y-38849277D01*
X179913073Y-38849182D01*
X180055405Y-38908137D01*
X180064384Y-38911856D01*
X180219034Y-38942618D01*
X180219037Y-38942619D01*
X180219039Y-38942619D01*
X180376725Y-38942619D01*
X180376726Y-38942618D01*
X180531378Y-38911856D01*
X180652428Y-38861716D01*
X180677053Y-38851516D01*
X180677053Y-38851515D01*
X180677060Y-38851513D01*
X180808170Y-38763908D01*
X180919670Y-38652408D01*
X181007275Y-38521298D01*
X181067618Y-38375616D01*
X181098381Y-38220961D01*
X181098381Y-38063277D01*
X181091524Y-38028805D01*
X181093401Y-38007821D01*
X181090403Y-37986966D01*
X181096453Y-37973717D01*
X181097751Y-37959214D01*
X181110675Y-37942576D01*
X181119428Y-37923410D01*
X181131679Y-37915536D01*
X181140613Y-37904036D01*
X181160482Y-37897026D01*
X181178206Y-37885636D01*
X181202786Y-37882101D01*
X181206502Y-37880791D01*
X181213141Y-37880613D01*
X181440893Y-37880613D01*
X181507932Y-37900298D01*
X181528569Y-37916927D01*
X181570856Y-37959214D01*
X181607836Y-37996194D01*
X181738938Y-38083794D01*
X181738951Y-38083801D01*
X181884622Y-38144139D01*
X181884627Y-38144141D01*
X181971120Y-38161345D01*
X181999078Y-38166907D01*
X182060989Y-38199292D01*
X182095563Y-38260007D01*
X182096504Y-38264331D01*
X182110261Y-38333492D01*
X182110264Y-38333501D01*
X182170602Y-38479172D01*
X182170609Y-38479185D01*
X182258210Y-38610288D01*
X182258213Y-38610292D01*
X182276286Y-38628365D01*
X182309771Y-38689688D01*
X182304787Y-38759380D01*
X182291708Y-38784936D01*
X182243167Y-38857582D01*
X182243161Y-38857593D01*
X182182823Y-39003264D01*
X182182820Y-39003276D01*
X182152059Y-39157919D01*
X182152059Y-39315612D01*
X182182820Y-39470255D01*
X182182823Y-39470267D01*
X182243161Y-39615938D01*
X182243168Y-39615951D01*
X182330769Y-39747054D01*
X182330772Y-39747058D01*
X182442266Y-39858552D01*
X182442270Y-39858555D01*
X182573373Y-39946156D01*
X182573386Y-39946163D01*
X182719057Y-40006501D01*
X182719062Y-40006503D01*
X182851537Y-40032854D01*
X182873712Y-40037265D01*
X182873715Y-40037266D01*
X182873717Y-40037266D01*
X183031403Y-40037266D01*
X183031404Y-40037265D01*
X183186056Y-40006503D01*
X183331738Y-39946160D01*
X183356609Y-39929541D01*
X183423286Y-39908664D01*
X183490666Y-39927148D01*
X183537356Y-39979126D01*
X183549500Y-40032644D01*
X183549500Y-41609902D01*
X183529815Y-41676941D01*
X183513181Y-41697583D01*
X182470057Y-42740706D01*
X182470055Y-42740708D01*
X182446366Y-42781740D01*
X182436353Y-42799084D01*
X182390999Y-42877639D01*
X182350075Y-43030367D01*
X182350075Y-43030369D01*
X182350075Y-43198470D01*
X182350076Y-43198483D01*
X182350076Y-43328970D01*
X182330391Y-43396009D01*
X182291173Y-43434508D01*
X182189729Y-43497079D01*
X182189725Y-43497082D01*
X182067737Y-43619070D01*
X181977169Y-43765903D01*
X181977167Y-43765908D01*
X181962072Y-43811463D01*
X181922902Y-43929669D01*
X181922902Y-43929670D01*
X181922901Y-43929670D01*
X181912576Y-44030737D01*
X181912576Y-44604091D01*
X181912577Y-44604109D01*
X181922901Y-44705174D01*
X181936099Y-44745001D01*
X181977096Y-44868722D01*
X181977168Y-44868937D01*
X181977171Y-44868944D01*
X182016847Y-44933269D01*
X182035287Y-45000661D01*
X182014364Y-45067325D01*
X181960722Y-45112094D01*
X181909465Y-45122351D01*
X181894077Y-45122122D01*
X181884287Y-45119499D01*
X181726173Y-45119499D01*
X181726169Y-45119500D01*
X181352401Y-45119500D01*
X181285362Y-45099815D01*
X181246862Y-45060596D01*
X181222840Y-45021650D01*
X181100850Y-44899660D01*
X181100846Y-44899657D01*
X180999403Y-44837086D01*
X180952678Y-44785138D01*
X180940500Y-44731548D01*
X180940500Y-44198451D01*
X180960185Y-44131412D01*
X180999402Y-44092913D01*
X181100850Y-44030340D01*
X181222840Y-43908350D01*
X181313408Y-43761516D01*
X181367674Y-43597753D01*
X181378000Y-43496677D01*
X181377999Y-42923324D01*
X181367674Y-42822247D01*
X181313408Y-42658484D01*
X181222840Y-42511650D01*
X181100850Y-42389660D01*
X181009629Y-42333395D01*
X180954018Y-42299093D01*
X180954013Y-42299091D01*
X180952569Y-42298612D01*
X180790253Y-42244826D01*
X180790251Y-42244825D01*
X180689178Y-42234500D01*
X179990830Y-42234500D01*
X179990812Y-42234501D01*
X179889747Y-42244825D01*
X179725984Y-42299092D01*
X179725981Y-42299093D01*
X179579148Y-42389661D01*
X179564825Y-42403984D01*
X179503501Y-42437468D01*
X179433809Y-42432482D01*
X179389465Y-42403982D01*
X179375538Y-42390055D01*
X179375534Y-42390052D01*
X179228811Y-42299551D01*
X179228800Y-42299546D01*
X179065152Y-42245319D01*
X178964154Y-42235000D01*
X178865000Y-42235000D01*
X178865000Y-44184999D01*
X178964140Y-44184999D01*
X178964154Y-44184998D01*
X179065152Y-44174680D01*
X179228800Y-44120453D01*
X179228811Y-44120448D01*
X179375535Y-44029947D01*
X179389460Y-44016021D01*
X179450782Y-43982533D01*
X179520473Y-43987514D01*
X179547212Y-44001391D01*
X179556696Y-44007886D01*
X179579150Y-44030340D01*
X179683126Y-44094473D01*
X179685566Y-44096144D01*
X179705866Y-44121007D01*
X179727321Y-44144860D01*
X179728084Y-44148218D01*
X179729755Y-44150265D01*
X179730968Y-44160909D01*
X179739500Y-44198451D01*
X179739500Y-44731548D01*
X179719815Y-44798587D01*
X179680597Y-44837086D01*
X179579153Y-44899657D01*
X179579148Y-44899661D01*
X179564825Y-44913984D01*
X179503501Y-44947468D01*
X179433809Y-44942482D01*
X179389465Y-44913982D01*
X179375538Y-44900055D01*
X179375534Y-44900052D01*
X179228811Y-44809551D01*
X179228800Y-44809546D01*
X179065152Y-44755319D01*
X178964154Y-44745000D01*
X178865000Y-44745000D01*
X178865000Y-46694999D01*
X178964140Y-46694999D01*
X178964154Y-46694998D01*
X179065152Y-46684680D01*
X179228800Y-46630453D01*
X179228811Y-46630448D01*
X179375535Y-46539947D01*
X179389460Y-46526021D01*
X179450782Y-46492533D01*
X179520473Y-46497514D01*
X179547212Y-46511391D01*
X179556696Y-46517886D01*
X179579150Y-46540340D01*
X179683126Y-46604473D01*
X179685566Y-46606144D01*
X179705866Y-46631007D01*
X179727321Y-46654860D01*
X179728084Y-46658218D01*
X179729755Y-46660265D01*
X179730968Y-46670909D01*
X179739500Y-46708451D01*
X179739500Y-47241548D01*
X179719815Y-47308587D01*
X179680597Y-47347086D01*
X179579153Y-47409657D01*
X179579148Y-47409661D01*
X179564825Y-47423984D01*
X179503501Y-47457468D01*
X179433809Y-47452482D01*
X179389465Y-47423982D01*
X179375538Y-47410055D01*
X179375534Y-47410052D01*
X179228811Y-47319551D01*
X179228800Y-47319546D01*
X179065152Y-47265319D01*
X178964154Y-47255000D01*
X178865000Y-47255000D01*
X178865000Y-49204999D01*
X178964140Y-49204999D01*
X178964154Y-49204998D01*
X179065152Y-49194680D01*
X179228800Y-49140453D01*
X179228811Y-49140448D01*
X179375535Y-49049947D01*
X179389460Y-49036021D01*
X179450782Y-49002533D01*
X179520473Y-49007514D01*
X179547212Y-49021391D01*
X179556696Y-49027886D01*
X179579150Y-49050340D01*
X179683126Y-49114473D01*
X179685566Y-49116144D01*
X179705866Y-49141007D01*
X179727321Y-49164860D01*
X179728084Y-49168218D01*
X179729755Y-49170265D01*
X179730968Y-49180909D01*
X179739500Y-49218451D01*
X179739500Y-49751548D01*
X179719815Y-49818587D01*
X179680597Y-49857086D01*
X179579153Y-49919657D01*
X179579148Y-49919661D01*
X179564825Y-49933984D01*
X179503501Y-49967468D01*
X179433809Y-49962482D01*
X179389465Y-49933982D01*
X179375538Y-49920055D01*
X179375534Y-49920052D01*
X179228811Y-49829551D01*
X179228800Y-49829546D01*
X179065152Y-49775319D01*
X178964154Y-49765000D01*
X178865000Y-49765000D01*
X178865000Y-51714999D01*
X178964140Y-51714999D01*
X178964154Y-51714998D01*
X179065152Y-51704680D01*
X179228800Y-51650453D01*
X179228811Y-51650448D01*
X179375535Y-51559947D01*
X179389460Y-51546021D01*
X179450782Y-51512533D01*
X179520473Y-51517514D01*
X179564827Y-51546017D01*
X179579150Y-51560340D01*
X179725984Y-51650908D01*
X179889747Y-51705174D01*
X179990823Y-51715500D01*
X180689176Y-51715499D01*
X180689184Y-51715498D01*
X180689187Y-51715498D01*
X180744530Y-51709844D01*
X180790253Y-51705174D01*
X180954016Y-51650908D01*
X181100850Y-51560340D01*
X181222840Y-51438350D01*
X181313408Y-51291516D01*
X181367674Y-51127753D01*
X181378000Y-51026677D01*
X181377999Y-50453324D01*
X181367674Y-50352247D01*
X181313408Y-50188484D01*
X181222840Y-50041650D01*
X181100850Y-49919660D01*
X181100846Y-49919657D01*
X180999403Y-49857086D01*
X180952678Y-49805138D01*
X180940500Y-49751548D01*
X180940500Y-49218451D01*
X180960185Y-49151412D01*
X180999402Y-49112913D01*
X181100850Y-49050340D01*
X181222840Y-48928350D01*
X181313408Y-48781516D01*
X181367674Y-48617753D01*
X181378000Y-48516677D01*
X181377999Y-47943324D01*
X181367674Y-47842247D01*
X181313408Y-47678484D01*
X181222840Y-47531650D01*
X181100850Y-47409660D01*
X181100846Y-47409657D01*
X180999403Y-47347086D01*
X180952678Y-47295138D01*
X180940500Y-47241548D01*
X180940500Y-46708451D01*
X180960185Y-46641412D01*
X180999402Y-46602913D01*
X181100850Y-46540340D01*
X181222840Y-46418350D01*
X181246862Y-46379404D01*
X181254448Y-46372580D01*
X181258688Y-46363297D01*
X181279988Y-46349608D01*
X181298810Y-46332679D01*
X181310445Y-46330034D01*
X181317466Y-46325523D01*
X181352401Y-46320500D01*
X181505133Y-46320500D01*
X181572172Y-46340185D01*
X181592814Y-46356819D01*
X181876257Y-46640262D01*
X181909742Y-46701585D01*
X181912576Y-46727943D01*
X181912576Y-47152015D01*
X181912577Y-47152033D01*
X181922901Y-47253098D01*
X181936832Y-47295138D01*
X181977096Y-47416646D01*
X181977168Y-47416861D01*
X181977169Y-47416864D01*
X181988428Y-47435118D01*
X182067736Y-47563696D01*
X182189726Y-47685686D01*
X182291172Y-47748258D01*
X182337897Y-47800206D01*
X182350076Y-47853797D01*
X182350076Y-48265956D01*
X182330391Y-48332995D01*
X182291174Y-48371494D01*
X182208890Y-48422247D01*
X182086901Y-48544236D01*
X181996333Y-48691069D01*
X181996331Y-48691074D01*
X181986199Y-48721650D01*
X181942066Y-48854835D01*
X181942066Y-48854836D01*
X181942065Y-48854836D01*
X181931740Y-48955903D01*
X181931740Y-49529257D01*
X181931741Y-49529275D01*
X181942065Y-49630340D01*
X181963854Y-49696092D01*
X181996332Y-49794104D01*
X182086900Y-49940938D01*
X182208890Y-50062928D01*
X182355724Y-50153496D01*
X182519487Y-50207762D01*
X182620563Y-50218088D01*
X183318916Y-50218087D01*
X183318924Y-50218086D01*
X183318927Y-50218086D01*
X183374270Y-50212432D01*
X183419993Y-50207762D01*
X183583756Y-50153496D01*
X183730590Y-50062928D01*
X183744911Y-50048606D01*
X183806229Y-50015121D01*
X183875921Y-50020102D01*
X183920274Y-50048605D01*
X183934201Y-50062532D01*
X183934205Y-50062535D01*
X184080928Y-50153036D01*
X184080939Y-50153041D01*
X184244587Y-50207268D01*
X184345591Y-50217587D01*
X184944740Y-50217587D01*
X185043880Y-50217587D01*
X185043894Y-50217586D01*
X185144892Y-50207268D01*
X185308540Y-50153041D01*
X185308551Y-50153036D01*
X185455274Y-50062535D01*
X185455278Y-50062532D01*
X185577184Y-49940626D01*
X185577187Y-49940622D01*
X185667688Y-49793899D01*
X185667693Y-49793888D01*
X185721920Y-49630240D01*
X185732239Y-49529242D01*
X185732240Y-49529229D01*
X185732240Y-49492588D01*
X184944740Y-49492588D01*
X184944740Y-50217587D01*
X184345591Y-50217587D01*
X184444740Y-50217586D01*
X184444740Y-48992588D01*
X184944740Y-48992588D01*
X185731130Y-48992588D01*
X185727134Y-48905971D01*
X185721920Y-48854935D01*
X185667693Y-48691287D01*
X185667688Y-48691276D01*
X185577187Y-48544553D01*
X185577184Y-48544549D01*
X185455278Y-48422643D01*
X185455274Y-48422640D01*
X185308551Y-48332139D01*
X185308540Y-48332134D01*
X185144892Y-48277907D01*
X185043894Y-48267588D01*
X184944740Y-48267588D01*
X184944740Y-48992588D01*
X184444740Y-48992588D01*
X184444740Y-48267587D01*
X184345600Y-48267588D01*
X184345584Y-48267589D01*
X184244587Y-48277907D01*
X184080939Y-48332134D01*
X184080928Y-48332139D01*
X183934205Y-48422640D01*
X183920272Y-48436573D01*
X183858948Y-48470056D01*
X183789256Y-48465070D01*
X183763106Y-48451591D01*
X183753295Y-48444953D01*
X183730590Y-48422248D01*
X183607758Y-48346485D01*
X183605589Y-48345017D01*
X183584928Y-48320001D01*
X183563254Y-48295905D01*
X183562581Y-48292945D01*
X183561095Y-48291146D01*
X183559895Y-48281125D01*
X183551076Y-48242315D01*
X183551076Y-47853797D01*
X183570761Y-47786758D01*
X183609978Y-47748259D01*
X183711426Y-47685686D01*
X183725747Y-47671364D01*
X183787065Y-47637879D01*
X183856757Y-47642860D01*
X183901110Y-47671363D01*
X183915037Y-47685290D01*
X183915041Y-47685293D01*
X184061764Y-47775794D01*
X184061775Y-47775799D01*
X184225423Y-47830026D01*
X184326427Y-47840345D01*
X184925576Y-47840345D01*
X185024716Y-47840345D01*
X185024730Y-47840344D01*
X185125728Y-47830026D01*
X185289376Y-47775799D01*
X185289387Y-47775794D01*
X185436110Y-47685293D01*
X185436114Y-47685290D01*
X185558020Y-47563384D01*
X185558023Y-47563380D01*
X185648524Y-47416657D01*
X185648529Y-47416646D01*
X185702756Y-47252998D01*
X185713075Y-47152000D01*
X185713076Y-47151987D01*
X185713076Y-47115346D01*
X184925576Y-47115346D01*
X184925576Y-47840345D01*
X184326427Y-47840345D01*
X184425576Y-47840344D01*
X184425576Y-46615346D01*
X184925576Y-46615346D01*
X185713075Y-46615346D01*
X185713075Y-46578706D01*
X185713074Y-46578691D01*
X185702756Y-46477693D01*
X185648529Y-46314045D01*
X185648524Y-46314034D01*
X185558023Y-46167311D01*
X185558020Y-46167307D01*
X185436114Y-46045401D01*
X185436110Y-46045398D01*
X185289387Y-45954897D01*
X185289376Y-45954892D01*
X185125728Y-45900665D01*
X185024730Y-45890346D01*
X184925576Y-45890346D01*
X184925576Y-46615346D01*
X184425576Y-46615346D01*
X184425576Y-45890345D01*
X184326436Y-45890346D01*
X184326420Y-45890347D01*
X184225423Y-45900665D01*
X184061775Y-45954892D01*
X184061764Y-45954897D01*
X183915041Y-46045398D01*
X183901108Y-46059331D01*
X183839784Y-46092814D01*
X183770092Y-46087828D01*
X183743363Y-46073954D01*
X183733878Y-46067458D01*
X183711426Y-46045006D01*
X183607464Y-45980881D01*
X183605010Y-45979201D01*
X183584714Y-45954343D01*
X183563254Y-45930484D01*
X183562490Y-45927123D01*
X183560821Y-45925079D01*
X183559608Y-45914441D01*
X183551076Y-45876894D01*
X183551076Y-45305873D01*
X183570761Y-45238834D01*
X183609978Y-45200335D01*
X183711426Y-45137762D01*
X183725747Y-45123440D01*
X183787065Y-45089955D01*
X183856757Y-45094936D01*
X183901110Y-45123439D01*
X183915037Y-45137366D01*
X183915041Y-45137369D01*
X184061764Y-45227870D01*
X184061775Y-45227875D01*
X184225423Y-45282102D01*
X184326427Y-45292421D01*
X184925576Y-45292421D01*
X185024716Y-45292421D01*
X185024730Y-45292420D01*
X185125728Y-45282102D01*
X185289376Y-45227875D01*
X185289387Y-45227870D01*
X185436110Y-45137369D01*
X185436114Y-45137366D01*
X185558020Y-45015460D01*
X185558023Y-45015456D01*
X185648524Y-44868733D01*
X185648529Y-44868722D01*
X185702756Y-44705074D01*
X185713075Y-44604076D01*
X185713076Y-44604063D01*
X185713076Y-44567422D01*
X184925576Y-44567422D01*
X184925576Y-45292421D01*
X184326427Y-45292421D01*
X184425576Y-45292420D01*
X184425576Y-44067422D01*
X184925576Y-44067422D01*
X185713075Y-44067422D01*
X185713075Y-44030782D01*
X185713074Y-44030767D01*
X185702756Y-43929769D01*
X185648529Y-43766121D01*
X185648524Y-43766110D01*
X185558023Y-43619387D01*
X185558020Y-43619383D01*
X185436114Y-43497477D01*
X185436110Y-43497474D01*
X185289387Y-43406973D01*
X185289376Y-43406968D01*
X185125728Y-43352741D01*
X185024730Y-43342422D01*
X184925576Y-43342422D01*
X184925576Y-44067422D01*
X184425576Y-44067422D01*
X184425576Y-43342421D01*
X184326436Y-43342422D01*
X184326420Y-43342423D01*
X184225423Y-43352741D01*
X184061775Y-43406968D01*
X184061764Y-43406973D01*
X183915041Y-43497474D01*
X183901108Y-43511407D01*
X183839784Y-43544890D01*
X183770092Y-43539904D01*
X183740767Y-43524203D01*
X183732748Y-43518404D01*
X183711426Y-43497082D01*
X183655920Y-43462845D01*
X183652234Y-43460180D01*
X183633512Y-43436013D01*
X183613075Y-43413291D01*
X183612320Y-43408657D01*
X183609445Y-43404945D01*
X183606761Y-43374496D01*
X183601852Y-43344329D01*
X183603723Y-43340022D01*
X183603311Y-43335345D01*
X183617516Y-43308277D01*
X183629696Y-43280246D01*
X183635641Y-43273740D01*
X183635780Y-43273477D01*
X183635992Y-43273356D01*
X183637203Y-43272031D01*
X184630520Y-42278716D01*
X184709577Y-42141784D01*
X184750501Y-41989057D01*
X184750501Y-41830942D01*
X184750501Y-41823347D01*
X184750500Y-41823329D01*
X184750500Y-40622302D01*
X184770185Y-40555263D01*
X184822989Y-40509508D01*
X184874500Y-40498302D01*
X185264532Y-40498302D01*
X185264538Y-40498302D01*
X185365615Y-40487977D01*
X185529378Y-40433711D01*
X185676212Y-40343143D01*
X185690533Y-40328821D01*
X185751851Y-40295336D01*
X185821543Y-40300317D01*
X185865896Y-40328820D01*
X185879823Y-40342747D01*
X185879827Y-40342750D01*
X186026550Y-40433251D01*
X186026561Y-40433256D01*
X186190209Y-40487483D01*
X186291213Y-40497802D01*
X186890362Y-40497802D01*
X186989502Y-40497802D01*
X186989516Y-40497801D01*
X187090514Y-40487483D01*
X187254162Y-40433256D01*
X187254173Y-40433251D01*
X187400896Y-40342750D01*
X187400900Y-40342747D01*
X187522806Y-40220841D01*
X187522809Y-40220837D01*
X187613310Y-40074114D01*
X187613315Y-40074103D01*
X187667542Y-39910455D01*
X187677861Y-39809457D01*
X187677862Y-39809444D01*
X187677862Y-39772803D01*
X186890362Y-39772803D01*
X186890362Y-40497802D01*
X186291213Y-40497802D01*
X186390362Y-40497801D01*
X186390362Y-39272803D01*
X186890362Y-39272803D01*
X187677861Y-39272803D01*
X187677861Y-39236163D01*
X187677860Y-39236148D01*
X187667542Y-39135150D01*
X187613315Y-38971502D01*
X187613310Y-38971491D01*
X187522809Y-38824768D01*
X187522806Y-38824764D01*
X187400900Y-38702858D01*
X187400896Y-38702855D01*
X187254173Y-38612354D01*
X187254162Y-38612349D01*
X187090514Y-38558122D01*
X186989516Y-38547803D01*
X186890362Y-38547803D01*
X186890362Y-39272803D01*
X186390362Y-39272803D01*
X186390362Y-38547802D01*
X186291222Y-38547803D01*
X186291206Y-38547804D01*
X186190209Y-38558122D01*
X186026561Y-38612349D01*
X186026550Y-38612354D01*
X185879827Y-38702855D01*
X185865894Y-38716788D01*
X185804570Y-38750271D01*
X185734878Y-38745285D01*
X185690534Y-38716785D01*
X185676213Y-38702464D01*
X185676212Y-38702463D01*
X185539628Y-38618217D01*
X185529380Y-38611896D01*
X185529375Y-38611894D01*
X185463092Y-38589930D01*
X185365615Y-38557629D01*
X185365613Y-38557628D01*
X185264546Y-38547303D01*
X185264539Y-38547303D01*
X184874500Y-38547303D01*
X184807461Y-38527618D01*
X184761706Y-38474814D01*
X184750500Y-38423303D01*
X184750500Y-34590097D01*
X184759144Y-34560656D01*
X184765668Y-34530670D01*
X184769422Y-34525654D01*
X184770185Y-34523058D01*
X184786819Y-34502416D01*
X184882417Y-34406818D01*
X184943740Y-34373333D01*
X184970098Y-34370499D01*
X186317871Y-34370499D01*
X186317872Y-34370499D01*
X186377483Y-34364091D01*
X186512331Y-34313796D01*
X186627546Y-34227546D01*
X186713796Y-34112331D01*
X186762810Y-33980916D01*
X186804681Y-33924984D01*
X186870145Y-33900566D01*
X186938418Y-33915417D01*
X186966673Y-33936569D01*
X187080213Y-34050109D01*
X187252179Y-34175048D01*
X187252181Y-34175049D01*
X187252184Y-34175051D01*
X187441588Y-34271557D01*
X187643757Y-34337246D01*
X187853713Y-34370500D01*
X187853714Y-34370500D01*
X188066286Y-34370500D01*
X188066287Y-34370500D01*
X188276243Y-34337246D01*
X188478412Y-34271557D01*
X188667816Y-34175051D01*
X188754138Y-34112335D01*
X188839786Y-34050109D01*
X188839788Y-34050106D01*
X188839792Y-34050104D01*
X188990104Y-33899792D01*
X188990106Y-33899788D01*
X188990109Y-33899786D01*
X189115048Y-33727820D01*
X189115047Y-33727820D01*
X189115051Y-33727816D01*
X189119514Y-33719054D01*
X189167488Y-33668259D01*
X189235308Y-33651463D01*
X189301444Y-33673999D01*
X189340484Y-33719054D01*
X189341675Y-33721390D01*
X189344951Y-33727820D01*
X189469890Y-33899786D01*
X189620213Y-34050109D01*
X189792179Y-34175048D01*
X189792181Y-34175049D01*
X189792184Y-34175051D01*
X189981588Y-34271557D01*
X190183757Y-34337246D01*
X190393713Y-34370500D01*
X190393714Y-34370500D01*
X190606286Y-34370500D01*
X190606287Y-34370500D01*
X190816243Y-34337246D01*
X191018412Y-34271557D01*
X191207816Y-34175051D01*
X191294138Y-34112335D01*
X191379786Y-34050109D01*
X191379788Y-34050106D01*
X191379792Y-34050104D01*
X191530104Y-33899792D01*
X191530106Y-33899788D01*
X191530109Y-33899786D01*
X191655048Y-33727820D01*
X191655047Y-33727820D01*
X191655051Y-33727816D01*
X191659514Y-33719054D01*
X191668160Y-33709900D01*
X191672897Y-33698232D01*
X191691696Y-33684979D01*
X191707488Y-33668259D01*
X191719710Y-33665231D01*
X191730004Y-33657976D01*
X191752985Y-33656991D01*
X191775308Y-33651463D01*
X191787226Y-33655524D01*
G37*
%TD.AperFunction*%
%TA.AperFunction,Conductor*%
G36*
X212161444Y-59073999D02*
G01*
X212200486Y-59119056D01*
X212204951Y-59127820D01*
X212329890Y-59299786D01*
X212480213Y-59450109D01*
X212652179Y-59575048D01*
X212652181Y-59575049D01*
X212652184Y-59575051D01*
X212661493Y-59579794D01*
X212712290Y-59627766D01*
X212729087Y-59695587D01*
X212706552Y-59761722D01*
X212661505Y-59800760D01*
X212652446Y-59805376D01*
X212652440Y-59805380D01*
X212598282Y-59844727D01*
X212598282Y-59844728D01*
X213230591Y-60477037D01*
X213167007Y-60494075D01*
X213052993Y-60559901D01*
X212959901Y-60652993D01*
X212894075Y-60767007D01*
X212877037Y-60830590D01*
X212244728Y-60198282D01*
X212244727Y-60198282D01*
X212205380Y-60252440D01*
X212200483Y-60262051D01*
X212152506Y-60312845D01*
X212084684Y-60329638D01*
X212018550Y-60307098D01*
X211979516Y-60262048D01*
X211974626Y-60252452D01*
X211935270Y-60198282D01*
X211935269Y-60198282D01*
X211302962Y-60830590D01*
X211285925Y-60767007D01*
X211220099Y-60652993D01*
X211127007Y-60559901D01*
X211012993Y-60494075D01*
X210949408Y-60477037D01*
X211581716Y-59844728D01*
X211527547Y-59805373D01*
X211527547Y-59805372D01*
X211518500Y-59800763D01*
X211467706Y-59752788D01*
X211450912Y-59684966D01*
X211473451Y-59618832D01*
X211518508Y-59579793D01*
X211527816Y-59575051D01*
X211607007Y-59517515D01*
X211699786Y-59450109D01*
X211699788Y-59450106D01*
X211699792Y-59450104D01*
X211850104Y-59299792D01*
X211850106Y-59299788D01*
X211850109Y-59299786D01*
X211975048Y-59127820D01*
X211975047Y-59127820D01*
X211975051Y-59127816D01*
X211979514Y-59119054D01*
X212027488Y-59068259D01*
X212095308Y-59051463D01*
X212161444Y-59073999D01*
G37*
%TD.AperFunction*%
%TA.AperFunction,Conductor*%
G36*
X212894075Y-38292993D02*
G01*
X212959901Y-38407007D01*
X213052993Y-38500099D01*
X213167007Y-38565925D01*
X213230590Y-38582962D01*
X212598282Y-39215269D01*
X212598282Y-39215270D01*
X212652452Y-39254626D01*
X212652451Y-39254626D01*
X212661495Y-39259234D01*
X212712292Y-39307208D01*
X212729087Y-39375029D01*
X212706550Y-39441164D01*
X212661499Y-39480202D01*
X212652182Y-39484949D01*
X212480213Y-39609890D01*
X212329892Y-39760211D01*
X212270561Y-39841876D01*
X212236770Y-39888385D01*
X212232439Y-39891725D01*
X212230166Y-39896703D01*
X212205066Y-39912833D01*
X212181442Y-39931051D01*
X212174768Y-39932304D01*
X212171388Y-39934477D01*
X212136453Y-39939500D01*
X212043547Y-39939500D01*
X211976508Y-39919815D01*
X211943230Y-39888385D01*
X211885876Y-39809444D01*
X211850107Y-39760211D01*
X211736181Y-39646285D01*
X211702696Y-39584962D01*
X211707680Y-39515270D01*
X211749552Y-39459337D01*
X211780529Y-39442422D01*
X211912086Y-39393354D01*
X211912093Y-39393350D01*
X212027187Y-39307190D01*
X212027190Y-39307187D01*
X212113350Y-39192093D01*
X212113354Y-39192086D01*
X212163598Y-39057375D01*
X212172501Y-38974556D01*
X212175550Y-38974883D01*
X212174642Y-38957984D01*
X212207642Y-38898802D01*
X212877037Y-38229408D01*
X212894075Y-38292993D01*
G37*
%TD.AperFunction*%
%TA.AperFunction,Conductor*%
G36*
X223442539Y-27520185D02*
G01*
X223488294Y-27572989D01*
X223499500Y-27624500D01*
X223499500Y-32437629D01*
X223479815Y-32504668D01*
X223427011Y-32550423D01*
X223357853Y-32560367D01*
X223294297Y-32531342D01*
X223256523Y-32472564D01*
X223252280Y-32451513D01*
X223231987Y-32271411D01*
X223226749Y-32224924D01*
X223163281Y-31946853D01*
X223156566Y-31927664D01*
X223100853Y-31768444D01*
X223069078Y-31677636D01*
X222945324Y-31420659D01*
X222793577Y-31179154D01*
X222615743Y-30956158D01*
X222414061Y-30754476D01*
X222191065Y-30576642D01*
X221949560Y-30424895D01*
X221949557Y-30424893D01*
X221692586Y-30301142D01*
X221423377Y-30206941D01*
X221423369Y-30206938D01*
X221214812Y-30159337D01*
X221145295Y-30143470D01*
X221145291Y-30143469D01*
X221145282Y-30143468D01*
X220861869Y-30111535D01*
X220861865Y-30111535D01*
X220576643Y-30111535D01*
X220576638Y-30111535D01*
X220293225Y-30143468D01*
X220293213Y-30143470D01*
X220015138Y-30206938D01*
X220015130Y-30206941D01*
X219745921Y-30301142D01*
X219488950Y-30424893D01*
X219247444Y-30576641D01*
X219024447Y-30754475D01*
X218822764Y-30956158D01*
X218644930Y-31179155D01*
X218493182Y-31420661D01*
X218369431Y-31677632D01*
X218275230Y-31946841D01*
X218275227Y-31946849D01*
X218211759Y-32224924D01*
X218211757Y-32224936D01*
X218179824Y-32508349D01*
X218179824Y-32793580D01*
X218211757Y-33076993D01*
X218211758Y-33077002D01*
X218211759Y-33077006D01*
X218213772Y-33085826D01*
X218275227Y-33355080D01*
X218275230Y-33355088D01*
X218369431Y-33624297D01*
X218493182Y-33881268D01*
X218505308Y-33900566D01*
X218644931Y-34122776D01*
X218730225Y-34229731D01*
X218797262Y-34313793D01*
X218822765Y-34345772D01*
X219024447Y-34547454D01*
X219247443Y-34725288D01*
X219488948Y-34877035D01*
X219745925Y-35000789D01*
X219948114Y-35071538D01*
X220015130Y-35094988D01*
X220015138Y-35094991D01*
X220015141Y-35094991D01*
X220015142Y-35094992D01*
X220293213Y-35158460D01*
X220576639Y-35190394D01*
X220576640Y-35190395D01*
X220576643Y-35190395D01*
X220861868Y-35190395D01*
X220861868Y-35190394D01*
X221145295Y-35158460D01*
X221423366Y-35094992D01*
X221692583Y-35000789D01*
X221949560Y-34877035D01*
X222191065Y-34725288D01*
X222414061Y-34547454D01*
X222615743Y-34345772D01*
X222793577Y-34122776D01*
X222945324Y-33881271D01*
X223069078Y-33624294D01*
X223163281Y-33355077D01*
X223226749Y-33077006D01*
X223244763Y-32917125D01*
X223252280Y-32850416D01*
X223279346Y-32786002D01*
X223336941Y-32746447D01*
X223406778Y-32744310D01*
X223466685Y-32780268D01*
X223497640Y-32842906D01*
X223499500Y-32864300D01*
X223499500Y-96375500D01*
X223479815Y-96442539D01*
X223427011Y-96488294D01*
X223375500Y-96499500D01*
X143624500Y-96499500D01*
X143557461Y-96479815D01*
X143511706Y-96427011D01*
X143500500Y-96375500D01*
X143500500Y-91451882D01*
X143772661Y-91451882D01*
X143772661Y-91737113D01*
X143804594Y-92020526D01*
X143804595Y-92020534D01*
X143804596Y-92020539D01*
X143820463Y-92090056D01*
X143868064Y-92298613D01*
X143868067Y-92298621D01*
X143962268Y-92567830D01*
X144086019Y-92824801D01*
X144086021Y-92824804D01*
X144237768Y-93066309D01*
X144415602Y-93289305D01*
X144617284Y-93490987D01*
X144840280Y-93668821D01*
X145081785Y-93820568D01*
X145338762Y-93944322D01*
X145540951Y-94015071D01*
X145607967Y-94038521D01*
X145607975Y-94038524D01*
X145607978Y-94038524D01*
X145607979Y-94038525D01*
X145886050Y-94101993D01*
X146169476Y-94133927D01*
X146169477Y-94133928D01*
X146169480Y-94133928D01*
X146454705Y-94133928D01*
X146454705Y-94133927D01*
X146738132Y-94101993D01*
X147016203Y-94038525D01*
X147285420Y-93944322D01*
X147375061Y-93901153D01*
X164299500Y-93901153D01*
X164299500Y-94058846D01*
X164330261Y-94213489D01*
X164330264Y-94213501D01*
X164390602Y-94359172D01*
X164390609Y-94359185D01*
X164478210Y-94490288D01*
X164478213Y-94490292D01*
X164589707Y-94601786D01*
X164589711Y-94601789D01*
X164720814Y-94689390D01*
X164720827Y-94689397D01*
X164866498Y-94749735D01*
X164866503Y-94749737D01*
X165021153Y-94780499D01*
X165021156Y-94780500D01*
X165021158Y-94780500D01*
X165178844Y-94780500D01*
X165178845Y-94780499D01*
X165333497Y-94749737D01*
X165479179Y-94689394D01*
X165610289Y-94601789D01*
X165721789Y-94490289D01*
X165809394Y-94359179D01*
X165869737Y-94213497D01*
X165900500Y-94058842D01*
X165900500Y-93901158D01*
X165900500Y-93901155D01*
X165900499Y-93901153D01*
X166839500Y-93901153D01*
X166839500Y-94058846D01*
X166870261Y-94213489D01*
X166870264Y-94213501D01*
X166930602Y-94359172D01*
X166930609Y-94359185D01*
X167018210Y-94490288D01*
X167018213Y-94490292D01*
X167129707Y-94601786D01*
X167129711Y-94601789D01*
X167260814Y-94689390D01*
X167260827Y-94689397D01*
X167406498Y-94749735D01*
X167406503Y-94749737D01*
X167561153Y-94780499D01*
X167561156Y-94780500D01*
X167561158Y-94780500D01*
X167718844Y-94780500D01*
X167718845Y-94780499D01*
X167873497Y-94749737D01*
X168019179Y-94689394D01*
X168150289Y-94601789D01*
X168261789Y-94490289D01*
X168349394Y-94359179D01*
X168409737Y-94213497D01*
X168440500Y-94058842D01*
X168440500Y-93901158D01*
X168440500Y-93901155D01*
X168440499Y-93901153D01*
X215099500Y-93901153D01*
X215099500Y-94058846D01*
X215130261Y-94213489D01*
X215130264Y-94213501D01*
X215190602Y-94359172D01*
X215190609Y-94359185D01*
X215278210Y-94490288D01*
X215278213Y-94490292D01*
X215389707Y-94601786D01*
X215389711Y-94601789D01*
X215520814Y-94689390D01*
X215520827Y-94689397D01*
X215666498Y-94749735D01*
X215666503Y-94749737D01*
X215821153Y-94780499D01*
X215821156Y-94780500D01*
X215821158Y-94780500D01*
X215978844Y-94780500D01*
X215978845Y-94780499D01*
X216133497Y-94749737D01*
X216279179Y-94689394D01*
X216410289Y-94601789D01*
X216521789Y-94490289D01*
X216609394Y-94359179D01*
X216669737Y-94213497D01*
X216700500Y-94058842D01*
X216700500Y-93901158D01*
X216700500Y-93901155D01*
X216700499Y-93901153D01*
X216684470Y-93820569D01*
X216669737Y-93746503D01*
X216669735Y-93746498D01*
X216609397Y-93600827D01*
X216609390Y-93600814D01*
X216521789Y-93469711D01*
X216521786Y-93469707D01*
X216410292Y-93358213D01*
X216410288Y-93358210D01*
X216279185Y-93270609D01*
X216279172Y-93270602D01*
X216133501Y-93210264D01*
X216133489Y-93210261D01*
X215978845Y-93179500D01*
X215978842Y-93179500D01*
X215821158Y-93179500D01*
X215821155Y-93179500D01*
X215666510Y-93210261D01*
X215666498Y-93210264D01*
X215520827Y-93270602D01*
X215520814Y-93270609D01*
X215389711Y-93358210D01*
X215389707Y-93358213D01*
X215278213Y-93469707D01*
X215278210Y-93469711D01*
X215190609Y-93600814D01*
X215190602Y-93600827D01*
X215130264Y-93746498D01*
X215130261Y-93746510D01*
X215099500Y-93901153D01*
X168440499Y-93901153D01*
X168424470Y-93820569D01*
X168409737Y-93746503D01*
X168409735Y-93746498D01*
X168349397Y-93600827D01*
X168349390Y-93600814D01*
X168261789Y-93469711D01*
X168261786Y-93469707D01*
X168150292Y-93358213D01*
X168150288Y-93358210D01*
X168019185Y-93270609D01*
X168019172Y-93270602D01*
X167873501Y-93210264D01*
X167873489Y-93210261D01*
X167718845Y-93179500D01*
X167718842Y-93179500D01*
X167561158Y-93179500D01*
X167561155Y-93179500D01*
X167406510Y-93210261D01*
X167406498Y-93210264D01*
X167260827Y-93270602D01*
X167260814Y-93270609D01*
X167129711Y-93358210D01*
X167129707Y-93358213D01*
X167018213Y-93469707D01*
X167018210Y-93469711D01*
X166930609Y-93600814D01*
X166930602Y-93600827D01*
X166870264Y-93746498D01*
X166870261Y-93746510D01*
X166839500Y-93901153D01*
X165900499Y-93901153D01*
X165884470Y-93820569D01*
X165869737Y-93746503D01*
X165869735Y-93746498D01*
X165809397Y-93600827D01*
X165809390Y-93600814D01*
X165721789Y-93469711D01*
X165721786Y-93469707D01*
X165610292Y-93358213D01*
X165610288Y-93358210D01*
X165479185Y-93270609D01*
X165479172Y-93270602D01*
X165333501Y-93210264D01*
X165333489Y-93210261D01*
X165178845Y-93179500D01*
X165178842Y-93179500D01*
X165021158Y-93179500D01*
X165021155Y-93179500D01*
X164866510Y-93210261D01*
X164866498Y-93210264D01*
X164720827Y-93270602D01*
X164720814Y-93270609D01*
X164589711Y-93358210D01*
X164589707Y-93358213D01*
X164478213Y-93469707D01*
X164478210Y-93469711D01*
X164390609Y-93600814D01*
X164390602Y-93600827D01*
X164330264Y-93746498D01*
X164330261Y-93746510D01*
X164299500Y-93901153D01*
X147375061Y-93901153D01*
X147542397Y-93820568D01*
X147783902Y-93668821D01*
X148006898Y-93490987D01*
X148208580Y-93289305D01*
X148386414Y-93066309D01*
X148538161Y-92824804D01*
X148661915Y-92567827D01*
X148756118Y-92298610D01*
X148809786Y-92063477D01*
X187920323Y-92063477D01*
X187920323Y-92221170D01*
X187951084Y-92375813D01*
X187951087Y-92375825D01*
X188011425Y-92521496D01*
X188011432Y-92521509D01*
X188099033Y-92652612D01*
X188099036Y-92652616D01*
X188210530Y-92764110D01*
X188210534Y-92764113D01*
X188341637Y-92851714D01*
X188341650Y-92851721D01*
X188486722Y-92911811D01*
X188487326Y-92912061D01*
X188607288Y-92935923D01*
X188641976Y-92942823D01*
X188641979Y-92942824D01*
X188641981Y-92942824D01*
X188799667Y-92942824D01*
X188799668Y-92942823D01*
X188954320Y-92912061D01*
X189100002Y-92851718D01*
X189231112Y-92764113D01*
X189342612Y-92652613D01*
X189430217Y-92521503D01*
X189430218Y-92521500D01*
X189430220Y-92521497D01*
X189467389Y-92431759D01*
X189490015Y-92377134D01*
X189516892Y-92336910D01*
X190556419Y-91297384D01*
X218101229Y-91297384D01*
X218101229Y-91582615D01*
X218133162Y-91866028D01*
X218133164Y-91866040D01*
X218196632Y-92144115D01*
X218196635Y-92144123D01*
X218290836Y-92413332D01*
X218414587Y-92670303D01*
X218414589Y-92670306D01*
X218566336Y-92911811D01*
X218744170Y-93134807D01*
X218945852Y-93336489D01*
X219168848Y-93514323D01*
X219410353Y-93666070D01*
X219667330Y-93789824D01*
X219869519Y-93860573D01*
X219936535Y-93884023D01*
X219936543Y-93884026D01*
X219936546Y-93884026D01*
X219936547Y-93884027D01*
X220214618Y-93947495D01*
X220498044Y-93979429D01*
X220498045Y-93979430D01*
X220498048Y-93979430D01*
X220783273Y-93979430D01*
X220783273Y-93979429D01*
X221066700Y-93947495D01*
X221344771Y-93884027D01*
X221613988Y-93789824D01*
X221870965Y-93666070D01*
X222112470Y-93514323D01*
X222335466Y-93336489D01*
X222537148Y-93134807D01*
X222714982Y-92911811D01*
X222866729Y-92670306D01*
X222990483Y-92413329D01*
X223084686Y-92144112D01*
X223148154Y-91866041D01*
X223180089Y-91582611D01*
X223180089Y-91297389D01*
X223148154Y-91013959D01*
X223084686Y-90735888D01*
X222990483Y-90466671D01*
X222866729Y-90209694D01*
X222714982Y-89968189D01*
X222537148Y-89745193D01*
X222335466Y-89543511D01*
X222306202Y-89520174D01*
X222202253Y-89437277D01*
X222112470Y-89365677D01*
X221870965Y-89213930D01*
X221870962Y-89213928D01*
X221613991Y-89090177D01*
X221344782Y-88995976D01*
X221344774Y-88995973D01*
X221136217Y-88948372D01*
X221066700Y-88932505D01*
X221066696Y-88932504D01*
X221066687Y-88932503D01*
X220783274Y-88900570D01*
X220783270Y-88900570D01*
X220498048Y-88900570D01*
X220498043Y-88900570D01*
X220214630Y-88932503D01*
X220214618Y-88932505D01*
X219936543Y-88995973D01*
X219936535Y-88995976D01*
X219667326Y-89090177D01*
X219410355Y-89213928D01*
X219168849Y-89365676D01*
X218945852Y-89543510D01*
X218744169Y-89745193D01*
X218566335Y-89968190D01*
X218414587Y-90209696D01*
X218290836Y-90466667D01*
X218196635Y-90735876D01*
X218196632Y-90735884D01*
X218133164Y-91013959D01*
X218133162Y-91013971D01*
X218101229Y-91297384D01*
X190556419Y-91297384D01*
X192416529Y-89437275D01*
X192493190Y-89322543D01*
X192545995Y-89195061D01*
X192550409Y-89172866D01*
X192554864Y-89150474D01*
X192554864Y-89150471D01*
X192572915Y-89059725D01*
X192572915Y-86813611D01*
X192592600Y-86746572D01*
X192645404Y-86700817D01*
X192657897Y-86695910D01*
X192741749Y-86668125D01*
X192891071Y-86576023D01*
X193015127Y-86451967D01*
X193107229Y-86302645D01*
X193162414Y-86136108D01*
X193172915Y-86033320D01*
X193172914Y-84833303D01*
X193171792Y-84822324D01*
X193162414Y-84730514D01*
X193162413Y-84730511D01*
X193134181Y-84645313D01*
X193107229Y-84563977D01*
X193015127Y-84414655D01*
X192891071Y-84290599D01*
X192741749Y-84198497D01*
X192679973Y-84178026D01*
X192622530Y-84138254D01*
X192595707Y-84073738D01*
X192595361Y-84050591D01*
X192598336Y-84012784D01*
X191918862Y-83333311D01*
X191925076Y-83333311D01*
X192026809Y-83306052D01*
X192118021Y-83253391D01*
X192192495Y-83178917D01*
X192245156Y-83087705D01*
X192272415Y-82985972D01*
X192272415Y-82979759D01*
X192951889Y-83659233D01*
X192951889Y-83659232D01*
X192984274Y-83614660D01*
X193077170Y-83432342D01*
X193140405Y-83237728D01*
X193172415Y-83035628D01*
X193172415Y-82830993D01*
X193140405Y-82628893D01*
X193077170Y-82434279D01*
X192984274Y-82251961D01*
X192951889Y-82207388D01*
X192951889Y-82207387D01*
X192272415Y-82886862D01*
X192272415Y-82880650D01*
X192245156Y-82778917D01*
X192192495Y-82687705D01*
X192118021Y-82613231D01*
X192026809Y-82560570D01*
X191925076Y-82533311D01*
X191918861Y-82533311D01*
X192598337Y-81853835D01*
X192598336Y-81853834D01*
X192553774Y-81821458D01*
X192553765Y-81821452D01*
X192371446Y-81728555D01*
X192176832Y-81665320D01*
X191974732Y-81633311D01*
X191770098Y-81633311D01*
X191567997Y-81665320D01*
X191373383Y-81728555D01*
X191191059Y-81821454D01*
X191146492Y-81853834D01*
X191146492Y-81853835D01*
X191825969Y-82533311D01*
X191819754Y-82533311D01*
X191718021Y-82560570D01*
X191626809Y-82613231D01*
X191552335Y-82687705D01*
X191499674Y-82778917D01*
X191472415Y-82880650D01*
X191472415Y-82886864D01*
X190792939Y-82207388D01*
X190792938Y-82207388D01*
X190760558Y-82251955D01*
X190667659Y-82434279D01*
X190604424Y-82628893D01*
X190572415Y-82830993D01*
X190572415Y-83035628D01*
X190604424Y-83237728D01*
X190667659Y-83432342D01*
X190760556Y-83614661D01*
X190760562Y-83614670D01*
X190792938Y-83659232D01*
X190792939Y-83659233D01*
X191472415Y-82979757D01*
X191472415Y-82985972D01*
X191499674Y-83087705D01*
X191552335Y-83178917D01*
X191626809Y-83253391D01*
X191718021Y-83306052D01*
X191819754Y-83333311D01*
X191825968Y-83333311D01*
X191146491Y-84012785D01*
X191149467Y-84050593D01*
X191135102Y-84118970D01*
X191086051Y-84168726D01*
X191064855Y-84178026D01*
X191003087Y-84198495D01*
X191003078Y-84198498D01*
X190853757Y-84290600D01*
X190729704Y-84414653D01*
X190637602Y-84563974D01*
X190637601Y-84563977D01*
X190582416Y-84730514D01*
X190582416Y-84730515D01*
X190582415Y-84730515D01*
X190571915Y-84833294D01*
X190571915Y-86033312D01*
X190571916Y-86033329D01*
X190582415Y-86136107D01*
X190582416Y-86136110D01*
X190637600Y-86302642D01*
X190637601Y-86302645D01*
X190729703Y-86451967D01*
X190853759Y-86576023D01*
X191003081Y-86668125D01*
X191086920Y-86695906D01*
X191144363Y-86735677D01*
X191171187Y-86800193D01*
X191171915Y-86813611D01*
X191171915Y-88649212D01*
X191152230Y-88716251D01*
X191135596Y-88736893D01*
X188526235Y-91346253D01*
X188486007Y-91373133D01*
X188341646Y-91432928D01*
X188341637Y-91432933D01*
X188210534Y-91520534D01*
X188210530Y-91520537D01*
X188099036Y-91632031D01*
X188099033Y-91632035D01*
X188011432Y-91763138D01*
X188011425Y-91763151D01*
X187951087Y-91908822D01*
X187951084Y-91908834D01*
X187920323Y-92063477D01*
X148809786Y-92063477D01*
X148819586Y-92020539D01*
X148851521Y-91737109D01*
X148851521Y-91451887D01*
X148819586Y-91168457D01*
X148756118Y-90890386D01*
X148661915Y-90621169D01*
X148538161Y-90364192D01*
X148386414Y-90122687D01*
X148208580Y-89899691D01*
X148006898Y-89698009D01*
X147783902Y-89520175D01*
X147542397Y-89368428D01*
X147542394Y-89368426D01*
X147285423Y-89244675D01*
X147016214Y-89150474D01*
X147016206Y-89150471D01*
X146807649Y-89102870D01*
X146738132Y-89087003D01*
X146738128Y-89087002D01*
X146738119Y-89087001D01*
X146454706Y-89055068D01*
X146454702Y-89055068D01*
X146169480Y-89055068D01*
X146169475Y-89055068D01*
X145886062Y-89087001D01*
X145886050Y-89087003D01*
X145607975Y-89150471D01*
X145607967Y-89150474D01*
X145338758Y-89244675D01*
X145081787Y-89368426D01*
X144840281Y-89520174D01*
X144617284Y-89698008D01*
X144415601Y-89899691D01*
X144237767Y-90122688D01*
X144086019Y-90364194D01*
X143962268Y-90621165D01*
X143868067Y-90890374D01*
X143868064Y-90890382D01*
X143804596Y-91168457D01*
X143804594Y-91168469D01*
X143772661Y-91451882D01*
X143500500Y-91451882D01*
X143500500Y-41563011D01*
X155787796Y-41563011D01*
X155787796Y-41720704D01*
X155818557Y-41875347D01*
X155818560Y-41875359D01*
X155878898Y-42021030D01*
X155878905Y-42021043D01*
X155966506Y-42152146D01*
X155966509Y-42152150D01*
X156078003Y-42263644D01*
X156078007Y-42263647D01*
X156209110Y-42351248D01*
X156209123Y-42351255D01*
X156301845Y-42389661D01*
X156354799Y-42411595D01*
X156509449Y-42442357D01*
X156509452Y-42442358D01*
X156509454Y-42442358D01*
X156667140Y-42442358D01*
X156667141Y-42442357D01*
X156821793Y-42411595D01*
X156967475Y-42351252D01*
X157098585Y-42263647D01*
X157166172Y-42196059D01*
X157227493Y-42162576D01*
X157253852Y-42159742D01*
X159295500Y-42159742D01*
X159362539Y-42179427D01*
X159408294Y-42232231D01*
X159419500Y-42283742D01*
X159419500Y-56467572D01*
X159419499Y-56467590D01*
X159419499Y-56633296D01*
X159419498Y-56633296D01*
X159423904Y-56649738D01*
X159460423Y-56786027D01*
X159460424Y-56786029D01*
X159460423Y-56786029D01*
X159468038Y-56799217D01*
X159468039Y-56799218D01*
X159539477Y-56922954D01*
X159539481Y-56922959D01*
X159658349Y-57041827D01*
X159658355Y-57041832D01*
X165852181Y-63235658D01*
X165885666Y-63296981D01*
X165888500Y-63323339D01*
X165888500Y-64723709D01*
X165868815Y-64790748D01*
X165816011Y-64836503D01*
X165746853Y-64846447D01*
X165708206Y-64834194D01*
X165618417Y-64788445D01*
X165618414Y-64788444D01*
X165618412Y-64788443D01*
X165416243Y-64722754D01*
X165416241Y-64722753D01*
X165416240Y-64722753D01*
X165254957Y-64697208D01*
X165206287Y-64689500D01*
X164993713Y-64689500D01*
X164945042Y-64697208D01*
X164783760Y-64722753D01*
X164581585Y-64788444D01*
X164392179Y-64884951D01*
X164220213Y-65009890D01*
X164069890Y-65160213D01*
X163944949Y-65332182D01*
X163940484Y-65340946D01*
X163892509Y-65391742D01*
X163824688Y-65408536D01*
X163758553Y-65385998D01*
X163719516Y-65340946D01*
X163715050Y-65332182D01*
X163590109Y-65160213D01*
X163439786Y-65009890D01*
X163267820Y-64884951D01*
X163078414Y-64788444D01*
X163078413Y-64788443D01*
X163078412Y-64788443D01*
X162876243Y-64722754D01*
X162876241Y-64722753D01*
X162876240Y-64722753D01*
X162714957Y-64697208D01*
X162666287Y-64689500D01*
X162453713Y-64689500D01*
X162405042Y-64697208D01*
X162243760Y-64722753D01*
X162041585Y-64788444D01*
X161852179Y-64884951D01*
X161680213Y-65009890D01*
X161529890Y-65160213D01*
X161404949Y-65332182D01*
X161400484Y-65340946D01*
X161352509Y-65391742D01*
X161284688Y-65408536D01*
X161218553Y-65385998D01*
X161179516Y-65340946D01*
X161175050Y-65332182D01*
X161050109Y-65160213D01*
X160899786Y-65009890D01*
X160727820Y-64884951D01*
X160538414Y-64788444D01*
X160538413Y-64788443D01*
X160538412Y-64788443D01*
X160336243Y-64722754D01*
X160336241Y-64722753D01*
X160336240Y-64722753D01*
X160174957Y-64697208D01*
X160126287Y-64689500D01*
X159913713Y-64689500D01*
X159865042Y-64697208D01*
X159703760Y-64722753D01*
X159501585Y-64788444D01*
X159312179Y-64884951D01*
X159140213Y-65009890D01*
X158989890Y-65160213D01*
X158864949Y-65332182D01*
X158860202Y-65341499D01*
X158812227Y-65392293D01*
X158744405Y-65409087D01*
X158678271Y-65386548D01*
X158639234Y-65341495D01*
X158634626Y-65332452D01*
X158595270Y-65278282D01*
X158595269Y-65278282D01*
X157962962Y-65910590D01*
X157945925Y-65847007D01*
X157880099Y-65732993D01*
X157787007Y-65639901D01*
X157672993Y-65574075D01*
X157609409Y-65557037D01*
X158241716Y-64924728D01*
X158187550Y-64885375D01*
X157998217Y-64788904D01*
X157796129Y-64723242D01*
X157586246Y-64690000D01*
X157373754Y-64690000D01*
X157163872Y-64723242D01*
X157163869Y-64723242D01*
X156961782Y-64788904D01*
X156772439Y-64885380D01*
X156718282Y-64924727D01*
X156718282Y-64924728D01*
X157350591Y-65557037D01*
X157287007Y-65574075D01*
X157172993Y-65639901D01*
X157079901Y-65732993D01*
X157014075Y-65847007D01*
X156997037Y-65910591D01*
X156364728Y-65278282D01*
X156364727Y-65278282D01*
X156325380Y-65332439D01*
X156228904Y-65521782D01*
X156163242Y-65723869D01*
X156163242Y-65723872D01*
X156130000Y-65933753D01*
X156130000Y-66146246D01*
X156163242Y-66356127D01*
X156163242Y-66356130D01*
X156228904Y-66558217D01*
X156325375Y-66747550D01*
X156364728Y-66801716D01*
X156997037Y-66169408D01*
X157014075Y-66232993D01*
X157079901Y-66347007D01*
X157172993Y-66440099D01*
X157287007Y-66505925D01*
X157350590Y-66522962D01*
X156681195Y-67192356D01*
X156619872Y-67225841D01*
X156605167Y-67224924D01*
X156605444Y-67227497D01*
X156522626Y-67236401D01*
X156522619Y-67236403D01*
X156387913Y-67286645D01*
X156387906Y-67286649D01*
X156272812Y-67372809D01*
X156272809Y-67372812D01*
X156186649Y-67487906D01*
X156186645Y-67487913D01*
X156136403Y-67622620D01*
X156136401Y-67622627D01*
X156130000Y-67682155D01*
X156130000Y-68330000D01*
X157046988Y-68330000D01*
X157014075Y-68387007D01*
X156980000Y-68514174D01*
X156980000Y-68645826D01*
X157014075Y-68772993D01*
X157046988Y-68830000D01*
X156130000Y-68830000D01*
X156130000Y-69477844D01*
X156136401Y-69537372D01*
X156136403Y-69537379D01*
X156186645Y-69672086D01*
X156186649Y-69672093D01*
X156272809Y-69787187D01*
X156272812Y-69787190D01*
X156387906Y-69873350D01*
X156387913Y-69873354D01*
X156522620Y-69923596D01*
X156522627Y-69923598D01*
X156582155Y-69929999D01*
X156582172Y-69930000D01*
X157230000Y-69930000D01*
X157230000Y-69013012D01*
X157287007Y-69045925D01*
X157414174Y-69080000D01*
X157545826Y-69080000D01*
X157672993Y-69045925D01*
X157730000Y-69013012D01*
X157730000Y-69930000D01*
X158377828Y-69930000D01*
X158377844Y-69929999D01*
X158437372Y-69923598D01*
X158437379Y-69923596D01*
X158572086Y-69873354D01*
X158572093Y-69873350D01*
X158687187Y-69787190D01*
X158687190Y-69787187D01*
X158773350Y-69672093D01*
X158773354Y-69672086D01*
X158822422Y-69540529D01*
X158864293Y-69484595D01*
X158929757Y-69460178D01*
X158998030Y-69475030D01*
X159026285Y-69496181D01*
X159140213Y-69610109D01*
X159312179Y-69735048D01*
X159312181Y-69735049D01*
X159312184Y-69735051D01*
X159501588Y-69831557D01*
X159703757Y-69897246D01*
X159913713Y-69930500D01*
X159913714Y-69930500D01*
X160126286Y-69930500D01*
X160126287Y-69930500D01*
X160336243Y-69897246D01*
X160538412Y-69831557D01*
X160727816Y-69735051D01*
X160814471Y-69672093D01*
X160899786Y-69610109D01*
X160899788Y-69610106D01*
X160899792Y-69610104D01*
X161050104Y-69459792D01*
X161050106Y-69459788D01*
X161050109Y-69459786D01*
X161175048Y-69287820D01*
X161175047Y-69287820D01*
X161175051Y-69287816D01*
X161179514Y-69279054D01*
X161227488Y-69228259D01*
X161295308Y-69211463D01*
X161361444Y-69233999D01*
X161400486Y-69279056D01*
X161404951Y-69287820D01*
X161529890Y-69459786D01*
X161680213Y-69610109D01*
X161852179Y-69735048D01*
X161852181Y-69735049D01*
X161852184Y-69735051D01*
X162041588Y-69831557D01*
X162243757Y-69897246D01*
X162453713Y-69930500D01*
X162453714Y-69930500D01*
X162666286Y-69930500D01*
X162666287Y-69930500D01*
X162876243Y-69897246D01*
X163078412Y-69831557D01*
X163267816Y-69735051D01*
X163354471Y-69672093D01*
X163439786Y-69610109D01*
X163439788Y-69610106D01*
X163439792Y-69610104D01*
X163590104Y-69459792D01*
X163590106Y-69459788D01*
X163590109Y-69459786D01*
X163715048Y-69287820D01*
X163715047Y-69287820D01*
X163715051Y-69287816D01*
X163719514Y-69279054D01*
X163767488Y-69228259D01*
X163835308Y-69211463D01*
X163901444Y-69233999D01*
X163940486Y-69279056D01*
X163944951Y-69287820D01*
X164069890Y-69459786D01*
X164220213Y-69610109D01*
X164392179Y-69735048D01*
X164392181Y-69735049D01*
X164392184Y-69735051D01*
X164581588Y-69831557D01*
X164783757Y-69897246D01*
X164993713Y-69930500D01*
X164993714Y-69930500D01*
X165206286Y-69930500D01*
X165206287Y-69930500D01*
X165416243Y-69897246D01*
X165618412Y-69831557D01*
X165807816Y-69735051D01*
X165894471Y-69672093D01*
X165979786Y-69610109D01*
X165979788Y-69610106D01*
X165979792Y-69610104D01*
X166130104Y-69459792D01*
X166130106Y-69459788D01*
X166130109Y-69459786D01*
X166255048Y-69287820D01*
X166255047Y-69287820D01*
X166255051Y-69287816D01*
X166259514Y-69279054D01*
X166307488Y-69228259D01*
X166375308Y-69211463D01*
X166441444Y-69233999D01*
X166480486Y-69279056D01*
X166484951Y-69287820D01*
X166609890Y-69459786D01*
X166760213Y-69610109D01*
X166932179Y-69735048D01*
X166932181Y-69735049D01*
X166932184Y-69735051D01*
X167121588Y-69831557D01*
X167323757Y-69897246D01*
X167533713Y-69930500D01*
X167533714Y-69930500D01*
X167746286Y-69930500D01*
X167746287Y-69930500D01*
X167956243Y-69897246D01*
X168158412Y-69831557D01*
X168347816Y-69735051D01*
X168434471Y-69672093D01*
X168519786Y-69610109D01*
X168519788Y-69610106D01*
X168519792Y-69610104D01*
X168670104Y-69459792D01*
X168670106Y-69459788D01*
X168670109Y-69459786D01*
X168795048Y-69287820D01*
X168795047Y-69287820D01*
X168795051Y-69287816D01*
X168799514Y-69279054D01*
X168847488Y-69228259D01*
X168915308Y-69211463D01*
X168981444Y-69233999D01*
X169020486Y-69279056D01*
X169024951Y-69287820D01*
X169149890Y-69459786D01*
X169300213Y-69610109D01*
X169472179Y-69735048D01*
X169472181Y-69735049D01*
X169472184Y-69735051D01*
X169661588Y-69831557D01*
X169863757Y-69897246D01*
X170073713Y-69930500D01*
X170073714Y-69930500D01*
X170286286Y-69930500D01*
X170286287Y-69930500D01*
X170496243Y-69897246D01*
X170698412Y-69831557D01*
X170887816Y-69735051D01*
X170974471Y-69672093D01*
X171059786Y-69610109D01*
X171059788Y-69610106D01*
X171059792Y-69610104D01*
X171210104Y-69459792D01*
X171210106Y-69459788D01*
X171210109Y-69459786D01*
X171335048Y-69287820D01*
X171335047Y-69287820D01*
X171335051Y-69287816D01*
X171339514Y-69279054D01*
X171387488Y-69228259D01*
X171455308Y-69211463D01*
X171521444Y-69233999D01*
X171560486Y-69279056D01*
X171564951Y-69287820D01*
X171689890Y-69459786D01*
X171840213Y-69610109D01*
X172012179Y-69735048D01*
X172012181Y-69735049D01*
X172012184Y-69735051D01*
X172201588Y-69831557D01*
X172403757Y-69897246D01*
X172613713Y-69930500D01*
X172613714Y-69930500D01*
X172826286Y-69930500D01*
X172826287Y-69930500D01*
X173036243Y-69897246D01*
X173238412Y-69831557D01*
X173427816Y-69735051D01*
X173514471Y-69672093D01*
X173599786Y-69610109D01*
X173599788Y-69610106D01*
X173599792Y-69610104D01*
X173750104Y-69459792D01*
X173750106Y-69459788D01*
X173750109Y-69459786D01*
X173875048Y-69287820D01*
X173875047Y-69287820D01*
X173875051Y-69287816D01*
X173879514Y-69279054D01*
X173927488Y-69228259D01*
X173995308Y-69211463D01*
X174061444Y-69233999D01*
X174100486Y-69279056D01*
X174104951Y-69287820D01*
X174229890Y-69459786D01*
X174380213Y-69610109D01*
X174552179Y-69735048D01*
X174552181Y-69735049D01*
X174552184Y-69735051D01*
X174741588Y-69831557D01*
X174943757Y-69897246D01*
X175153713Y-69930500D01*
X175153714Y-69930500D01*
X175366286Y-69930500D01*
X175366287Y-69930500D01*
X175576243Y-69897246D01*
X175778412Y-69831557D01*
X175967816Y-69735051D01*
X176054471Y-69672093D01*
X176139786Y-69610109D01*
X176139788Y-69610106D01*
X176139792Y-69610104D01*
X176290104Y-69459792D01*
X176290106Y-69459788D01*
X176290109Y-69459786D01*
X176415048Y-69287820D01*
X176415047Y-69287820D01*
X176415051Y-69287816D01*
X176419514Y-69279054D01*
X176467488Y-69228259D01*
X176535308Y-69211463D01*
X176601444Y-69233999D01*
X176640486Y-69279056D01*
X176644951Y-69287820D01*
X176769890Y-69459786D01*
X176920213Y-69610109D01*
X177092179Y-69735048D01*
X177092181Y-69735049D01*
X177092184Y-69735051D01*
X177281588Y-69831557D01*
X177483757Y-69897246D01*
X177693713Y-69930500D01*
X177693714Y-69930500D01*
X177906286Y-69930500D01*
X177906287Y-69930500D01*
X178116243Y-69897246D01*
X178318412Y-69831557D01*
X178507816Y-69735051D01*
X178594471Y-69672093D01*
X178679786Y-69610109D01*
X178679788Y-69610106D01*
X178679792Y-69610104D01*
X178830104Y-69459792D01*
X178830106Y-69459788D01*
X178830109Y-69459786D01*
X178915890Y-69341717D01*
X178955051Y-69287816D01*
X178959793Y-69278508D01*
X179007763Y-69227711D01*
X179075583Y-69210911D01*
X179141719Y-69233445D01*
X179180763Y-69278500D01*
X179185373Y-69287547D01*
X179224728Y-69341716D01*
X179857037Y-68709408D01*
X179874075Y-68772993D01*
X179939901Y-68887007D01*
X180032993Y-68980099D01*
X180147007Y-69045925D01*
X180210590Y-69062962D01*
X179578282Y-69695269D01*
X179578282Y-69695270D01*
X179632449Y-69734624D01*
X179821782Y-69831095D01*
X180023870Y-69896757D01*
X180233754Y-69930000D01*
X180446246Y-69930000D01*
X180656127Y-69896757D01*
X180656130Y-69896757D01*
X180858217Y-69831095D01*
X181047554Y-69734622D01*
X181101716Y-69695270D01*
X181101717Y-69695270D01*
X180469408Y-69062962D01*
X180532993Y-69045925D01*
X180647007Y-68980099D01*
X180740099Y-68887007D01*
X180805925Y-68772993D01*
X180822962Y-68709408D01*
X181455270Y-69341717D01*
X181455270Y-69341716D01*
X181494622Y-69287554D01*
X181591095Y-69098217D01*
X181656757Y-68896130D01*
X181656757Y-68896127D01*
X181690000Y-68686246D01*
X181690000Y-68473753D01*
X181656757Y-68263872D01*
X181656757Y-68263869D01*
X181591095Y-68061782D01*
X181494624Y-67872449D01*
X181455270Y-67818282D01*
X181455269Y-67818282D01*
X180822962Y-68450590D01*
X180805925Y-68387007D01*
X180740099Y-68272993D01*
X180647007Y-68179901D01*
X180532993Y-68114075D01*
X180469409Y-68097037D01*
X181101716Y-67464728D01*
X181047550Y-67425375D01*
X181037954Y-67420486D01*
X180987157Y-67372512D01*
X180970361Y-67304692D01*
X180992897Y-67238556D01*
X181037954Y-67199514D01*
X181047554Y-67194622D01*
X181101716Y-67155270D01*
X181101717Y-67155270D01*
X180469408Y-66522962D01*
X180532993Y-66505925D01*
X180647007Y-66440099D01*
X180740099Y-66347007D01*
X180805925Y-66232993D01*
X180822962Y-66169408D01*
X181455270Y-66801717D01*
X181455270Y-66801716D01*
X181494622Y-66747554D01*
X181591095Y-66558217D01*
X181656757Y-66356130D01*
X181656757Y-66356127D01*
X181690000Y-66146246D01*
X181690000Y-65933753D01*
X181656757Y-65723872D01*
X181656757Y-65723869D01*
X181591095Y-65521782D01*
X181494624Y-65332449D01*
X181455270Y-65278282D01*
X181455269Y-65278282D01*
X180822962Y-65910590D01*
X180805925Y-65847007D01*
X180740099Y-65732993D01*
X180647007Y-65639901D01*
X180532993Y-65574075D01*
X180469409Y-65557037D01*
X181101716Y-64924728D01*
X181047550Y-64885375D01*
X180858217Y-64788904D01*
X180656129Y-64723242D01*
X180446246Y-64690000D01*
X180233754Y-64690000D01*
X180023872Y-64723242D01*
X180023869Y-64723242D01*
X179821782Y-64788904D01*
X179632439Y-64885380D01*
X179578282Y-64924727D01*
X179578282Y-64924728D01*
X180210591Y-65557037D01*
X180147007Y-65574075D01*
X180032993Y-65639901D01*
X179939901Y-65732993D01*
X179874075Y-65847007D01*
X179857037Y-65910591D01*
X179224728Y-65278282D01*
X179224727Y-65278282D01*
X179185380Y-65332440D01*
X179185376Y-65332446D01*
X179180760Y-65341505D01*
X179132781Y-65392297D01*
X179064959Y-65409087D01*
X178998826Y-65386543D01*
X178959794Y-65341493D01*
X178955051Y-65332184D01*
X178955049Y-65332181D01*
X178955048Y-65332179D01*
X178830109Y-65160213D01*
X178679786Y-65009890D01*
X178507820Y-64884951D01*
X178318414Y-64788444D01*
X178318413Y-64788443D01*
X178318412Y-64788443D01*
X178116243Y-64722754D01*
X178116241Y-64722753D01*
X178116240Y-64722753D01*
X177954957Y-64697208D01*
X177906287Y-64689500D01*
X177693713Y-64689500D01*
X177654202Y-64695757D01*
X177483759Y-64722753D01*
X177483755Y-64722754D01*
X177411817Y-64746128D01*
X177341976Y-64748123D01*
X177282143Y-64712042D01*
X177251316Y-64649341D01*
X177249500Y-64628197D01*
X177249500Y-62924207D01*
X177249501Y-62924194D01*
X177249501Y-62756091D01*
X177222286Y-62654526D01*
X177208577Y-62603363D01*
X177208573Y-62603356D01*
X177129524Y-62466437D01*
X177129518Y-62466429D01*
X174960819Y-60297730D01*
X174927334Y-60236407D01*
X174924500Y-60210049D01*
X174924500Y-58821280D01*
X174944185Y-58754241D01*
X174996989Y-58708486D01*
X175066147Y-58698542D01*
X175129703Y-58727567D01*
X175136181Y-58733599D01*
X180754904Y-64352322D01*
X180754914Y-64352333D01*
X180759244Y-64356663D01*
X180759245Y-64356664D01*
X180871049Y-64468468D01*
X180957860Y-64518587D01*
X180957862Y-64518589D01*
X180995916Y-64540559D01*
X181007980Y-64547525D01*
X181160708Y-64588449D01*
X181160711Y-64588449D01*
X181326418Y-64588449D01*
X181326434Y-64588448D01*
X190199903Y-64588448D01*
X190266942Y-64608133D01*
X190287584Y-64624767D01*
X190528839Y-64866022D01*
X190562324Y-64927345D01*
X190565158Y-64953703D01*
X190565158Y-72459740D01*
X190565157Y-72459758D01*
X190565157Y-72625464D01*
X190565156Y-72625464D01*
X190576705Y-72668563D01*
X190590965Y-72721784D01*
X190606082Y-72778197D01*
X190618952Y-72800488D01*
X190618953Y-72800490D01*
X190685139Y-72915127D01*
X190804007Y-73033995D01*
X190804013Y-73034000D01*
X192565792Y-74795779D01*
X192599277Y-74857102D01*
X192599728Y-74859268D01*
X192630628Y-75014610D01*
X192630631Y-75014620D01*
X192690969Y-75160291D01*
X192690976Y-75160304D01*
X192778577Y-75291407D01*
X192778580Y-75291411D01*
X192890074Y-75402905D01*
X192890078Y-75402908D01*
X193021181Y-75490509D01*
X193021194Y-75490516D01*
X193166865Y-75550854D01*
X193166870Y-75550856D01*
X193321520Y-75581618D01*
X193321523Y-75581619D01*
X193321525Y-75581619D01*
X193479211Y-75581619D01*
X193479212Y-75581618D01*
X193633864Y-75550856D01*
X193779546Y-75490513D01*
X193910656Y-75402908D01*
X194022156Y-75291408D01*
X194109761Y-75160298D01*
X194170104Y-75014616D01*
X194200867Y-74859961D01*
X194200867Y-74702277D01*
X194200867Y-74702274D01*
X194200866Y-74702272D01*
X194170105Y-74547629D01*
X194170104Y-74547622D01*
X194170102Y-74547617D01*
X194109764Y-74401946D01*
X194109757Y-74401933D01*
X194022156Y-74270830D01*
X194022153Y-74270826D01*
X193910659Y-74159332D01*
X193910655Y-74159329D01*
X193779552Y-74071728D01*
X193779539Y-74071721D01*
X193633868Y-74011383D01*
X193633858Y-74011380D01*
X193478518Y-73980481D01*
X193416608Y-73948096D01*
X193415029Y-73946545D01*
X191802477Y-72333993D01*
X191768992Y-72272670D01*
X191766158Y-72246312D01*
X191766158Y-64742666D01*
X191766159Y-64742653D01*
X191766159Y-64574550D01*
X191766159Y-64574549D01*
X191725235Y-64421822D01*
X191647107Y-64286499D01*
X191630635Y-64218599D01*
X191653488Y-64152572D01*
X191708410Y-64109382D01*
X191754495Y-64100500D01*
X205653331Y-64100500D01*
X205653347Y-64100501D01*
X205660943Y-64100501D01*
X205819054Y-64100501D01*
X205819057Y-64100501D01*
X205971785Y-64059577D01*
X206021904Y-64030639D01*
X206108716Y-63980520D01*
X206220520Y-63868716D01*
X206220520Y-63868714D01*
X206230728Y-63858507D01*
X206230730Y-63858504D01*
X209258321Y-60830912D01*
X209319642Y-60797429D01*
X209389334Y-60802413D01*
X209445267Y-60844285D01*
X209469684Y-60909749D01*
X209470000Y-60918595D01*
X209470000Y-61066246D01*
X209503242Y-61276127D01*
X209503242Y-61276130D01*
X209568904Y-61478217D01*
X209665375Y-61667550D01*
X209704728Y-61721716D01*
X210337037Y-61089408D01*
X210354075Y-61152993D01*
X210419901Y-61267007D01*
X210512993Y-61360099D01*
X210627007Y-61425925D01*
X210690590Y-61442962D01*
X210058282Y-62075269D01*
X210058282Y-62075270D01*
X210112449Y-62114624D01*
X210301782Y-62211095D01*
X210503870Y-62276757D01*
X210713754Y-62310000D01*
X210926246Y-62310000D01*
X211136127Y-62276757D01*
X211136130Y-62276757D01*
X211338217Y-62211095D01*
X211527554Y-62114622D01*
X211581716Y-62075270D01*
X211581717Y-62075270D01*
X210949408Y-61442962D01*
X211012993Y-61425925D01*
X211127007Y-61360099D01*
X211220099Y-61267007D01*
X211285925Y-61152993D01*
X211302962Y-61089408D01*
X211935270Y-61721717D01*
X211935270Y-61721716D01*
X211974622Y-61667554D01*
X211979514Y-61657954D01*
X212027488Y-61607157D01*
X212095308Y-61590361D01*
X212161444Y-61612897D01*
X212200486Y-61657954D01*
X212205375Y-61667550D01*
X212244728Y-61721716D01*
X212877037Y-61089408D01*
X212894075Y-61152993D01*
X212959901Y-61267007D01*
X213052993Y-61360099D01*
X213167007Y-61425925D01*
X213230590Y-61442962D01*
X212598282Y-62075269D01*
X212598282Y-62075270D01*
X212652449Y-62114624D01*
X212841782Y-62211095D01*
X213043870Y-62276757D01*
X213253754Y-62310000D01*
X213466246Y-62310000D01*
X213676127Y-62276757D01*
X213676130Y-62276757D01*
X213878217Y-62211095D01*
X214067554Y-62114622D01*
X214121716Y-62075270D01*
X214121717Y-62075270D01*
X213489408Y-61442962D01*
X213552993Y-61425925D01*
X213667007Y-61360099D01*
X213760099Y-61267007D01*
X213825925Y-61152993D01*
X213842962Y-61089408D01*
X214475270Y-61721717D01*
X214475270Y-61721716D01*
X214514622Y-61667554D01*
X214611095Y-61478217D01*
X214676757Y-61276130D01*
X214676757Y-61276127D01*
X214710000Y-61066246D01*
X214710000Y-60853753D01*
X214676757Y-60643872D01*
X214676757Y-60643869D01*
X214611095Y-60441782D01*
X214514624Y-60252449D01*
X214475270Y-60198282D01*
X214475269Y-60198282D01*
X213842962Y-60830590D01*
X213825925Y-60767007D01*
X213760099Y-60652993D01*
X213667007Y-60559901D01*
X213552993Y-60494075D01*
X213489409Y-60477037D01*
X214121716Y-59844728D01*
X214067547Y-59805373D01*
X214067547Y-59805372D01*
X214058500Y-59800763D01*
X214007706Y-59752788D01*
X213990912Y-59684966D01*
X214013451Y-59618832D01*
X214058508Y-59579793D01*
X214067816Y-59575051D01*
X214147007Y-59517515D01*
X214239786Y-59450109D01*
X214239788Y-59450106D01*
X214239792Y-59450104D01*
X214390104Y-59299792D01*
X214390106Y-59299788D01*
X214390109Y-59299786D01*
X214515048Y-59127820D01*
X214515047Y-59127820D01*
X214515051Y-59127816D01*
X214611557Y-58938412D01*
X214677246Y-58736243D01*
X214710500Y-58526287D01*
X214710500Y-58313713D01*
X214677246Y-58103757D01*
X214663506Y-58061473D01*
X214661512Y-57991635D01*
X214693755Y-57935478D01*
X215087820Y-57541414D01*
X215149142Y-57507930D01*
X215218834Y-57512914D01*
X215274767Y-57554786D01*
X215299184Y-57620250D01*
X215299500Y-57629096D01*
X215299500Y-64612137D01*
X215279815Y-64679176D01*
X215263181Y-64699818D01*
X209479818Y-70483181D01*
X209418495Y-70516666D01*
X209392137Y-70519500D01*
X205570552Y-70519500D01*
X205503513Y-70499815D01*
X205501661Y-70498602D01*
X205369971Y-70410609D01*
X205369958Y-70410602D01*
X205224287Y-70350264D01*
X205224275Y-70350261D01*
X205069631Y-70319500D01*
X205069628Y-70319500D01*
X204911944Y-70319500D01*
X204911941Y-70319500D01*
X204757296Y-70350261D01*
X204757284Y-70350264D01*
X204611613Y-70410602D01*
X204611600Y-70410609D01*
X204480497Y-70498210D01*
X204480493Y-70498213D01*
X204368999Y-70609707D01*
X204368996Y-70609711D01*
X204281395Y-70740814D01*
X204281388Y-70740827D01*
X204221050Y-70886498D01*
X204221047Y-70886510D01*
X204190286Y-71041153D01*
X204190286Y-71198846D01*
X204221047Y-71353489D01*
X204221050Y-71353501D01*
X204281388Y-71499172D01*
X204281395Y-71499185D01*
X204368996Y-71630288D01*
X204368999Y-71630292D01*
X204480493Y-71741786D01*
X204480497Y-71741789D01*
X204611600Y-71829390D01*
X204611613Y-71829397D01*
X204757284Y-71889735D01*
X204757289Y-71889737D01*
X204911939Y-71920499D01*
X204911942Y-71920500D01*
X204911944Y-71920500D01*
X205069630Y-71920500D01*
X205069631Y-71920499D01*
X205224283Y-71889737D01*
X205369965Y-71829394D01*
X205391994Y-71814675D01*
X205501661Y-71741398D01*
X205568339Y-71720520D01*
X205570552Y-71720500D01*
X209605565Y-71720500D01*
X209605581Y-71720501D01*
X209613177Y-71720501D01*
X209771288Y-71720501D01*
X209771291Y-71720501D01*
X209924019Y-71679577D01*
X209974138Y-71650639D01*
X210060950Y-71600520D01*
X210172754Y-71488716D01*
X210172754Y-71488714D01*
X210182962Y-71478507D01*
X210182963Y-71478504D01*
X215980882Y-65680586D01*
X216042203Y-65647103D01*
X216111895Y-65652087D01*
X216167828Y-65693959D01*
X216192245Y-65759423D01*
X216192561Y-65768269D01*
X216192561Y-67613761D01*
X216172876Y-67680800D01*
X216156242Y-67701442D01*
X212043008Y-71814675D01*
X212002780Y-71841555D01*
X211858419Y-71901350D01*
X211858410Y-71901355D01*
X211727307Y-71988956D01*
X211727303Y-71988959D01*
X211615809Y-72100453D01*
X211615806Y-72100457D01*
X211528205Y-72231560D01*
X211528198Y-72231573D01*
X211467860Y-72377244D01*
X211467857Y-72377256D01*
X211437096Y-72531899D01*
X211437096Y-72689592D01*
X211467857Y-72844235D01*
X211467860Y-72844247D01*
X211528198Y-72989918D01*
X211528205Y-72989931D01*
X211615806Y-73121034D01*
X211615809Y-73121038D01*
X211727303Y-73232532D01*
X211727307Y-73232535D01*
X211858410Y-73320136D01*
X211858423Y-73320143D01*
X212004094Y-73380481D01*
X212004099Y-73380483D01*
X212158749Y-73411245D01*
X212158752Y-73411246D01*
X212158754Y-73411246D01*
X212316440Y-73411246D01*
X212316441Y-73411245D01*
X212471093Y-73380483D01*
X212616775Y-73320140D01*
X212747885Y-73232535D01*
X212859385Y-73121035D01*
X212946990Y-72989925D01*
X212946991Y-72989922D01*
X212946993Y-72989919D01*
X213006788Y-72845558D01*
X213033665Y-72805332D01*
X216741871Y-69097127D01*
X216803192Y-69063644D01*
X216872884Y-69068628D01*
X216928817Y-69110500D01*
X216953234Y-69175964D01*
X216953550Y-69184810D01*
X216953550Y-69856781D01*
X216933865Y-69923820D01*
X216917231Y-69944462D01*
X209871655Y-76990038D01*
X209810332Y-77023523D01*
X209783974Y-77026357D01*
X203541518Y-77026357D01*
X203474479Y-77006672D01*
X203453837Y-76990038D01*
X199149804Y-72686004D01*
X199122924Y-72645775D01*
X199094069Y-72576113D01*
X199094067Y-72576107D01*
X199094065Y-72576105D01*
X199094065Y-72576103D01*
X199006462Y-72444997D01*
X199006459Y-72444993D01*
X198894965Y-72333499D01*
X198894961Y-72333496D01*
X198763858Y-72245895D01*
X198763845Y-72245888D01*
X198618174Y-72185550D01*
X198618162Y-72185547D01*
X198463518Y-72154786D01*
X198463515Y-72154786D01*
X198305831Y-72154786D01*
X198305828Y-72154786D01*
X198151183Y-72185547D01*
X198151171Y-72185550D01*
X198005500Y-72245888D01*
X198005487Y-72245895D01*
X197874384Y-72333496D01*
X197874380Y-72333499D01*
X197762886Y-72444993D01*
X197762883Y-72444997D01*
X197675282Y-72576100D01*
X197675275Y-72576113D01*
X197614937Y-72721784D01*
X197614934Y-72721796D01*
X197584173Y-72876439D01*
X197584173Y-73034132D01*
X197614934Y-73188775D01*
X197614937Y-73188787D01*
X197675275Y-73334458D01*
X197675282Y-73334471D01*
X197762883Y-73465574D01*
X197762886Y-73465578D01*
X197874380Y-73577072D01*
X197874384Y-73577075D01*
X198005487Y-73664676D01*
X198005500Y-73664683D01*
X198092903Y-73700885D01*
X198151176Y-73725023D01*
X198184605Y-73731672D01*
X198246514Y-73764056D01*
X198248094Y-73765608D01*
X202121661Y-77639175D01*
X202155146Y-77700498D01*
X202150162Y-77770190D01*
X202121661Y-77814537D01*
X199336564Y-80599634D01*
X199259899Y-80714372D01*
X199207098Y-80841847D01*
X199207095Y-80841857D01*
X199180177Y-80977184D01*
X199180177Y-82942992D01*
X199160492Y-83010031D01*
X199107688Y-83055786D01*
X199095184Y-83060696D01*
X199062639Y-83071481D01*
X199011345Y-83088478D01*
X199011340Y-83088480D01*
X198862019Y-83180582D01*
X198737966Y-83304635D01*
X198645864Y-83453956D01*
X198645863Y-83453959D01*
X198590678Y-83620496D01*
X198590678Y-83620497D01*
X198590677Y-83620497D01*
X198580177Y-83723276D01*
X198580177Y-84923294D01*
X198580178Y-84923311D01*
X198590677Y-85026089D01*
X198590678Y-85026092D01*
X198634109Y-85157156D01*
X198645863Y-85192627D01*
X198737965Y-85341949D01*
X198862021Y-85466005D01*
X199011343Y-85558107D01*
X199177880Y-85613292D01*
X199280668Y-85623793D01*
X200480685Y-85623792D01*
X200583474Y-85613292D01*
X200750011Y-85558107D01*
X200899333Y-85466005D01*
X201023389Y-85341949D01*
X201115491Y-85192627D01*
X201138779Y-85122347D01*
X201142787Y-85114343D01*
X201160737Y-85095065D01*
X201175732Y-85073409D01*
X201184172Y-85069899D01*
X201190402Y-85063210D01*
X201215926Y-85056697D01*
X201240248Y-85046585D01*
X201256511Y-85046341D01*
X201258102Y-85045936D01*
X201259200Y-85046301D01*
X201263396Y-85046239D01*
X201301202Y-85049214D01*
X201980677Y-84369739D01*
X201980677Y-84375954D01*
X202007936Y-84477687D01*
X202060597Y-84568899D01*
X202135071Y-84643373D01*
X202226283Y-84696034D01*
X202328016Y-84723293D01*
X202334230Y-84723293D01*
X201654753Y-85402767D01*
X201699327Y-85435152D01*
X201881645Y-85528048D01*
X202076259Y-85591283D01*
X202278360Y-85623293D01*
X202482994Y-85623293D01*
X202685094Y-85591283D01*
X202879708Y-85528048D01*
X203062026Y-85435152D01*
X203106598Y-85402767D01*
X202427124Y-84723293D01*
X202433338Y-84723293D01*
X202535071Y-84696034D01*
X202626283Y-84643373D01*
X202700757Y-84568899D01*
X202753418Y-84477687D01*
X202780677Y-84375954D01*
X202780677Y-84369740D01*
X203460151Y-85049214D01*
X203492537Y-85004641D01*
X203585432Y-84822324D01*
X203648667Y-84627710D01*
X203680677Y-84425610D01*
X203680677Y-84220975D01*
X203648667Y-84018875D01*
X203634876Y-83976432D01*
X203624006Y-83942979D01*
X208308582Y-83942979D01*
X208308582Y-84147614D01*
X208340591Y-84349714D01*
X208403826Y-84544328D01*
X208496723Y-84726647D01*
X208496729Y-84726656D01*
X208529105Y-84771218D01*
X208529106Y-84771219D01*
X209208582Y-84091743D01*
X209208582Y-84097958D01*
X209235841Y-84199691D01*
X209288502Y-84290903D01*
X209362976Y-84365377D01*
X209454188Y-84418038D01*
X209555921Y-84445297D01*
X209562135Y-84445297D01*
X208882658Y-85124771D01*
X208927232Y-85157156D01*
X209109550Y-85250052D01*
X209304164Y-85313287D01*
X209506265Y-85345297D01*
X209710899Y-85345297D01*
X209912999Y-85313287D01*
X210107613Y-85250052D01*
X210289931Y-85157156D01*
X210334503Y-85124771D01*
X209655029Y-84445297D01*
X209661243Y-84445297D01*
X209762976Y-84418038D01*
X209854188Y-84365377D01*
X209928662Y-84290903D01*
X209981323Y-84199691D01*
X210008582Y-84097958D01*
X210008582Y-84091744D01*
X210688055Y-84771218D01*
X210725862Y-84768243D01*
X210794240Y-84782607D01*
X210843997Y-84831658D01*
X210853298Y-84852856D01*
X210873768Y-84914630D01*
X210873769Y-84914633D01*
X210879116Y-84923302D01*
X210965870Y-85063953D01*
X211089926Y-85188009D01*
X211239248Y-85280111D01*
X211405785Y-85335296D01*
X211508573Y-85345797D01*
X212708590Y-85345796D01*
X212811379Y-85335296D01*
X212977916Y-85280111D01*
X213127238Y-85188009D01*
X213251294Y-85063953D01*
X213343396Y-84914631D01*
X213398581Y-84748094D01*
X213409082Y-84645306D01*
X213409081Y-83445289D01*
X213407758Y-83432342D01*
X213398581Y-83342500D01*
X213398580Y-83342497D01*
X213386034Y-83304635D01*
X213343396Y-83175963D01*
X213251294Y-83026641D01*
X213127238Y-82902585D01*
X212977916Y-82810483D01*
X212811379Y-82755298D01*
X212811377Y-82755297D01*
X212708592Y-82744797D01*
X211508580Y-82744797D01*
X211508563Y-82744798D01*
X211405785Y-82755297D01*
X211405782Y-82755298D01*
X211239250Y-82810482D01*
X211239245Y-82810484D01*
X211089924Y-82902586D01*
X210965871Y-83026639D01*
X210873769Y-83175960D01*
X210873767Y-83175965D01*
X210853299Y-83237735D01*
X210813526Y-83295180D01*
X210749010Y-83322003D01*
X210725865Y-83322349D01*
X210688056Y-83319373D01*
X210008582Y-83998848D01*
X210008582Y-83992636D01*
X209981323Y-83890903D01*
X209928662Y-83799691D01*
X209854188Y-83725217D01*
X209762976Y-83672556D01*
X209661243Y-83645297D01*
X209655028Y-83645297D01*
X210334504Y-82965821D01*
X210334503Y-82965820D01*
X210289941Y-82933444D01*
X210289932Y-82933438D01*
X210107613Y-82840541D01*
X209912999Y-82777306D01*
X209710899Y-82745297D01*
X209506265Y-82745297D01*
X209304164Y-82777306D01*
X209109550Y-82840541D01*
X208927226Y-82933440D01*
X208882659Y-82965820D01*
X208882659Y-82965821D01*
X209562136Y-83645297D01*
X209555921Y-83645297D01*
X209454188Y-83672556D01*
X209362976Y-83725217D01*
X209288502Y-83799691D01*
X209235841Y-83890903D01*
X209208582Y-83992636D01*
X209208582Y-83998850D01*
X208529106Y-83319374D01*
X208529105Y-83319374D01*
X208496725Y-83363941D01*
X208403826Y-83546265D01*
X208340591Y-83740879D01*
X208308582Y-83942979D01*
X203624006Y-83942979D01*
X203585432Y-83824261D01*
X203492536Y-83641943D01*
X203460151Y-83597370D01*
X203460151Y-83597369D01*
X202780677Y-84276844D01*
X202780677Y-84270632D01*
X202753418Y-84168899D01*
X202700757Y-84077687D01*
X202626283Y-84003213D01*
X202535071Y-83950552D01*
X202433338Y-83923293D01*
X202427123Y-83923293D01*
X203106599Y-83243817D01*
X203106598Y-83243816D01*
X203062036Y-83211440D01*
X203062027Y-83211434D01*
X202889574Y-83123565D01*
X202889572Y-83123563D01*
X202879710Y-83118538D01*
X202685094Y-83055302D01*
X202482994Y-83023293D01*
X202278360Y-83023293D01*
X202076259Y-83055302D01*
X201881645Y-83118537D01*
X201699321Y-83211436D01*
X201654754Y-83243816D01*
X201654754Y-83243817D01*
X202334231Y-83923293D01*
X202328016Y-83923293D01*
X202226283Y-83950552D01*
X202135071Y-84003213D01*
X202060597Y-84077687D01*
X202007936Y-84168899D01*
X201980677Y-84270632D01*
X201980677Y-84276846D01*
X201301201Y-83597370D01*
X201263396Y-83600346D01*
X201195018Y-83585982D01*
X201145261Y-83536931D01*
X201142787Y-83532242D01*
X201138778Y-83524235D01*
X201115491Y-83453959D01*
X201023389Y-83304637D01*
X200899333Y-83180581D01*
X200750011Y-83088479D01*
X200666172Y-83060697D01*
X200608728Y-83020925D01*
X200581905Y-82956409D01*
X200581177Y-82942992D01*
X200581177Y-81387699D01*
X200600862Y-81320660D01*
X200617496Y-81300018D01*
X203453838Y-78463676D01*
X203515161Y-78430191D01*
X203541519Y-78427357D01*
X210194489Y-78427357D01*
X210285533Y-78409246D01*
X210329821Y-78400437D01*
X210393562Y-78374034D01*
X210457300Y-78347634D01*
X210457301Y-78347633D01*
X210457304Y-78347632D01*
X210572036Y-78270971D01*
X218198163Y-70644843D01*
X218201747Y-70639480D01*
X218274825Y-70530111D01*
X218305757Y-70455434D01*
X218327630Y-70402629D01*
X218344165Y-70319500D01*
X218354550Y-70267293D01*
X218354550Y-44865057D01*
X218354550Y-44865054D01*
X218327631Y-44729727D01*
X218327630Y-44729726D01*
X218327630Y-44729722D01*
X218274825Y-44602239D01*
X218249909Y-44564949D01*
X218249909Y-44564948D01*
X218198164Y-44487506D01*
X218198161Y-44487503D01*
X217332178Y-43621521D01*
X217298693Y-43560198D01*
X217303677Y-43490507D01*
X217345549Y-43434573D01*
X217411013Y-43410156D01*
X217419859Y-43409840D01*
X217424425Y-43409840D01*
X217424426Y-43409839D01*
X217579078Y-43379077D01*
X217724760Y-43318734D01*
X217855870Y-43231129D01*
X217967370Y-43119629D01*
X218054975Y-42988519D01*
X218115318Y-42842837D01*
X218146081Y-42688182D01*
X218146081Y-42530498D01*
X218146081Y-42530495D01*
X218146080Y-42530493D01*
X218144907Y-42524594D01*
X218115318Y-42375843D01*
X218107840Y-42357790D01*
X218054978Y-42230167D01*
X218054971Y-42230154D01*
X217967370Y-42099051D01*
X217967367Y-42099047D01*
X217855873Y-41987553D01*
X217855869Y-41987550D01*
X217724766Y-41899949D01*
X217724753Y-41899942D01*
X217579082Y-41839604D01*
X217579070Y-41839601D01*
X217424426Y-41808840D01*
X217424423Y-41808840D01*
X217266739Y-41808840D01*
X217266736Y-41808840D01*
X217112091Y-41839601D01*
X217112079Y-41839604D01*
X216966408Y-41899942D01*
X216966395Y-41899949D01*
X216835292Y-41987550D01*
X216835288Y-41987553D01*
X216723794Y-42099047D01*
X216723791Y-42099051D01*
X216636190Y-42230154D01*
X216636183Y-42230167D01*
X216575845Y-42375838D01*
X216575842Y-42375850D01*
X216545081Y-42530493D01*
X216545081Y-42535062D01*
X216525396Y-42602101D01*
X216472592Y-42647856D01*
X216403434Y-42657800D01*
X216339878Y-42628775D01*
X216333400Y-42622743D01*
X214720507Y-41009850D01*
X214687022Y-40948527D01*
X214685715Y-40902771D01*
X214689095Y-40881434D01*
X214710500Y-40746287D01*
X214710500Y-40533713D01*
X214677246Y-40323757D01*
X214611557Y-40121588D01*
X214515051Y-39932184D01*
X214515049Y-39932181D01*
X214515048Y-39932179D01*
X214390109Y-39760213D01*
X214239786Y-39609890D01*
X214067817Y-39484949D01*
X214058504Y-39480204D01*
X214007707Y-39432230D01*
X213990912Y-39364409D01*
X214013449Y-39298274D01*
X214058507Y-39259232D01*
X214067555Y-39254622D01*
X214121716Y-39215270D01*
X214121717Y-39215270D01*
X213489408Y-38582962D01*
X213552993Y-38565925D01*
X213667007Y-38500099D01*
X213760099Y-38407007D01*
X213825925Y-38292993D01*
X213842962Y-38229408D01*
X214475270Y-38861717D01*
X214475270Y-38861716D01*
X214514622Y-38807554D01*
X214611095Y-38618217D01*
X214676757Y-38416130D01*
X214676757Y-38416127D01*
X214710000Y-38206246D01*
X214710000Y-37993753D01*
X214676757Y-37783872D01*
X214676757Y-37783869D01*
X214611095Y-37581782D01*
X214514624Y-37392449D01*
X214475270Y-37338282D01*
X214475269Y-37338282D01*
X213842962Y-37970590D01*
X213825925Y-37907007D01*
X213760099Y-37792993D01*
X213667007Y-37699901D01*
X213552993Y-37634075D01*
X213489409Y-37617037D01*
X214121716Y-36984728D01*
X214067550Y-36945375D01*
X213878217Y-36848904D01*
X213676129Y-36783242D01*
X213466246Y-36750000D01*
X213253754Y-36750000D01*
X213043872Y-36783242D01*
X213043869Y-36783242D01*
X212841782Y-36848904D01*
X212652439Y-36945380D01*
X212598282Y-36984727D01*
X212598282Y-36984728D01*
X213230591Y-37617037D01*
X213167007Y-37634075D01*
X213052993Y-37699901D01*
X212959901Y-37792993D01*
X212894075Y-37907007D01*
X212877037Y-37970590D01*
X212207642Y-37301196D01*
X212174319Y-37240609D01*
X212135527Y-37067364D01*
X212113354Y-37007913D01*
X212113350Y-37007906D01*
X212027190Y-36892812D01*
X212027187Y-36892809D01*
X211912093Y-36806649D01*
X211912086Y-36806645D01*
X211777379Y-36756403D01*
X211777372Y-36756401D01*
X211717844Y-36750000D01*
X211070000Y-36750000D01*
X211070000Y-37666988D01*
X211012993Y-37634075D01*
X210885826Y-37600000D01*
X210754174Y-37600000D01*
X210627007Y-37634075D01*
X210570000Y-37666988D01*
X210570000Y-36750000D01*
X209922155Y-36750000D01*
X209862627Y-36756401D01*
X209862620Y-36756403D01*
X209727913Y-36806645D01*
X209727906Y-36806649D01*
X209612812Y-36892809D01*
X209612809Y-36892812D01*
X209526649Y-37007906D01*
X209526645Y-37007913D01*
X209476403Y-37142620D01*
X209476401Y-37142627D01*
X209470000Y-37202155D01*
X209470000Y-37850000D01*
X210386988Y-37850000D01*
X210354075Y-37907007D01*
X210320000Y-38034174D01*
X210320000Y-38165826D01*
X210354075Y-38292993D01*
X210386988Y-38350000D01*
X209470000Y-38350000D01*
X209470000Y-38997844D01*
X209476401Y-39057372D01*
X209476403Y-39057379D01*
X209526645Y-39192086D01*
X209526649Y-39192093D01*
X209612809Y-39307187D01*
X209612812Y-39307190D01*
X209727906Y-39393350D01*
X209727913Y-39393354D01*
X209859470Y-39442422D01*
X209915404Y-39484293D01*
X209939821Y-39549758D01*
X209924969Y-39618031D01*
X209903819Y-39646285D01*
X209789889Y-39760215D01*
X209664951Y-39932179D01*
X209568444Y-40121585D01*
X209502753Y-40323760D01*
X209469500Y-40533713D01*
X209469500Y-40746286D01*
X209498987Y-40932464D01*
X209502754Y-40956243D01*
X209523492Y-41020069D01*
X209568444Y-41158414D01*
X209664951Y-41347820D01*
X209789890Y-41519786D01*
X209940213Y-41670109D01*
X210112182Y-41795050D01*
X210120946Y-41799516D01*
X210171742Y-41847491D01*
X210188536Y-41915312D01*
X210165998Y-41981447D01*
X210120946Y-42020484D01*
X210112182Y-42024949D01*
X209940213Y-42149890D01*
X209789890Y-42300213D01*
X209664951Y-42472179D01*
X209568444Y-42661585D01*
X209502753Y-42863760D01*
X209469500Y-43073713D01*
X209469500Y-43286286D01*
X209501845Y-43490507D01*
X209502754Y-43496243D01*
X209559449Y-43670732D01*
X209568444Y-43698414D01*
X209664951Y-43887820D01*
X209789890Y-44059786D01*
X209940213Y-44210109D01*
X210112182Y-44335050D01*
X210120946Y-44339516D01*
X210171742Y-44387491D01*
X210188536Y-44455312D01*
X210165998Y-44521447D01*
X210120946Y-44560484D01*
X210112182Y-44564949D01*
X209940213Y-44689890D01*
X209789890Y-44840213D01*
X209664951Y-45012179D01*
X209568444Y-45201585D01*
X209502753Y-45403760D01*
X209469500Y-45613713D01*
X209469500Y-45826286D01*
X209502753Y-46036239D01*
X209502753Y-46036241D01*
X209502754Y-46036243D01*
X209564814Y-46227244D01*
X209568444Y-46238414D01*
X209664951Y-46427820D01*
X209789890Y-46599786D01*
X209940213Y-46750109D01*
X210112182Y-46875050D01*
X210120946Y-46879516D01*
X210171742Y-46927491D01*
X210188536Y-46995312D01*
X210165998Y-47061447D01*
X210120946Y-47100484D01*
X210112182Y-47104949D01*
X209940213Y-47229890D01*
X209789890Y-47380213D01*
X209664951Y-47552179D01*
X209568444Y-47741585D01*
X209502753Y-47943760D01*
X209469500Y-48153713D01*
X209469500Y-48366286D01*
X209500196Y-48560097D01*
X209502754Y-48576243D01*
X209540134Y-48691287D01*
X209568444Y-48778414D01*
X209664951Y-48967820D01*
X209789890Y-49139786D01*
X209940213Y-49290109D01*
X210112182Y-49415050D01*
X210120946Y-49419516D01*
X210171742Y-49467491D01*
X210188536Y-49535312D01*
X210165998Y-49601447D01*
X210120946Y-49640484D01*
X210112182Y-49644949D01*
X209940213Y-49769890D01*
X209789890Y-49920213D01*
X209664948Y-50092184D01*
X209664947Y-50092185D01*
X209644765Y-50131795D01*
X209596791Y-50182591D01*
X209534281Y-50199500D01*
X203500097Y-50199500D01*
X203433058Y-50179815D01*
X203412416Y-50163181D01*
X198607590Y-45358355D01*
X198607588Y-45358352D01*
X198488717Y-45239481D01*
X198488716Y-45239480D01*
X198401904Y-45189360D01*
X198401904Y-45189359D01*
X198401900Y-45189358D01*
X198351785Y-45160423D01*
X198199057Y-45119499D01*
X198040943Y-45119499D01*
X198033347Y-45119499D01*
X198033331Y-45119500D01*
X195291796Y-45119500D01*
X195133681Y-45119500D01*
X194980954Y-45160423D01*
X194980953Y-45160423D01*
X194980951Y-45160424D01*
X194980948Y-45160425D01*
X194930835Y-45189359D01*
X194930834Y-45189360D01*
X194887428Y-45214420D01*
X194844024Y-45239479D01*
X194844021Y-45239481D01*
X194732217Y-45351286D01*
X194019259Y-46064243D01*
X193989560Y-46080459D01*
X193960094Y-46097239D01*
X193958944Y-46097177D01*
X193957936Y-46097728D01*
X193924172Y-46095313D01*
X193890325Y-46093499D01*
X193889391Y-46092826D01*
X193888244Y-46092744D01*
X193861125Y-46072442D01*
X193833653Y-46052632D01*
X193833231Y-46051561D01*
X193832311Y-46050872D01*
X193820480Y-46019152D01*
X193808071Y-45987614D01*
X193808152Y-45986100D01*
X193807894Y-45985408D01*
X193809961Y-45952370D01*
X193814315Y-45930484D01*
X193839118Y-45805791D01*
X193840638Y-45798149D01*
X193873023Y-45736238D01*
X193874517Y-45734717D01*
X195938506Y-43670727D01*
X195938511Y-43670724D01*
X195948714Y-43660520D01*
X195948716Y-43660520D01*
X196060520Y-43548716D01*
X196139577Y-43411784D01*
X196180500Y-43259057D01*
X196180500Y-37018122D01*
X201288874Y-37018122D01*
X201288874Y-38218140D01*
X201288875Y-38218157D01*
X201299374Y-38320935D01*
X201299375Y-38320938D01*
X201322231Y-38389911D01*
X201354560Y-38487473D01*
X201446662Y-38636795D01*
X201570718Y-38760851D01*
X201720040Y-38852953D01*
X201886577Y-38908138D01*
X201989365Y-38918639D01*
X203189382Y-38918638D01*
X203292171Y-38908138D01*
X203458708Y-38852953D01*
X203608030Y-38760851D01*
X203732086Y-38636795D01*
X203824188Y-38487473D01*
X203847476Y-38417193D01*
X203851484Y-38409189D01*
X203869434Y-38389911D01*
X203884429Y-38368255D01*
X203892869Y-38364745D01*
X203899099Y-38358056D01*
X203924623Y-38351543D01*
X203948945Y-38341431D01*
X203965208Y-38341187D01*
X203966799Y-38340782D01*
X203967897Y-38341147D01*
X203972093Y-38341085D01*
X204009899Y-38344060D01*
X204689374Y-37664585D01*
X204689374Y-37670800D01*
X204716633Y-37772533D01*
X204769294Y-37863745D01*
X204843768Y-37938219D01*
X204934980Y-37990880D01*
X205036713Y-38018139D01*
X205042927Y-38018139D01*
X204363450Y-38697613D01*
X204408024Y-38729998D01*
X204590342Y-38822894D01*
X204784956Y-38886129D01*
X204987057Y-38918139D01*
X205191691Y-38918139D01*
X205393791Y-38886129D01*
X205588405Y-38822894D01*
X205770723Y-38729998D01*
X205815295Y-38697613D01*
X205135821Y-38018139D01*
X205142035Y-38018139D01*
X205243768Y-37990880D01*
X205334980Y-37938219D01*
X205409454Y-37863745D01*
X205462115Y-37772533D01*
X205489374Y-37670800D01*
X205489374Y-37664586D01*
X206168848Y-38344060D01*
X206201233Y-38299488D01*
X206294129Y-38117170D01*
X206357364Y-37922556D01*
X206389374Y-37720456D01*
X206389374Y-37515821D01*
X206357363Y-37313720D01*
X206357363Y-37313717D01*
X206332491Y-37237169D01*
X206294129Y-37119107D01*
X206201233Y-36936789D01*
X206168848Y-36892216D01*
X206168848Y-36892215D01*
X205489374Y-37571690D01*
X205489374Y-37565478D01*
X205462115Y-37463745D01*
X205409454Y-37372533D01*
X205334980Y-37298059D01*
X205243768Y-37245398D01*
X205142035Y-37218139D01*
X205135820Y-37218139D01*
X205815296Y-36538663D01*
X205815295Y-36538662D01*
X205770733Y-36506286D01*
X205770724Y-36506280D01*
X205588405Y-36413383D01*
X205393791Y-36350148D01*
X205191691Y-36318139D01*
X204987057Y-36318139D01*
X204784956Y-36350148D01*
X204590342Y-36413383D01*
X204408018Y-36506282D01*
X204363451Y-36538662D01*
X204363451Y-36538663D01*
X205042928Y-37218139D01*
X205036713Y-37218139D01*
X204934980Y-37245398D01*
X204843768Y-37298059D01*
X204769294Y-37372533D01*
X204716633Y-37463745D01*
X204689374Y-37565478D01*
X204689374Y-37571692D01*
X204009898Y-36892216D01*
X203972093Y-36895192D01*
X203903715Y-36880828D01*
X203853958Y-36831777D01*
X203851484Y-36827088D01*
X203847475Y-36819081D01*
X203824188Y-36748805D01*
X203732086Y-36599483D01*
X203608030Y-36475427D01*
X203458708Y-36383325D01*
X203292171Y-36328140D01*
X203292169Y-36328139D01*
X203189384Y-36317639D01*
X201989372Y-36317639D01*
X201989355Y-36317640D01*
X201886577Y-36328139D01*
X201886574Y-36328140D01*
X201720042Y-36383324D01*
X201720037Y-36383326D01*
X201570716Y-36475428D01*
X201446663Y-36599481D01*
X201354561Y-36748802D01*
X201354559Y-36748807D01*
X201337730Y-36799593D01*
X201299375Y-36915342D01*
X201299375Y-36915343D01*
X201299374Y-36915343D01*
X201288874Y-37018122D01*
X196180500Y-37018122D01*
X196180500Y-34305718D01*
X196200185Y-34238679D01*
X196248207Y-34195233D01*
X196287815Y-34175052D01*
X196287815Y-34175051D01*
X196287816Y-34175051D01*
X196429257Y-34072289D01*
X196459786Y-34050109D01*
X196459788Y-34050106D01*
X196459792Y-34050104D01*
X196610104Y-33899792D01*
X196610106Y-33899788D01*
X196610109Y-33899786D01*
X196695890Y-33781717D01*
X196735051Y-33727816D01*
X196739793Y-33718508D01*
X196787763Y-33667711D01*
X196855583Y-33650911D01*
X196921719Y-33673445D01*
X196960763Y-33718500D01*
X196965373Y-33727547D01*
X197004728Y-33781716D01*
X197637037Y-33149408D01*
X197654075Y-33212993D01*
X197719901Y-33327007D01*
X197812993Y-33420099D01*
X197927007Y-33485925D01*
X197990590Y-33502962D01*
X197358282Y-34135269D01*
X197358282Y-34135270D01*
X197412449Y-34174624D01*
X197601782Y-34271095D01*
X197803870Y-34336757D01*
X198013754Y-34370000D01*
X198226246Y-34370000D01*
X198436127Y-34336757D01*
X198436130Y-34336757D01*
X198638217Y-34271095D01*
X198827554Y-34174622D01*
X198881716Y-34135270D01*
X198881717Y-34135270D01*
X198249408Y-33502962D01*
X198312993Y-33485925D01*
X198427007Y-33420099D01*
X198520099Y-33327007D01*
X198585925Y-33212993D01*
X198602962Y-33149408D01*
X199235270Y-33781717D01*
X199235270Y-33781716D01*
X199274622Y-33727554D01*
X199371095Y-33538217D01*
X199436757Y-33336130D01*
X199436757Y-33336127D01*
X199470000Y-33126246D01*
X199470000Y-32913753D01*
X199436757Y-32703872D01*
X199436757Y-32703869D01*
X199371095Y-32501782D01*
X199274624Y-32312449D01*
X199235270Y-32258282D01*
X199235269Y-32258282D01*
X198602962Y-32890590D01*
X198585925Y-32827007D01*
X198520099Y-32712993D01*
X198427007Y-32619901D01*
X198312993Y-32554075D01*
X198249409Y-32537037D01*
X198881716Y-31904728D01*
X198827550Y-31865375D01*
X198638217Y-31768904D01*
X198436129Y-31703242D01*
X198226246Y-31670000D01*
X198013754Y-31670000D01*
X197803872Y-31703242D01*
X197803869Y-31703242D01*
X197601782Y-31768904D01*
X197412439Y-31865380D01*
X197358282Y-31904727D01*
X197358282Y-31904728D01*
X197990591Y-32537037D01*
X197927007Y-32554075D01*
X197812993Y-32619901D01*
X197719901Y-32712993D01*
X197654075Y-32827007D01*
X197637037Y-32890591D01*
X197004728Y-32258282D01*
X197004727Y-32258282D01*
X196965380Y-32312440D01*
X196965376Y-32312446D01*
X196960760Y-32321505D01*
X196912781Y-32372297D01*
X196844959Y-32389087D01*
X196778826Y-32366543D01*
X196739794Y-32321493D01*
X196735051Y-32312184D01*
X196735049Y-32312181D01*
X196735048Y-32312179D01*
X196610109Y-32140213D01*
X196459786Y-31989890D01*
X196287820Y-31864951D01*
X196098414Y-31768444D01*
X196098413Y-31768443D01*
X196098412Y-31768443D01*
X195896243Y-31702754D01*
X195896241Y-31702753D01*
X195896240Y-31702753D01*
X195734957Y-31677208D01*
X195686287Y-31669500D01*
X195473713Y-31669500D01*
X195425042Y-31677208D01*
X195263760Y-31702753D01*
X195061585Y-31768444D01*
X194872179Y-31864951D01*
X194700213Y-31989890D01*
X194549890Y-32140213D01*
X194424949Y-32312182D01*
X194420484Y-32320946D01*
X194372509Y-32371742D01*
X194304688Y-32388536D01*
X194238553Y-32365998D01*
X194199516Y-32320946D01*
X194195050Y-32312182D01*
X194070109Y-32140213D01*
X193919786Y-31989890D01*
X193747820Y-31864951D01*
X193558414Y-31768444D01*
X193558413Y-31768443D01*
X193558412Y-31768443D01*
X193356243Y-31702754D01*
X193356241Y-31702753D01*
X193356240Y-31702753D01*
X193194957Y-31677208D01*
X193146287Y-31669500D01*
X192933713Y-31669500D01*
X192885042Y-31677208D01*
X192723760Y-31702753D01*
X192521585Y-31768444D01*
X192332179Y-31864951D01*
X192160213Y-31989890D01*
X192009890Y-32140213D01*
X191884949Y-32312182D01*
X191880484Y-32320946D01*
X191832509Y-32371742D01*
X191764688Y-32388536D01*
X191698553Y-32365998D01*
X191659516Y-32320946D01*
X191655050Y-32312182D01*
X191530109Y-32140213D01*
X191379786Y-31989890D01*
X191207820Y-31864951D01*
X191018414Y-31768444D01*
X191018413Y-31768443D01*
X191018412Y-31768443D01*
X190816243Y-31702754D01*
X190816241Y-31702753D01*
X190816240Y-31702753D01*
X190654957Y-31677208D01*
X190606287Y-31669500D01*
X190393713Y-31669500D01*
X190345042Y-31677208D01*
X190183760Y-31702753D01*
X189981585Y-31768444D01*
X189792179Y-31864951D01*
X189620213Y-31989890D01*
X189469890Y-32140213D01*
X189344949Y-32312182D01*
X189340484Y-32320946D01*
X189292509Y-32371742D01*
X189224688Y-32388536D01*
X189158553Y-32365998D01*
X189119516Y-32320946D01*
X189115050Y-32312182D01*
X188990109Y-32140213D01*
X188839786Y-31989890D01*
X188667820Y-31864951D01*
X188478414Y-31768444D01*
X188478413Y-31768443D01*
X188478412Y-31768443D01*
X188276243Y-31702754D01*
X188276241Y-31702753D01*
X188276240Y-31702753D01*
X188114957Y-31677208D01*
X188066287Y-31669500D01*
X187853713Y-31669500D01*
X187805042Y-31677208D01*
X187643760Y-31702753D01*
X187441585Y-31768444D01*
X187252179Y-31864951D01*
X187080215Y-31989889D01*
X186966673Y-32103431D01*
X186905350Y-32136915D01*
X186835658Y-32131931D01*
X186779725Y-32090059D01*
X186762810Y-32059082D01*
X186713797Y-31927671D01*
X186713793Y-31927664D01*
X186627547Y-31812455D01*
X186627544Y-31812452D01*
X186512335Y-31726206D01*
X186512328Y-31726202D01*
X186377482Y-31675908D01*
X186377483Y-31675908D01*
X186317883Y-31669501D01*
X186317881Y-31669500D01*
X186317873Y-31669500D01*
X186317864Y-31669500D01*
X184522129Y-31669500D01*
X184522123Y-31669501D01*
X184462516Y-31675908D01*
X184327671Y-31726202D01*
X184327664Y-31726206D01*
X184212455Y-31812452D01*
X184212452Y-31812455D01*
X184126206Y-31927664D01*
X184126202Y-31927671D01*
X184075908Y-32062517D01*
X184069501Y-32122116D01*
X184069500Y-32122135D01*
X184069500Y-33469902D01*
X184049815Y-33536941D01*
X184033181Y-33557583D01*
X183669481Y-33921282D01*
X183669479Y-33921285D01*
X183660655Y-33936569D01*
X183631535Y-33987007D01*
X183590423Y-34058215D01*
X183549499Y-34210943D01*
X183549499Y-34210945D01*
X183549499Y-34379046D01*
X183549500Y-34379059D01*
X183549500Y-36240139D01*
X183529815Y-36307178D01*
X183477011Y-36352933D01*
X183407853Y-36362877D01*
X183344297Y-36333852D01*
X183337819Y-36327820D01*
X181591933Y-34581935D01*
X181591931Y-34581932D01*
X181473060Y-34463061D01*
X181473059Y-34463060D01*
X181386247Y-34412940D01*
X181386247Y-34412939D01*
X181386243Y-34412938D01*
X181336128Y-34384003D01*
X181183400Y-34343079D01*
X181025286Y-34343079D01*
X181017690Y-34343079D01*
X181017674Y-34343080D01*
X178658178Y-34343080D01*
X178591139Y-34323395D01*
X178545384Y-34270591D01*
X178535440Y-34201433D01*
X178564465Y-34137877D01*
X178585293Y-34118762D01*
X178679785Y-34050109D01*
X178679783Y-34050109D01*
X178679792Y-34050104D01*
X178830104Y-33899792D01*
X178830106Y-33899788D01*
X178830109Y-33899786D01*
X178955048Y-33727820D01*
X178955047Y-33727820D01*
X178955051Y-33727816D01*
X179051557Y-33538412D01*
X179117246Y-33336243D01*
X179150500Y-33126287D01*
X179150500Y-32913713D01*
X179117246Y-32703757D01*
X179051557Y-32501588D01*
X178955051Y-32312184D01*
X178955049Y-32312181D01*
X178955048Y-32312179D01*
X178830109Y-32140213D01*
X178679786Y-31989890D01*
X178507820Y-31864951D01*
X178318414Y-31768444D01*
X178318413Y-31768443D01*
X178318412Y-31768443D01*
X178116243Y-31702754D01*
X178116241Y-31702753D01*
X178116240Y-31702753D01*
X177954957Y-31677208D01*
X177906287Y-31669500D01*
X177693713Y-31669500D01*
X177645042Y-31677208D01*
X177483760Y-31702753D01*
X177281585Y-31768444D01*
X177092179Y-31864951D01*
X176920213Y-31989890D01*
X176769890Y-32140213D01*
X176644949Y-32312182D01*
X176640484Y-32320946D01*
X176592509Y-32371742D01*
X176524688Y-32388536D01*
X176458553Y-32365998D01*
X176419516Y-32320946D01*
X176415050Y-32312182D01*
X176290109Y-32140213D01*
X176139786Y-31989890D01*
X175967820Y-31864951D01*
X175778414Y-31768444D01*
X175778413Y-31768443D01*
X175778412Y-31768443D01*
X175576243Y-31702754D01*
X175576241Y-31702753D01*
X175576240Y-31702753D01*
X175414957Y-31677208D01*
X175366287Y-31669500D01*
X175153713Y-31669500D01*
X175105042Y-31677208D01*
X174943760Y-31702753D01*
X174741585Y-31768444D01*
X174552179Y-31864951D01*
X174380215Y-31989889D01*
X174266673Y-32103431D01*
X174205350Y-32136915D01*
X174135658Y-32131931D01*
X174079725Y-32090059D01*
X174062810Y-32059082D01*
X174013797Y-31927671D01*
X174013793Y-31927664D01*
X173927547Y-31812455D01*
X173927544Y-31812452D01*
X173812335Y-31726206D01*
X173812328Y-31726202D01*
X173677482Y-31675908D01*
X173677483Y-31675908D01*
X173617883Y-31669501D01*
X173617881Y-31669500D01*
X173617873Y-31669500D01*
X173617864Y-31669500D01*
X171822129Y-31669500D01*
X171822123Y-31669501D01*
X171762516Y-31675908D01*
X171627671Y-31726202D01*
X171627664Y-31726206D01*
X171512455Y-31812452D01*
X171512452Y-31812455D01*
X171426206Y-31927664D01*
X171426202Y-31927671D01*
X171375908Y-32062517D01*
X171369501Y-32122116D01*
X171369500Y-32122135D01*
X171369500Y-33917870D01*
X171369501Y-33917876D01*
X171375908Y-33977483D01*
X171426202Y-34112328D01*
X171426204Y-34112331D01*
X171450487Y-34144769D01*
X171474904Y-34210233D01*
X171460052Y-34278506D01*
X171410647Y-34327912D01*
X171351220Y-34343080D01*
X166118680Y-34343080D01*
X166118664Y-34343079D01*
X166111068Y-34343079D01*
X165952954Y-34343079D01*
X165855993Y-34369060D01*
X165800221Y-34384004D01*
X165800220Y-34384005D01*
X165750107Y-34412939D01*
X165750106Y-34412940D01*
X165709404Y-34436439D01*
X165663296Y-34463059D01*
X165663293Y-34463061D01*
X165551489Y-34574866D01*
X159203933Y-40922423D01*
X159142610Y-40955908D01*
X159116252Y-40958742D01*
X157044418Y-40958742D01*
X156977379Y-40939057D01*
X156975528Y-40937845D01*
X156967478Y-40932466D01*
X156967477Y-40932465D01*
X156967475Y-40932464D01*
X156967472Y-40932462D01*
X156967467Y-40932460D01*
X156821797Y-40872122D01*
X156821785Y-40872119D01*
X156667141Y-40841358D01*
X156667138Y-40841358D01*
X156509454Y-40841358D01*
X156509451Y-40841358D01*
X156354806Y-40872119D01*
X156354794Y-40872122D01*
X156209123Y-40932460D01*
X156209110Y-40932467D01*
X156078007Y-41020068D01*
X156078003Y-41020071D01*
X155966509Y-41131565D01*
X155966506Y-41131569D01*
X155878905Y-41262672D01*
X155878898Y-41262685D01*
X155818560Y-41408356D01*
X155818557Y-41408368D01*
X155787796Y-41563011D01*
X143500500Y-41563011D01*
X143500500Y-32348468D01*
X143851256Y-32348468D01*
X143851256Y-32633699D01*
X143883189Y-32917112D01*
X143883191Y-32917124D01*
X143946659Y-33195199D01*
X143946662Y-33195207D01*
X144040863Y-33464416D01*
X144164614Y-33721387D01*
X144164616Y-33721390D01*
X144316363Y-33962895D01*
X144494197Y-34185891D01*
X144695879Y-34387573D01*
X144918875Y-34565407D01*
X145160380Y-34717154D01*
X145417357Y-34840908D01*
X145619546Y-34911657D01*
X145686562Y-34935107D01*
X145686570Y-34935110D01*
X145686573Y-34935110D01*
X145686574Y-34935111D01*
X145964645Y-34998579D01*
X146248071Y-35030513D01*
X146248072Y-35030514D01*
X146248075Y-35030514D01*
X146533300Y-35030514D01*
X146533300Y-35030513D01*
X146816727Y-34998579D01*
X147094798Y-34935111D01*
X147364015Y-34840908D01*
X147620992Y-34717154D01*
X147862497Y-34565407D01*
X148085493Y-34387573D01*
X148287175Y-34185891D01*
X148465009Y-33962895D01*
X148616756Y-33721390D01*
X148740510Y-33464413D01*
X148772612Y-33372670D01*
X151245193Y-33372670D01*
X151245193Y-33585243D01*
X151267774Y-33727818D01*
X151278447Y-33795200D01*
X151340769Y-33987008D01*
X151344137Y-33997371D01*
X151440644Y-34186777D01*
X151565583Y-34358743D01*
X151715906Y-34509066D01*
X151887872Y-34634005D01*
X151887874Y-34634006D01*
X151887877Y-34634008D01*
X152077281Y-34730514D01*
X152279450Y-34796203D01*
X152489406Y-34829457D01*
X152489407Y-34829457D01*
X152701979Y-34829457D01*
X152701980Y-34829457D01*
X152911936Y-34796203D01*
X153114105Y-34730514D01*
X153303509Y-34634008D01*
X153475485Y-34509061D01*
X153589022Y-34395523D01*
X153650341Y-34362041D01*
X153720033Y-34367025D01*
X153775967Y-34408896D01*
X153792882Y-34439874D01*
X153841895Y-34571285D01*
X153841899Y-34571292D01*
X153928145Y-34686501D01*
X153928148Y-34686504D01*
X154043357Y-34772750D01*
X154043364Y-34772754D01*
X154178210Y-34823048D01*
X154178209Y-34823048D01*
X154185137Y-34823792D01*
X154237820Y-34829457D01*
X156033565Y-34829456D01*
X156093176Y-34823048D01*
X156228024Y-34772753D01*
X156343239Y-34686503D01*
X156429489Y-34571288D01*
X156479784Y-34436440D01*
X156486193Y-34376830D01*
X156486192Y-32581085D01*
X156479784Y-32521474D01*
X156479234Y-32520000D01*
X156429490Y-32386628D01*
X156429486Y-32386621D01*
X156343240Y-32271412D01*
X156343237Y-32271409D01*
X156228028Y-32185163D01*
X156228021Y-32185159D01*
X156093175Y-32134865D01*
X156093176Y-32134865D01*
X156033576Y-32128458D01*
X156033574Y-32128457D01*
X156033566Y-32128457D01*
X156033557Y-32128457D01*
X154237822Y-32128457D01*
X154237816Y-32128458D01*
X154178209Y-32134865D01*
X154043364Y-32185159D01*
X154043357Y-32185163D01*
X153928148Y-32271409D01*
X153928145Y-32271412D01*
X153841899Y-32386621D01*
X153841896Y-32386626D01*
X153792882Y-32518040D01*
X153751010Y-32573973D01*
X153685546Y-32598390D01*
X153617273Y-32583538D01*
X153589019Y-32562387D01*
X153475479Y-32448847D01*
X153303513Y-32323908D01*
X153114107Y-32227401D01*
X153114106Y-32227400D01*
X153114105Y-32227400D01*
X152911936Y-32161711D01*
X152911934Y-32161710D01*
X152911933Y-32161710D01*
X152750650Y-32136165D01*
X152701980Y-32128457D01*
X152489406Y-32128457D01*
X152440735Y-32136165D01*
X152279453Y-32161710D01*
X152077278Y-32227401D01*
X151887872Y-32323908D01*
X151715906Y-32448847D01*
X151565583Y-32599170D01*
X151440644Y-32771136D01*
X151344137Y-32960542D01*
X151278446Y-33162717D01*
X151245193Y-33372670D01*
X148772612Y-33372670D01*
X148785399Y-33336127D01*
X148788648Y-33326843D01*
X148819141Y-33239697D01*
X148834713Y-33195196D01*
X148898181Y-32917125D01*
X148930116Y-32633695D01*
X148930116Y-32348473D01*
X148898181Y-32065043D01*
X148834713Y-31786972D01*
X148828229Y-31768443D01*
X148805244Y-31702754D01*
X148740510Y-31517755D01*
X148616756Y-31260778D01*
X148465009Y-31019273D01*
X148287175Y-30796277D01*
X148085493Y-30594595D01*
X148062979Y-30576641D01*
X148028860Y-30549432D01*
X147862497Y-30416761D01*
X147620992Y-30265014D01*
X147620989Y-30265012D01*
X147364018Y-30141261D01*
X147094809Y-30047060D01*
X147094801Y-30047057D01*
X146886244Y-29999456D01*
X146816727Y-29983589D01*
X146816723Y-29983588D01*
X146816714Y-29983587D01*
X146533301Y-29951654D01*
X146533297Y-29951654D01*
X146248075Y-29951654D01*
X146248070Y-29951654D01*
X145964657Y-29983587D01*
X145964645Y-29983589D01*
X145686570Y-30047057D01*
X145686562Y-30047060D01*
X145417353Y-30141261D01*
X145160382Y-30265012D01*
X144918876Y-30416760D01*
X144695879Y-30594594D01*
X144494196Y-30796277D01*
X144316362Y-31019274D01*
X144164614Y-31260780D01*
X144040863Y-31517751D01*
X143946662Y-31786960D01*
X143946659Y-31786968D01*
X143883191Y-32065043D01*
X143883189Y-32065055D01*
X143851256Y-32348468D01*
X143500500Y-32348468D01*
X143500500Y-27624500D01*
X143520185Y-27557461D01*
X143572989Y-27511706D01*
X143624500Y-27500500D01*
X223375500Y-27500500D01*
X223442539Y-27520185D01*
G37*
%TD.AperFunction*%
%TD*%
M02*
